<?xml version="1.0" encoding="utf-8"?>
<!-- Generator: Adobe Illustrator 21.1.0, SVG Export Plug-In . SVG Version: 6.00 Build 0)  -->
<svg version="1.1" id="Layer_1" xmlns="http://www.w3.org/2000/svg" xmlns:xlink="http://www.w3.org/1999/xlink" x="0px" y="0px"
	 viewBox="0 0 432 414" style="enable-background:new 0 0 432 414;" xml:space="preserve">
<style type="text/css">
	.st0{fill:#1D4E7C;}
	.st1{fill:url(#SVGID_1_);}
	.st2{fill:url(#SVGID_2_);}
	.st3{fill:url(#SVGID_3_);}
	.st4{fill:url(#SVGID_4_);}
	.st5{fill:url(#SVGID_5_);}
	.st6{fill:url(#SVGID_6_);}
	.st7{fill:url(#SVGID_7_);}
	.st8{fill:url(#SVGID_8_);}
	.st9{fill:#FFFFFF;}
	.st10{fill:#2E2E2E;}
	.st11{fill:#FEFEFE;}
</style>
<g>
	<path class="st10" d="M416.9,167.8c-0.3-3.7-0.4-7.4-1.5-11c-1.9-6.2-4.4-12.1-7.8-17.5c-8.4-13.1-19.7-22.7-34.7-27.7
		c-7.1-2.4-14.4-3.4-21.8-4.4c-3.9-0.5-5-1.8-5.5-5.7c-1.3-9.3-2.1-18.6-4.7-27.7c-4.6-16.4-12.5-30.9-25.8-41.8
		c-15-12.3-31.8-20.2-51.7-19.9c-2.4,0-4.7,0-7.1,0c-5,0-9.9,0-14.7,1.4c-21.7,6.4-38.7,19-50.7,38.3c-3.5,5.7-6.5,11.6-9.2,17.7
		c-2,4.3-2.6,4.5-7.1,3.5c-9.7-2.1-19.3-4.1-29.4-3.1c-15.7,1.6-29.1,7.9-39.9,19.2C94.8,99.9,89,113.2,86.8,128.1
		c-0.9,6.3-1.8,12.6-2.7,18.8c-0.2,1.8-1,2.5-3,2.2c-3.2-0.6-6.4-0.9-9.6-1.5c-6.7-1.3-13.5-2.1-20.3-0.8
		c-10.9,2-19.9,7.2-26.8,15.9c-6.6,8.3-11.8,17.3-11.4,28.4c0,2.5,0,5,0,7.6c-0.1,4.8,0.5,9.5,2.4,14.1
		c4.3,10.7,10.5,19.8,20.7,25.7c8.4,4.9,17.5,6.5,27,6.5c39.7,0.1,79.3,0,119,0c0.9,0,1.8-0.2,2.8,0.3c-3.4,4.2-6.8,8.2-10.1,12.3
		c-7.1,8.5-14.2,17-21.3,25.5c-2.4,2.9-2,4.1,1.6,5.2c0.3,0.1,0.6,0.2,0.9,0.3c24.8,7.2,49.7,14.4,74.5,21.6c4,1.1,4,1.1,2.3,5
		c-11.8,27.5-23.6,55.1-35.4,82.7c-0.4,0.9-0.9,1.8-1,2.8c-0.1,0.5-0.1,1.1,0.4,1.5c0.6,0.3,1.1,0,1.5-0.4c1.1-1,2-2.1,2.9-3.3
		c12-14.7,24-29.4,36-44.1c18.4-22.4,36.8-44.9,55.2-67.4c2.7-3.3,2.4-4.3-1.8-5.4c-9.8-2.7-19.6-5.4-29.3-8.1
		c-3-0.8-6.1-1.4-9.1-2.6c0.5-0.9,1.3-1.1,1.9-1.5c13.4-7.5,26.8-14.9,40.2-22.4c2.4-1.3,4.8-1.9,7.5-1.9c15.7,0.1,31.4,0.1,47.2,0
		c4.7,0,9.5-0.3,14.1-1.2c27.5-5.7,44.5-22.6,52.5-49.1c1.1-3.6,0.9-7.3,1.5-11c0-4.6,0-9.3,0-13.9
		C416.7,169.1,417,168.4,416.9,167.8z M122.2,197.3c-7,0-12.2-5.3-12.2-12.4c0-7,5.4-12.3,12.4-12.3c6.9,0,12.3,5.4,12.3,12.4
		C134.6,192,129.2,197.3,122.2,197.3z M201.1,196.4c-5.3-0.1-10.7-0.1-16,0c-1.3,0-1.7-0.4-1.6-1.7c0.2-1.9,0.2-3.8,0.4-5.8
		c-3.2,3.7-6.5,6.9-11.3,7.9c-8.3,1.8-16.3,1.4-23-4.4c-6-5.2-6.6-12.4-5-19.7c1.5-6.7,6.5-10.1,12.7-11.8c4-1.1,8.1-1.5,12.2-1.5
		c4.2,0,8.4-0.1,12.5,0c1.3,0,1.5-0.4,1.4-1.6c-0.9-6.3-5.2-9.3-12.3-8.5c-4,0.5-7.7,1.8-10.7,4.6c-0.9,0.8-1.5,1-2.4,0
		c-2.9-3.3-6-6.5-9.1-9.6c-1-1-0.4-1.4,0.2-2c3.4-3.2,7.2-5.9,11.7-7.2c8.3-2.5,16.7-3,25.1-0.3c9.6,3.1,14.7,10,16.4,19.7
		c0.4,2.4,0.5,4.8,0.5,7.2c0,10.9,0,21.8,0,32.7C203,195.9,202.6,196.4,201.1,196.4z M263.5,137c-1.8,5.1-3.6,10.2-5.3,15.3
		c-0.4,1.2-0.9,1.3-2,0.8c-2.5-1.2-5.2-1.6-7.9-1.3c-7,0.6-10.7,4.5-11.5,11.9c-0.8,7.7-0.2,15.5-0.4,23.2c0,2.7,0,5.4,0,8.1
		c0,1-0.3,1.3-1.3,1.3c-5.7,0-11.3-0.1-17,0c-1.2,0-1.4-0.5-1.4-1.5c0-19.7,0-39.3,0-59c0-1.1,0.3-1.4,1.4-1.4
		c5.6,0.1,11.1,0.1,16.7,0c1.3,0,1.5,0.5,1.5,1.6c-0.1,2.7,0,5.4,0,8.5c1-1.5,1.8-2.9,2.7-4.1c5.3-7.1,15.7-9.4,23.6-5.4
		C263.7,135.5,263.9,135.9,263.5,137z M327.3,146.5c-4,3.2-8,6.4-11.9,9.7c-1.1,1-1.5,0.3-2.1-0.5c-3.1-3.6-7.1-5.4-11.8-5.2
		c-9.8,0.4-13.8,8.7-12.8,17.1c0.9,7.3,4.7,11.9,10.8,12.8c5.2,0.8,9.9-0.3,13.7-4.1c1.4-1.4,2.2-1.2,3.5,0c3.2,3,6.5,5.9,9.9,8.7
		c1.3,1.1,1.5,1.6,0.2,3c-6.7,6.9-14.8,9.8-22.7,9.7c-18.1,0.2-31.1-9.6-34.7-24.8c-4.6-19.3,8.5-37.6,28.3-39.5
		c6.4-0.6,12.6-0.2,18.6,2.3c4.5,1.9,8.1,5,11.3,8.7C328.1,145.3,328.2,145.8,327.3,146.5z"/>
	<path class="st11" d="M202.9,161.7c0-2.4-0.1-4.8-0.5-7.2c-1.7-9.7-6.8-16.6-16.4-19.7c-8.4-2.7-16.8-2.1-25.1,0.3
		c-4.5,1.3-8.3,4-11.7,7.2c-0.6,0.6-1.2,1-0.2,2c3.1,3.1,6.1,6.4,9.1,9.6c0.9,1,1.5,0.8,2.4,0c3-2.7,6.7-4.1,10.7-4.6
		c7-0.8,11.4,2.2,12.3,8.5c0.2,1.2-0.1,1.6-1.4,1.6c-4.2-0.1-8.4,0-12.5,0c-4.1,0-8.2,0.3-12.2,1.5c-6.2,1.8-11.2,5.1-12.7,11.8
		c-1.6,7.3-1,14.4,5,19.7c6.7,5.8,14.8,6.2,23,4.4c4.8-1,8.1-4.3,11.3-7.9c-0.1,1.9-0.1,3.9-0.4,5.8c-0.2,1.3,0.3,1.7,1.6,1.7
		c5.3-0.1,10.7-0.1,16,0c1.5,0,1.9-0.4,1.9-1.9C202.9,183.5,202.9,172.6,202.9,161.7z M178,181.3c-3.6,1.4-7.4,1.5-11.2,0.4
		c-2.6-0.8-4-2.8-3.8-5.2c0.2-2.6,1.7-4.3,4.5-4.9c2.8-0.6,5.7-0.2,8-0.4c2.5,0,4.5,0,6.6,0c1,0,1.3,0.3,1.3,1.3
		C183.7,176.7,181.9,179.8,178,181.3z"/>
	<path class="st11" d="M316.1,135.8c-6-2.5-12.2-2.9-18.6-2.3c-19.8,1.9-32.9,20.1-28.3,39.5c3.6,15.2,16.6,24.9,34.7,24.8
		c7.9,0.1,16.1-2.8,22.7-9.7c1.3-1.3,1.1-1.9-0.2-3c-3.4-2.8-6.7-5.7-9.9-8.7c-1.3-1.2-2.1-1.5-3.5,0c-3.8,3.8-8.5,4.9-13.7,4.1
		c-6-0.9-9.9-5.4-10.8-12.8c-1-8.4,3-16.7,12.8-17.1c4.8-0.2,8.7,1.6,11.8,5.2c0.6,0.8,1,1.4,2.1,0.5c3.9-3.3,7.9-6.5,11.9-9.7
		c0.9-0.7,0.9-1.2,0.1-2C324.2,140.8,320.7,137.7,316.1,135.8z"/>
	<path class="st11" d="M262.8,135c-7.9-4-18.3-1.6-23.6,5.4c-0.9,1.2-1.7,2.5-2.7,4.1c0-3.1,0-5.8,0-8.5c0-1.1-0.2-1.6-1.5-1.6
		c-5.6,0.1-11.1,0.1-16.7,0c-1.1,0-1.4,0.3-1.4,1.4c0,19.7,0,39.3,0,59c0,1,0.1,1.5,1.4,1.5c5.7-0.1,11.3,0,17,0
		c1,0,1.3-0.3,1.3-1.3c-0.1-2.7-0.1-5.4,0-8.1c0.1-7.7-0.4-15.5,0.4-23.2c0.8-7.5,4.5-11.3,11.5-11.9c2.7-0.2,5.4,0.1,7.9,1.3
		c1.1,0.5,1.6,0.4,2-0.8c1.7-5.1,3.5-10.2,5.3-15.3C263.9,135.9,263.7,135.5,262.8,135z"/>
	<path class="st11" d="M122.3,172.6c-7,0-12.3,5.3-12.4,12.3c0,7,5.2,12.3,12.2,12.4c7,0,12.4-5.3,12.4-12.2
		C134.6,178.1,129.3,172.7,122.3,172.6z"/>
	<path class="st10" d="M182.1,171.2c-2,0.1-4,0-6.6,0c-2.3,0.1-5.2-0.3-8,0.4c-2.7,0.6-4.3,2.3-4.5,4.9c-0.2,2.4,1.2,4.4,3.8,5.2
		c3.7,1.1,7.5,1,11.2-0.4c3.9-1.5,5.7-4.6,5.4-8.7C183.4,171.5,183.1,171.2,182.1,171.2z"/>
</g>
</svg>
