<?xml version="1.0" encoding="utf-8"?>
<!-- Generator: Adobe Illustrator 21.1.0, SVG Export Plug-In . SVG Version: 6.00 Build 0)  -->
<svg version="1.1" id="Layer_1" xmlns="http://www.w3.org/2000/svg" xmlns:xlink="http://www.w3.org/1999/xlink" x="0px" y="0px"
	 viewBox="0 0 402 129" style="enable-background:new 0 0 402 129;" xml:space="preserve">
<style type="text/css">
	.st0{fill:#0B5565;}
	.st1{fill:#27AAE0;}
	.st2{fill:#375C92;}
	.st3{fill:#8DC53E;}
	.st4{fill:#34A474;}
	.st5{enable-background:new    ;}
	.st6{fill:#003399;}
	.st7{fill:#0088D1;}
	.st8{fill:#4299D0;}
	.st9{fill:none;}
	.st10{fill:#E95028;}
	.st11{fill:#FB6D26;}
	.st12{fill:#FBA226;}
	.st13{fill:#E14329;}
	.st14{fill:#BC5A34;}
	.st15{fill:#FFFFFF;}
	.st16{fill:#195C8B;}
	.st17{fill:#0E89C8;}
	.st18{fill:#54AEDE;}
	.st19{fill:#1F608E;}
	.st20{fill:#246391;}
	.st21{fill:none;stroke:#246391;stroke-width:0;stroke-linecap:round;stroke-linejoin:round;}
	.st22{fill:#83C6EB;}
	.st23{fill:none;stroke:#83C6EB;stroke-width:0;stroke-linecap:round;stroke-linejoin:round;}
	.st24{fill:#369BD1;}
	.st25{fill:none;stroke:#369BD1;stroke-width:0;stroke-linecap:round;stroke-linejoin:round;}
	.st26{fill:#0D538A;}
	.st27{fill:#0B528A;}
	.st28{fill:none;stroke:#0B528A;stroke-width:0;stroke-linecap:round;stroke-linejoin:round;}
	.st29{fill:#0B487D;}
	.st30{fill:none;stroke:#0B487D;stroke-width:0;stroke-linecap:round;stroke-linejoin:round;}
	.st31{fill:#010101;}
	.st32{fill:#818181;}
	.st33{fill:#FEFEFE;}
	.st34{fill:#2296F3;}
	.st35{clip-path:url(#SVGID_2_);fill:#32324B;}
	.st36{clip-path:url(#SVGID_2_);}
	.st37{clip-path:url(#SVGID_4_);fill:#32324B;}
	.st38{clip-path:url(#SVGID_4_);fill:#00D2FF;}
	.st39{clip-path:url(#SVGID_4_);fill:#FF4B19;}
	.st40{fill:#6DBECA;}
	.st41{fill:#2194D2;}
	.st42{fill:#2295D2;}
	.st43{fill:#6BB045;}
	.st44{fill:#2797D3;}
	.st45{fill:#84BF68;}
	.st46{fill:#7ABC6D;}
	.st47{fill:#87C06D;}
	.st48{fill:#62B68B;}
	.st49{fill:#68B776;}
	.st50{fill:#52B3B2;}
	.st51{fill:#48AC94;}
	.st52{fill:#58AF66;}
	.st53{fill:#49AC8A;}
	.st54{fill:#56B4B3;}
	.st55{fill:#53B1A2;}
	.st56{fill:#5BB170;}
	.st57{fill:#78BF8E;}
	.st58{fill:#61B794;}
	.st59{fill:#A6A6A6;}
	.st60{fill:#939393;}
	.st61{fill:#9CCDEC;}
	.st62{fill:#9ED1EE;}
	.st63{fill:#9ACFF2;}
	.st64{fill:#9ED5F6;}
	.st65{fill:#9DD2F4;}
	.st66{fill:#A0D6F6;}
	.st67{fill:#B0B0B0;}
	.st68{fill:#A7A7A7;}
	.st69{fill:#949494;}
	.st70{fill:#D6EEFD;}
	.st71{fill:#9AC9E9;}
	.st72{fill:#91B5DC;}
	.st73{fill:#D4EBFB;}
	.st74{fill:#D1E8F8;}
	.st75{fill:#A8A8A8;}
	.st76{fill:#93B9DF;}
	.st77{fill:#8FB1D9;}
	.st78{fill:#93C2EB;}
	.st79{fill:#96C6ED;}
	.st80{fill:#959595;}
	.st81{fill:#8EB6E5;}
	.st82{fill:#8EADD7;}
	.st83{fill:#96BFE3;}
	.st84{fill:#98C5E6;}
	.st85{fill:#92BEE9;}
	.st86{fill:#90BAE7;}
	.st87{fill:#88ABDE;}
	.st88{fill:#86A7DC;}
	.st89{fill:#8AAFE0;}
	.st90{fill:#C7DDEF;}
	.st91{fill:#97C1E4;}
	.st92{fill:#99CCF1;}
	.st93{fill:#CCE2F3;}
	.st94{fill:#829ED7;}
	.st95{fill:#CAE0F2;}
	.st96{fill:#C4D9EC;}
	.st97{fill:#83A2D9;}
	.st98{fill:#7F9AD5;}
	.st99{fill:#8CB2E3;}
	.st100{fill:#A3A3A3;}
	.st101{fill:#7B90CF;}
	.st102{fill:#7E96D3;}
	.st103{fill:#7584C9;}
	.st104{fill:#798CCD;}
	.st105{fill:#C1D6EA;}
	.st106{fill:#7889CB;}
	.st107{fill:#6F73BF;}
	.st108{fill:#97C3E5;}
	.st109{fill:#7D93D1;}
	.st110{fill:#7380C6;}
	.st111{fill:#BBCEE4;}
	.st112{fill:#707BC3;}
	.st113{fill:#A2A2A2;}
	.st114{fill:#BFD2E7;}
	.st115{fill:#C0D4E8;}
	.st116{fill:#B9CCE1;}
	.st117{fill:#6F77C1;}
	.st118{fill:#A1A1A1;}
	.st119{fill:#E9EBF4;}
	.st120{fill:#D7EEFD;}
	.st121{fill:#D2E9F9;}
	.st122{fill:#CFE6F7;}
	.st123{fill:#96C1E8;}
	.st124{fill:#95BDE5;}
	.st125{fill:#8EABD8;}
	.st126{fill:#8A9FD0;}
	.st127{fill:#CDE3F4;}
	.st128{fill:#98C6EB;}
	.st129{fill:#90AFDB;}
	.st130{fill:#9BCDF0;}
	.st131{fill:#8CA4D4;}
	.st132{fill:#93B7E1;}
	.st133{fill:#889ACD;}
	.st134{fill:#94BCE1;}
	.st135{fill:#9ACAEE;}
	.st136{fill:#8CA9D4;}
	.st137{fill:#C6DBEE;}
	.st138{fill:#9DD1F3;}
	.st139{fill:#C9DEF0;}
	.st140{fill:#8DA7D6;}
	.st141{fill:#89A3D0;}
	.st142{fill:#838CC3;}
	.st143{fill:#889FCD;}
	.st144{fill:#8BA6D2;}
	.st145{fill:#8695CA;}
	.st146{fill:#C3D8EB;}
	.st147{fill:#8591C7;}
	.st148{fill:#8394C6;}
	.st149{fill:#8598C9;}
	.st150{fill:#869CCB;}
	.st151{fill:#C1D5E9;}
	.st152{fill:#8190C3;}
	.st153{fill:#BDD0E5;}
	.st154{fill:#8185BF;}
	.st155{fill:#BACDE3;}
	.st156{fill:#BFD3E7;}
	.st157{fill:#808CC0;}
	.st158{fill:#B6C8DE;}
	.st159{fill:#B3C4DB;}
	.st160{fill:#7F89BF;}
	.st161{fill:#7D85BC;}
	.st162{fill:#B9CBE1;}
	.st163{fill:#94BAE3;}
	.st164{fill:#8CA7D2;}
	.st165{fill:#DDE0ED;}
	.st166{fill:#D5ECFC;}
	.st167{fill:#CFE6F6;}
	.st168{fill:#CBE0F2;}
	.st169{fill:#C8DEF0;}
	.st170{fill:#C5DAED;}
	.st171{fill:#BFD3E8;}
	.st172{fill:#8CB3E3;}
	.st173{fill:#BACCE2;}
	.st174{fill:#B6C9DF;}
	.st175{fill:#B2C3DB;}
	.st176{fill:#B0C1DA;}
	.st177{fill:#84A2DA;}
	.st178{fill:#C2D7EA;}
	.st179{fill:#97C9EF;}
	.st180{fill:#F6F6F6;}
	.st181{fill:#F5F5F5;}
	.st182{fill:#F7F7F7;}
	.st183{fill:#A4A4A4;}
	.st184{fill:#CEE5F6;}
	.st185{fill:#B5C7DE;}
	.st186{fill:#91B2DE;}
	.st187{fill:#8183BD;}
	.st188{fill:#CACFE3;}
	.st189{fill:#DC7B17;}
	.st190{fill:#CE451E;}
	.st191{fill:#D76B19;}
	.st192{fill:#D6671A;}
	.st193{fill:#F1B934;}
	.st194{fill:#D2591B;}
	.st195{fill:#D1541C;}
	.st196{fill:#F5C446;}
	.st197{fill:#F0B228;}
	.st198{fill:#FBD460;}
	.st199{fill:#E39119;}
	.st200{fill:#EDAB1F;}
	.st201{fill:#F1B833;}
	.st202{fill:#F9D05D;}
	.st203{fill:#E89C3A;}
	.st204{fill:#FDF8E8;}
	.st205{fill:#0C0C0C;}
	.st206{fill:#090909;}
	.st207{fill:#0B0B0B;}
	.st208{fill:#0D0D0D;}
	.st209{fill:#121212;}
	.st210{fill:#0E0E0E;}
	.st211{fill:#4A4747;}
	.st212{fill:#101010;}
	.st213{fill:#484545;}
	.st214{fill:#474545;}
	.st215{fill:#4D4B4B;}
	.st216{fill:#343434;}
	.st217{fill:#838181;}
	.st218{fill:#111111;}
	.st219{fill:#757373;}
	.st220{fill:#181818;}
	.st221{fill:#525050;}
	.st222{fill:#515151;}
	.st223{fill:#494949;}
	.st224{fill:#7B7979;}
	.st225{fill:#545454;}
	.st226{fill:#363636;}
	.st227{fill:#3E3E3E;}
	.st228{fill:#393939;}
	.st229{fill:#7D7B7B;}
	.st230{fill:#D4D3D3;}
	.st231{fill:#525252;}
	.st232{fill:#EAEAEA;}
	.st233{fill:#ABABAB;}
	.st234{fill:#5B5959;}
	.st235{fill:#2C2C2C;}
	.st236{fill:#3C3C3C;}
	.st237{fill:#373737;}
	.st238{fill:#454545;}
	.st239{fill:#D1D1D1;}
	.st240{fill:#E1E1E1;}
	.st241{fill:#BEBDBD;}
	.st242{fill:#2A2A2A;}
	.st243{fill:#5E5E5E;}
	.st244{fill:#565656;}
	.st245{fill:#5D5A5A;}
	.st246{fill:#5F5F5F;}
	.st247{fill:#807E7E;}
	.st248{fill:#615F5F;}
	.st249{fill:#ECECEC;}
	.st250{fill:#3F3F3F;}
	.st251{fill:#CECECE;}
	.st252{fill:#6A6868;}
	.st253{fill:#ADADAD;}
	.st254{fill:#5A5A5A;}
	.st255{fill:#606060;}
	.st256{fill:#C9C9C9;}
	.st257{fill:#D8D8D8;}
	.st258{fill:#646161;}
	.st259{fill:#C8C8C8;}
	.st260{fill:#C3C3C3;}
	.st261{fill:#EEEEEE;}
	.st262{fill:#D7D7D7;}
	.st263{fill:#D9D9D9;}
	.st264{fill:#B3B3B3;}
	.st265{fill:#CBCBCB;}
	.st266{fill:#707070;}
</style>
<g>
	<path class="st189" d="M8.5,50c0.5-3,0.9-6,2.4-8.7c4-1.4,5.3,2.2,7.1,4.3c8.4,10.1,18.8,17,30.9,21.7c6,0.9,12.1,2,18.2,0.9
		c18.3-3.3,28.7-15.1,34.7-31.7c0.2-0.6,0.6-1.2,1-1.8c0.5-0.3,1-0.2,1.4,0.2c0.9,1,0.8,2.3,0.8,3.1c0.8-4.1,2.4-8.5,3.2-13.1l0,0
		c0.7-0.5,1.5-0.8,2.4-0.7c1.2,0.2,2.1,0.8,3,1.6c2,1.9,2.6,4.2,1.6,6.9c-8.5,22.1-23.2,37.5-47.1,41.8c-20.7,3.7-38.5-3-53.2-17.9
		C12.8,54.4,10.6,52.2,8.5,50z"/>
	<path class="st190" d="M96.4,78c-11,9.3-23.8,14.7-38.1,16C40.1,95.8,25.1,89.9,14.1,75c2.2-3.6,4.9-2,7.5-0.6c7,3.8,14.2,7,22,8.9
		c14.6,3.6,28.6,1.1,42.4-4.1c2-0.8,4-1.8,6.1-2.3C93.6,76.4,95.6,75.2,96.4,78z"/>
	<path class="st191" d="M8.5,50c2,0.3,3.8,1,5.1,2.7c21.8,26.9,61.8,28.9,86.5,2.9c6.6-7,9.9-15.7,14.2-24c1.2-2.4-0.6-3.7-1.6-5.3
		c1.4-2.2,3.1-2,5-0.6c2.2,1.8-0.2,4.9,1.7,6.8c2.7,4.4,0.4,8.2-1.2,12.1c-1.6-0.8-0.8-3.1-2.8-4.1c-4,7.4-8.4,14.6-14.5,20.6
		C77.8,84,39.9,84.6,16.2,62.3c-2.5-2.4-5.1-4.6-7.7-6.8C8.5,53.6,8.5,51.8,8.5,50z"/>
	<path class="st192" d="M8.5,55.4c2.8-0.4,4.2,1.5,5.9,3.2c23,22.6,55,25.2,80.5,6.1c7.4-5.5,13.2-12.8,17.3-21.2
		c1.1-2.2,1.3-6.4,4.4-5.6c2.7,0.6,1,4.5,1.5,6.8c0,1.2,0.4,2.5-1.1,3c-2.8-0.8-2.7,1.9-3.5,3.1c-13.8,20-32.7,31-57.2,30.8
		c-13.9-0.1-26.5-5.1-37.7-13.5c-3.2-2.4-6-5.3-10-6.2C8,59.8,8.1,57.6,8.5,55.4z"/>
	<path class="st193" d="M49.6,48.2c-1.7-1.1-3.1-2.4-3.1-4.6c-0.9-6.3,0.2-7.6,6.8-6.7c6.8,1,12.8-0.4,18.1-4.8
		c4.3-3.5,6.3-8.1,7.3-13.4c0.6-3.2,1.5-6.2,5.9-4.5c4,2.1,6.9,5.2,7.8,9.8c-3.3-0.7-4.9,0.7-6.3,3.9C80.7,40.5,71,47.1,57,47
		C54.5,47,52,47.6,49.6,48.2z"/>
	<path class="st194" d="M8.7,61.9c2.5-1.8,4.2-0.4,6.1,1.3c12.5,11,27,17.4,43.7,17.1c22.9-0.4,40.6-10.9,53.5-29.7
		c1-1.5,1.8-3.2,3.1-4.4c2.8-2.5,1.6,0.7,2,1.6c-2.4,4.2-2.7,9.6-6.5,13.1C97.3,74.2,81.8,83,62.8,84.5c-13,1.1-25-2-36.4-8
		c-5.6-2.9-10.6-6.8-15.9-10.2C9.9,64.9,9.3,63.4,8.7,61.9z"/>
	<path class="st195" d="M10.5,66.4c6.4,0,10.1,5.3,14.9,8.1C49,88,76.2,85.5,97.5,70.2c4.3-3.1,7.8-7.5,13-9.3
		c-2.6,7.5-8.1,12.5-14.2,17.1c-1.8-1.8-3.4-0.1-4.9,0.5c-10.8,4.7-22.1,8.3-33.8,8.1c-13.2-0.2-25.9-4.1-37.2-11.3
		c-2.3-1.5-4.2-1.8-6.4-0.4C12.5,72.3,10.4,69.8,10.5,66.4z"/>
	<path class="st196" d="M84.6,14.1c-2.8-0.1-4.1,1-4.5,4c-1.9,14.5-12.1,22-26.8,20c-4-0.5-7.9-0.7-6.9,5.4c-2.2-4.2-0.6-7.7,1.9-11
		c2.5-3.1,5.7-4.8,9.8-4.7c3.3,0.1,6.2-1.6,9.3-2.6c1.9-0.3,3.8-0.4,5.7-0.5c0.2-2.4-1.9-3.5-2.4-5.3c-0.7-2.2-1.1-4.4-0.9-6.7
		c0.7-3.7,3.1-4,6.1-3C79.3,10.3,82.2,11.8,84.6,14.1z"/>
	<path class="st197" d="M49.6,48.2c1.3-3.1,4-2.5,6.5-2.5c15.2-0.1,24.1-6.2,29.6-20.4c2-5.1,2.7-5.2,6.7-1.3
		c2.2,4.2,0.6,8.2-1.4,11.8c-4.5,8-11.6,12.6-20.6,14.3c-5.5,1.3-11.1-0.1-16.6,0.2C52,50.3,50.5,49.7,49.6,48.2z"/>
	<path class="st198" d="M76,9.7c-2.9-0.5-4.4,1.1-5.5,3.4c-0.2-0.1-0.5-0.1-0.7-0.2c-1.4-0.4-2.9-1.1-3.7,0.7
		c-0.6,1.3,0.3,2.4,1.2,3.4c1,1.1,2.3,1.6,3.7,2.2c0.2,0,0.5,0.1,0.7,0.1c2.1,1.3,4.1,3.5,3.2,5.6c-1.2,2.7-4.4,0.5-6.6,1.1
		c-0.2-0.3-0.3-0.6-0.3-0.9c0.1-0.3,0.1-0.4,0.2-0.4c0.8-0.3,1.5-0.6,2.4-0.6c-0.1-0.7-1-0.7-1.3-1.2c-7.7-2.7-15.2,0-22.8,0.9
		c-1.5-1.4-1.5-3.2-1.4-4.9c0.3-3.6-1.2-6.1-4-8C52.6,6.4,64.2,5.5,76,9.7z"/>
	<path class="st199" d="M48.9,67.3c-13.3-2.7-23.2-10.6-31.7-20.6c-1.8-2.2-3.2-4.8-6.3-5.4c0.4-2.5,1.5-4.7,3.1-6.5
		c2.2-3.9,4.8-3.5,7-0.2c3.7,5.5,8.1,10.6,11.2,16.5C34.9,59.5,41.6,63.6,48.9,67.3z"/>
	<path class="st200" d="M32.3,51.1c-4.8-4.3-8.3-9.6-11.6-15c-2-3.2-3.8-3.9-6.6-1.2c2.2-4.8,5.5-8.7,9.6-12
		c1.3-0.5,2.7-0.2,3.4,0.8c3,4.5,7,8.6,5.5,14.7C31.9,42.6,30.9,46.8,32.3,51.1z"/>
	<path class="st196" d="M41.1,10.9c4.1-0.5,5.8,1.4,5.5,5.5c-0.2,2.4-0.1,4.9-0.1,7.4c-3.3,2.5-6.5,5-9.8,7.4
		c-1.7-1.5-1.3-3.6-1.5-5.6c-0.3-3.5-1.9-6.5-3.8-9.3C34.2,13.7,37.8,12.5,41.1,10.9z"/>
	<path class="st201" d="M31.5,16.4c5.2,0.9,4.3,5.6,5.2,9c0.5,1.8,0.1,3.9,0.1,5.9c-1.4,2.4-2.8,4.7-4.2,7.1
		c-1.7-5.9-3.1-12-8.9-15.5C25.6,19.9,28.3,17.8,31.5,16.4z"/>
	<path class="st202" d="M68.2,25.2c0,0.3,0,0.6,0,0.9c-4,2.1-8.1,3.9-12.8,3.2c-3.2-0.5-4.6,2.5-7.1,3.2c2.3-4.6,6.7-6.2,11.2-7.6
		C62.5,24.4,65.4,24,68.2,25.2z"/>
	<path class="st203" d="M108.3,24.9c1,6.6-1.6,12.3-4.1,18.9c-2.1-3.4,1.8-6.7-1.3-9.1C102.9,30.5,105.9,27.9,108.3,24.9z"/>
	<path class="st193" d="M53.7,50.2c5.5-2,11.1,0.5,16.6-0.2C64.9,52.2,59.3,52.1,53.7,50.2z"/>
	<path class="st204" d="M68.2,25.2c-2.9-0.1-5.8-0.2-8.7-0.3c2.9-2.5,6.8,0.5,9.7-2c1.1,0.4,2.3,0.8,3.4,1.2c0,0.2,0,0.5-0.1,0.7
		C71.2,24.9,69.7,25.1,68.2,25.2z"/>
	<path class="st198" d="M70.5,13.2c1.1,2,0.9,4.2,1.1,6.3c0,0-0.3,0.2-0.3,0.2c-2.2-0.2-3.7-1.3-3.9-3.6c-0.2-1.8,0.7-3.1,2.7-3.2
		L70.5,13.2z"/>
	<path class="st198" d="M70.2,12.9c-3.3,2.9-1.2,4.8,1.2,6.7c-3.7,1.8-4.8-1.5-6.4-3.5c-0.9-1.1-1.5-2.5-0.4-3.9
		c1.1-1.4,2.7-1.6,4.3-1.4C70.1,11.1,70.2,12,70.2,12.9z"/>
	<g>
		<path class="st9" d="M150.5,105.4C150.5,105.4,150.5,105.4,150.5,105.4c-0.1,0-0.2-0.1-0.3-0.1
			C150.3,105.5,150.5,105.8,150.5,105.4z"/>
		<path class="st205" d="M374.3,41.2c-4.1-0.7-8.3-1.8-11.4,2.1c-3,3.8-7.1,7.4-3.6,13.1c4,2.4,6.2-1.2,9.1-2.9
			c-0.2,6.3-1.1,7.1-7.3,6.4c-1-0.1-2.5-1.7-2.9,0.6c-0.3,1.5,0.9,2.3,2.2,2.6c2.5,0.6,5,0.1,7.5-0.2c3.5-2.6,8.7-16.2,7.7-20.3
			C375.4,41.9,375.2,41.4,374.3,41.2z M369.7,47.2c-1.4,2.3-3.2,4.2-6,6.3c-1.1-4.2,0.5-6.7,2.7-9c0.9-1,2.3-1.3,3.5-0.6
			C371.4,44.9,370.3,46.2,369.7,47.2z"/>
		<path class="st206" d="M202.9,63c5.4,2.4,12.2-0.8,13.7-6.5c1.1-4.1,1.8-8.4,2.8-12.6c0.4-1.7,0-2.4-1.9-2.9
			C208,38.7,201,46,203.1,56.2c3.8,1.1,3.8,1.1,9-2.3c1.6,6.2-3.9,8.2-10.3,4.7C199.4,60.8,200.9,62.1,202.9,63z M207.6,53.3
			c-1.1-4.2,0.5-7,3.4-9.2c0.9-0.7,2.1-0.8,3.1-0.1c1.3,0.9,0.5,1.9,0,2.8C212.4,49.3,210.7,51.8,207.6,53.3z"/>
		<path class="st207" d="M158.2,57.5c2.1,0.2,2.7-1.3,3.2-2.9c0.6-2-0.3-4.4,2-6.2c1.6,2.6,3.1,5.3,4.8,7.7c1.2,1.8,3.3,2,4.8,1
			c1.7-1.2-0.4-2.5-0.9-3.6c-0.7-1.5-1.4-3-2.5-4.2c-2.4-2.7-2.1-4.9,0.6-7.3c2-1.8,3.6-4.1,5.5-6.4c-3.6-1.5-4.8,0.7-6.5,2.3
			c-1.7,1.6-2.5,4.1-5.4,5.1c0.1-1.6,0.3-2.6,0.3-3.7c0-1.5,2.3-3.5-0.9-4.3c-2.8-0.7-3.3,1.4-3.7,3.4c-1,5.1-2,10.2-3,15.4
			C156.3,55.3,155.4,57.2,158.2,57.5z"/>
		<path class="st208" d="M294.8,41.1c-2.7-1.8-4.6,0.5-6.5,2c-0.4,0.3-0.9,0.5-1.5,0.9c-0.6-2,0.6-3.6,0.6-5.3
			c0-1.7,1.9-4.2-1.3-4.8c-2.8-0.5-3,1.7-3.3,3.8c-0.9,5.3-2,10.6-3.1,15.9c-0.3,1.5-1.6,3.3,1,3.8c2.1,0.4,3.2-0.6,3.5-3
			c0.6-4.1,3.3-6.8,7.3-10.2c-0.8,4.2-1.3,7.1-1.9,10c-0.3,1.2-1,2.6,0.9,3c1.6,0.4,3.3,0.4,3.6-2c0.4-2.5,0.9-4.9,1.5-7.4
			C296.2,45.6,297.5,42.9,294.8,41.1z"/>
		<path class="st209" d="M249.8,38.5c1.1,0.1,1.8-1.2,1.7-2.4c-0.1-1.2-1.2-1.1-2.1-1.1c-2.7,0-5.4,0-8.1,0c-2.7,0-5.4,0-8.1,0
			c-1.2,0-2.1,0.4-2.3,1.8c-0.2,1.4,0.7,2.2,1.9,1.9c6.2-1.1,5.2,2.4,4.3,6.3c-0.8,3.1-1.2,6.4-2,9.5c-0.3,1.3-0.9,2.6,1,2.9
			c1.6,0.3,3.3,0.6,3.8-1.8c0.3-1.8,0.6-3.6,1.2-5.2C242.6,45.5,239.9,37.3,249.8,38.5z"/>
		<path class="st210" d="M351.9,40.4c-6.2-0.2-11.3,6.4-10.9,10.9c-0.6,4.8,2.2,6.2,6.3,6.3c5.6,0.1,10.8-5.3,10.8-11.2
			C358.1,42.3,355.3,40.5,351.9,40.4z M353.2,47.3c-0.5,3-0.9,6.4-4.7,7c-2.4,0.4-2.6-1.8-2.6-4.1c0.8-2.4,0.9-5.9,4.8-6.3
			C352.7,43.6,353.5,45.6,353.2,47.3z"/>
		<path class="st211" d="M257.3,103.5c-5.3-1.2-8.6,2-7.9,7.6c0.1,1.1-0.1,1.8-0.8,2.3c-2,1.5-2.5,3.6-1.6,5.8c1.1,2.5,3.6,2,7,2
			c8.7,1.3,4.1-7.3,6.2-11.2c0.9-1.7,1.2-3.5-0.2-5C259.4,104.3,258.3,103.7,257.3,103.5z M253.2,118.6c-1.4,0-2.6-0.5-2.4-2.2
			c0.1-1.7,1.4-2.5,2.9-2.6c1.5-0.1,2.5,0.7,2.4,2.2C255.9,117.7,254.9,118.6,253.2,118.6z M256.9,108.3c-0.1,1.2-0.9,1.9-2,2.2
			c-1.3,0.3-2-0.6-2.1-1.8c-0.1-1.5,1-2.1,1.9-2.5C256.4,106.3,257,107,256.9,108.3z"/>
		<path class="st210" d="M322.5,57.5c5,0,9.8-5.1,9.9-11c0.1-4.6-2.8-6.1-6.5-6.2c-5.1-0.2-10.3,5.5-10.4,11.2
			C315.5,55.8,317.9,57.7,322.5,57.5z M320.3,51c0.4-3,1.1-6.3,4.6-7.1c2.5-0.6,2.7,1.7,2.7,4c-0.3,2.7-1,5.8-4.7,6.3
			C321,54.5,320,52.8,320.3,51z"/>
		<path class="st212" d="M393.1,41.3c-1.2-0.6-2.4,0.1-3.2,1.3c-1.6,2.4-3.1,4.8-5,7.7c-1.4-2-1.7-3.6-1.8-5.2
			c-0.1-2.1-0.2-4.3-3.1-3.8c-3.4,0.5-1.8,3-1.5,4.7c0.9,5.7,4,11.5-2.2,16.5c2.8,1,4.4,0.8,5.7-1.3c3.6-5.6,7.3-11.2,10.9-16.8
			C393.4,43.4,395.1,42.2,393.1,41.3z"/>
		<path class="st213" d="M350.7,104.9c-2.3-2-5-1.9-7.6-0.9c-2.5,1-4.3,3-3.3,6c0.5,1.5,0.9,2.6-0.6,3.7c-1.8,1.3-2.3,3.3-1.5,5.3
			c1,2.5,3.4,2.2,7.1,2.2c9.5,2,3.7-7.8,6.6-11.5c1.1-1.4,1.1-3-0.2-4.5C350.9,105.1,350.8,105,350.7,104.9z M344.3,118.6
			c-1.3,0.1-2.7-0.2-2.8-1.6c-0.1-1.8,1.1-2.9,2.9-3.1c1.4-0.2,2.2,0.8,2.7,1.9C346.7,117.4,345.9,118.4,344.3,118.6z M345,110.5
			c-1.3-0.1-1.7-1.3-1.5-2.4c0.3-1.1,1.1-1.9,2.3-1.9c1.4,0,1.7,1,1.9,1.8C347.3,109.7,346.4,110.6,345,110.5z"/>
		<path class="st212" d="M148.2,57.5c2.4-0.5,6.2-0.4,5.8-3.3c-0.5-3.6-3.2,0.7-5-0.1c-0.1-0.1-0.3,0-0.5,0.1
			c-1.3,0.2-2.9,0.1-3.2-1.3c-0.6-2.1,1.4-1.3,2.4-1.7c1.9-0.7,3.7-1.4,5.1-2.8c1.6-1.7,2.7-3.7,1.4-5.8c-1.3-2.3-3.5-2.6-6.1-1.8
			c-4.4,1.4-6.8,4.5-7.8,8.8c-1.2,5.3,0.8,7.9,6.3,8C147.1,57.5,147.7,57.6,148.2,57.5z M145.3,47.1c0.6-1.7,1.5-3.3,3.6-3.4
			c0.9,0,1.6,0.6,1.4,1.8c-0.7,1.7-2.1,2.7-4,2.9C145.5,48.6,145.1,47.7,145.3,47.1z"/>
		<path class="st212" d="M255.4,57.5c0.7,0,1.5,0.2,2.1,0c1.9-0.9,5.7-0.2,5.1-3.4c-0.6-3.1-3.1,0.1-4.7,0c-1.6,0-3.8,0.5-4.2-1.3
			c-0.4-2.1,2.1-1.1,3.2-1.7c0.8-0.4,1.6-0.7,2.4-1.2c3-1.7,4.9-4.3,3.1-7.5c-1.6-2.9-4.6-2.1-7.2-1c-3.1,1.2-4.8,3.7-6,6.6
			C246.8,53.8,249.3,57.6,255.4,57.5z M253.9,47.1c0.6-1.7,1.5-3.3,3.6-3.3c0.9,0,1.6,0.7,1.4,1.8c-0.7,1.8-2.1,2.8-4,3
			C254.1,48.6,253.7,47.7,253.9,47.1z"/>
		<path class="st214" d="M324.2,104.2c-4.6,2.8-5.4,7.4-5.2,12.2c0.1,2.5,1.5,4.3,4.3,4.7c5.9,0.8,9.5-3.5,9.5-11.4
			c0-1.8,0-3.7-1.6-5C329,102.9,326.5,102.8,324.2,104.2z M325.7,118.2c-0.4,0.2-1.5,0-1.8-0.4c-1.7-2.3-0.5-4.8-0.1-7.2
			c0.3-1.9,1.2-4.4,3.5-4c2.3,0.4,1.2,2.9,1.5,4.7C328.4,113.9,328.1,116.5,325.7,118.2z"/>
		<path class="st213" d="M312.8,104.6c-2.7-1.9-5.4-1.7-8,0.2c-3.2,2.3-4.1,5.9-4.6,9.4c-0.7,4.7,1.3,6.9,5.8,6.9c4.2,0,8-3,7.6-6.6
			c-0.6-4.8-4-5.2-9.2-3.9c2.2-3.3,3.3-6,6.6-2.8c0.8,0.8,2.1,0.5,2.8-0.6C314.4,106.2,313.6,105.2,312.8,104.6z M307.2,113
			c1.5,0,2.1,1,2.5,2c-0.5,1.9-1.2,3.3-3.2,3.4c-1.7,0.1-2.8-0.9-2.6-2.6C304.2,114.1,305.4,113.1,307.2,113z"/>
		<path class="st215" d="M278.1,104.4c-3.7-2.8-8.9-0.5-10.1,4.3c1.2-0.1,2.4,0,3.5-0.9c1.2-1,2.8-2.6,3.8-0.3
			c0.9,2.1-0.9,3.1-2.8,3.4c-0.7,0.1-1.4,0.1-2.1,0.2c-0.5,1.8,0.2,2.6,2.1,2.8c1.7,0.2,2.7,1.1,1.9,3c-0.9,1.9-2.6,2.2-4,1
			c-1.4-1.2-2.4-2.2-4.1-0.8c-0.6,0.5-0.8,1.2-0.5,1.9c0.8,1.7,2.2,2.1,4,2.2c3.4,0.2,7.7,0.2,8.1-3.5c0.5-4,1.9-8.1,1.4-12.2
			C279.2,105.1,278.5,104.7,278.1,104.4z"/>
		<path class="st216" d="M214,89.9c-1.2-0.2-2.7,0.6-3.5-0.7c-0.9-1.5,0.7-2.4,1.6-3c2.6-1.8,0-3.9,0.6-5.8c1.9-3,2.9-6.4,3.2-9.9
			c-1.9-2.2-2.4,0.3-3.5,1c1,2.2-2.1,3.5-1.1,5.6h0c-1.7,2-1.4,5.2-4.2,6.5c0,0.5,0,1.1,0,1.6c-0.2,1.6,2.7,4.1-0.8,4.5
			c-2.3,0.3-5.2-0.2-5.1-3.8c-0.5-0.5-1-1.1-1.4-1.6c-0.5-1-1.4-0.8-2.3-0.7c-1.2,3.7,1,5.8,4,7c5,2.1,10,2.4,15.1,0.2
			C215.7,90.2,214.8,90.1,214,89.9z"/>
		<path class="st209" d="M271.4,57.6c0.4,0,1.3,0.1,2.2-0.2c1.5-0.4,3.5-1,3.2-3c-0.4-2.4-2.3-0.6-3.4-0.5c-2,0.2-3.6-0.2-4.1-2.5
			c-0.7-3.5,2.8-7.6,6.5-7.7c1.1,0,3.1,1.7,3.2-1c0.1-2.2-2-2.3-3.5-2.4c-4.7-0.2-9.9,4.4-10.9,9.7
			C263.7,54.9,265.9,57.6,271.4,57.6z"/>
		<path class="st217" d="M228.8,103.7c-2.1-0.1-4.3-0.4-6.3,0.7c0.1,0.7,0.6,1.5,0.4,2.1c-2,5.5-0.6,8.5,6.5,7.5
			c-5.3,3.7-8.3,2.7-10.3-2.9c0,0.8,0,1.5-0.9,1.8c-0.3,1.5-0.6,3-0.9,4.5v0c0.9,0.8,0.8,1.9,0.8,2.9c1.9-4.5,5.8-2.6,9.1-2.7
			c0.1,0,0.3,0.5,0.4,0.8c-0.6,1.7-3.4-0.1-3.6,2.6c3.2,0.8,5.1,0.3,6.5-3.3c1.6-4.2-1.1-8.4,0.7-12.5
			C231.5,104.3,229.9,103.7,228.8,103.7z M228.3,108c-0.7,1.4,0,3.8-2.7,3.8c-1.2,0-2.2-0.5-1.9-1.8c0.4-1.6,0.8-3.6,3-3.8
			C227.7,106.1,228.9,106.3,228.3,108z"/>
		<path class="st218" d="M341.6,36.6c0.3-1.2,0.9-2.6-1.1-2.9c-1.9-0.3-3,0.3-3.4,2.4c-1.1,5.8-2.4,11.7-3.5,17.5
			c-0.3,1.4-1.2,3.4,1.4,3.8c2.2,0.3,2.8-1.3,3.2-2.9C339.3,48.6,340.4,42.6,341.6,36.6z"/>
		<path class="st219" d="M183.6,108.7c-2.6-1.6-1.4-3.7-2.3-5.1c-2.2,0.6-2.4,3.3-4.8,3.1c-0.9-0.9,1.3-2.8-0.9-3.6
			c-0.9,1.3-1.8,2.5-2.8,4c-4.4-7.8-3.6,2-6.8,0.2c1.9,2.1,3.9,0.7,6,3.6c-6.9-3-4.9,3.3-7.9,4.5c1.6,1.5,4-1,4.6,1.2
			c0.5,1.9-1.8,2.2-3.2,2.8c-0.8,0.3-1.7,0.7-1,2.2c3.4-0.4,6-1.8,6.9-5.4c0,0,0,0,0,0c0,0,0,0,0,0c-0.8-0.5-2.4-0.7-1-2.2
			c0,0,0,0,0,0c0,0,0,0,0,0c0.1-0.2,0.2-0.3,0.4-0.4c0.6-0.6,1.1-1.2,1.7-1.8c0.7-1.1,0.9-2.7,2.5-3.1c0,0,0,0,0,0c0,0,0,0,0,0
			C177.4,108.7,179.9,108.7,183.6,108.7z"/>
		<path class="st220" d="M302.5,55.3c0-4,3.1-6.3,4.7-9.5c-0.5-0.5-1-1-1.5-1.5c-1-1.2-0.4-3.6-3.3-3.4c-2.9,0.2-2.3,2.3-2.6,3.8
			c-0.8,3.1-1.4,6.3-2,9.5c-0.3,1.5-0.5,3,1.6,3.2C301,57.6,302.5,57.1,302.5,55.3z"/>
		<path class="st221" d="M294.4,104c-2.9-1.6-4.7,3.1-7.6,4c-0.8,0.2-1.6,1-1.4,2c0.4,1.6,1.5,1.1,2,1c2.9-1.3,3,0,2.7,1.7
			c-0.4,1.9-0.8,3.9-1.2,5.8c-0.2,1.1-0.2,2.2,1.3,2.5c1.4,0.3,2.5-0.1,2.8-1.7c0.4-2.5,0.9-4.9,1.2-7.4
			C294.4,109.2,297.2,105.6,294.4,104z"/>
		<path class="st208" d="M195.3,45.4c1.6,0.3,0.8,1.6,0.7,2.6c-0.4,2.1-0.8,4.2-1.4,6.3c-0.4,1.5-0.9,2.9,1.4,3.2
			c1.7,0.2,2.7-0.4,3.1-2.2c0.4-2.3,0.9-4.6,1.4-6.8c0.5-2.6,2-5.6-0.8-7.4c-3.2-2-5.1,0.9-7,2.9c-0.3,0.3-1,0.2-1.5,0.2
			c0.7,0.8,1.3,1.7,2,2.5C193.8,46.3,194.7,45.3,195.3,45.4z"/>
		<path class="st220" d="M307.2,45.9c1.3-0.4,2.6-0.7,2.1,1.5c-0.5,2.3-0.9,4.6-1.5,6.9c-0.4,1.5-0.7,2.9,1.5,3.2
			c1.6,0.2,2.9-0.2,3.3-2c0.7-3.5,1.4-7.1,2-10.6c0.3-1.7-0.4-3.2-1.9-4.2c-1.6-1-2.9,0-4,0.7c-1.2,0.7-2,2-3,3
			C307,44.1,307.4,44.6,307.2,45.9z"/>
		<path class="st220" d="M305.7,44.4c0.5,0.5,1,1,1.5,1.5C307.4,44.6,307,44.1,305.7,44.4z"/>
		<path class="st222" d="M319.1,75.7c0.9,0.3,2.4-0.3,2.6,1.1c0.1,1.4-1,2.2-2.3,2.4c-1,0.1-2.2-0.3-2.5,1.2c1,0,1.9,0.2,2.4,1.3
			c1.5-0.5,3-0.9,4.6,0c-0.6,2-2,3.2-3.7,4.1c0.7,1.1,1.4,2.1,2.2,3.2c-0.2-3.2,3.1-4.1,4.2-6.6c0.5-1.1,2-2.1,0.3-3.2
			c-0.9-0.6-2.9-0.1-2.3-2.1c0.6-1.9,2.3-1.3,3.7-1.5c1.1-0.1,2.2,0,2.6-1.4c-1-1.9-3.5,0.1-4.6-1.9c-1.3-2.1-1.8-2-3.5,0.4
			c-0.4,0.5-1.2,0.5-1.9,0.5c-0.8,0.2-1.7,0.4-2.5,0.6C317.9,75,318.3,75.4,319.1,75.7z"/>
		<path class="st206" d="M191.1,44.2c0.2-1.4,0.7-3-1.7-3.1c-1.9-0.1-2.5,0.9-2.9,2.5c-0.7,3.5-1.3,7.1-2.1,10.6
			c-0.3,1.2-1,2.6,0.8,3.1c1.6,0.4,3.5,0.4,3.6-2c0.2-3.5,2.7-5.8,4.2-8.6C191.7,46.5,190.3,46.3,191.1,44.2z"/>
		<path class="st206" d="M193.1,46.7c-0.7-0.8-1.3-1.7-2-2.5C190.3,46.3,191.7,46.5,193.1,46.7z"/>
		<path class="st223" d="M261.5,81.5c-0.5-0.7-1-1.3-1.5-2c1.2-0.1,2.4-0.2,3.6-0.3c-1-2.2-3.5-3.3-3.6-6.2c0-1.2-1.6-1.9-3-1.1
			c-2.1,1.3-0.4,1.5,0.6,2.3c1.5,1.2,0.3,2.4-0.9,2.7c-2.2,0.5-5.7,0.2-0.9,2.9c0.1,0-0.6,1.5-1,2.3c0,2,0.9,4-0.6,5.8
			c-0.1,1.5-2.8,3.2-0.8,4.1c2.9,1.3,1.9-2.4,2.3-3.4c0.9-2.3,2.1-4.4,3.2-6.6c0,0,0,0,0,0c0,0,0,0,0,0
			C259.8,81.9,260.6,81.7,261.5,81.5z"/>
		<path class="st218" d="M177.7,57.5c2.2,0.3,2.8-1.3,3.2-2.9c0.8-3.5,1.4-7.1,2.1-10.9c0.3-1,0.5-2.2-1.4-2.5
			c-1.6-0.2-2.8,0.2-3.2,2c-0.7,3.5-1.4,7-2,10.6C176.2,55.2,174.9,57.1,177.7,57.5z"/>
		<path class="st224" d="M173.4,111.9c1.2,0,2.5-0.2,3,1.6c-1.6,1-3.2,0.7-4.8,0.6c0,0.1-0.1,0.1-0.1,0.2c-0.1,0.7-0.1,1.3-0.1,2
			c1.6,0.3,4.3-0.9,4.7,1c0.7,3.2-3.6,1.1-4.6,3.5c4.6,2.1,5.4-2.6,7.7-3.7c3.7-1.7,1-5,3.2-6c-2.1-2.3-5.9,1.5-7.6-2.4
			C173.7,109.4,174.2,111,173.4,111.9z"/>
		<path class="st224" d="M171.5,114.3c0-0.1,0.1-0.1,0.1-0.2c-0.4,0-0.8-0.1-1.2-0.1c-1.4,1.5,0.2,1.7,1,2.2c0,0,0,0,0,0
			C171.4,115.6,171.4,115,171.5,114.3z"/>
		<path class="st224" d="M172.5,111.9c0.3,0,0.6,0,1,0c0.7-0.9,0.3-2.5,1.5-3.2c0,0,0,0,0,0C173.4,109.2,173.2,110.7,172.5,111.9z"
			/>
		<path class="st224" d="M170.4,114c0.1-0.1,0.3-0.3,0.4-0.4C170.6,113.7,170.5,113.8,170.4,114z"/>
		<path class="st225" d="M160.5,81.4c-2.6-1.7-6.3,1.8-8.4-2c0,0,0,0,0,0c0,0,0,0,0,0c-0.4,0-0.9-0.1-1.3-0.1
			c-0.7,0.4-1.3,0.8-2,1.1c0,0,0,0,0,0c-1.9,1.1-3.9,2.1-5.8,3.2c0.9,2.3,2.1,0.7,3.3,0.4c1.4-0.4,2.7-2.7,4.4-0.4
			c0,0.5,0.1,0.9,0.1,1.4c1.6-0.5,2.4-2.8,5-2c-2.9,4.8-8,6.2-12.4,8.5c0,0,0,0,0,0c4.7,1.9,7.6-1.7,10.9-3.7c2.3-1.4,3.2-4.4,6.1-5
			C160.4,82.3,160.5,81.9,160.5,81.4L160.5,81.4z"/>
		<path class="st226" d="M150.8,78.9c0-0.5-0.1-1-0.1-1.5c-1-0.5-1-1,0-1.5h0c0.4-0.3,0.8-0.6,1.1-0.9c0.1-0.8-1.3-1.8,0-2.3
			c3.3-1.2,6.8-1.2,10,0c1.4,0.5-0.5,1-1.1,1.3l0,0c0.2,0.8,0.5,1.6,0.7,2.3l0,0.5c0.4,0.5,0.9,0.9,1.3,1.4c4.1-7.7,3.9-8.1-4.4-8.2
			c-0.9,0-1.8,0-2.7,0c-6.5,0-9,3.9-6.8,10.4c0,0,0,0,0,0C149.4,79.8,149.9,79.1,150.8,78.9z"/>
		<path class="st226" d="M150.8,79.3c0-0.1,0-0.3,0-0.4c-0.9,0.2-1.4,0.9-2,1.5C149.5,80.1,150.1,79.7,150.8,79.3
			C150.8,79.3,150.8,79.3,150.8,79.3z"/>
		<path class="st224" d="M199.7,104.4c-1,2.9-1.8,5.8-5.5,5.4c0,0.4,0,0.8,0,1.3v0c2.8,0.8,4.9,2,4.8,5.6c-0.1,2.1,1.2,4.2,3.4,5.1
			c0.9,0.4,1.8,0.2,2.3-0.7c0.6-1.1,0.1-1.4-1-1.7c-3.3-1-2.4-4.2-2.6-6.4c-0.3-2.9,2.9-1.8,4.4-2.8c0.6-0.3,1.4-0.3,1.5-1.2
			C201.2,107.9,201.2,107.9,199.7,104.4z"/>
		<path class="st227" d="M267,86.9c0,1.9-2,3.5-0.4,6.3c2.8-2.9,2.3-8.4,7.2-9.1c0,0,0.1-0.5,0.1-0.5c-4.5-1.1,0.1-5.4-2.5-7.2
			c-0.3-1.2-1-1.7-2.2-1.5c-1.9,1.8,2.8,5.8-2.2,6.7C268,83.4,267.6,85.1,267,86.9z"/>
		<path class="st228" d="M312.7,78c4.4-0.7,1.2-4.7,3-6.3c-0.2-0.9-1.2-2.1-1.6-1.4c-1.2,2.4-5,5.1-4.4,5.8c2.8,4.1-0.5,4.9-2.7,6.4
			c1.1,1.4,2.1,2.9,3.2,4.3c-0.5-3.1,2.8-4.1,3.8-6.4C313.7,79.5,312.1,78.1,312.7,78z"/>
		<path class="st229" d="M193.8,110.2c0.1-0.3,0.2-0.4,0.3-0.4c-2.9-2.7,3.9-3.6,1.2-6.3c-6,5.7-7.1,10.3-4.7,18.7
			c2.9-3.3,1.3-7.8,3.5-11.1C193.8,110.7,193.7,110.5,193.8,110.2z"/>
		<path class="st229" d="M194.2,109.7c-0.1,0-0.2,0.1-0.3,0.4c-0.1,0.3,0,0.6,0.3,0.8v0C194.2,110.6,194.2,110.2,194.2,109.7z"/>
		<path class="st230" d="M217.2,108.6c-0.2,1.3,0.4,2,1.5,2.4c0.2-0.2,0.5-0.4,0.8-0.5c2.3,0.8,1,5.9,5.1,4.5
			c-4.1-1.8-4.5-3.9-2.1-10.7c-0.8,0-1.6,0-2.4,0.1C221.3,107.3,217.8,107,217.2,108.6z"/>
		<path class="st230" d="M224.6,115.1c-4.1,1.3-2.8-3.7-5.1-4.5c-0.3,0.1-0.6,0.3-0.8,0.5c0.1,0,0.3,0.1,0.4,0.1c0,0,0,0,0,0
			c2,5.5,5,6.6,10.3,2.9c-7.1,0.9-8.5-2-6.5-7.5c0.2-0.6-0.2-1.4-0.4-2.1C220,111.2,220.5,113.2,224.6,115.1z"/>
		<path class="st231" d="M212.7,80.5c4.4,0.8,7.3-2.1,8.6-5.2c0.8-1.8-2.4-4.4-5.4-4.8C217.8,74.9,216.2,78,212.7,80.5z"/>
		<path class="st231" d="M215.9,70.6c-0.3,3.6-1.3,6.9-3.2,9.9C216.2,78,217.8,74.9,215.9,70.6z"/>
		<path class="st232" d="M316.6,80.2c-0.1-1.6,2.4-1.9,1.4-4.6c-1-2.6,0.9-2.2,2.6-2.1c0.7-0.2,1.3-0.3,1.9-0.5
			c-2.1-1.5-5.1,2-6.8-1.3c-0.1,3,0.9,6.3-1.8,8.8c0.9,0.3,1.7,0.7,2.6,1c0.1-0.4,0.1-0.7,0.2-1.1C316.7,80.4,316.7,80.3,316.6,80.2
			z"/>
		<path class="st232" d="M318,75.6c1.1,2.8-1.5,3-1.4,4.6c0.1,0.1,0.1,0.2,0.2,0.2c0,0,0,0,0,0c0.3-1.6,1.5-1.1,2.5-1.2
			c1.4-0.2,2.5-1,2.3-2.4c-0.1-1.5-1.6-0.9-2.6-1.1c-0.8-0.2-1.2-0.6-0.9-1.5c0.8-0.2,1.6-0.4,2.5-0.6C318.9,73.4,317,72.9,318,75.6
			z"/>
		<path class="st232" d="M315.8,71.7c-1.9,1.6,1.3,5.7-3,6.3c-0.6,0.1,1,1.5,1.3,2.5C316.6,78,315.7,74.7,315.8,71.7z"/>
		<path class="st233" d="M209.5,77.2c0.6,0,1.2,0,1.8,0c-1-2.1,2.2-3.5,1.1-5.6c-1.1,1.6-2.3,3.1-2.7,5.1
			C209.7,76.8,209.6,77,209.5,77.2z"/>
		<path class="st234" d="M149.7,119.2c-1.2,0.2-1-1.1-1.2-1.8c-0.7,0.4-1.3,0.7-2,1.1c0.1,1.1-3.7,1.9-1.1,2.5
			c3.8,0.9,8.2,1,13.5-0.5c-3.1-1.4-6.5-0.4-6-4.1c-0.3-0.4-0.7-0.8-1-1.2C151.3,116.6,152.1,118.9,149.7,119.2z"/>
		<path class="st234" d="M153.2,115.6c-0.1,0.2-0.2,0.5-0.2,0.7C153.1,116,153.2,115.8,153.2,115.6z"/>
		<path class="st235" d="M231.9,93c3.9-4.2,6.2-13.1,4.4-17.1C234.6,81.5,232.6,86.7,231.9,93z"/>
		<path class="st227" d="M325.2,91.8c1.2-1.6-1.8-1.8-2.9-2.7c-2.3,0.2-2.4-1.5-2.6-3c0-0.2,0.1-0.3,0.2-0.5c-0.8-1-0.6-2.2-0.7-3.4
			c-0.1,0-0.2,0-0.3,0c-0.7-0.4-1.3-0.8-1.8-1.4c0.1,0.2,0.1,0.3,0,0.5c-0.1,0.2-0.3,0.3-0.4,0.3c0.4,2,0.7,4,1.1,6
			c0.8,0.9,1.6,1.8,2.4,2.7C321.6,91.5,323.4,94.1,325.2,91.8z"/>
		<path class="st227" d="M319.8,85.6c-0.1,0.2-0.1,0.3-0.2,0.5c0.2,1.6,0.3,3.3,2.6,3c-0.7-1.1-1.4-2.1-2.2-3.2
			C320,85.8,319.9,85.7,319.8,85.6z"/>
		<path class="st227" d="M316.8,80.4c0.1,0.1,0.2,0.2,0.2,0.3c0.5,0.6,1.1,1,1.8,1.4c0.1,0,0.2,0,0.3,0c0-0.2,0-0.3,0-0.4
			C318.8,80.6,317.8,80.4,316.8,80.4z"/>
		<path class="st227" d="M317,81.2c0.1-0.1,0.1-0.3,0-0.5c-0.1-0.1-0.1-0.2-0.2-0.3c-0.1,0.4-0.1,0.7-0.2,1.1
			C316.7,81.5,316.9,81.4,317,81.2z"/>
		<path class="st227" d="M316.8,80.4c0.1,0.1,0.1,0.2,0.2,0.3C317,80.6,316.9,80.5,316.8,80.4C316.8,80.4,316.8,80.4,316.8,80.4z"/>
		<path class="st228" d="M160.7,81.4C160.7,81.4,160.7,81.4,160.7,81.4c0.2,0.6,0.1,1-0.3,1.5c-0.5,2.8-1.1,5.7-4.1,7
			c-1,0.4-2.5,0.6-1.9,1.9c0.6,1.5,2.2,0.9,3.3,0.4c3.8-2,4.2-6,5.6-9.4C162.8,81.1,161.8,81,160.7,81.4z"/>
		<path class="st228" d="M160.7,81.4C160.7,81.4,160.7,81.4,160.7,81.4c-0.1,0-0.1,0-0.2,0h0c0,0.5-0.1,0.9-0.1,1.4
			C160.8,82.4,160.9,81.9,160.7,81.4z"/>
		<path class="st236" d="M291.2,80.5c-0.1,0.4-0.2,0.7-0.4,1.1C291.1,81.2,291.2,80.8,291.2,80.5z"/>
		<path class="st236" d="M290.9,81.6c-0.5-0.8-0.9-1.6-1.4-2.4v0h0c-1.5,4.2-3.4,8.4-2.7,13.1C289.5,89.1,290.1,85.3,290.9,81.6z"/>
		<path class="st237" d="M200.2,80.4c3,1.6,1.5,2.6,0.1,3.6c0.5,0.5,0.8,1,1.2,1.5c0.9-1.3,1.9-2.6,2.8-4h0l0,0
			c0.5-2-1.9-4.3-0.1-6.2c-0.5-0.9-0.7-2.1-2.3-1.6c2.7,2.5-0.7,3-1.4,4.3C200.3,78.9,199,79.8,200.2,80.4z"/>
		<path class="st237" d="M200.3,84c-0.2,0.1-0.4,0.3-0.5,0.4c0.5,0.5,1,1.1,1.4,1.6c0.1-0.1,0.2-0.3,0.3-0.4
			C201.1,85,200.7,84.5,200.3,84z"/>
		<path class="st237" d="M204.2,75.4c0.2-0.2,0.4-0.4,0.7-0.6c0,0,0,0,0,0c-1-0.4-0.9-3.9-3-1C203.4,73.4,203.7,74.5,204.2,75.4z"/>
		<path class="st238" d="M181.3,79.4c0.4,0.8,0.8,1.7,1.2,2.5c1.7-4.1,3.3-8.3,2.7-12.8C182.3,72,181.9,75.7,181.3,79.4z"/>
		<path class="st225" d="M291.2,80.5c0.9-2.8,1.9-5.7,2.8-8.5c0.3-1,0.7-2.3-0.8-2.7c-1.4-0.3-1.7,1-2,2c-0.6,2.6-1.2,5.2-1.8,7.9
			C291,79.1,291.4,79.6,291.2,80.5z"/>
		<path class="st225" d="M290.9,81.6c0.1-0.4,0.2-0.7,0.4-1.1c0.1-0.8-0.3-1.4-1.7-1.3v0C289.9,80,290.4,80.8,290.9,81.6z"/>
		<path class="st239" d="M151.8,85.8c0,0,0.4-0.1,0.4-0.3c0-1-0.7,0-1.1-0.3c-0.1,0-0.2-0.1-0.3-0.1c-2.1,2.2-4.7,3.5-7.6,4.1
			c0.1,0.8,0.2,1.6,0.2,2.5c0,0,0,0,0,0C144.9,87.8,149.3,88.2,151.8,85.8z"/>
		<path class="st239" d="M155.8,83c-2.6-0.8-3.4,1.5-5,2c0,0,0,0-0.1,0.1c0.1,0,0.2,0.1,0.3,0.1c0.3,0.3,1-0.7,1.1,0.3
			c0,0.2-0.3,0.3-0.4,0.3c-2.5,2.4-6.9,2-8.4,5.8C147.8,89.2,152.8,87.9,155.8,83z"/>
		<path class="st240" d="M162.6,79.1c-3.2,0.1-6.4,0.2-9.6,0.3c2.4,1.4,5.4,0,7.6,1.9c1.3-0.6,2.2-0.4,2.5,1.3
			C166.6,80.9,162.6,80.3,162.6,79.1z"/>
		<path class="st240" d="M152.1,79.4c2.1,3.8,5.8,0.3,8.4,2c0,0,0.1,0,0.1-0.1c-2.2-1.9-5.3-0.6-7.6-1.9
			C152.7,79.4,152.4,79.4,152.1,79.4C152.1,79.4,152.1,79.4,152.1,79.4z"/>
		<path class="st240" d="M160.6,81.3C160.6,81.3,160.7,81.3,160.6,81.3c1.2-0.3,2.2-0.2,2.5,1.3C162.9,81,161.9,80.8,160.6,81.3z"/>
		<path class="st240" d="M160.7,81.4C160.7,81.3,160.6,81.3,160.7,81.4c-0.1,0-0.1,0-0.2,0C160.6,81.4,160.6,81.4,160.7,81.4z"/>
		<path class="st241" d="M156.1,103.2c-2.2-0.1-4.3,0-6.5,0c-1,0-1.8,0.5-1.8,1.6c-0.1,1.1,0.8,1.5,1.8,1.6c1.1,0.1,2.2,0.1,3.2,0.2
			c0,0,0,0,0,0c-0.2-1.2-1.3-1-2.2-1.3c0,0,0,0,0,0c0,0.4-0.2,0.2-0.3-0.1c-0.3-0.1-0.6-0.4-0.7-0.8c3,0,5.9,0,9.3,0
			c-1.2,0.8-2,1.4-2.7,1.9c1.6-0.2,4.3,1.1,4.1-1.8C160,102.5,157.6,103.3,156.1,103.2z"/>
		<path class="st242" d="M181.3,79.4c-1.4,4.2-3,8.4-2.9,13c2.8-3,3.3-6.8,4.1-10.5C181.3,81.4,181.7,80.2,181.3,79.4z"/>
		<path class="st242" d="M182.5,81.9c-0.4-0.8-0.8-1.7-1.2-2.5C181.7,80.2,181.3,81.4,182.5,81.9z"/>
		<path class="st243" d="M161,77.7c-0.1-0.2-0.3-0.5-0.4-0.8c-3.2,0.2-6.4,0.3-9.5,0.5c0.1,0.1,0.1,0.1,0.2,0.2
			c0.1,0.5,0.1,0.9-0.1,1.2c0,0,0.1,0,0.1,0c0.4,0,0.9,0.2,1.3,0.3c3.3-2.3,6.7-1.5,10.1,0c0.1-0.3,0.1-0.6,0.1-0.9
			C161.9,78.7,161.4,78.2,161,77.7z"/>
		<path class="st243" d="M151.2,78.8C151.2,78.8,151.2,78.8,151.2,78.8c-0.2,0.2-0.3,0.3-0.5,0.5c0,0,0,0,0,0c0.4,0,0.9,0.1,1.3,0.1
			c0,0,0,0,0,0c0.1-0.1,0.3-0.2,0.4-0.3C152.1,79,151.7,78.9,151.2,78.8z"/>
		<path class="st243" d="M160.6,76.9c0.1,0.3,0.2,0.5,0.4,0.8c0.4,0.5,0.9,1,1.7,0.6c-0.4-0.5-0.9-0.9-1.3-1.4
			C161.1,76.9,160.9,76.9,160.6,76.9z"/>
		<path class="st243" d="M151.3,77.6c-0.1-0.1-0.2-0.2-0.2-0.2c-0.1,0-0.3,0-0.4,0c0,0.5,0.1,1,0.1,1.5c0.1,0,0.3-0.1,0.4-0.1
			C151.4,78.5,151.4,78.1,151.3,77.6z"/>
		<path class="st243" d="M151.2,78.8c-0.1,0-0.3,0-0.4,0.1c0,0.1,0,0.3,0,0.4c0,0,0,0,0,0c0,0,0,0,0,0C151,79.2,151.1,79,151.2,78.8
			z"/>
		<path class="st243" d="M152.5,79.2c0.1,0,0.1,0,0.2,0.1c0.1,0.1,0.2,0.1,0.3,0.2c3.2-0.1,6.4-0.2,9.6-0.3
			C159.2,77.7,155.8,76.9,152.5,79.2z"/>
		<path class="st243" d="M152.5,79.2c-0.1,0.1-0.3,0.2-0.4,0.3c0.3,0,0.6,0,0.9,0c-0.1-0.1-0.2-0.1-0.3-0.2
			C152.6,79.2,152.6,79.2,152.5,79.2z"/>
		<path class="st244" d="M307.1,82.5c-0.4,0.3-0.8,0.6-1.2,0.9c4.5,3.6,0.5,5.8-1.4,8.6c3.9,0.5,5.4-1.7,5.8-5.2
			C308.2,86.2,307.8,84.2,307.1,82.5z"/>
		<path class="st244" d="M310.2,86.9c-1.1-1.4-2.1-2.9-3.2-4.3C307.8,84.2,308.2,86.2,310.2,86.9z"/>
		<path class="st245" d="M153,107.6c-0.4,2.5-0.7,5-1.1,7.6c0.7-0.1,1.2-0.1,1.2,0.4c0.7-2.1,3.1-2.9,5.4-4.4
			c-1.8-0.2-2.6-0.3-3.5-0.4C153.4,110.4,154.4,108.2,153,107.6z"/>
		<path class="st245" d="M151.9,115.2c0.3,0.4,0.7,0.8,1,1.2c0-0.3,0.1-0.5,0.2-0.7C153.2,115.1,152.6,115.1,151.9,115.2z"/>
		<path class="st246" d="M267,86.9c-0.6-1.8-0.9-3.5,0-5.3c-0.4,0-0.7,0-1.1-0.1c-0.1,0.7-0.1,1.3-0.2,2c0,0,0,0,0,0c0,0,0,0,0,0
			c-0.8,1.8-2.5,0.9-3.8,1.2c-1.9,0.6-1.9,1.4-0.3,2.4C263.4,86.9,265.2,86.3,267,86.9z"/>
		<path class="st246" d="M267,86.9c0.7-1.8,1-3.5,0-5.3C266.1,83.4,266.4,85.1,267,86.9z"/>
		<path class="st247" d="M157.6,105.3c-0.2-1-1-0.4-1.3-0.2c-2,0.9-3.8-0.6-5.7-0.2c-0.3,0-0.4,0.2-0.3,0.4c0.1,0,0.2,0.1,0.3,0.1
			c0-0.3,0.1-0.4,0.2-0.4c1.2-0.1,2.6-0.5,2,1.6c0,0,0,0,0,0c0.1,0.3,0.2,0.7,0.3,1c2.8-0.2,0.7,2.6,2,3.2c-0.1-1.6-0.3-3.2,1.1-4.4
			c0,0,0,0,0,0c0,0,0,0,0,0C156.1,105.4,156.2,104.6,157.6,105.3z"/>
		<path class="st247" d="M150.8,105c-0.1,0-0.2,0.1-0.2,0.4c0.9,0.2,2,0,2.2,1.3C153.4,104.5,151.9,104.9,150.8,105z"/>
		<path class="st247" d="M149.5,104.4c0.1,0.4,0.4,0.7,0.7,0.8c0-0.2,0-0.5,0.3-0.4c1.9-0.4,3.8,1.1,5.7,0.2
			c0.3-0.1,1.1-0.8,1.3,0.2c-1.3-0.7-1.4,0.1-1.4,1.1c0,0,0,0,0,0c0.8-0.5,1.5-1.1,2.7-1.9C155.4,104.4,152.5,104.4,149.5,104.4z"/>
		<path class="st247" d="M153,107.6c1.4,0.6,0.4,2.7,2,3.2C153.7,110.2,155.8,107.4,153,107.6z"/>
		<path class="st247" d="M148.5,117.4c1.3-2.5,1.8-5.1,0.6-8.7c-2,3.6-2.1,6.8-2.5,9.8C147,117.7,147.3,116.8,148.5,117.4z"/>
		<path class="st247" d="M146.5,118.4c0.7-0.4,1.3-0.7,2-1.1C147.3,116.8,147,117.7,146.5,118.4z"/>
		<path class="st242" d="M271.4,76.5c3.3-1.1,3-3.7,2.9-7.3c-2.1,2.4-3,4.7-5.1,5.8C270.8,74.1,271.6,74.5,271.4,76.5z"/>
		<path class="st242" d="M271.4,76.5c0.2-1.9-0.6-2.3-2.2-1.5C270.4,74.8,271.2,75.2,271.4,76.5z"/>
		<path class="st248" d="M215.9,114.4c0.1-1.1,0.3-2.3,1.6-1.8c0.2-0.5,0.5-0.9,0.8-1.3c-1.1,0.1-1.8-0.4-1.9-1.8
			c0.1-0.3,0.2-0.5,0.3-0.8l-0.1,0c0,0-0.5,0-0.5,0c-0.9,2.1-3.5,3.5-2.3,6.3C214.7,115.4,215.7,116.3,215.9,114.4z"/>
		<path class="st248" d="M218.3,111.3c-0.3,0.4-0.6,0.8-0.8,1.3c0.2,0.1,0.4,0.2,0.7,0.4c0.9-0.3,0.9-1.1,0.9-1.8c0,0,0,0,0,0
			C218.8,111.2,218.6,111.3,218.3,111.3z"/>
		<path class="st248" d="M217.2,108.6l-0.4,0.1c-0.1,0.2-0.2,0.5-0.3,0.8c0.1,1.4,0.8,2,1.9,1.8c0.1-0.1,0.2-0.2,0.3-0.3
			C217.6,110.7,217,109.9,217.2,108.6z"/>
		<path class="st248" d="M218.6,111c-0.1,0.1-0.2,0.2-0.3,0.3c0.2,0,0.5-0.1,0.7-0.2c0,0,0,0,0,0c0,0,0,0,0,0
			C218.9,111.1,218.8,111.1,218.6,111z"/>
		<path class="st249" d="M262.8,79.9c-3.1-0.7-0.4,1.3-0.8,1.8c0,0.1-0.1,0.2-0.1,0.2c0.5,0.4,0.9,0.9,1.3,1.3
			c0.3-0.1,0.5-0.2,0.8-0.4c0.6-0.5,1.2-1,1.9-1.2c0-1.5-0.8-2.3-2.3-2.3C263.3,79.6,263,79.9,262.8,79.9z"/>
		<path class="st249" d="M261.5,81.5c0.1,0.1,0.3,0.2,0.4,0.3c0-0.1,0.1-0.1,0.1-0.2c0.5-0.5-2.2-2.5,0.8-1.8
			c0.3,0.1,0.6-0.3,0.8-0.6c-1.2,0.1-2.4,0.2-3.6,0.3C260.5,80.2,261,80.9,261.5,81.5z"/>
		<path class="st249" d="M263.2,83.2c0.6,0.5,1.4,0.9,2.5,0.4c0,0,0,0,0,0c0.1-0.7,0.1-1.3,0.2-2c-0.7,0.3-1.3,0.7-1.9,1.2
			C263.7,83,263.5,83.1,263.2,83.2z"/>
		<path class="st250" d="M183.5,38.5c0.2,0,1-1.1,1.1-2.6c0.1-1.8-1.4-1.7-2.6-1.7c-1.5,0-2.1,1-2.2,2.4
			C179.6,38.2,180.6,38.6,183.5,38.5z"/>
		<path class="st222" d="M317.7,87.5c-1.8,2.1-5.5,1.4-7.3,4.5c3.9,1.5,6.4-2.7,9.7-1.8C319.4,89.2,317,89.8,317.7,87.5z"/>
		<path class="st222" d="M320.1,90.2c-0.8-0.9-1.6-1.8-2.4-2.7C317,89.8,319.4,89.2,320.1,90.2z"/>
		<path class="st217" d="M216.9,108.4c0.8-1.5,2.3-2.6,3.2-4c0,0,0,0,0,0c0,0,0,0,0,0c-3.4-0.5-5.7,0.1-4,4.3
			C216.4,108.4,216.6,108.3,216.9,108.4z"/>
		<path class="st217" d="M216.9,108.4c0.1,0,0.2,0.1,0.3,0.2c0.7-1.6,4.1-1.3,3-4.2c0,0,0,0,0,0
			C219.2,105.9,217.7,106.9,216.9,108.4z"/>
		<path class="st217" d="M216.7,108.7c0-0.1,0.1-0.2,0.2-0.3c-0.3-0.1-0.5,0-0.8,0.3C216.1,108.7,216.6,108.7,216.7,108.7
			L216.7,108.7z"/>
		<path class="st217" d="M216.9,108.4c-0.1,0.1-0.1,0.2-0.2,0.3l0.4-0.1C217.1,108.5,217,108.5,216.9,108.4z"/>
		<path class="st251" d="M200,83.7c0.4-1.8-1.5-3.9,0.4-5.6c-2.8,0.9-2.2,3.6-2.9,5.6C198.4,82.8,199.2,83.1,200,83.7z"/>
		<path class="st251" d="M199.7,84.4c0.1-0.2,0.2-0.4,0.2-0.7c-0.8-0.6-1.6-0.9-2.5-0.1C198.3,83.6,199.2,83.4,199.7,84.4z"/>
		<path class="st251" d="M200,83.7c0.1,0,0.1,0.1,0.2,0.1c0,0,0.1,0.1,0.1,0.1c1.4-1,2.9-2-0.1-3.6c-1.2-0.6,0.1-1.5,0.2-2.3
			C198.5,79.8,200.4,81.9,200,83.7z"/>
		<path class="st251" d="M200.2,83.9c-0.1,0-0.1-0.1-0.2-0.1c0,0.2-0.1,0.4-0.2,0.7c0.2-0.1,0.4-0.3,0.5-0.4
			C200.2,84,200.2,83.9,200.2,83.9z"/>
		<path class="st252" d="M144.4,114c-0.6-1.4,1.5-4.8-1.8-4.2c-2.9,0.4,0.9,3.1-0.4,4.9c-0.8,1,0.5,2.7,1.8,2.6
			C146.8,116.7,144.1,115.1,144.4,114z"/>
		<path class="st253" d="M260.7,84.4c0.4-0.5,1.1-0.8,1.7-1c-0.3-0.3-0.5-0.8-0.7-1.3c-0.7,1.2-1.8-0.2-2.7-0.1
			c0.6,4.9,0.6,4.9,2.7,5.1C259.3,87,259.7,85.7,260.7,84.4z"/>
		<path class="st253" d="M261.7,82.2c-0.1-0.2-0.2-0.4-0.3-0.7c-0.8,0.2-1.7,0.4-2.5,0.6c0,0,0,0,0,0C259.9,82,261,83.4,261.7,82.2z
			"/>
		<path class="st253" d="M261.9,84.8c1.3-0.4,3,0.6,3.8-1.2c0,0,0,0,0,0c-1.6,1.1-2.6,0.8-3.3-0.1c-0.6,0.2-1.3,0.5-1.7,1
			c-1,1.2-1.4,2.5,0.9,2.8C260,86.2,260.1,85.3,261.9,84.8z"/>
		<path class="st253" d="M261.9,81.8c-0.1,0.1-0.1,0.2-0.2,0.3c0.2,0.5,0.4,0.9,0.7,1.3c0.3-0.1,0.5-0.2,0.8-0.3
			C262.7,82.8,262.3,82.3,261.9,81.8z"/>
		<path class="st253" d="M261.5,81.5c0.1,0.2,0.2,0.5,0.3,0.7c0.1-0.1,0.1-0.2,0.2-0.3C261.7,81.7,261.6,81.6,261.5,81.5z"/>
		<path class="st253" d="M263.2,83.2c-0.3,0.1-0.5,0.2-0.8,0.3c0.7,0.9,1.7,1.2,3.3,0.1C264.6,84,263.8,83.7,263.2,83.2z"/>
		<path class="st254" d="M254.8,82.1c-1.1,1.1-2.3,2.2-3.4,3.3c-0.7,0.7-1.9,1.6-1.1,2.6c1,1.4,1.7-0.2,2.5-0.7
			c0.9-0.7,1.1,0,1.4,0.6C253.8,86,254,84,254.8,82.1z"/>
		<path class="st254" d="M254.8,82.1c-0.8,1.9-1,3.8-0.6,5.8C255.7,86.2,254.8,84.1,254.8,82.1z"/>
		<path class="st255" d="M149.8,84.7c-0.2-0.1-0.4-0.2-0.7-0.2c-1.6,1-3.1,1.9-5,2.3c-1,0.5-1.7,1.1-1,2.3c2.2-1.9,4.5-3.7,7.5-4.1
			C150.3,84.9,150.1,84.8,149.8,84.7z"/>
		<path class="st255" d="M149.8,84.7c0.3,0.1,0.6,0.2,0.9,0.3c0.1,0,0.1,0,0.2,0c0-0.5-0.1-0.9-0.1-1.4c-0.5,0.3-1.1,0.6-1.6,0.9
			C149.3,84.6,149.5,84.6,149.8,84.7z"/>
		<path class="st255" d="M150.6,85c-3,0.4-5.3,2.2-7.5,4.1c2.9-0.6,5.5-1.8,7.6-4.1C150.7,85,150.7,85,150.6,85z"/>
		<path class="st255" d="M150.7,85.1C150.8,85,150.8,85,150.7,85.1c0-0.1-0.1,0-0.1,0C150.7,85,150.7,85,150.7,85.1z"/>
		<path class="st256" d="M145.9,85.1C145.9,85.1,145.8,85.1,145.9,85.1c-1.3,0.2-2.9,0.8-2.9-1.5c-2,1.9,0.8,2.1,1.1,3.2
			C144.7,86.1,145.3,85.6,145.9,85.1z"/>
		<path class="st256" d="M145.8,85.1C145.8,85.1,145.9,85.1,145.8,85.1c1.5-1,3-1.6,4.9-1.6c-1.7-2.3-3,0-4.4,0.4
			c-1.2,0.3-2.4,1.9-3.3-0.4C143,85.9,144.6,85.3,145.8,85.1z"/>
		<path class="st256" d="M145.9,85.1c-0.6,0.5-1.2,1-1.8,1.7c1.9-0.3,3.4-1.3,5-2.3C148,84.3,147,85,145.9,85.1z"/>
		<path class="st256" d="M149.1,84.5c0.5-0.3,1-0.6,1.6-0.9c-1.9,0-3.4,0.6-4.8,1.6C147,85,148,84.3,149.1,84.5z"/>
		<path class="st257" d="M216.6,118c-0.1-0.3-0.1-0.6-0.2-0.9c0-0.5,0.1-1.1,0.2-1.6c-0.4,0.9-1.1,1.3-2.8-0.5
			c0,0.7-0.1,1.4-0.1,2.2C214.7,117.1,215.6,118.5,216.6,118z"/>
		<path class="st257" d="M216.6,115.5c-0.1,0.5-0.2,1-0.2,1.6c0,0.3,0.1,0.6,0.2,0.9c0.2-0.1,0.4-0.3,0.7-0.5c0,0,0,0,0,0v0
			c0.3-1.5,0.6-3,0.9-4.5C217.2,112.9,217,114.5,216.6,115.5z"/>
		<path class="st257" d="M216.6,115.5c0.2-1,0.5-1.9,0.8-2.8c0,0,0-0.1,0.1-0.1c-1.2-0.5-1.4,0.7-1.6,1.8c-0.2,1.9-1.2,1-2.1,0.7
			C215.5,116.9,216.2,116.5,216.6,115.5z"/>
		<path class="st257" d="M217.4,112.7c-0.4,0.9-0.7,1.9-0.8,2.8c0.5-1,0.6-2.6,1.6-2.6c-0.2-0.2-0.5-0.3-0.7-0.4
			C217.5,112.6,217.4,112.7,217.4,112.7z"/>
		<path class="st258" d="M213.7,117.2c-1.3,4.7,2.4,2.8,4.4,3.2c-0.6-0.6-1-1.3-1.3-2.1C215.6,119.8,214.6,118.4,213.7,117.2z"/>
		<path class="st258" d="M217.3,117.5c-0.2,0.4-0.4,0.6-0.5,0.9c0.3,0.8,0.7,1.5,1.3,2.1C218.1,119.4,218.2,118.3,217.3,117.5z"/>
		<path class="st258" d="M216.7,118.4c0-0.1-0.1-0.2-0.1-0.3c-1,0.5-1.9-0.9-2.9-0.8C214.6,118.4,215.6,119.8,216.7,118.4z"/>
		<path class="st258" d="M216.6,118c0,0.1,0.1,0.2,0.1,0.3c0.2-0.2,0.4-0.5,0.5-0.9c0,0,0,0,0,0C217,117.8,216.8,117.9,216.6,118z"
			/>
		<path class="st259" d="M204.8,82.2c-0.7,1.5-1.3,3.1-3.1,3.6c0.9,1.2,1.9,2.8,3.6,2.1c1.8-0.7,0.5-2.9,1.1-4.3c0,0,0,0,0,0
			C205.7,83.4,205.3,82.8,204.8,82.2z"/>
		<path class="st259" d="M206.4,83.6c-0.6,1.4,0.8,3.6-1.1,4.3c-1.7,0.7-2.6-0.9-3.6-2.1c-0.2,0-0.3,0.1-0.5,0.1
			c0,3.6,2.9,4.1,5.1,3.8c3.5-0.5,0.6-3,0.8-4.5c0.1-0.5,0-1.1,0-1.6C206.8,83.7,206.6,83.7,206.4,83.6
			C206.4,83.6,206.4,83.6,206.4,83.6z"/>
		<path class="st259" d="M201.7,85.9c1.8-0.5,2.4-2.1,3.1-3.6c-0.2-0.2-0.4-0.5-0.6-0.6h0c-0.9,1.3-1.9,2.6-2.8,4c0,0,0,0.1,0.1,0.1
			C201.6,85.7,201.6,85.8,201.7,85.9z"/>
		<path class="st259" d="M201.5,85.6C201.5,85.6,201.5,85.6,201.5,85.6c-0.2,0.1-0.3,0.2-0.4,0.4c0.2,0,0.4-0.1,0.5-0.1
			C201.6,85.8,201.6,85.7,201.5,85.6z"/>
		<path class="st260" d="M205.1,76.6c0.2,1.7,0.2,3.4-0.1,5.1c0.8,0.2,1.3,0.8,1.7,1.5c1.2-1.6,1.9-3.4,2.5-5.2
			C207.8,78.2,206.4,77.9,205.1,76.6z"/>
		<path class="st260" d="M209.3,77.9c-0.7,1.8-1.4,3.6-2.5,5.2c0.1,0.2,0.3,0.4,0.4,0.5c2.7-1.3,2.5-4.5,4.2-6.5h0v0
			C210.6,77.5,209.9,77.8,209.3,77.9z"/>
		<path class="st260" d="M209.3,77.9c0.1-0.2,0.2-0.5,0.3-0.7c-1.8-0.1-3.4-0.7-4.7-2.3c0,0,0,0,0,0c0.1,0.6,0.2,1.1,0.2,1.7
			C206.4,77.9,207.8,78.2,209.3,77.9z"/>
		<path class="st260" d="M209.5,77.2c-0.1,0.2-0.2,0.5-0.3,0.7c0.7-0.1,1.3-0.4,2-0.7v0C210.7,77.2,210.1,77.2,209.5,77.2z"/>
		<path class="st260" d="M205,81.6c0.3-1.7,0.3-3.4,0.1-5.1c-0.1-0.1-0.2-0.2-0.3-0.3c-0.3-0.2-0.5-0.5-0.6-0.8
			c-1.9,1.9,0.6,4.2,0.1,6.2l0,0C204.5,81.5,204.8,81.6,205,81.6z"/>
		<path class="st260" d="M205,81.6c0,0.1,0,0.1,0,0.2c-0.1,0.1-0.1,0.3-0.2,0.4c0.4,0.6,0.9,1.2,1.6,1.4c0.1-0.2,0.2-0.3,0.4-0.5
			C206.3,82.5,205.8,81.8,205,81.6z"/>
		<path class="st260" d="M206.4,83.6c0.2,0.1,0.5,0.1,0.7,0.1c-0.1-0.2-0.3-0.4-0.4-0.5C206.6,83.3,206.5,83.4,206.4,83.6z"/>
		<path class="st260" d="M205,81.8c0-0.1,0-0.1,0-0.2c-0.2-0.1-0.5-0.1-0.8,0c0.2,0.2,0.4,0.4,0.6,0.6C204.9,82.1,204.9,82,205,81.8
			z"/>
		<path class="st261" d="M226.7,106.2c-2.2,0.2-2.6,2.1-3,3.8c-0.3,1.3,0.7,1.8,1.9,1.8c2.7,0,2-2.4,2.7-3.8
			C228.9,106.3,227.7,106.1,226.7,106.2z"/>
		<path class="st262" d="M172.6,112.8c-0.1,0.2-0.3,0.3-0.4,0.5C172.4,113.2,172.6,113,172.6,112.8z"/>
		<ellipse transform="matrix(0.4472 -0.8944 0.8944 0.4472 -7.7805 215.4664)" class="st262" cx="170.4" cy="114" rx="0" ry="0"/>
		<path class="st262" d="M172.6,112.8c0-0.2,0-0.5-0.2-0.9c-0.6,0.6-1.1,1.2-1.7,1.8c0.4-0.2,1-0.2,1.4-0.3
			C172.4,113.1,172.5,112.9,172.6,112.8z"/>
		<path class="st262" d="M172.6,112.8c0,0.3-0.2,0.4-0.4,0.5c-0.2,0.3-0.4,0.5-0.6,0.8c1.6,0.2,3.3,0.4,4.8-0.6
			c-0.6-1.8-1.8-1.7-3-1.6c-0.1,0.1-0.2,0.2-0.3,0.3C173,112.4,172.8,112.6,172.6,112.8z"/>
		<path class="st262" d="M173.1,112.2c0.1-0.1,0.2-0.2,0.3-0.3c-0.3,0-0.7,0-1,0c0.2,0.4,0.2,0.7,0.2,0.9
			C172.8,112.6,173,112.4,173.1,112.2z"/>
		<path class="st262" d="M172.2,113.3c-0.4,0.2-1,0.2-1.4,0.3c-0.1,0.1-0.3,0.3-0.4,0.4c0,0,0,0,0,0l0,0c0.4,0,0.8,0,1.2,0.1
			C171.8,113.8,172,113.5,172.2,113.3z"/>
		<path class="st263" d="M319.6,82.2c0.6,0.8,0.7,1.8,0.6,2.8C321,83.9,322.1,82.7,319.6,82.2z"/>
		<path class="st263" d="M320.2,85c0,0.3,0,0.6-0.1,0.9c1.7-0.9,3.1-2.2,3.7-4.1c-1.6-0.9-3.1-0.6-4.6,0c0.2,0.2,0.3,0.3,0.4,0.5
			C322.1,82.7,321,83.9,320.2,85z"/>
		<path class="st263" d="M319.6,82.2c-0.1,0-0.3,0-0.4-0.1c0,1.2-0.1,2.4,0.7,3.4c0.1-0.2,0.2-0.4,0.3-0.6
			C320.2,84,320.2,83.1,319.6,82.2z"/>
		<path class="st263" d="M320.2,85c-0.1,0.2-0.3,0.4-0.3,0.6c0.1,0.1,0.2,0.2,0.3,0.3C320.2,85.6,320.2,85.3,320.2,85z"/>
		<path class="st263" d="M319.2,81.7c0,0.1,0,0.3,0,0.4c0.1,0,0.3,0,0.4,0.1C319.5,82.1,319.3,81.9,319.2,81.7z"/>
		<path class="st264" d="M160,74.3c0-0.1,0-0.2-0.1-0.4c-2.6-1.5-5-1.6-7.3,0.6c-0.1,0.1-0.2,0.3-0.2,0.4
			C154.9,75,157.5,75.3,160,74.3z"/>
		<path class="st264" d="M152.6,74.6c2.2-2.3,4.7-2.1,7.3-0.6c0,0.1,0,0.2,0.1,0.4c0.2-0.1,0.5-0.2,0.7-0.3c0,0,0,0,0,0l0,0
			c0.6-0.4,2.4-0.8,1.1-1.3c-3.2-1.2-6.7-1.1-10,0c-1.3,0.5,0.1,1.5,0,2.3c0.2,0,0.4,0,0.6,0C152.5,74.8,152.6,74.7,152.6,74.6z"/>
		<path class="st265" d="M160.5,76.5C160.5,76.5,160.5,76.5,160.5,76.5c0-0.1,0-0.1,0-0.2c-0.2,0-0.3,0-0.5,0
			C160.1,76.3,160.3,76.4,160.5,76.5z"/>
		<path class="st265" d="M151.7,75.9c-0.1,0.1-0.1,0.2-0.2,0.3c-0.7,0.3-0.8,0.6-0.5,1c0.8-0.5,1.5-1,2.3-1.2
			C152.7,76,152.2,75.9,151.7,75.9z"/>
		<path class="st265" d="M160.5,76.5C160.5,76.5,160.5,76.5,160.5,76.5c0.3,0.1,0.6,0.3,0.9,0.4l0-0.5c-0.3,0-0.6,0-0.9,0
			C160.4,76.4,160.4,76.4,160.5,76.5z"/>
		<path class="st265" d="M151.5,76.2c0.1-0.1,0.1-0.2,0.2-0.3c-0.3,0-0.7,0-1,0l0,0h0c-1,0.5-0.9,1,0,1.5c0.1-0.1,0.2-0.1,0.3-0.2
			C150.7,76.8,150.8,76.5,151.5,76.2z"/>
		<path class="st265" d="M160,76.3c-1,0-1.9-0.1-2.9-0.1c-0.7,0.1-1.5,0.1-2.2-0.1c-0.5,0-1.1,0-1.6-0.1c-0.8,0.3-1.5,0.7-2.3,1.2
			c0,0.1,0.1,0.1,0.1,0.2c3.2-0.2,6.4-0.3,9.5-0.5c-0.1-0.1-0.1-0.3-0.2-0.4C160.3,76.4,160.1,76.3,160,76.3z"/>
		<path class="st265" d="M160.6,76.9c0.2,0,0.5,0,0.7,0c-0.3-0.1-0.6-0.3-0.9-0.4C160.5,76.6,160.6,76.8,160.6,76.9z"/>
		<path class="st265" d="M150.9,77.2c-0.1,0.1-0.2,0.1-0.3,0.2c0.1,0,0.3,0,0.4,0C151,77.3,151,77.3,150.9,77.2z"/>
		<path class="st265" d="M157.1,76.2c-0.7,0-1.5-0.1-2.2-0.1C155.6,76.2,156.3,76.3,157.1,76.2z"/>
		<path class="st266" d="M152.3,75.2c-0.1,0.2-0.3,0.4-0.5,0.6c0.5,0,1-0.1,1.5-0.2C153,75.5,152.6,75.3,152.3,75.2z"/>
		<path class="st266" d="M160.3,76c-0.1-0.4-0.2-0.9-0.3-1.3c-0.4,0.4-0.8,0.7-1.3,0.9C159.3,75.7,159.8,75.8,160.3,76z"/>
		<path class="st266" d="M160.3,76c0.3,0.1,0.7,0.2,1,0.4c-0.2-0.8-0.5-1.6-0.7-2.3c-0.2,0.2-0.4,0.4-0.6,0.6
			C160.1,75.1,160.2,75.5,160.3,76z"/>
		<path class="st266" d="M152.3,75.2c-0.2-0.1-0.3-0.1-0.5-0.2v0c-0.4,0.3-0.8,0.6-1.1,0.9c0.4,0,0.8-0.1,1.1-0.1
			C152,75.6,152.1,75.4,152.3,75.2z"/>
		<path class="st266" d="M158.8,75.6c0.4-0.2,0.8-0.5,1.3-0.9c0-0.1,0-0.2-0.1-0.4c-2.4,1-5,0.7-7.6,0.7c0,0.1-0.1,0.1-0.1,0.2
			c0.4,0.2,0.7,0.3,1.1,0.4C155.2,75.4,157,75.3,158.8,75.6z"/>
		<path class="st266" d="M152.3,75.2c0-0.1,0.1-0.1,0.1-0.2c-0.2,0-0.4,0-0.6,0v0C152,75.1,152.1,75.1,152.3,75.2z"/>
		<path class="st266" d="M160,74.3c0,0.1,0,0.2,0.1,0.4c0.2-0.2,0.4-0.4,0.6-0.6c0,0,0,0,0,0C160.4,74.1,160.2,74.2,160,74.3z"/>
		<path class="st266" d="M153.9,75.8c-0.2-0.1-0.3-0.1-0.5-0.2c-0.5,0.1-1,0.1-1.5,0.2c0,0-0.1,0.1-0.1,0.1c0.5,0,1,0,1.5,0.1
			C153.4,75.9,153.7,75.9,153.9,75.8z"/>
		<path class="st266" d="M158.3,75.8c0.5,0.1,1.1,0.3,1.6,0.5c0.2,0,0.3,0,0.5,0c0-0.1-0.1-0.2-0.1-0.3c-0.5-0.2-1-0.3-1.5-0.4
			C158.6,75.7,158.5,75.7,158.3,75.8z"/>
		<path class="st266" d="M160.4,76.3c0.3,0,0.6,0,0.9,0c-0.3-0.2-0.7-0.3-1-0.4C160.4,76.1,160.4,76.2,160.4,76.3z"/>
		<path class="st266" d="M151.7,75.9c0,0,0.1-0.1,0.1-0.1c-0.4,0-0.8,0.1-1.1,0.1l0,0C151,75.9,151.4,75.9,151.7,75.9z"/>
		<path class="st266" d="M153.2,76c0.5,0,1.1,0,1.6,0.1c-0.3-0.1-0.7-0.2-1-0.3C153.7,75.9,153.4,75.9,153.2,76z"/>
		<path class="st266" d="M157.1,76.2c1,0,1.9,0.1,2.9,0.1c-0.5-0.2-1.1-0.4-1.6-0.5C157.9,76,157.5,76.1,157.1,76.2z"/>
		<path class="st266" d="M158.3,75.8c0.2-0.1,0.3-0.1,0.5-0.2c-1.8-0.3-3.6-0.1-5.4,0c0.2,0.1,0.3,0.1,0.5,0.2
			C155.3,75.4,156.8,75.5,158.3,75.8z"/>
		<path class="st266" d="M153.9,75.8c0.3,0.1,0.7,0.2,1,0.3c0.7,0,1.5,0.1,2.2,0.1c0.4-0.1,0.8-0.2,1.3-0.4
			C156.8,75.5,155.3,75.4,153.9,75.8z"/>
	</g>
</g>
</svg>
