<?xml version="1.0" encoding="utf-8"?>
<!-- Generator: Adobe Illustrator 21.1.0, SVG Export Plug-In . SVG Version: 6.00 Build 0)  -->
<svg version="1.1" id="Layer_1" xmlns="http://www.w3.org/2000/svg" xmlns:xlink="http://www.w3.org/1999/xlink" x="0px" y="0px"
	 viewBox="0 0 282 424.2" style="enable-background:new 0 0 282 424.2;" xml:space="preserve">
<style type="text/css">
	.st0{fill:#D77310;}
</style>
<g>
	<path class="st0" d="M136.5,373.8c-4.9-6.8-10.5-13.1-14.8-20.3c-5.9-10-9.5-20.9-11.8-32.2c-1.1-5.5,0.4-7.2,6.2-7.2
		c15.8-0.1,31.6-0.1,47.4,0c5.8,0,6.8,1.3,5.7,7.3c-3.1,17.6-10.1,33.3-22.1,46.7c-1.6,1.8-2.9,3.8-4.4,5.7
		C140.7,373.8,138.6,373.8,136.5,373.8z"/>
	<path class="st0" d="M233.7,217.8c-0.3,35.9-5.2,64.5-18,91.4c-3.5,7.4-4.4,7.7-11.5,3.7c-0.6-0.3-1.3-0.6-1.8-1
		c-9.9-8-21.3-8.6-33.4-8.3c-23.3,0.5-46.7,0.3-70,0c-5.8-0.1-10.8,1.1-15.4,4.5c-2.4,1.7-5,2.9-7.5,4.4c-8.2,4.9-8.4,4.9-12.5-3.9
		c-6.4-13.7-10.7-28-13.8-42.9c-5.4-25.9-5-51.8-1.5-77.7c2.2-16.6,6.6-32.8,11.9-48.7c9.2-27.6,22.1-53.4,37.4-78.2
		c11.6-18.7,24.2-36.5,38.2-53.5c3.5-4.2,5.5-3.1,8.3,0.4c18,22.1,34.1,45.5,48,70.4c15.3,27.5,27.6,56.3,34.5,87.1
		C230.9,184.8,234.4,204.2,233.7,217.8z M140,280c18.4,0,36.7,0,55.1,0c3.4,0,5.5-0.7,6.7-4.6c5-15.8,7.2-32.1,7.8-48.6
		c1.4-33.5-4.7-65.8-16.8-97c-12.2-31.6-28.9-60.6-49.5-87.4c-2.8-3.6-5-2.9-7.3,0.1c-5.2,7-10.8,13.8-15.5,21.2
		c-18.5,29-33.8,59.6-42.7,93.1c-5.3,19.9-8.8,40.3-8.9,60.8c-0.1,19.2,3.1,38.1,8.4,56.6c1.2,4.3,3.2,5.7,7.5,5.7
		C103.2,279.9,121.6,280,140,280z"/>
	<path class="st0" d="M27.9,315.2c-6.2,0-12.4,0-18.5,0c-3,0-5.1-0.9-4.6-4.5c1.2-7.1,2.5-14.2,3.5-21.3c1.2-8.3,7.9-12.5,12.9-18
		c3-3.3,6.5-6,9.9-9c1-0.9,2.1-2,3.6-1.4c1.6,0.6,1.7,2,1.8,3.4c1.1,16.3,5.8,31.6,13.7,45.9c2.1,3.7,0.5,5-3.2,5
		C40.6,315.2,34.3,315.2,27.9,315.2z"/>
	<path class="st0" d="M250.9,315.2c-6,0-12,0.1-18,0c-4.7-0.1-5.5-1.6-3.3-5.7c6.3-11.8,11-24.2,12.2-37.7c0.2-1.7,0.7-3.4,1.3-5
		c0.8-2-0.6-5.2,1.9-6c2.5-0.7,4,2.1,5.7,3.6c4.3,3.9,8.2,8.4,12.7,12c5,4,7.1,9.3,7.7,15c0.7,6.3,2.6,12.3,3.1,18.6
		c0.3,3.7-0.8,5.1-4.4,5.1C263.6,315.1,257.2,315.2,250.9,315.2z"/>
	<path class="st0" d="M151.8,250.4c-0.1-2.4,0.6-5,0.9-7.8c0.7-4.7-3.1-8.7-7.3-7.3c-10.6,3.6-19.9,0.1-29.1-4.3
		c-4.9-2.4-4.9-2.5-5.7,3.2c-0.8,6.2-3.7,11.3-9.8,13.4c-6.2,2.1-12.2,1.1-16.8-4.4c-3.7-4.4-4.5-10.4-1.8-15.8
		c2.7-5.3,9.5-9.4,14.6-8.8c6.3,0.8,7.1-0.8,5.6-7.1c-2-8.6-2.3-17.3,1.9-25.6c2.9-5.7,1.8-9.1-4-12.1c-1.4-0.7-2.8-1.2-4.2-1.8
		c-5.5-2.3-9-8.5-7.7-13.7c1.3-5.5,7.4-10.3,12.8-10.1c6,0.2,11.1,4.9,11.8,10.8c0.1,1.2,0,2.4,0.2,3.6c0.8,5.2,5,7.3,9.8,5.5
		c8.9-3.3,17.8-4.4,27-0.6c5,2.1,7.6,0.1,7.3-5.2c-0.6-10.8,6.5-19.7,16.7-21.1c9.1-1.2,18.4,5.7,20.8,15.5
		c2.7,11-10.9,23.7-22.4,20.9c-1.8-0.4-3.5-1.7-5.1,0.4c-1.6,2.1-0.4,3.9,0.6,5.7c6.2,11.1,6.5,22.5,0.4,33.4
		c-3.8,6.7-1,10.8,6.4,10.7c13.4-0.3,23.5,9.9,23.7,22.7c0.2,13.4-10.4,24.4-23.4,24.3C162.2,274.7,151.9,264,151.8,250.4z
		 M163.2,200.3c0-14-11.9-26.4-25.5-26.2c-15.6,0.2-26.4,11.4-26.8,26c-0.3,13.8,12.4,26.3,26.2,26.3
		C151.6,226.3,163.2,214.7,163.2,200.3z"/>
	<path class="st0" d="M128.2,202.2c-0.2,2.2-2.4,4.1-6,3.8c-3.4-0.2-5.3-2.3-5.1-5.8c0.3-3.7,2.8-5.5,6.2-5.4
		C126.9,195,128.5,197.2,128.2,202.2z"/>
	<path class="st0" d="M136.6,206.2c-3.1-0.4-5.6-2.1-5.8-5.3c-0.2-3.5,2.3-5.6,5.7-5.9c3.4-0.3,5.7,1.7,5.8,5.1
		C142.4,203.5,140.1,205.5,136.6,206.2z"/>
	<path class="st0" d="M150.3,206.2c-3.7-0.2-5.7-2.7-6-5.6c-0.3-3.7,2.5-5.5,5.9-5.7c3.2-0.1,5.3,1.8,5.4,5
		C155.8,203.5,153.5,205.4,150.3,206.2z"/>
</g>
<g>
	<path d="M17.5,393.4l8.2,21.8h-5l-1.7-4.9h-8.2l-1.7,4.9H4.3l8.3-21.8H17.5z M17.8,406.8l-2.8-8H15l-2.8,8H17.8z"/>
	<path d="M31.2,399.4v2h0.1c0.5-0.9,1.2-1.5,2-1.9c0.8-0.4,1.7-0.6,2.7-0.6c1.2,0,2.3,0.2,3.2,0.7c0.9,0.5,1.6,1.1,2.2,1.9
		c0.6,0.8,1,1.7,1.3,2.7c0.3,1,0.4,2.1,0.4,3.2c0,1.1-0.1,2.1-0.4,3.1c-0.3,1-0.7,1.8-1.3,2.6c-0.6,0.8-1.3,1.4-2.2,1.8
		c-0.9,0.4-1.9,0.7-3,0.7c-1,0-1.9-0.2-2.7-0.6c-0.8-0.4-1.5-1-2-1.8h-0.1v7.5h-4.3v-21.3H31.2z M36.9,411.9
		c0.5-0.3,0.9-0.7,1.2-1.1c0.3-0.5,0.5-1,0.6-1.6c0.1-0.6,0.2-1.2,0.2-1.9c0-0.6-0.1-1.3-0.2-1.9s-0.4-1.2-0.7-1.6
		c-0.3-0.5-0.7-0.9-1.2-1.2c-0.5-0.3-1.1-0.4-1.8-0.4c-0.7,0-1.3,0.1-1.8,0.4c-0.5,0.3-0.9,0.7-1.2,1.1c-0.3,0.5-0.5,1-0.6,1.6
		c-0.1,0.6-0.2,1.2-0.2,1.9c0,0.6,0.1,1.3,0.2,1.9c0.1,0.6,0.3,1.1,0.6,1.6c0.3,0.5,0.7,0.8,1.2,1.1c0.5,0.3,1.1,0.4,1.8,0.4
		C35.8,412.4,36.4,412.2,36.9,411.9z"/>
	<path d="M46.4,401.7c0.4-0.7,1-1.2,1.7-1.6c0.7-0.4,1.5-0.7,2.3-0.9s1.7-0.3,2.6-0.3c0.8,0,1.6,0.1,2.4,0.2
		c0.8,0.1,1.6,0.3,2.2,0.7c0.7,0.3,1.2,0.8,1.7,1.4c0.4,0.6,0.6,1.4,0.6,2.3v8.2c0,0.7,0,1.4,0.1,2c0.1,0.7,0.2,1.1,0.4,1.5h-4.4
		c-0.1-0.2-0.1-0.5-0.2-0.7c-0.1-0.3-0.1-0.5-0.1-0.8c-0.7,0.7-1.5,1.2-2.4,1.5c-0.9,0.3-1.9,0.4-2.9,0.4c-0.8,0-1.5-0.1-2.1-0.3
		c-0.7-0.2-1.2-0.5-1.7-0.9c-0.5-0.4-0.9-0.9-1.1-1.5c-0.3-0.6-0.4-1.3-0.4-2.1c0-0.9,0.2-1.6,0.5-2.2c0.3-0.6,0.7-1,1.2-1.4
		c0.5-0.3,1.1-0.6,1.7-0.8c0.6-0.2,1.3-0.3,1.9-0.4c0.7-0.1,1.3-0.2,1.9-0.2c0.6-0.1,1.2-0.2,1.7-0.3c0.5-0.1,0.9-0.3,1.2-0.5
		c0.3-0.2,0.4-0.6,0.4-1c0-0.5-0.1-0.8-0.2-1.1c-0.2-0.3-0.4-0.5-0.6-0.6c-0.3-0.2-0.6-0.3-0.9-0.3c-0.3-0.1-0.7-0.1-1.1-0.1
		c-0.9,0-1.5,0.2-2,0.6c-0.5,0.4-0.8,1-0.9,1.8h-4.3C45.7,403.2,45.9,402.4,46.4,401.7z M55,407.8c-0.3,0.1-0.6,0.2-0.9,0.2
		c-0.3,0.1-0.6,0.1-1,0.2c-0.3,0-0.7,0.1-1,0.2c-0.3,0.1-0.6,0.1-1,0.2c-0.3,0.1-0.6,0.2-0.8,0.4c-0.2,0.2-0.4,0.4-0.6,0.7
		c-0.1,0.3-0.2,0.6-0.2,1c0,0.4,0.1,0.7,0.2,1c0.1,0.3,0.3,0.5,0.6,0.6c0.2,0.2,0.5,0.3,0.9,0.3c0.3,0.1,0.7,0.1,1,0.1
		c0.9,0,1.5-0.1,2-0.4c0.5-0.3,0.8-0.6,1-1c0.2-0.4,0.4-0.8,0.4-1.2c0.1-0.4,0.1-0.7,0.1-1v-1.6C55.5,407.6,55.2,407.8,55,407.8z"/>
	<path d="M70.9,402.2c-0.7,0-1.3,0.2-1.7,0.5c-0.5,0.3-0.9,0.7-1.1,1.2c-0.3,0.5-0.5,1.1-0.6,1.7c-0.1,0.6-0.2,1.2-0.2,1.8
		c0,0.6,0.1,1.2,0.2,1.7c0.1,0.6,0.3,1.1,0.6,1.6c0.3,0.5,0.6,0.9,1.1,1.2c0.5,0.3,1,0.5,1.7,0.5c1,0,1.8-0.3,2.4-0.9
		c0.6-0.6,0.9-1.4,1.1-2.3h4.2c-0.3,2.1-1.1,3.7-2.4,4.8c-1.3,1.1-3.1,1.7-5.2,1.7c-1.2,0-2.3-0.2-3.3-0.6c-1-0.4-1.8-1-2.5-1.7
		c-0.7-0.7-1.2-1.6-1.6-2.6c-0.4-1-0.6-2.1-0.6-3.3c0-1.2,0.2-2.4,0.5-3.4c0.4-1.1,0.9-2,1.6-2.7c0.7-0.8,1.5-1.4,2.5-1.8
		c1-0.4,2.1-0.6,3.4-0.6c0.9,0,1.8,0.1,2.7,0.4c0.9,0.2,1.6,0.6,2.3,1.1c0.7,0.5,1.2,1.1,1.7,1.9c0.4,0.7,0.7,1.6,0.7,2.6h-4.3
		C73.8,403.1,72.8,402.2,70.9,402.2z"/>
	<path d="M85.2,393.4v8.2h0.1c0.6-0.9,1.3-1.6,2.1-2c0.9-0.4,1.7-0.6,2.5-0.6c1.2,0,2.1,0.2,2.9,0.5c0.7,0.3,1.3,0.8,1.8,1.3
		c0.4,0.6,0.7,1.2,0.9,2c0.2,0.8,0.3,1.7,0.3,2.7v9.7h-4.3v-8.9c0-1.3-0.2-2.3-0.6-2.9s-1.1-1-2.2-1c-1.2,0-2,0.4-2.6,1.1
		c-0.5,0.7-0.8,1.9-0.8,3.5v8.3h-4.3v-21.8H85.2z"/>
	<path d="M103.7,411.4c0.7,0.6,1.6,0.9,2.8,0.9c0.9,0,1.6-0.2,2.3-0.7c0.6-0.4,1-0.9,1.2-1.4h3.8c-0.6,1.9-1.5,3.3-2.8,4.1
		c-1.3,0.8-2.8,1.2-4.6,1.2c-1.2,0-2.4-0.2-3.4-0.6c-1-0.4-1.8-1-2.5-1.7c-0.7-0.7-1.2-1.6-1.6-2.6c-0.4-1-0.6-2.1-0.6-3.4
		c0-1.2,0.2-2.3,0.6-3.3c0.4-1,0.9-1.9,1.7-2.6c0.7-0.7,1.6-1.3,2.6-1.8c1-0.4,2.1-0.6,3.3-0.6c1.3,0,2.5,0.3,3.5,0.8
		c1,0.5,1.8,1.2,2.5,2.1c0.6,0.9,1.1,1.9,1.4,3c0.3,1.1,0.4,2.3,0.3,3.5h-11.4C102.7,409.8,103,410.8,103.7,411.4z M108.6,403.1
		c-0.5-0.6-1.3-0.9-2.4-0.9c-0.7,0-1.3,0.1-1.7,0.4c-0.5,0.2-0.8,0.5-1.1,0.9c-0.3,0.3-0.5,0.7-0.6,1.1c-0.1,0.4-0.2,0.7-0.2,1h7.1
		C109.5,404.5,109.1,403.7,108.6,403.1z"/>
	<path d="M137.3,393.4c1,0,1.9,0.2,2.6,0.5c0.8,0.3,1.5,0.7,2,1.3c0.6,0.6,1,1.2,1.3,1.9c0.3,0.7,0.4,1.5,0.4,2.3
		c0,1.3-0.3,2.4-0.8,3.3c-0.5,0.9-1.4,1.7-2.6,2.1v0.1c0.6,0.2,1.1,0.4,1.5,0.7s0.7,0.7,0.9,1.2c0.2,0.5,0.4,1,0.5,1.5
		c0.1,0.6,0.2,1.1,0.2,1.7c0,0.3,0,0.8,0.1,1.2c0,0.5,0.1,0.9,0.1,1.4c0.1,0.5,0.1,1,0.2,1.4c0.1,0.4,0.3,0.8,0.5,1.1h-4.8
		c-0.3-0.7-0.4-1.5-0.5-2.5c-0.1-1-0.2-1.9-0.3-2.8c-0.2-1.1-0.5-2-1-2.5c-0.5-0.5-1.4-0.8-2.6-0.8h-4.8v8.5h-4.8v-21.8H137.3z
		 M135.6,403.2c1.1,0,1.9-0.2,2.5-0.7c0.6-0.5,0.8-1.3,0.8-2.4c0-1.1-0.3-1.8-0.8-2.3c-0.6-0.5-1.4-0.7-2.5-0.7h-5.3v6.1H135.6z"/>
	<path d="M147.3,403.9c0.4-1,0.9-1.9,1.7-2.6c0.7-0.7,1.6-1.3,2.6-1.7c1-0.4,2.1-0.6,3.4-0.6c1.2,0,2.4,0.2,3.4,0.6
		c1,0.4,1.9,1,2.6,1.7s1.3,1.6,1.7,2.6c0.4,1,0.6,2.2,0.6,3.4c0,1.3-0.2,2.4-0.6,3.4c-0.4,1-0.9,1.9-1.7,2.6s-1.6,1.3-2.6,1.7
		c-1,0.4-2.1,0.6-3.4,0.6c-1.2,0-2.4-0.2-3.4-0.6c-1-0.4-1.9-0.9-2.6-1.7c-0.7-0.7-1.3-1.6-1.7-2.6c-0.4-1-0.6-2.2-0.6-3.4
		C146.7,406,146.9,404.9,147.3,403.9z M151.2,409.2c0.1,0.6,0.3,1.1,0.6,1.6c0.3,0.5,0.7,0.9,1.2,1.1c0.5,0.3,1.1,0.4,1.8,0.4
		c0.7,0,1.4-0.1,1.8-0.4c0.5-0.3,0.9-0.7,1.2-1.1c0.3-0.5,0.5-1,0.6-1.6c0.1-0.6,0.2-1.2,0.2-1.9c0-0.6-0.1-1.3-0.2-1.9
		c-0.1-0.6-0.3-1.2-0.6-1.6c-0.3-0.5-0.7-0.9-1.2-1.1c-0.5-0.3-1.1-0.4-1.8-0.4c-0.7,0-1.3,0.1-1.8,0.4c-0.5,0.3-0.9,0.7-1.2,1.1
		c-0.3,0.5-0.5,1-0.6,1.6c-0.1,0.6-0.2,1.2-0.2,1.9C151,407.9,151.1,408.6,151.2,409.2z"/>
	<path d="M173.4,402.2c-0.7,0-1.3,0.2-1.7,0.5c-0.5,0.3-0.9,0.7-1.1,1.2c-0.3,0.5-0.5,1.1-0.6,1.7c-0.1,0.6-0.2,1.2-0.2,1.8
		c0,0.6,0.1,1.2,0.2,1.7c0.1,0.6,0.3,1.1,0.6,1.6c0.3,0.5,0.6,0.9,1.1,1.2c0.5,0.3,1,0.5,1.7,0.5c1,0,1.8-0.3,2.4-0.9
		c0.6-0.6,0.9-1.4,1.1-2.3h4.2c-0.3,2.1-1.1,3.7-2.4,4.8c-1.3,1.1-3.1,1.7-5.2,1.7c-1.2,0-2.3-0.2-3.3-0.6c-1-0.4-1.8-1-2.5-1.7
		c-0.7-0.7-1.2-1.6-1.6-2.6c-0.4-1-0.6-2.1-0.6-3.3c0-1.2,0.2-2.4,0.5-3.4c0.4-1.1,0.9-2,1.6-2.7c0.7-0.8,1.5-1.4,2.5-1.8
		c1-0.4,2.1-0.6,3.4-0.6c0.9,0,1.8,0.1,2.7,0.4c0.9,0.2,1.6,0.6,2.3,1.1c0.7,0.5,1.2,1.1,1.7,1.9c0.4,0.7,0.7,1.6,0.7,2.6h-4.3
		C176.3,403.1,175.3,402.2,173.4,402.2z"/>
	<path d="M188.2,393.4v11.7l5.5-5.7h5.1l-6,5.8l6.6,10h-5.3l-4.3-7.1l-1.7,1.6v5.4h-4.3v-21.8H188.2z"/>
	<path d="M205.6,411.4c0.7,0.6,1.6,0.9,2.8,0.9c0.9,0,1.6-0.2,2.3-0.7c0.6-0.4,1-0.9,1.2-1.4h3.8c-0.6,1.9-1.5,3.3-2.8,4.1
		c-1.3,0.8-2.8,1.2-4.6,1.2c-1.2,0-2.4-0.2-3.4-0.6c-1-0.4-1.8-1-2.5-1.7c-0.7-0.7-1.2-1.6-1.6-2.6c-0.4-1-0.6-2.1-0.6-3.4
		c0-1.2,0.2-2.3,0.6-3.3c0.4-1,0.9-1.9,1.7-2.6c0.7-0.7,1.6-1.3,2.6-1.8c1-0.4,2.1-0.6,3.3-0.6c1.3,0,2.5,0.3,3.5,0.8
		c1,0.5,1.8,1.2,2.5,2.1c0.6,0.9,1.1,1.9,1.4,3c0.3,1.1,0.4,2.3,0.3,3.5h-11.4C204.6,409.8,205,410.8,205.6,411.4z M210.5,403.1
		c-0.5-0.6-1.3-0.9-2.4-0.9c-0.7,0-1.3,0.1-1.7,0.4c-0.5,0.2-0.8,0.5-1.1,0.9c-0.3,0.3-0.5,0.7-0.6,1.1s-0.2,0.7-0.2,1h7.1
		C211.4,404.5,211,403.7,210.5,403.1z"/>
	<path d="M227.2,399.4v2.9H224v7.8c0,0.7,0.1,1.2,0.4,1.5c0.2,0.2,0.7,0.4,1.5,0.4c0.2,0,0.5,0,0.7,0c0.2,0,0.4-0.1,0.6-0.1v3.4
		c-0.4,0.1-0.8,0.1-1.2,0.1c-0.4,0-0.9,0-1.3,0c-0.7,0-1.3,0-1.9-0.1c-0.6-0.1-1.1-0.3-1.6-0.5c-0.5-0.3-0.8-0.6-1.1-1.1
		c-0.3-0.5-0.4-1.1-0.4-1.9v-9.3h-2.6v-2.9h2.6v-4.7h4.3v4.7H227.2z"/>
	<path d="M236.5,393.4l5.1,15h0.1l4.8-15h6.8v21.8h-4.5v-15.5h-0.1l-5.4,15.5h-3.7l-5.4-15.3h-0.1v15.3h-4.5v-21.8H236.5z"/>
	<path d="M272.6,414.4c-1.4,0.8-3.2,1.3-5.3,1.3c-1.7,0-3.2-0.3-4.5-0.9c-1.3-0.6-2.5-1.4-3.4-2.4c-0.9-1-1.6-2.2-2.1-3.6
		c-0.5-1.4-0.7-2.9-0.7-4.4c0-1.6,0.2-3.1,0.7-4.5c0.5-1.4,1.2-2.6,2.1-3.7c0.9-1,2-1.9,3.4-2.4s2.8-0.9,4.5-0.9
		c1.7,0,3.2,0.3,4.5,0.9c1.3,0.6,2.4,1.4,3.4,2.4c0.9,1,1.6,2.3,2.1,3.7c0.5,1.4,0.7,2.9,0.7,4.5c0,1.6-0.2,3.1-0.7,4.4
		c-0.5,1.4-1.2,2.6-2.1,3.6l2.7,2.5l-2.2,2.3L272.6,414.4z M271.9,409.4c0.4-0.6,0.7-1.2,1-2c0.2-0.8,0.4-1.8,0.4-3
		c0-1-0.1-1.9-0.3-2.8c-0.2-0.9-0.6-1.7-1-2.4c-0.5-0.7-1.1-1.3-1.8-1.7c-0.8-0.4-1.7-0.6-2.8-0.6c-1.1,0-2,0.2-2.8,0.6
		c-0.8,0.4-1.4,1-1.8,1.7c-0.5,0.7-0.8,1.5-1,2.4c-0.2,0.9-0.3,1.8-0.3,2.8c0,0.9,0.1,1.8,0.3,2.7c0.2,0.9,0.6,1.6,1,2.3
		c0.5,0.7,1.1,1.2,1.8,1.7c0.8,0.4,1.7,0.6,2.8,0.6c0.5,0,0.9,0,1.2-0.1c0.3,0,0.5-0.1,0.8-0.2l-2-1.9l2.2-2.4L271.9,409.4z"/>
</g>
</svg>
