<?xml version="1.0" encoding="utf-8"?>
<!-- Generator: Adobe Illustrator 21.1.0, SVG Export Plug-In . SVG Version: 6.00 Build 0)  -->
<svg version="1.1" id="Layer_1" xmlns="http://www.w3.org/2000/svg" xmlns:xlink="http://www.w3.org/1999/xlink" x="0px" y="0px"
	 viewBox="0 0 288 110.5" style="enable-background:new 0 0 288 110.5;" xml:space="preserve">
<style type="text/css">
	.st0{fill:#245692;}
	.st1{fill:#358FBF;}
	.st2{fill:#E79943;}
	.st3{fill:#2B76AD;}
	.st4{fill:#80746D;}
	.st5{fill:#3C3C3B;}
	.st6{font-family:'ProximaNova-Light';}
	.st7{font-size:30.0135px;}
	.st8{font-family:'ProximaNova-Bold';}
	.st9{font-size:45.1963px;}
	.st10{font-family:'Gotham-Medium';}
	.st11{font-size:7.3055px;}
</style>
<g>
	<path class="st0" d="M25,28c4.8-5,9.8-9.9,15.4-13.9c9.9-7.1,25.5-6.8,35.3,0.6c6.6,4.9,8.6,10.2,7.1,18.4c2.7,0.2,5.5,0.6,8,1.6
		c5.8,2.2,9.3,7.1,9.4,12.9c0.1,6.1-3.5,11.5-9.3,14c-2.5,1-5,1.6-7.7,1.7c-4.8,0.4-9.6,0.1-14.4,0.2c-0.6,0-1.3,0.1-1.6-0.5
		c-0.3-0.7,0.1-1.3,0.7-1.8c2-1.6,3.9-3.2,6.7-3c3,0.1,6,0.3,9.1-0.1c1.7-0.5,3.4-0.8,5-1.5c4.1-1.8,6.1-5.4,5.7-9.6
		c-0.4-3.7-3.8-6.8-8.5-7.8c-4.1-0.9-8.3-0.3-12.7-0.7c0.9-1.5,1.7-2.8,2.4-4.1C78.3,29,77.4,24.1,73,20c-6.9-6.3-18.6-7.5-26.9-2.9
		c-3.6,2-6.6,4.8-9.8,7.4c-0.3,0.7-0.8,1.3-1.5,1.7c-2.2,1-4.5,1.5-6.9,2.1C27,28.6,25.9,28.9,25,28z"/>
	<path class="st1" d="M35.1,25.7c0.3-0.5,0.6-1,1.2-1.1c0.9,1.1,2,0.4,3,0.3c5.9-0.6,11.8-0.4,17.1,2.6c6.1,3.4,8.9,8.9,8.6,15.8
		c-0.3,7-4.5,11.2-10.4,14c-4.8,2.3-10,3.4-15.3,3.5C28,61,16.8,60.9,5.5,61c-0.4,0-0.7-0.1-1.7-0.2c4-3.2,7.7-6.1,11.3-8.9
		c2.7-2.1,5.7-3.9,8.1-6.3c3.8-3.6,8-5,13.6-3.6c-5.7,4.4-11.2,8.8-17.5,13.7c7.2-0.2,13.6,0.2,20-0.4c4.4-0.4,8.7-1.1,12.8-3
		c5.4-2.6,8.2-7.1,7.4-11.8c-0.9-5.4-5.2-9.3-11.2-10c-5.3-0.6-10.5,0-15.7,1.4c-0.7,0.2-1.5,0.3-2.3,0.4c-0.8-2.5,1.4-3.5,2.6-5
		C33.5,26.6,34.4,26.2,35.1,25.7z"/>
	<path class="st2" d="M65.7,64c-2.9,2.3-5.9,4.6-8.8,7c0,0.2,0.1,0.4,0.1,0.6c8.5,0,17,0,26,0c-2.3,3-5,4.4-7.3,6.2
		c-8.9,7-17.9,13.7-26.6,20.9c-3.4,2.8-6.9,2.5-11.4,2.2c10.2-8,19.8-15.6,29.5-23.1c0-0.2-0.1-0.4-0.1-0.6c-8.6,0-17.1,0-25.7,0
		c-0.1-0.3-0.2-0.6-0.3-0.8c5.5-4.3,10.9-8.5,16.4-12.8c1.8-0.2,3.6-0.8,5.4-0.7C64,62.7,65,62.9,65.7,64z"/>
	<path class="st3" d="M35.1,25.7c-1.4,2.3-4,3.8-4.7,6.6c-5.1,2-10.3,4-15.4,6.1c-0.1-0.2-0.3-0.4-0.4-0.7c3.5-3.2,6.9-6.4,10.4-9.6
		C28.5,28,31.7,26.3,35.1,25.7z"/>
	<path class="st4" d="M65.7,64c-2.7-1.4-5.6,0.7-8.2-0.6c1.8-1.5,3.7-2.8,5.5-4.4c1-0.9,2.1-0.9,3.3-0.9c5.8,0,11.7,0,17.5-0.1
		c-1.9,1-4.1,0.7-6,0.4c-4.2-0.6-7.3,1.3-10.8,4.9c5.9,0,11.1,0,16.3,0c-4.5,0.8-9.1,0.2-13.7,0.4C68.2,63.9,67,63.9,65.7,64z"/>
</g>
<text transform="matrix(1 0 0 1 115.5957 38.5347)" class="st5 st6 st7">Apache</text>
<text transform="matrix(1 0 0 1 113.5957 76.207)" class="st5 st8 st9">Storm</text>
<text transform="matrix(1 0 0 1 267.5912 51.126)" class="st5 st10 st11">TM</text>
</svg>
