<?xml version="1.0" encoding="utf-8"?>
<!-- Generator: Adobe Illustrator 21.1.0, SVG Export Plug-In . SVG Version: 6.00 Build 0)  -->
<svg version="1.1" id="Layer_1" xmlns="http://www.w3.org/2000/svg" xmlns:xlink="http://www.w3.org/1999/xlink" x="0px" y="0px"
	 viewBox="0 0 402 170.3" style="enable-background:new 0 0 402 170.3;" xml:space="preserve">
<style type="text/css">
	.st0{fill:#0B5565;}
	.st1{fill:#27AAE0;}
	.st2{fill:#375C92;}
	.st3{fill:#8DC53E;}
	.st4{fill:#34A474;}
	.st5{enable-background:new    ;}
	.st6{fill:#003399;}
	.st7{fill:#0088D1;}
	.st8{fill:#4299D0;}
	.st9{fill:none;}
	.st10{fill:#E95028;}
	.st11{fill:#FB6D26;}
	.st12{fill:#FBA226;}
	.st13{fill:#E14329;}
	.st14{fill:#BC5A34;}
	.st15{fill:#FFFFFF;}
	.st16{fill:#195C8B;}
	.st17{fill:#0E89C8;}
	.st18{fill:#54AEDE;}
	.st19{fill:#1F608E;}
	.st20{fill:#246391;}
	.st21{fill:none;stroke:#246391;stroke-width:0;stroke-linecap:round;stroke-linejoin:round;}
	.st22{fill:#83C6EB;}
	.st23{fill:none;stroke:#83C6EB;stroke-width:0;stroke-linecap:round;stroke-linejoin:round;}
	.st24{fill:#369BD1;}
	.st25{fill:none;stroke:#369BD1;stroke-width:0;stroke-linecap:round;stroke-linejoin:round;}
	.st26{fill:#0D538A;}
	.st27{fill:#0B528A;}
	.st28{fill:none;stroke:#0B528A;stroke-width:0;stroke-linecap:round;stroke-linejoin:round;}
	.st29{fill:#0B487D;}
	.st30{fill:none;stroke:#0B487D;stroke-width:0;stroke-linecap:round;stroke-linejoin:round;}
	.st31{fill:#010101;}
	.st32{fill:#818181;}
	.st33{fill:#FEFEFE;}
	.st34{fill:#2296F3;}
	.st35{clip-path:url(#SVGID_2_);fill:#32324B;}
	.st36{clip-path:url(#SVGID_2_);}
	.st37{clip-path:url(#SVGID_4_);fill:#32324B;}
	.st38{clip-path:url(#SVGID_4_);fill:#00D2FF;}
	.st39{clip-path:url(#SVGID_4_);fill:#FF4B19;}
	.st40{fill:#6DBECA;}
	.st41{fill:#2194D2;}
	.st42{fill:#2295D2;}
	.st43{fill:#6BB045;}
	.st44{fill:#2797D3;}
	.st45{fill:#84BF68;}
	.st46{fill:#7ABC6D;}
	.st47{fill:#87C06D;}
	.st48{fill:#62B68B;}
	.st49{fill:#68B776;}
	.st50{fill:#52B3B2;}
	.st51{fill:#48AC94;}
	.st52{fill:#58AF66;}
	.st53{fill:#49AC8A;}
	.st54{fill:#56B4B3;}
	.st55{fill:#53B1A2;}
	.st56{fill:#5BB170;}
	.st57{fill:#78BF8E;}
	.st58{fill:#61B794;}
	.st59{fill:#A6A6A6;}
	.st60{fill:#939393;}
	.st61{fill:#9CCDEC;}
	.st62{fill:#9ED1EE;}
	.st63{fill:#9ACFF2;}
	.st64{fill:#9ED5F6;}
	.st65{fill:#9DD2F4;}
	.st66{fill:#A0D6F6;}
	.st67{fill:#B0B0B0;}
	.st68{fill:#A7A7A7;}
	.st69{fill:#949494;}
	.st70{fill:#D6EEFD;}
	.st71{fill:#9AC9E9;}
	.st72{fill:#91B5DC;}
	.st73{fill:#D4EBFB;}
	.st74{fill:#D1E8F8;}
	.st75{fill:#A8A8A8;}
	.st76{fill:#93B9DF;}
	.st77{fill:#8FB1D9;}
	.st78{fill:#93C2EB;}
	.st79{fill:#96C6ED;}
	.st80{fill:#959595;}
	.st81{fill:#8EB6E5;}
	.st82{fill:#8EADD7;}
	.st83{fill:#96BFE3;}
	.st84{fill:#98C5E6;}
	.st85{fill:#92BEE9;}
	.st86{fill:#90BAE7;}
	.st87{fill:#88ABDE;}
	.st88{fill:#86A7DC;}
	.st89{fill:#8AAFE0;}
	.st90{fill:#C7DDEF;}
	.st91{fill:#97C1E4;}
	.st92{fill:#99CCF1;}
	.st93{fill:#CCE2F3;}
	.st94{fill:#829ED7;}
	.st95{fill:#CAE0F2;}
	.st96{fill:#C4D9EC;}
	.st97{fill:#83A2D9;}
	.st98{fill:#7F9AD5;}
	.st99{fill:#8CB2E3;}
	.st100{fill:#A3A3A3;}
	.st101{fill:#7B90CF;}
	.st102{fill:#7E96D3;}
	.st103{fill:#7584C9;}
	.st104{fill:#798CCD;}
	.st105{fill:#C1D6EA;}
	.st106{fill:#7889CB;}
	.st107{fill:#6F73BF;}
	.st108{fill:#97C3E5;}
	.st109{fill:#7D93D1;}
	.st110{fill:#7380C6;}
	.st111{fill:#BBCEE4;}
	.st112{fill:#707BC3;}
	.st113{fill:#A2A2A2;}
	.st114{fill:#BFD2E7;}
	.st115{fill:#C0D4E8;}
	.st116{fill:#B9CCE1;}
	.st117{fill:#6F77C1;}
	.st118{fill:#A1A1A1;}
	.st119{fill:#E9EBF4;}
	.st120{fill:#D7EEFD;}
	.st121{fill:#D2E9F9;}
	.st122{fill:#CFE6F7;}
	.st123{fill:#96C1E8;}
	.st124{fill:#95BDE5;}
	.st125{fill:#8EABD8;}
	.st126{fill:#8A9FD0;}
	.st127{fill:#CDE3F4;}
	.st128{fill:#98C6EB;}
	.st129{fill:#90AFDB;}
	.st130{fill:#9BCDF0;}
	.st131{fill:#8CA4D4;}
	.st132{fill:#93B7E1;}
	.st133{fill:#889ACD;}
	.st134{fill:#94BCE1;}
	.st135{fill:#9ACAEE;}
	.st136{fill:#8CA9D4;}
	.st137{fill:#C6DBEE;}
	.st138{fill:#9DD1F3;}
	.st139{fill:#C9DEF0;}
	.st140{fill:#8DA7D6;}
	.st141{fill:#89A3D0;}
	.st142{fill:#838CC3;}
	.st143{fill:#889FCD;}
	.st144{fill:#8BA6D2;}
	.st145{fill:#8695CA;}
	.st146{fill:#C3D8EB;}
	.st147{fill:#8591C7;}
	.st148{fill:#8394C6;}
	.st149{fill:#8598C9;}
	.st150{fill:#869CCB;}
	.st151{fill:#C1D5E9;}
	.st152{fill:#8190C3;}
	.st153{fill:#BDD0E5;}
	.st154{fill:#8185BF;}
	.st155{fill:#BACDE3;}
	.st156{fill:#BFD3E7;}
	.st157{fill:#808CC0;}
	.st158{fill:#B6C8DE;}
	.st159{fill:#B3C4DB;}
	.st160{fill:#7F89BF;}
	.st161{fill:#7D85BC;}
	.st162{fill:#B9CBE1;}
	.st163{fill:#94BAE3;}
	.st164{fill:#8CA7D2;}
	.st165{fill:#DDE0ED;}
	.st166{fill:#D5ECFC;}
	.st167{fill:#CFE6F6;}
	.st168{fill:#CBE0F2;}
	.st169{fill:#C8DEF0;}
	.st170{fill:#C5DAED;}
	.st171{fill:#BFD3E8;}
	.st172{fill:#8CB3E3;}
	.st173{fill:#BACCE2;}
	.st174{fill:#B6C9DF;}
	.st175{fill:#B2C3DB;}
	.st176{fill:#B0C1DA;}
	.st177{fill:#84A2DA;}
	.st178{fill:#C2D7EA;}
	.st179{fill:#97C9EF;}
	.st180{fill:#F6F6F6;}
	.st181{fill:#F5F5F5;}
	.st182{fill:#F7F7F7;}
	.st183{fill:#A4A4A4;}
	.st184{fill:#CEE5F6;}
	.st185{fill:#B5C7DE;}
	.st186{fill:#91B2DE;}
	.st187{fill:#8183BD;}
	.st188{fill:#CACFE3;}
</style>
<g>
	<path class="st9" d="M77.4,82.6c0-0.1,0-0.2,0-0.2C77.4,82.4,77.4,82.5,77.4,82.6C77.4,82.6,77.4,82.6,77.4,82.6z"/>
	<path class="st9" d="M391,136.1c0,0-0.1,0-0.1,0c0,0,0.1,0,0.1,0.1C391,136.2,391,136.2,391,136.1z"/>
	<path class="st9" d="M5.8,87c0-0.1,0-0.1-0.1-0.2c0,0,0,0,0,0C5.8,86.9,5.8,87,5.8,87z"/>
	<path class="st33" d="M285.1,81.2c0,0,0-0.1,0-0.1c-0.2,0-0.4,0.1-0.7,0.1C284.7,81.2,284.9,81.2,285.1,81.2L285.1,81.2z"/>
	<path class="st33" d="M220.1,38.2c0.1,0,0.1,0,0.2,0c0,0,0-0.1,0-0.1C220.2,38,220.2,38.1,220.1,38.2
		C220.1,38.1,220.1,38.1,220.1,38.2z"/>
	<path class="st33" d="M219.8,16.6C219.8,16.7,219.8,16.7,219.8,16.6C219.8,16.7,219.8,16.6,219.8,16.6
		C219.8,16.6,219.8,16.6,219.8,16.6z"/>
	<path class="st33" d="M5.8,86.8C5.6,86.4,5.3,86,5,85.7C5.3,86.1,5.5,86.5,5.8,86.8C5.8,86.9,5.8,86.8,5.8,86.8z"/>
	<path class="st33" d="M77.4,82.5c0,0.1,0,0.3,0,0.4C77.4,82.8,77.4,82.7,77.4,82.5C77.4,82.6,77.4,82.6,77.4,82.5z"/>
	<polygon class="st33" points="25.2,123.6 25.2,123.6 25.2,123.6 	"/>
	<path class="st59" d="M394.9,83.1c-1.2-5.4-2.4-10.9-3.6-16.4c-0.7-2.9-3.6-4.2-7.3-3.1c-2.9,0.8-1.2,2.8-0.9,4.3
		c1.1,5.3,2.6,10.6,3.6,15.9c1.1,5.9,0,7.2-5.9,7.2c-16.2,0-32.4,0-48.6,0c-5.4,0-7.1-2.2-6-7.5c1.9-8.9,4-17.8,5.7-26.7
		c0.6-3.1,1.9-4,5-4c19.9,0.1,39.8,0.1,59.7,0.1c0-2.7,0-5.3,0-8l-0.3-0.2l-0.3,0.2c-25.1,0-50.3,0.1-75.4,0c-2.4,0-4.3,0.3-5.3,2.7
		c0,0,0,0,0,0s0,0,0,0c0,0.3,0,0.6,0,0.9c0.5,0.3,1,0.7,1.3,1c0.3,0.4,0.4,0.8,0.3,1.1c-0.1,0.4-0.6,0.9-1.5,1.3c0,0,0,0,0,0
		c1.4,1.7,3.3,0.9,4.9,0.8c3.3-0.2,3.9,0.8,3.1,4c-2.2,9.3-4,18.6-5.9,28c-1.9,9.2,3.3,15.8,12.6,15.9c17.8,0.1,35.5,0,53.3,0
		c5.9,0,10.2-2.2,12.3-8c0-0.1,0-0.2,0-0.2c0.1-1.7-0.1-4.4-0.3-5.9 M388,85.6c0-0.1,0-0.1,0.1-0.2c0.6,1.1,0.7,2,0,3
		c-0.1-0.1-0.1-0.3-0.2-0.4C387.6,87.3,387.6,86.5,388,85.6z M381.3,92.2c0.6,0,1.3,0,1.9,0c0,0.1,0,0.2,0,0.3
		c-17.9,0-35.7,0-53.6,0c0-0.1,0-0.2,0-0.3c1,0,1.9,0,2.9,0C348.8,92.2,365,92.2,381.3,92.2z"/>
	<path class="st60" d="M395.6,152.8c-0.1-10-0.1-20.1-0.1-30.1c0-0.2,0-0.4,0-0.7c0,0,0,0,0,0c-3.4-0.7-4.8,0.5-4.5,4.1
		c0.3,3.3,0.1,6.6,0.1,10c0,0,0,0.1,0,0.1c0,0-0.1,0-0.1-0.1c-7.3-3.9-12.3-3.4-16.2,1.5c-4.3,5.5-4,14.8,0.8,19.5
		c4.4,4.4,8.9,4.3,15.6-0.5c0.1,4.2,3.2,2.8,5.5,3.3c0-0.9,0-1.8,0-2.7C394.9,156.1,395.6,154.3,395.6,152.8z M391.1,146
		c0,7.2-2.9,10.7-7.5,10.4c-4.4-0.3-7.5-4.6-7.1-10c0.1-1.4,0.4-2.9,0.9-4.3c1.1-3.3,3.6-5.1,7-5c3.4,0.1,5.6,2.3,6.4,5.7
		C391,144.2,391,145.7,391.1,146z"/>
	<path class="st61" d="M116.9,3.7c-0.2-0.1-0.4-0.2-0.6-0.3c0,0,0,0,0,0c0,0,0,0,0,0c-0.7,0-1.4,0.1-1.8,0.7
		c0.3,0.2,0.6,0.4,0.8,0.5c6.4,4,12.9,8.1,19.3,12.2c3,1.9,5.1,4.7,8.8,6c2.5,0.9,3.6,3.7,4.4,6.4c0.2,0.6,0.3,1.1,0.5,1.6
		c0,0,0,0,0,0c0,0,0,0,0,0c1.3-3,1.1-5.9,0-8.9c-0.4-0.7-0.9-1.3-1.4-1.8c-4.8-5.4-12.3-7.5-17.3-12.7c-1.8-1.9-4.7-2.8-7.2-3.9
		c-0.9-0.4-1.4-0.9-1.5-1.9c-0.6,0-1.2,0-1.8,0C119.1,3.6,118.5,4.4,116.9,3.7z"/>
	<path class="st62" d="M122.2,3.5c2.5,1.2,5.4,2,7.2,3.9c5,5.2,12.5,7.3,17.3,12.7c0.5,0.6,1,1.2,1.4,1.8c-0.3-3.6-1.9-6.7-3.9-9.7
		c-3.7-5.8-9.7-8.1-15.6-10.7c-2.7,0-5.3,0-8,0C120.8,2.6,121.3,3.1,122.2,3.5z"/>
	<path class="st63" d="M132.2,162.6c6.9-4.3,12.2-10.3,18-15.8c2.4-2.3,5.6-3.9,7.2-7c0.2-0.3,0.4-0.7,0.5-1.1c0,0,0,0,0,0
		c0,0,0,0,0,0c0-0.6-0.1-1.2-0.1-1.7l0,0c-0.3,0-0.6,0-0.9,0c-0.3,0-0.5,0-0.8,0c-9.4,8.6-18.6,17.5-28.7,25.3
		c-0.2,0.1-0.4,0.3-0.5,0.4c0,0,0,0,0,0c0.6,0.6,1.2,1.1,1.8,1.7c0.3,0,0.6,0,0.9,0C130,163.2,130.9,162.6,132.2,162.6z"/>
	<path class="st64" d="M145.4,161.4c7.2-4,11.7-9.8,12.5-18.2c-0.4,0.6-0.8,1.2-1.2,1.8c-4.9,6.7-11.9,11.1-18.1,16.3
		c-1,0.9-2.8,1.3-2.8,3.1c1.5,0,2.9,0,4.4,0C141.5,162.6,143.6,162.3,145.4,161.4z"/>
	<path class="st65" d="M138.5,161.2c6.2-5.2,13.2-9.6,18.1-16.3c0.4-0.6,0.8-1.1,1.2-1.8c0.7-1.5,1.4-2.9,0.1-4.5c0,0,0,0,0,0
		c-0.1,0.4-0.3,0.7-0.5,1.1c-1.6,3.1-4.8,4.7-7.2,7c-5.8,5.5-11.1,11.5-18,15.8c0.1,0.2,0.2,0.5,0.3,0.7c0.2,0.4,0.4,0.7,0.5,1.1
		c0.9,0,1.8,0,2.7,0C135.7,162.5,137.5,162.1,138.5,161.2z"/>
	<path class="st66" d="M8.5,113.9c-0.3-0.8-0.5-1.5-0.6-2.3c-1.1-5.2-0.7-10.8-2.7-15.7c-1.2-2.9,1.1-5.3,0.1-7.8
		c-0.1-0.3-0.2-0.5-0.4-0.8c0,0,0,0,0,0c0,0,0,0,0,0c-1.2,0.9-1,4.9-2.5,5.6c0,4.1,0,8.3,0,12.4C4.8,108.5,5.1,111.1,8.5,113.9z"/>
	<path class="st62" d="M116.2,3.4c0.2,0.1,0.4,0.2,0.6,0.3c1.6,0.7,2.2-0.1,2.1-2.1c-0.3,0-0.6,0-0.9,0
		C117.5,2.2,116.8,2.8,116.2,3.4C116.2,3.4,116.2,3.4,116.2,3.4z"/>
	<path class="st64" d="M132.2,162.6c-1.3,0-2.2,0.6-2.7,1.8c1.2,0,2.4,0,3.5,0c-0.2-0.4-0.4-0.7-0.5-1.1
		C132.4,163,132.3,162.8,132.2,162.6z"/>
	<path class="st59" d="M231.5,26.5c6.9,1.9,14,0.1,20.9,1.1c0.1,0,0.1,0.2,0.1,0.3c0,0.1-0.1,0.3-0.2,0.4c0,0,0,0,0,0c0,0,0,0,0,0
		c2.2,3.2,1.1,4.5-2.6,4.3c-2.8-0.1-5.6,0-8.4,0c-7,0-10.8,3-10.6,10c0.2,8.2,0.3,16.5,0.4,24.7c0,2,1,2.7,2.8,2.4
		c1.8-0.3,4.8,1.3,4.9-1.8c0.1-3.6,1.9-3.7,4.5-3.5c2.2,0.1,4.4,0.1,6.6,0c2.4-0.1,4.4,0,4.2,3.3c-0.2,2.5,1.8,2.4,3.4,2.2
		c1.6-0.2,4.6,1.2,4.5-1.8c0-3.8,2-3.8,4.7-3.7c2.6,0.1,5.3,0.1,7.9,0c1.9,0,3.5,0.1,3.4,2.7c-0.1,4.2,3.2,2.4,5.1,2.7
		c2.6,0.4,2.8-1.4,2.7-3.3c-0.3-7.9,0.2-15.9-0.7-23.8c-0.7-6.5-3.6-9.5-10.1-9.9c-3.5-0.2-7.1-0.1-10.6-0.1c-1.6,0-3.1-0.1-3.1-2.2
		c0-2.1,1.7-2.1,3.2-2.1c5.7,0,11.5,0.1,17.2,0c1.4,0,3.8,1.3,3.8-1.4c0-2,1.7-4.9-1.7-6c-1.2-0.4-1.8-1-1.7-2.1c0-3.9-2.9-2.8-5-3
		c-2.1-0.2-3.9,0-3.6,2.9c0.2,1.8-1,2.2-2.5,2.2c-2.4,0-4.7,0-7.1,0c-1.5,0-2.8-0.5-2.7-2.2c0.2-3.3-2.1-2.9-4.1-2.9
		c-2,0-4.2-0.4-4.1,2.9c0.1,2.4-1.9,2.2-3.5,2.2c-4.6,0-9.1,0-13.7,0c-6.2,0-6.9,1.1-4.7,7.3C231.3,27.6,231.4,27.1,231.5,26.5z
		 M262.2,39.8c4.3-2,8.8-0.9,13.2-0.7c0,0.1-0.1,0.3-0.1,0.3c-0.3,0.1-0.5,0.2-0.8,0.3c1.5,1.4,5,1.8,2.8,5.2c0,0,0,0,0,0
		c0,0,0,0,0,0c-0.2,0.9-0.6,1.7-1.6,1.7c-3.9,0-7.9,0-11.8,0c-1.1,0-1.4-0.9-1.5-1.8C262.2,43.2,262.2,41.5,262.2,39.8
		C262.2,39.8,262.2,39.8,262.2,39.8C262.2,39.8,262.2,39.8,262.2,39.8z M266.2,52.2c2.6,0,5.2,0,7.8,0c4.5,0,4.9,0.7,3.1,5.1
		c0,0,0,0,0,0c0,0,0,0,0,0c-4.7,1.7-9.4,1.5-14,0C261.3,52.7,261.6,52.2,266.2,52.2z M254,54.6c0,1.6-0.7,2.5-2.3,2.5
		c-1.9,0-3.8,0-5.7,0c0,0,0,0,0,0c-1.6,0-3.2,0-4.9,0c-1.8,0-2.7-0.8-2.7-2.7c0-1.7,1-2.3,2.6-2.3c3.5,0,7.1,0,10.6,0
		C253.2,52.2,254,53,254,54.6z M252.4,45L252.4,45c-2.8,3.6-6.6,1-9.9,1.7c-1.3,0.3-3,0.4-3.3-1.7c-2.2-2.8,0.2-3.9,1.9-5.2
		c0,0,0,0,0,0c0,0,0,0,0,0c-0.3-0.2-0.6-0.4-1-0.6c4.4-0.3,8.9-1.4,13.2,0.7C253.2,41.6,254.2,43.5,252.4,45z"/>
	<path class="st59" d="M319.3,25.7c24.6-0.2,49.1-0.1,73.7-0.2c0-0.9-0.1-1.8,0-2.6c0.5-3.5-0.9-4.5-4.4-4.5
		c-22.1,0.2-44.1,0.1-66.2,0.1c-1.4,0-2.9,0-5.2,0c2.2-1.3,3.7-0.9,5.1-0.9c21.3,0,42.6,0,64,0c4.5,0,6.3,0,7.1,1.7
		c0,0.1,0.1,0.2,0.1,0.2c0,0,0,0,0,0c0,0.1,0.1,0.3,0.1,0.4c0.3,1.2,0.3,2.9,0.3,5.5c1.5-1.5,0.5-3.3,0.7-5c0.4-2.8-0.8-3.8-3.7-3.8
		c-23.8,0.1-47.6,0.1-71.5,0c-3.2,0-3.7,1.4-3.5,4C316.2,22.9,315,25.7,319.3,25.7z"/>
	<path class="st67" d="M231.5,140.1c3.6-2.4,5.8-5.3,4.7-9.4c-1.1-4.5-4.8-6.3-8.9-6.8c-3.5-0.5-7.1-0.1-10.6-0.1
		c-3,0-4.1,1.3-4,4.4c0.2,6.6,0.1,13.2,0.1,19.9c0,12.9,0,12.9,13,11.9c5.6-0.4,10.2-3.6,11.4-7.7
		C238.6,147.5,237.1,144.4,231.5,140.1z M223.2,128.4c3,0.4,6.4,0.6,6.3,5.1c-0.1,3.2-2.7,5-6.9,5.2c-4.5,0.1-3.1-3.4-3.2-4.8
		C219.6,130.3,219.4,128,223.2,128.4z M223.2,155c-5.2-0.5-3.8-5.2-3.7-8c0.1-2.3,0.3-4.3,3.1-3.7c5,0.1,8.2,2.6,8.1,6
		C230.6,152.7,227.4,155.4,223.2,155z"/>
	<path class="st59" d="M280.6,96.2c-0.9-4.5,0.2-9,0.5-13.4c0.1-1.7,1.9-1.5,3.4-1.5c0.2-0.1,0.4-0.1,0.7-0.1c0-2,0-4,0-6
		c-1.8-0.1-3.7,0-3.6-2.7c-0.9,0.3-1.1,2.2-1.5,1.7c-3-4-4.7-1-6.7,0.9c0,0,0,0,0,0c0,0,0,0,0,0c-13.2,0-26.3,0.1-39.5,0.1
		c-3.1,5.6-2.7,6.1,3.8,6.1c10.5,0,21.1,0,31.6,0c1.5,0,3.3-0.7,4.3,1.2c0,0,0,0,0,0c0,0,0,0,0,0c0,1.5-0.1,3,0,4.4
		c0.5,3.9-1.3,5.5-5.1,5c-0.7-0.1-1.5,0-2.2,0c-1.5,0-3.2,0.1-3.1,2.2c0.1,2.1-1.1,4.7,1.1,6.2C267.7,102.6,278.1,99.8,280.6,96.2z"
		/>
	<path class="st68" d="M217.7,101.6c3.6-0.1,4-1.5,4-4.5c-0.2-17.1-0.2-34.1-1-51.2c-0.2-1.1,0.2-2.8-1.5-2.4
		c-1.8,0.4-0.3,1.5,0,2.3c0.3,0.8,0.5,1.6,0.6,2.5c0.1,1.2-0.5,2-1.6,2.2c-1.2,0.2-1.3-0.9-1.6-1.7c-0.2-0.7-0.2-1.4-0.3-2.1
		c-0.1-1.4,0.4-3.2-1.3-3.8c-1.9-0.7-2,1.8-3.3,2.3c0,0,0,0,0,0c0,0,0,0,0,0c1.1,1.2,0.9,2.7,0.9,4.2c0.3,15.9,0.7,31.8,0.8,47.7
		C213.4,100.1,213.9,101.7,217.7,101.6z"/>
	<path class="st67" d="M254.6,133.3c-8,0-12.9,5.1-13,13.4c0,8.1,5.3,13.8,12.9,13.8c7.3,0,12.9-6.2,12.9-14.1
		C267.4,138.6,262.4,133.3,254.6,133.3z M259.1,152.6c-2.4,4.1-7.3,3.8-9.6-0.2c-0.6-1-1-2.1-1.5-3.2c0,0,0,0,0,0c0,0,0,0,0,0
		c-0.2,0.4-0.7,1.4-0.8,0.8c-0.3-1.9,0-4,0.1-5.9c0,0,0.3-0.1,0.4-0.1c0.1,0,0.2,0.2,0.4,0.2c0.7-1.3,1.2-2.7,2.1-3.8
		c2.8-3.3,7.1-3,9.1,0.8C261.2,144.9,261.3,148.9,259.1,152.6z"/>
	<path class="st69" d="M326.8,133.4c-7.5-0.1-12.6,5.3-12.6,13.4c-0.1,7.8,5,13.6,12,13.7c7.1,0.1,12.8-6.3,12.8-14.1
		C338.9,139,333.8,133.5,326.8,133.4z M332.8,152.4c-1.3,2.6-3.3,4.1-6.2,4.2c-3,0.1-5-1.5-6.4-3.9c-1-1.6-1.4-3.5-1.4-5.5
		c-0.1-5.7,3-10.1,7.5-10.2c4.6-0.1,7.7,3.9,7.7,9.8C334,148.8,333.7,150.6,332.8,152.4z"/>
	<path class="st60" d="M285.9,127.7c2.9-0.8,5.8-0.6,8.7,0.2c1.2,0.3,2.4,0.5,2.8-1.1c0.5-1.8-0.5-2.4-1.9-2.8
		c-2.6-0.7-5.3-0.7-7.9-0.5c-7.2,0.6-12.5,4.1-15.1,11c-2.8,7.6-2.2,15,3.7,20.9c5.4,5.4,12.4,5.5,19.4,3.8c1.3-0.3,2.2-0.9,1.9-2.4
		c-0.3-1.6-1.5-1.5-2.7-1.3c-0.6,0.1-1.1,0.3-1.7,0.4c-10,1.9-16.8-3.8-16.9-13.8C276.1,134.3,279.4,129.5,285.9,127.7z"/>
	<path class="st70" d="M135.6,76.7c1.2,4,2.2,8.1,2.1,12.5c-0.1,1.8-0.2,3.4-0.7,5.1c-0.1,0.4-0.2,0.8-0.3,1.2c0,0,0,0,0,0
		c1.1,0,1.9-0.6,2.7-1.4c5.5-5.2,8.3-11.6,6.8-19c-1.7-8-6.4-13.8-14.7-15.8c0.2,0.4,0.4,0.8,0.6,1.3C134,65.6,134,71.3,135.6,76.7z
		"/>
	<path class="st69" d="M365.8,137c0-1.6-0.1-2.9-2.3-2.9c-2.1,0-2.3,1.3-2.3,2.9c0,4,0.1,7.9,0,11.9c-0.1,4.2-2.5,7.1-6,7.4
		c-3.4,0.3-5.6-1.9-6-6.6c-0.4-4.2-0.2-8.5-0.2-12.8c0-1.7-0.4-2.8-2.4-2.8c-1.8,0.1-2.2,1.1-2.2,2.6c0,4.9-0.2,9.7,0.2,14.6
		c0.4,5.9,4.5,9.6,9.3,9.1c2.9-0.3,5.2-1.7,7.7-4.3c0.2,2.4,0.7,4.2,3.1,3.6c1.3-0.3,1.4-1.2,1.3-2.4
		C365.9,150.5,365.9,143.8,365.8,137z"/>
	<path class="st59" d="M219.8,16.6c-0.3-0.1-0.6-0.2-0.9-0.3C219.2,16.5,219.5,16.6,219.8,16.6C219.8,16.6,219.8,16.6,219.8,16.6z"
		/>
	<path class="st59" d="M219.7,38.2c0.1,0,0.3,0,0.4,0c0,0,0-0.1,0-0.1C220,38.1,219.8,38.2,219.7,38.2z"/>
	<path class="st59" d="M219.8,16.7L219.8,16.7C219.8,16.6,219.8,16.6,219.8,16.7C219.8,16.6,219.8,16.6,219.8,16.7
		C219.8,16.6,219.8,16.7,219.8,16.7z"/>
	<polygon class="st59" points="204.7,37 204.7,37 204.7,37 	"/>
	<path class="st59" d="M214.9,42.8c1.7,0.7,1.2,2.4,1.3,3.8c0,0.7,0,1.5,0.3,2.1c0.3,0.7,0.4,1.9,1.6,1.7c1.2-0.2,1.8-1,1.6-2.2
		c-0.1-0.8-0.3-1.7-0.6-2.5c-0.3-0.8-1.8-1.9,0-2.3c1.8-0.4,1.4,1.4,1.5,2.4c2.2-1.4,4.7-0.4,7.1-0.9c0-1,0-2,0-3.1
		c0-5.3-0.7-5.9-7.4-3.9c0,0,0,0.1,0,0.1c4.2-0.3,7.7-1,6.1,4.4c-1.8-0.5-3.1-2-5-2.3c-2.3-0.4-6.6-0.9-2.2-4.9
		c0.8-0.7,0.4-2.8,0.4-4.2c0.1-4.8,0-9.6,0.1-14.5c-7.8,0.3-7.1-1.4-7.1,7.4c0,3.5,0,7-0.1,10.5c0,0,0,0,0,0c0,0,0,0,0,0
		c0,0.4,0,0.8,0,1.2c-2.3,2.5-5.3,0.7-7.9,1.2c1.6,1.6,3.6,0.7,5.4,0.9c1,0.1,2.3-0.1,2.3,1.3c0,1.4-1.3,1.4-2.3,1.3
		c-3.4-0.3-5,1-4.5,4.5c0,0,0,0,0,0c0,0,0,0,0,0c2,0,4,0,6.1,0.1c0,0,0,0,0,0C212.9,44.5,213,42,214.9,42.8z M217.5,27.1
		c1-1.1,1,1.1,1.3,1.5c0.3,3.4-2.6,3.8-4.3,5c-0.7,0.5-1-0.7-1-1.4C213.8,29.7,216.1,28.6,217.5,27.1z M214.4,18
		c0.7-0.5,1.6,0.1,1.5,0.9c-0.1,2.2,1.6,5-2.2,6.2c-0.1-0.9-0.3-1.6-0.2-2.3C213.8,21.1,212.7,19.2,214.4,18z"/>
	<polygon class="st71" points="107.4,10.5 107.4,10.5 107.4,10.5 	"/>
	<path class="st71" d="M147.7,29.3c-0.8-2.7-1.9-5.5-4.4-6.4c-3.7-1.3-5.8-4.1-8.8-6c-6.4-4.1-12.9-8.1-19.3-12.2
		c-0.3-0.2-0.6-0.4-0.8-0.5c-3.6,1.2-6.7,3-8.7,6.4c0.4,0,0.8,0,1.2,0c0.2,0,0.3,0,0.5,0c2-2.4,3.1-3.3,6.7-0.8
		c4.3,3.1,9.1,5.9,13.8,8.9c5.3,3.3,9.7,8.1,15.6,10.6c1.9,0.8,2.6,2.3,3.2,3.9c0.2,0.4,0.3,0.8,0.5,1.2c1.3-0.9,0.8-2.2,1-3.4
		c0,0,0,0,0,0C148,30.4,147.9,29.8,147.7,29.3z"/>
	<path class="st72" d="M127.8,39.7c-7.8-5.6-16.2-10.3-23.5-16.5c-1.4-1.2-2.6-1.2-3.8-0.7c-0.3,0.1-0.6,0.3-0.9,0.4
		c-0.8,1.4-1,2.9-1,4.4c0.3,0.1,0.6,0.2,0.9,0.3c2.6,0.8,5,2.2,7.3,3.8c6.3,4.7,13.1,8.7,19.3,13.6c1.9,1.5,4.5,2.7,6.7,4.1
		c0.2,0.1,0.4,0.2,0.6,0.4c0,0,0,0,0,0c0,0,0,0,0,0c1.1,0.2,1.7-0.7,2.5-1.1c0-0.3-0.1-0.6-0.1-0.8
		C134.6,43.4,130.8,41.9,127.8,39.7z"/>
	<path class="st73" d="M122.5,58.3C122.5,58.3,122.5,58.3,122.5,58.3c0,0.3,0,0.5-0.1,0.8c7.1,1.9,5.6,8.5,6.9,13.3
		c1.6,6,1.7,12.4,3.1,18.4c0.5,2.3,0.3,4.2-0.5,6c-0.2,0.4-0.4,0.9-0.6,1.3c2-0.3,3.8-1.2,5.3-2.6c0.1-0.4,0.2-0.8,0.3-1.2
		c0.4-1.6,0.6-3.3,0.7-5.1c0.1-4.3-0.9-8.5-2.1-12.5c-1.6-5.4-1.6-11.1-3.7-16.3c-0.2-0.4-0.4-0.9-0.6-1.3c-2.1-1.7-5,0.1-7.1-1.8
		c0,0,0,0,0,0c0,0-0.1,0-0.1,0.1C123.6,57.7,123,58,122.5,58.3z"/>
	<path class="st74" d="M132.5,90.7c-1.4-6-1.5-12.4-3.1-18.4c-1.3-4.8,0.2-11.4-6.9-13.3c0,0,0,0,0,0c-0.1,0.1-0.2,0.1-0.4,0.2
		c-0.7,0.3-1.4,0.6-2.2,0.9c0,0.2-0.1,0.5-0.1,0.7c0,0,0,0,0,0c0,0,0,0,0,0c4.2,4.3,4.2,10.2,5,15.4c0.8,5.6,2.2,11.1,3.4,16.6
		c0.9,4.4-0.9,4.4-3.9,4.2c-0.4,0.1-0.8,0.3-1.2,0.4c-0.5,0.2-1,0.3-1.4,0.5c0,0,0,0,0,0c0,0,0,0,0,0c3.3,1.8,6.5,0.7,9.8,0
		c0,0,0,0,0,0c0.2-0.4,0.5-0.9,0.6-1.3C132.8,94.9,133,93.1,132.5,90.7z"/>
	<path class="st75" d="M254.5,95.3c3.1,0.1,3.2-1.9,3.1-4.1c-0.1-2.1,0.6-4.6-3-4.6c-5.7,0.1-11.4,0-17.2,0c-1.2,0-2.2,0-2.7,1.6
		c-1.3,4.8,0.3,7,5.3,7c2.1,0,4.1,0,6.2,0C249,95.3,251.8,95.2,254.5,95.3z"/>
	<path class="st76" d="M140.2,43.2c-9.3-6.6-18.8-12.8-28.1-19.3c-3-2.1-5.9-5.2-9.8-6.1c-0.3-0.1-0.6-0.1-0.9-0.2
		c-0.2,1.9-2.4,3.1-1.8,5.3c0,0,0,0,0,0c0.3-0.2,0.6-0.3,0.9-0.4c1.2-0.5,2.4-0.5,3.8,0.7c7.3,6.2,15.8,10.9,23.5,16.5
		c3,2.2,6.8,3.7,7.8,7.8c0.1,0.3,0.1,0.6,0.1,0.8c1.5-0.4,2.8-1.1,3.6-2.5c0.2-0.5,0.3-0.9,0.5-1.4C139.9,44.1,140,43.6,140.2,43.2z
		"/>
	<path class="st77" d="M132.7,49.1c-2.2-1.5-4.7-2.6-6.7-4.1c-6.2-4.8-13-8.9-19.3-13.6c-2.3-1.7-4.6-3-7.3-3.8
		c-0.3-0.1-0.6-0.2-0.9-0.3c-1,2.6-1.7,5.2-1.8,8c0.4-0.5,0.8-1,1.2-1.4c1.5-1.4,3.2-1.5,5.2,0.5c5.3,5.1,12.4,7.6,18,12.3
		c2.4,2,4.8,3.8,6.8,6.1c0.2,0.3,0.5,0.5,0.7,0.8c0,0,0,0,0,0c2.1-0.7,3.5-2.3,4.6-4.2c0,0,0,0,0,0
		C133.1,49.4,132.9,49.2,132.7,49.1z"/>
	<path class="st78" d="M147.4,127c-7.4,7.9-16.6,13.8-23.6,22c-1.9,2.2-4.4,3.8-6.6,5.6c1.3,2.9,3.1,2.6,4.9,0.6
		c3.2-3.6,7.1-6.7,10.7-9.7c3.3-2.7,5.7-6.2,9.7-8.5c4-2.2,7-6.5,10.3-10.1c0.2-0.2,0.4-0.4,0.6-0.6c-1-1.9-2.5-3.4-4.4-4.5l0,0
		c0.2,0.5,0.2,0.9,0.3,1.3C149.4,124.5,148.8,125.5,147.4,127z"/>
	<path class="st79" d="M142.5,137.1c-4,2.2-6.4,5.8-9.7,8.5c-3.6,3-7.5,6-10.7,9.7c-1.8,2.1-3.6,2.3-4.9-0.6c-0.1,0-0.2,0-0.3,0
		c-0.2,0-0.3,0-0.5,0c-0.4,0-0.7,0-1.1,0l0,0c0,0,0,0,0,0c1.1,1.9,2.6,3.4,4.4,4.4c0,0,0,0,0,0c0,0,0,0,0,0c0.5-0.1,0.9,0,1.4,0.1
		c0.8,0.1,1.5,0.4,2.2,0.8l0,0c0,0,0,0,0,0c0,0,0,0,0,0c1.7-3.8,5.2-5.9,8.2-8.4c7.6-6.4,14.3-13.7,22.4-19.5
		c0.3-0.2,0.3-0.8,0.4-1.2c0.1-0.1,0.2-0.2,0.4-0.3c0.2-0.2,0.4-0.4,0.7-0.6c0,0,0,0,0,0c0,0,0,0,0,0c-0.7-1.1-1.3-2.3-2-3.4
		c0,0,0,0,0,0c-0.2,0.2-0.4,0.4-0.6,0.6C149.5,130.5,146.6,134.8,142.5,137.1z"/>
	<path class="st80" d="M305.7,121.9c-2.2,0.1-2.1,1.6-2.1,3.1c0,10.6,0,21.1,0,31.7c0,1.8,0.1,3.2,2.5,3.1c2.2-0.1,2.1-1.6,2.1-3.1
		c0-5.3,0-10.6,0-15.9c0-5.3,0-10.6,0-15.9C308.2,123.2,308.1,121.7,305.7,121.9z"/>
	<path class="st81" d="M137.5,121.9c-0.1,0.7,0,1.7-0.4,2.1c-7.3,6.6-14.7,13.2-22.1,19.7c-1,0.9-2.1,1.7-3.5,1.6
		c-0.4,0-0.8-0.1-1.2-0.4c0.5,1.2,0.6,2.6,1.7,3.5c0.2,0,0.5,0,0.7,0c2.2,0,4.1-0.8,5.7-2.4c7.8-7.8,15.8-15.2,24.1-22.3
		c1.7-1.5,2.1-2.8,1.3-4.3c-0.2-0.4-0.5-0.8-0.8-1.2c0,0,0,0,0,0c0,0,0,0,0,0c-0.9-0.5-1.8-1-2.7-1.5c0.3,0.4,0.4,0.8,0.6,1.2
		C141.5,120.2,140.2,121.4,137.5,121.9z"/>
	<path class="st82" d="M121.1,46.7c-5.6-4.7-12.7-7.2-18-12.3c-2-2-3.7-1.9-5.2-0.5c-0.4,0.4-0.8,0.8-1.2,1.4c-1,1-0.8,2.3-0.9,3.5
		c0.3-0.4,0.7-0.7,1-0.9c1.3-0.9,2.6-0.7,4.4,0.4c7.4,4.3,14.1,9.7,21.3,14.4c2.5,1.7,1,3.2,0,4.7h0c0,0.2,0,0.3,0,0.5
		c0,0.1,0,0.3,0,0.4c0,0,0,0,0,0c0.5-0.3,1.1-0.5,1.6-0.8c0,0,0.1,0,0.1-0.1c0,0,0,0,0,0c1.8-0.9,2.1-3.4,4.4-3.7c0,0,0,0,0,0
		c-0.2-0.3-0.4-0.5-0.7-0.8C125.9,50.5,123.4,48.7,121.1,46.7z"/>
	<path class="st83" d="M136.4,33.6c-9.5-6.3-18.9-12.6-28.1-19.2c-2-1.4-3.3-0.4-4.8,0.2c-0.4,0.2-0.8,0.3-1.2,0.4l0,0
		c-0.3,0.6-0.6,1.2-0.9,1.8c0.4-0.2,0.9-0.3,1.3-0.4c2.2-0.5,4,0.4,6.2,2c6.1,4.6,12.8,8.5,19.2,12.8c4.5,3,8.8,6.3,13,9.6
		c1.5,1.1,0.3,1.8-0.6,2.4c-0.1,0-0.2,0.1-0.2,0.1c-0.1,0.4-0.3,0.8-0.4,1.3c-0.2,0.5-0.3,0.9-0.5,1.4c2.9-1.5,4.2-4.2,5.5-7
		c-0.3-0.1-0.6-0.2-0.8-0.2C141,37.7,138.9,35.2,136.4,33.6z"/>
	<path class="st84" d="M143.5,29.2c-5.9-2.5-10.3-7.3-15.6-10.6c-4.6-2.9-9.4-5.7-13.8-8.9c-3.6-2.6-4.7-1.6-6.7,0.8c0,0,0,0,0,0
		c0.2,0,0.5,0,0.8,0c0.7-0.1,1.5-0.1,1.8,0.2c4.5,4.5,11.5,5.6,15.1,11.3c2.2-0.2,3.6,0.9,5.3,2.3c4.8,3.9,9.6,7.9,15.5,9.9
		c0.2,0.1,0.4,0.1,0.6,0.2c0,0,0,0,0,0c0,0,0,0,0,0c0.2,0,0.5,0,0.7-0.2c0,0,0,0,0,0c-0.2-0.4-0.3-0.8-0.5-1.2
		C146,31.5,145.3,30,143.5,29.2z"/>
	<path class="st85" d="M144.4,126c-8.8,7.4-17.3,15.1-25.5,23.1c-1.2,1.2-3,1.8-4.6,2.5c-0.2,0.1-0.5,0.2-0.7,0.3c0,0,0,0,0,0
		c0.6,0.9,1.2,1.8,1.8,2.6l0,0c0.4,0,0.7,0,1.1,0c0.2,0,0.3,0,0.5,0c0.1,0,0.2,0,0.3,0c2.2-1.9,4.8-3.4,6.6-5.6
		c7.1-8.2,16.3-14.1,23.6-22c1.3-1.4,1.9-2.4,1.8-3.8c0-0.4-0.1-0.8-0.3-1.3v0c-0.9-0.6-1.8-1.2-2.6-1.8c0.2,0.4,0.3,0.8,0.4,1.2
		C147.2,123.2,146.1,124.7,144.4,126z"/>
	<path class="st86" d="M143.6,119.4c0.8,1.5,0.5,2.8-1.3,4.3c-8.3,7.1-16.4,14.6-24.1,22.3c-1.6,1.6-3.5,2.4-5.7,2.4
		c-0.2,0-0.5,0-0.7,0c0.1,1.4,0.6,2.6,1.7,3.6c0.2-0.1,0.4-0.2,0.7-0.3c1.6-0.8,3.4-1.4,4.6-2.5c8.3-8,16.7-15.7,25.5-23.1
		c1.6-1.4,2.8-2.8,2.3-4.8c-0.1-0.4-0.2-0.8-0.4-1.2c-0.9-1.1-2.2-1.6-3.5-1.8c0,0,0,0,0,0C143.2,118.6,143.4,119,143.6,119.4z"/>
	<path class="st87" d="M128.4,119.3c-6,4.6-11.7,9.4-16.8,15c-2,2.2-3.4,1.3-5,0.5c-0.3-0.2-0.6-0.3-1-0.4c0,0,0,0,0,0
		c0.6,1.5,1.3,2.9,1.9,4.4c0.3,0.1,0.6,0.2,0.9,0.2c4.5,0.7,6.4-3.7,9.1-5.8c5.6-4.4,10.4-9.8,16.1-14.1c1.2-0.9,2.1-2.3,1.7-3.9
		c-0.1-0.4-0.3-0.8-0.5-1.2c0,0,0,0,0,0c0,0,0,0,0,0c-0.9-1.1-2.1-1.6-3.5-1.8c0.1,0.3,0.2,0.6,0.2,0.9
		C132,115.8,130.2,117.9,128.4,119.3z"/>
	<path class="st88" d="M128.1,111.2c0.3,1.6-0.3,2.8-1.9,4.1c-4.1,3.1-7,7.6-11.6,10.2c-2,2.1-4,4.1-5.8,6.3c-0.9,1.1-1.9,1.1-3,0.9
		c-0.3-0.1-0.6-0.1-0.9-0.2c0,0.7,0.2,1.4,0.8,1.8c0,0,0,0,0,0c0.3,0.1,0.6,0.3,1,0.4c1.6,0.8,3,1.7,5-0.5c5-5.6,10.8-10.4,16.8-15
		c1.8-1.4,3.7-3.5,3.2-6.3c0-0.3-0.1-0.6-0.2-0.9c-1-1-2.2-1.6-3.5-1.8c0,0,0,0,0,0c0,0,0,0,0,0C127.9,110.6,128,110.9,128.1,111.2z
		"/>
	<path class="st89" d="M135.4,115.1c0.4,1.6-0.5,2.9-1.7,3.9c-5.7,4.3-10.5,9.7-16.1,14.1c-2.7,2.1-4.7,6.5-9.1,5.8
		c-0.3,0-0.6-0.1-0.9-0.2c-0.1,2,1.8,2.9,2.6,4.4c0.3,0,0.5,0,0.8,0c0,0,0.1,0,0.1,0c8.3-7.5,16.5-15.1,24.9-22.5
		c1.3-1.1,2.2-2.3,2.4-3.8c0.1-0.3,0.1-0.7,0.1-1.1l0,0c-1.2-0.6-2.4-1.2-3.5-1.9c0,0,0,0,0,0C135.1,114.3,135.3,114.7,135.4,115.1z
		"/>
	<path class="st90" d="M117.5,95.8c1.4-2.9-0.2-5.6-0.8-8.3c-1.6-7.1-3.8-14-3.9-21.4c-0.3,0-0.6,0-0.9,0c-0.6,1.6-2.2,2-3.5,2.7
		c-0.3,0.3-0.6,0.7-0.9,1c0,0,0,0,0,0c0,0,0,0,0,0c0.6,0.7,1.4,1.2,1.6,2c1.4,5.5,2.6,11.1,3.8,16.6c0.5,2.3,0.2,4.4-1.9,5.6
		c-0.3,0.2-0.6,0.3-0.9,0.4c0,0,0,0,0,0c0,0,0,0,0,0c2.1,1.6,4.6,1.8,7.1,1.8c0,0,0,0,0,0c0,0,0,0,0,0
		C117.3,96.1,117.4,95.9,117.5,95.8z"/>
	<path class="st91" d="M135,30c-3.1-2.5-7.2-3.7-9.4-7.2c-0.2-0.2-0.3-0.5-0.4-0.8c-0.2,0-0.5,0-0.8,0c-0.7,0-1.5,0.1-1.8-0.2
		c-4.2-4.5-10.3-6.4-14.6-10.8c-0.1-0.1-0.2-0.2-0.3-0.3c-0.1-0.1-0.2-0.2-0.3-0.3c0,0,0,0,0,0l0,0c-0.2,0-0.3,0-0.5,0
		c-0.4,0-0.8,0-1.2,0c0,0,0,0,0,0c-0.9,1.7-3.1,2.3-3.5,4.4c0,0,0,0,0,0c0.4-0.1,0.8-0.2,1.2-0.4c1.4-0.6,2.8-1.6,4.8-0.2
		c9.2,6.6,18.7,12.9,28.1,19.2c2.5,1.7,4.6,4.1,7.6,5.1c0.3,0.1,0.5,0.2,0.8,0.2c0.2,0,0.4-0.1,0.6-0.2c-0.2-0.4-0.4-0.7-0.6-1.1
		C142.6,33.8,138.2,32.6,135,30z"/>
	<path class="st92" d="M154.7,130.4c-0.1,0.1-0.2,0.2-0.4,0.3c0.3,0.3,0.5,0.7,0.6,1c0.8,1.6,0.3,3.2-1.2,4.4
		c-9.3,7.5-18.3,15.3-26.6,24c-0.3,0.3-0.7,0.5-1.1,0.7c0,0.3,0,0.6,0,0.9c0,0.3,0,0.6,0,0.9c0.3,0.1,0.5,0.1,0.8,0.1
		c0.2-0.1,0.4-0.3,0.5-0.4c10.1-7.8,19.3-16.7,28.7-25.3c0-0.1,0-0.3,0-0.4c0-0.8-0.1-1.6,0.2-2.3c0.1-0.3,0.3-0.5,0.6-0.8
		c0,0,0,0,0,0c-0.1-1.4-0.6-2.6-1.6-3.6c0,0,0,0,0,0C155.1,130,154.9,130.2,154.7,130.4z"/>
	<path class="st93" d="M123,97.6c0.4-0.1,0.8-0.3,1.2-0.4c0-0.3-0.1-0.7-0.1-1c-0.7-7.3-2.4-14.4-4.3-21.5c-0.7-2.8-0.9-5.4-0.9-8.1
		c0-1.9-0.5-3.1-2.7-3c-0.6,0.3-1.2,0.6-1.8,0.9c0,0,0,0,0,0c0,0,0,0,0,0c-0.3,0.3-0.6,0.7-0.9,1c0,0,0,0,0,0c0,0,0,0,0,0
		c3.9,4.6,4.3,10.4,5.2,16c0.6,3.4-0.1,7,1.6,10.3c0.8,1.6,0.6,3.5-0.8,4.9c-0.2,0.2-0.4,0.4-0.7,0.6c0,0,0,0,0,0c0,0,0,0,0,0
		c0.7,1,1.7,0.8,2.7,0.9c0,0,0,0,0,0C122,97.9,122.5,97.7,123,97.6z"/>
	<path class="st94" d="M117.2,114.4c-1,1.4-2.6,3.3-3.8,4c-3.8,2.3-6.1,6.7-10.6,7.8c-0.2,0-0.4,0.1-0.7,0.1l0,0
		c0.3,0.9,0.6,1.8,1,2.6c0.3,0.1,0.7,0.1,1,0.1c2.1-0.1,3.4-1.7,5-2.9c5.5-3.8,9.9-8.9,14.9-13.3c1.1-1,1.5-2,1.4-3.1
		c0-0.4-0.1-0.7-0.2-1.1c0,0,0,0,0,0c-1.1-0.8-2.1-1.7-3.5-1.8c0.2,0.3,0.3,0.6,0.4,0.9C123.3,111.6,118.7,112.3,117.2,114.4z"/>
	<path class="st95" d="M119.6,96.6c1.4-1.4,1.7-3.3,0.8-4.9c-1.7-3.4-1-6.9-1.6-10.3c-0.9-5.5-1.3-11.4-5.2-16c0,0,0,0,0,0
		c-0.1,0.1-0.2,0.1-0.3,0.2c-0.2,0.1-0.4,0.3-0.6,0.4c0,0,0,0,0,0c0,0,0,0,0,0c0.1,7.3,2.3,14.3,3.9,21.4c0.6,2.7,2.2,5.4,0.8,8.3
		c-0.1,0.2-0.2,0.4-0.3,0.5c0,0,0,0,0,0c0.4,0.7,1,0.9,1.7,0.9c0,0,0,0,0,0C119.2,97,119.4,96.8,119.6,96.6z"/>
	<path class="st96" d="M111,94.1c2.1-1.2,2.4-3.3,1.9-5.6c-1.2-5.6-2.4-11.1-3.8-16.6c-0.2-0.7-1.1-1.3-1.6-2c0,0,0,0,0,0
		c-0.1,0.1-0.2,0.2-0.3,0.3c-0.5,0.4-1,0.8-1.5,1.3c2.4,5.1,1,10.9,3,16.2c0.8,2,1.3,4.1-0.6,5.6c-0.2,0.2-0.4,0.3-0.7,0.5
		c0,0,0,0,0,0c0,0,0,0,0,0c0.7,0.9,1.7,0.8,2.7,0.9c0,0,0,0,0,0C110.4,94.4,110.7,94.3,111,94.1z"/>
	<path class="st97" d="M124,112.9c-5.1,4.3-9.4,9.4-14.9,13.3c-1.7,1.1-2.9,2.8-5,2.9c-0.3,0-0.6,0-1-0.1c0.3,0.6,0.6,1.2,0.9,1.8
		c0.4,0.1,0.7,0.2,1,0.3c1.6,0.3,2.9-0.1,4.2-1.6c1.1-1.3,2.1-2.9,3.8-3.7c0.4-0.2,0.9-0.4,1.5-0.4c4.6-2.6,7.5-7.1,11.6-10.2
		c1.6-1.2,2.2-2.4,1.9-4.1c-0.1-0.3-0.1-0.6-0.3-1c0,0,0,0,0,0c-0.9-0.5-1.8-1-2.7-1.6c0,0,0,0,0,0c0.1,0.4,0.2,0.8,0.2,1.1
		C125.5,110.9,125.1,111.9,124,112.9z"/>
	<path class="st98" d="M119.9,106.7c0.1,0.9,0.1,1.8-1,2.7c-5,4-9.8,8.3-14.5,12.6c-1,0.9-1.9,1.1-2.9,1c-0.3,0-0.7-0.1-1.1-0.2
		c0.6,1.2,1.1,2.4,1.7,3.5c0.2,0,0.4-0.1,0.7-0.1c4.6-1,6.8-5.5,10.6-7.8c1.2-0.7,2.9-2.6,3.8-4c1.5-2.2,6.1-2.9,4.8-6.7
		c-0.1-0.3-0.2-0.6-0.4-0.9c-0.6-0.3-1.2-0.6-1.8-0.9c0,0,0,0,0,0c0,0,0,0,0,0C119.9,106.2,119.9,106.4,119.9,106.7z"/>
	<path class="st99" d="M135.9,120.6c-8.4,7.4-16.6,15-24.9,22.5c0.2,0.2,0.4,0.3,0.6,0.4c1.8,0.9,2.7-1.2,3.6-2
		c5.8-5,11.6-10.1,17.4-15.2c1.6-1.5,3.3-2.9,4.9-4.4c2.7-0.5,4-1.7,3.2-4c-0.1-0.4-0.3-0.8-0.6-1.2c0,0,0,0,0,0
		c-0.6-0.3-1.2-0.6-1.8-0.9c0,0,0,0,0,0c0,0.4,0,0.7-0.1,1.1C138.1,118.3,137.2,119.5,135.9,120.6z"/>
	<path class="st100" d="M393.5,19.5C393.5,19.5,393.5,19.5,393.5,19.5c0-0.1-0.1-0.2-0.1-0.3c-0.7-1.6-2.6-1.7-7.1-1.7
		c-21.3,0-42.6,0-64,0c-1.4,0-2.9-0.4-5.1,0.9c2.3,0,3.8,0,5.2,0c22.1,0,44.1,0.1,66.2-0.1c3.5,0,4.9,1,4.4,4.5
		c-0.1,0.9,0,1.8,0,2.6c0.3,0,0.6-0.1,0.9-0.1c0,0,0,0,0,0c0-2.6,0-4.3-0.3-5.5C393.6,19.8,393.5,19.6,393.5,19.5z"/>
	<path class="st101" d="M110.4,106.8c-3.3,2.4-6.3,5.1-9.3,7.8c-1.5,1.3-2.6,1.1-3.4-0.7c-0.1,0-0.1,0-0.2,0c-0.3,0-0.7,0.1-1,0.1
		c0,0,0,0,0,0c0,0,0,0,0,0c0.7,2.1,1.5,4.3,2.9,6.1c0.3,0,0.6,0,0.9,0c0.3,0,0.6,0,0.9,0c3-4.1,6.4-7.9,10.7-10.7
		c2-1.3,3.1-3,2.8-5.4c0-0.3-0.1-0.6-0.2-1c0,0,0,0,0,0c0,0,0,0,0,0c-0.9-0.5-1.8-1-2.7-1.5c0.1,0.4,0.2,0.8,0.3,1.1
		C112.5,104.3,112.1,105.6,110.4,106.8z"/>
	<path class="st59" d="M320.5,44.9c25.1,0,50.9,0.1,76.1,0c-0.9-1.4-3-1.1-4.3-1.1c-24.5,0-49.1,0-73.6-0.1c-2.9,0-4.2,0.8-3.5,3.8
		c0,0,0,0,0,0C316.2,45.2,318.1,44.9,320.5,44.9z"/>
	<path class="st102" d="M113.8,110.4c-3,2.4-6.3,4.7-8.5,8c-1,1.5-2.2,1.8-3.6,1.7c-0.2,0-0.4,0-0.5,0c-0.3,0-0.6,0-0.9,0
		c-0.3,0-0.6,0-0.9,0c-0.2,1.1,0.4,1.9,1,2.6c0,0,0,0,0,0c0.4,0.1,0.7,0.2,1.1,0.2c1,0.1,1.9-0.1,2.9-1c4.7-4.4,9.5-8.6,14.5-12.6
		c1.1-0.9,1.1-1.7,1-2.7c0-0.2-0.1-0.5-0.1-0.7c0,0,0,0,0,0c-0.6-0.3-1.2-0.6-1.8-0.9c-0.1,0.2-0.2,0.4-0.3,0.6
		C116.9,107.5,115.5,109,113.8,110.4z"/>
	<path class="st103" d="M94.4,106.8c-0.3,0-0.7,0.1-0.9,0c0.5,1.2,0.4,2.6,1.5,3.6c0,0,0,0,0,0c0,0,0,0,0,0c0.3,0,0.6,0,0.9-0.1
		c5.4-0.6,7.7-5.6,11.3-8.7c0.3-0.2,0-1.2-0.3-2.1c-0.1-0.3-0.2-0.6-0.2-0.8c0,0,0,0,0,0c0,0,0,0,0,0c-0.6-0.3-1.2-0.6-1.8-0.9
		c-0.1,0.2-0.2,0.4-0.3,0.6C102.5,102.4,97.7,106.3,94.4,106.8z"/>
	<path class="st104" d="M107.9,105.2c-3.4,2.7-6.6,5.6-9.8,8.5c-0.1,0.1-0.2,0.2-0.3,0.3c0.8,1.7,1.9,2,3.4,0.7
		c3.1-2.7,6-5.4,9.3-7.8c1.7-1.2,2.1-2.5,1.8-4.1c-0.1-0.4-0.2-0.7-0.3-1.1c-1.1-0.8-2.1-1.7-3.5-1.9c0.4,0.4,0.7,0.8,0.9,1.2
		C110,102.4,109.6,103.8,107.9,105.2z"/>
	<polygon class="st105" points="103,72.3 103,72.3 103,72.3 	"/>
	<path class="st105" d="M108.1,93.2c1.9-1.6,1.4-3.7,0.6-5.6c-2.1-5.2-0.7-11-3-16.2c-0.3,0.2-0.7,0.3-1,0.5
		c-0.5,0.3-1.1,0.5-1.6,0.8c0,0,0-0.3,0-0.3c-0.1,0.1-0.1,0.1-0.2,0.2c0,0,0.1,0.1,0.1,0.1c2.2,5.1,1.2,10.9,4,15.9
		c0.9,1.6-0.6,2.6-1.7,3.7c-0.2,0.2-0.4,0.4-0.5,0.6c0,0,0,0,0,0c0,0,0,0,0,0c0.7,0.9,1.7,0.8,2.7,0.8c0,0,0,0,0,0
		C107.7,93.5,107.9,93.3,108.1,93.2z"/>
	<path class="st106" d="M106.8,99.7c0.3,0.9,0.6,1.8,0.3,2.1c-3.6,3.1-5.9,8-11.3,8.7c-0.3,0-0.6,0.1-0.9,0.1c0,0,0,0,0,0
		c0.6,1.2,1.1,2.4,1.7,3.6c0,0,0,0,0,0c0.3,0,0.7-0.1,1-0.1c0.1,0,0.1,0,0.2,0c0.1-0.1,0.2-0.2,0.3-0.3c3.3-2.8,6.5-5.8,9.8-8.5
		c1.7-1.4,2.1-2.7,1.3-4.2c-0.2-0.4-0.5-0.8-0.9-1.2c-0.6-0.3-1.2-0.6-1.8-0.9c0,0,0,0,0,0C106.6,99.1,106.7,99.4,106.8,99.7z"/>
	<path class="st107" d="M89.8,89.2c-0.3-0.3-0.6-0.6-0.9-1c-0.9,0.9-2.7-1.4-3.4,0.4c-0.1,0.2-0.1,0.3-0.2,0.6
		c1.1,2.4,2.2,4.8,3.3,7.1c0,0,0,0,0,0c0,0,0,0,0,0c0.4,0.2,0.9,0.4,1.3,0.5c2.7,0.8,4.3-0.3,5-3.1c0.1-0.3,0.1-0.6,0.2-0.9
		c-1.2-0.2-2.2-0.7-2.7-1.9c0,0,0,0,0,0c-0.1-0.1-0.2-0.2-0.4-0.2C91.2,90.3,90.1,90.3,89.8,89.2z"/>
	<path class="st108" d="M146,34.3c-6-2.1-10.8-6.1-15.5-9.9c-1.7-1.4-3.1-2.6-5.3-2.3c0.1,0.3,0.3,0.5,0.4,0.8
		c2.2,3.5,6.3,4.7,9.4,7.2c3.2,2.6,7.7,3.8,9.9,7.6c0.2,0.3,0.4,0.7,0.6,1.1c1.5-1.1,0.8-2.8,1.1-4.2c0,0,0,0,0,0
		C146.3,34.4,146.2,34.3,146,34.3z"/>
	<path class="st109" d="M114.8,104.1c0.3,2.3-0.9,4.1-2.8,5.4c-4.3,2.8-7.7,6.6-10.7,10.7c0.2,0,0.4,0,0.5,0c1.4,0,2.6-0.3,3.6-1.7
		c2.2-3.3,5.4-5.6,8.5-8c1.7-1.4,3.1-2.9,4-4.8c0.1-0.2,0.2-0.4,0.3-0.6c-0.9-1-2.2-1.6-3.5-1.9c0,0,0,0,0,0
		C114.7,103.5,114.7,103.8,114.8,104.1z"/>
	<path class="st110" d="M96.8,102.8c-1.4,1.5-2.8,1.3-4.2,0.5c-0.4-0.2-0.7-0.5-1.1-0.8c0.2,1.7,1,3.1,1.9,4.4c0,0,0,0,0,0
		c0.3,0,0.6,0,0.9,0c3.3-0.5,8.2-4.4,10.2-8.3c0.1-0.2,0.2-0.4,0.3-0.6c-1.2-1.3-2.8-1.9-4.4-2.5c0.2,0.5,0.4,0.9,0.4,1.3
		C101.4,99.7,98.5,101,96.8,102.8z"/>
	<path class="st111" d="M100.9,80.9c0.1-1.3-0.9-2.7-1.4-4.1c0-0.3,0-0.6,0-0.9c-0.3,0-0.6,0-0.9,0c-0.9,0.6-1.7,1.2-2.6,1.8
		c0,0,0,0,0,0c0,0.3,0,0.5-0.1,0.8c2.5,2.4,1.6,6,2.9,9c0.6,1.3-0.9,1.7-2.1,2.2c-0.3,0.1-0.6,0.3-0.8,0.4c0,0,0,0,0,0c0,0,0,0,0,0
		c0.7,0.9,1.7,0.9,2.7,0.9c0.3-0.1,0.6-0.3,0.8-0.5C103.2,88.1,100.7,84.2,100.9,80.9z"/>
	<path class="st112" d="M91.3,100c-0.3,0-0.6-0.1-0.9-0.2c0,0,0,0,0,0c0,0,0,0,0,0c0.1,1,0.3,1.9,1.1,2.6c0.4,0.3,0.7,0.6,1.1,0.8
		c1.4,0.8,2.8,1,4.2-0.5c1.7-1.8,4.6-3.1,4-6c-0.1-0.4-0.2-0.8-0.4-1.3c-1.2-0.6-2.4-1.2-3.5-1.8c0,0.3-0.1,0.6-0.1,0.9
		C96.2,98.6,94.4,100.4,91.3,100z"/>
	<path class="st113" d="M269.3,81.3c-10.5-0.1-21.1,0-31.6,0c-6.5,0-6.9-0.6-3.8-6.1c-0.9,0-1.8,0.1-2.6,0.1c0,2.3,0,4.5,0,6.8
		c1.8,0.1,3.5,0.3,5.3,0.3c12.4,0.1,24.7,0.1,37.1,0.2c0,0,0,0,0,0C272.6,80.5,270.8,81.3,269.3,81.3z"/>
	<path class="st114" d="M102.9,80.5c-0.5-1.1,0.7-4.9-2.5-4c-0.3,0.1-0.6,0.2-0.9,0.3c0.5,1.4,1.5,2.8,1.4,4.1
		c-0.2,3.2,2.3,7.2-1.5,9.6c-0.2,0.2-0.5,0.3-0.8,0.5c0.9,1.2,2.3,0.8,3.5,0.9c0.2-0.2,0.4-0.3,0.6-0.5
		C105,89.3,105.3,85.6,102.9,80.5z"/>
	<path class="st115" d="M105.2,92.2c1.1-1.1,2.6-2.1,1.7-3.7c-2.8-5-1.7-10.9-4-15.9c0,0-0.1-0.1-0.1-0.1c0,0-0.1,0.1-0.1,0.1
		c-1,1.1-2.1,2.1-3.1,3.2c0,0-0.1,0.1-0.1,0.1c0,0,0,0,0,0c0,0.3,0,0.6,0,0.9c0.3-0.1,0.6-0.2,0.9-0.3c3.2-0.9,2,2.9,2.5,4
		c2.4,5.1,2.1,8.9-0.2,10.9c-0.2,0.2-0.4,0.3-0.6,0.5c0.7,0.9,1.7,0.8,2.7,0.9c0,0,0,0,0,0C104.9,92.6,105,92.4,105.2,92.2z"/>
	<path class="st116" d="M96.7,89.7c1.2-0.5,2.7-0.9,2.1-2.2c-1.3-2.9-0.3-6.5-2.9-9c0,0,0,0,0,0c-0.2,0.1-0.3,0.2-0.5,0.4
		c-0.7,0.5-1.4,1-2.1,1.5c1.1,2.9,3.7,5.6,0.9,8.9c0,0,0,0,0,0c0,0,0,0,0,0c0,0,0,0,0,0c0,0.3,0,0.5,0.1,0.8c0,0,0,0,0,0
		c0.6,0,1.1,0,1.7,0c0,0,0,0,0,0C96.1,89.9,96.4,89.8,96.7,89.7z"/>
	<path class="st117" d="M89.9,96.8c-0.4-0.1-0.8-0.3-1.3-0.5c0,0,0,0,0,0c0.6,1.2,1.2,2.3,1.8,3.5c0,0,0,0,0,0
		c0.3,0.1,0.6,0.1,0.9,0.2c3,0.4,4.9-1.4,5.4-5.4c0-0.3,0.1-0.6,0.1-0.9c-0.4-0.6-1-0.9-1.8-0.8c0,0,0,0,0,0
		c-0.1,0.3-0.1,0.6-0.2,0.9C94.1,96.5,92.5,97.6,89.9,96.8z"/>
	<path class="st68" d="M210.1,40.5c1,0.1,2.3,0.1,2.3-1.3c0-1.4-1.4-1.2-2.3-1.3c-1.8-0.2-3.8,0.7-5.4-0.9c2.6-0.5,5.6,1.3,7.9-1.2
		c-2.5,1.1-5.5-0.7-7.9,1.2c0,0,0,0,0,0c0,0,0,0,0,0c0,0,0,0,0,0c-0.7,2.8-0.7,5.5,0.9,8c0,0,0,0,0,0
		C205.1,41.6,206.8,40.2,210.1,40.5z"/>
	<path class="st68" d="M212.6,24c0.1-8.8-0.7-7.1,7.1-7.4c0,4.8,0,9.6-0.1,14.5c0,1.4,0.4,3.5-0.4,4.2c-4.4,4-0.2,4.5,2.2,4.9
		c2,0.4,3.2,1.8,5,2.3c1.6-5.4-2-4.8-6.1-4.4c-0.1,0-0.1,0-0.2,0c-0.1,0-0.3,0-0.4,0c0.1,0,0.3-0.1,0.4-0.1c0.1,0,0.1,0,0.2-0.1
		c6.7-1.9,7.4-1.4,7.4,3.9c0,1,0,2,0,3.1c1.8-2.5,1.3-5.4,0.5-7.8c-0.7-2.1-3.4-1-5.1-1c-2.7-0.1-2.4-1.8-2.5-3.6
		c-0.4-5.3,0.8-10.7-0.8-15.9c0,0,0,0,0,0c0,0,0,0,0,0c0,0,0,0,0,0c0,0,0,0,0,0c0,0,0,0,0,0c0,0,0,0,0,0c0,0,0,0,0,0
		c-0.3-0.1-0.6-0.2-0.9-0.3c-2.7-0.9-6.2-1.9-6.7,1.3c-0.9,5.5-1,11.3,0.4,16.9c0,0,0,0,0,0C212.6,31,212.6,27.5,212.6,24z"/>
	<path class="st113" d="M252.5,27.9c0-0.1-0.1-0.3-0.1-0.3c-6.9-1-14,0.8-20.9-1.1c-0.1,0.6-0.2,1.1-0.3,1.7c7,0,14.1,0.1,21.1,0.1
		c0,0,0,0,0,0C252.4,28.2,252.5,28,252.5,27.9z"/>
	<path class="st113" d="M285.3,82c-0.1,0-0.1,0.1-0.2,0.1C285.2,82.2,285.2,82.1,285.3,82z"/>
	<path class="st113" d="M285.1,81.2c-0.2,0-0.4,0-0.7,0c-1.5,0-3.3-0.1-3.4,1.5c-0.3,4.5-1.4,8.9-0.5,13.4c2-3.3,1.1-6.9,1.1-10.3
		c0-2.6,0.8-3.9,3.4-3.8C285.1,81.8,285.1,81.5,285.1,81.2L285.1,81.2z"/>
	<path class="st118" d="M280.1,74.1c0.4,0.5,0.6-1.4,1.5-1.7c0-0.3-0.1-0.6-0.1-0.9c-2.6,0-5.2,0-7.8,0c-0.1,1.2-0.2,2.3-0.3,3.5
		c0,0,0,0,0,0C275.3,73.1,277.1,70.1,280.1,74.1z"/>
	<path class="st118" d="M285.1,81.2c0,0.3,0,0.6,0,0.9c0.1,0,0.1-0.1,0.2-0.1c2.5-2.3,2-4.6-0.1-6.9c0,0,0,0,0,0c0,2,0,4,0,6
		C285.1,81.1,285.1,81.2,285.1,81.2z"/>
	<path class="st59" d="M273.7,71.5C273.7,71.5,273.7,71.5,273.7,71.5c2.6,0,5.2,0,7.8,0C278.9,70,276.3,70.2,273.7,71.5z"/>
	<path class="st59" d="M231.2,82C231.2,82,231.2,82,231.2,82c0-2.3,0-4.5,0-6.8C229.9,77.5,230.1,79.7,231.2,82z"/>
	<path class="st65" d="M156.3,134.2c-0.3,0.7-0.2,1.5-0.2,2.3c0,0.1,0,0.3,0,0.4c0.3,0,0.5,0,0.8,0c0.3,0,0.6,0,0.9,0c0,0,0,0,0,0
		c0.2-1.3-0.2-2.4-0.9-3.5c0,0,0,0,0,0C156.6,133.6,156.4,133.9,156.3,134.2z"/>
	<path class="st119" d="M94.2,89.2C94.1,89.2,94.1,89.2,94.2,89.2c-0.2,0-0.3,0-0.4,0c-0.9,0-1.8,0-2.6,0c-0.5,0-0.9,0-1.4,0
		c0.4,1.1,1.4,1.1,2.3,1.6c0.1,0.1,0.3,0.1,0.4,0.2l0,0c0.4-0.7,1.1-0.9,1.8-1c0,0,0,0,0,0C94.2,89.8,94.2,89.5,94.2,89.2
		C94.2,89.2,94.2,89.2,94.2,89.2z"/>
	<path class="st118" d="M316.8,50.7c0.1-0.4,0-0.8-0.3-1.1c-0.3-0.4-0.7-0.7-1.3-1c0,1.2,0.1,2.4,0.1,3.5c0,0,0,0,0,0
		C316.2,51.6,316.6,51.1,316.8,50.7z"/>
	<path class="st73" d="M28.9,55.4c-0.1-0.1-0.1-0.1-0.2-0.2c-0.5-0.4-0.9-0.7-1.2-1.1c-2-2.3-0.2-4.6,1.7-6.1
		c7.5-5.8,13.7-13.1,21.1-19c1.9-1.5,3.7-2.3,5.7-1.8c0.6,0.2,1.3,0.4,1.9,0.9c-2-2.4-3.7-5.2-7.1-6.2c-0.7,0-1.3,0-1.9,0
		c-6.7,0.7-9.6,7.2-14.3,10.7c-4.5,3.4-8.2,8-13.2,10.9c-0.2,0.1-0.5,0.3-0.7,0.4c0,0,0,0,0,0c0,0,0,0,0,0c0,0.3,0,0.6,0,0.9
		c0.4,0.1,0.7,0.3,1,0.4c1.1,0.7,1.3,1.8,1,3c-0.1,0.3-0.2,0.6-0.3,1c0,0,0,0,0,0c0,0,0,0,0,0c1.2,3.7,4.4,5.6,7.1,7.9
		c-0.2-0.6-0.3-1.3-0.6-1.8C29,55.5,28.9,55.4,28.9,55.4z"/>
	<path class="st120" d="M21.5,43.7c5-3,8.6-7.6,13.2-10.9C39.4,29.2,42.3,22.7,49,22c0.6-0.1,1.2-0.1,1.9,0c-4-3.4-8.9-2.9-13.5-2.6
		c-10.7,0.8-20.6,13.8-16.6,24.7c0,0,0,0,0,0C21,44,21.3,43.8,21.5,43.7z"/>
	<path class="st121" d="M39.3,46.8c4.2-4.8,9.8-8.4,14.2-13c2.2-2.3,3.8-2.7,5.7-1.5c0.4,0.3,0.9,0.7,1.4,1.2
		c-0.3-2-1.2-3.8-2.6-5.3c-0.7-0.4-1.3-0.7-1.9-0.9c-2-0.5-3.8,0.3-5.7,1.8c-7.5,5.8-13.6,13.2-21.1,19c-1.9,1.5-3.7,3.8-1.7,6.1
		c0.3,0.4,0.7,0.7,1.2,1.1c0.1,0.1,0.1,0.1,0.2,0.2c0.1,0,0.1,0.1,0.2,0.2c0.3,0.4,0.4,1.2,0.6,1.8c0.9,0.6,1.8,1.2,2.7,1.7
		c-0.2-0.5-0.4-1-0.5-1.5C30.1,51.7,36.5,50,39.3,46.8z"/>
	<path class="st122" d="M37.3,56.2C43.7,50.8,49.7,45,56,39.5c1.4-1.2,3-2.4,4.9-2.6c0.4,0,0.9,0,1.4,0.1c-0.4-1.3-1.9-2-1.8-3.5
		c0,0,0,0,0,0c-0.5-0.5-0.9-0.9-1.4-1.2c-1.8-1.3-3.5-0.8-5.7,1.5c-4.5,4.6-10,8.2-14.2,13c-2.8,3.2-9.2,4.9-7.5,10.9
		c0.1,0.5,0.3,0.9,0.5,1.5c1.5,0.6,2.9,1.2,4.4,1.8c-0.1-0.3-0.2-0.6-0.3-0.9C35.9,58.7,35.7,57.6,37.3,56.2z"/>
	<polygon class="st123" points="25.2,123.7 25.2,123.7 25.2,123.7 	"/>
	<path class="st123" d="M31.1,123.4c-2.9-1.6-2.9-4.7-3.7-7.5c-2.2-8.3-4.5-16.6-4.8-25.2c-0.2-4-2.7-7.3-3-11.4
		c-0.2-2.1-0.2-4,0.2-5.9c0.1-0.3,0.1-0.6,0.2-0.9c-1.4,0.1-2.6,0.6-3.5,1.7c-0.1,0.4-0.2,0.7-0.2,1.1c-0.9,5,1.3,9.8,1.7,14.8
		c0.3,5.2,2.6,10.1,3.9,15.1c1.4,5.5,1.8,11.2,2.6,16.8c0.2,0.3,0.3,0.6,0.5,0.9c0.1,0.3,0.3,0.6,0.4,0.8c0,0,0,0,0,0l0,0l0,0h0
		l0,0.1c2.1,0,4.1-0.1,6.2-0.1C31.3,123.6,31.2,123.5,31.1,123.4z"/>
	<path class="st124" d="M19.5,79.3c0.4,4.1,2.9,7.4,3,11.4c0.3,8.7,2.6,16.9,4.8,25.2c0.8,2.9,0.8,5.9,3.7,7.5
		c0.1,0.1,0.2,0.1,0.3,0.2c0,0,0,0,0,0c0.3,0,0.6,0,0.9,0c1.4,0,2.8,0,4.3,0c0,0,0,0,0,0c0-0.3,0.1-0.5,0.1-0.8
		c-0.7,0-1.4-0.2-1.8-0.9c-3.1,0.5-3.8-2-4.1-4.1c-1.1-8.5-2-17-4.9-25.1c-1.5-4.1-1.1-8.6-3.1-12.7c-1-2.1-0.8-5.1,0.6-7.6
		c0,0,0-0.1,0-0.1c0-0.3,0-0.6,0-0.9h0l0,0c-1.3-0.1-2.5,0.3-3.5,0.9c0,0,0,0,0,0c-0.1,0.3-0.1,0.6-0.2,0.9
		C19.3,75.3,19.3,77.2,19.5,79.3z"/>
	<path class="st125" d="M35.9,76.5c1.3,7,3,13.9,4.2,20.9c1.4,7.5,3.8,14.9,2.8,22.7c0.8-0.3,1.7-0.6,2.5-1c0,0,0,0,0,0
		c0.6-0.8,1.3-1.6,1.9-2.4c0,0,0,0,0,0c0-0.4,0-0.7,0-1.1c-0.8-10.6-5.2-20.4-6.1-31c-0.2-2-0.4-3.9-1.4-5.8
		c-0.8-1.7-1.1-3.8,0.7-5.2c0.2-0.2,0.5-0.3,0.7-0.5c0,0,0,0,0,0c0,0,0,0,0,0c-0.7-0.8-1.7-0.9-2.7-0.9c-0.6,0-1,0.2-1.4,0.4
		C35.7,73.4,35.6,75,35.9,76.5z"/>
	<path class="st126" d="M48.5,76.4c-4.3,4.5-1.3,9.8-0.5,14.5c1.1,5.9,1.9,12.1,5,17.5c1,1.6-1.6,2.5-0.3,3.9
		c1.1-0.6,2.3-1.2,3.4-1.8c0,0,0,0,0,0c0.3-0.6,0.7-1.1,1-1.7c0,0,0,0,0,0c-1.8-5.5-2.6-11.2-3.6-16.8c-0.7-3.7-0.6-7.5-2.4-11
		c-0.6-1.2-0.2-2.3,0.3-3.4c0.1-0.2,0.2-0.5,0.4-0.7c0,0,0,0,0,0c0,0,0,0,0,0c-0.7-0.8-1.7-0.8-2.7-0.9C48.9,76,48.7,76.2,48.5,76.4
		z"/>
	<path class="st127" d="M42.7,57.4c6.3-4.1,11-10,16.8-14.6c1.2-0.9,2.1-1.7,3.4-1.6c0.3,0,0.7,0.1,1.1,0.3
		c-0.6-1.5-1.2-2.9-1.8-4.4c0,0,0,0,0,0c-0.5-0.1-0.9-0.1-1.4-0.1c-2,0.1-3.5,1.3-4.9,2.6C49.7,45,43.7,50.8,37.3,56.2
		c-1.6,1.4-1.4,2.5-0.9,3.8c0.1,0.3,0.2,0.6,0.3,0.9c1.5,0.9,3,1.7,4.4,2.6c-0.1-0.4-0.2-0.8-0.3-1.2C40.4,60.4,40.7,58.7,42.7,57.4
		z"/>
	<path class="st128" d="M13.2,77.5c-0.6,1.3-0.8,2.6-0.5,4.3c2.6,12.2,4.9,24.5,7.2,36.7c0.4,2.1,1.6,3.1,3.4,3.3c0.3,0,0.6,0.1,1,0
		c-0.8-5.6-1.3-11.3-2.6-16.8c-1.3-5.1-3.6-9.9-3.9-15.1c-0.3-5-2.5-9.7-1.7-14.8c0.1-0.4,0.1-0.7,0.2-1.1c-1.1,0.6-2.6,0.7-2.7,2.5
		c0,0,0,0,0,0c0,0,0,0,0,0C13.5,76.9,13.3,77.2,13.2,77.5z"/>
	<path class="st129" d="M33.2,71.5C33.2,71.5,33.2,71.5,33.2,71.5c-0.2,0.1-0.3,0.2-0.4,0.4c-1.9,1.7-1.9,4.1-1,5.9
		c1.6,3,1.5,6.6,3.5,9.4c0.5,0.7,0.6,1.7,0.6,2.5c-0.7,8.5,3.8,16,4.9,24.1c0.3,2,1,4-0.2,5.9c-0.7,1.2,0,1.1,0.7,1.3
		c0.6,0,1.1-0.2,1.5-0.6c0.1-0.1,0.2-0.2,0.2-0.3c0,0,0,0,0,0c1-7.8-1.5-15.2-2.8-22.7c-1.3-7-2.9-13.9-4.2-20.9
		c-0.3-1.5-0.1-3.1,1.2-3.8c0.4-0.2,0.8-0.3,1.4-0.4c-1-1.1-2.2-0.9-3.5-0.9c-0.3-0.2-0.7-0.3-1-0.3c0.3,0.1,0.7,0.2,1,0.3
		C34.4,71.5,33.8,71.5,33.2,71.5z"/>
	<path class="st130" d="M13.4,100.2c-1.6-6.9-3-13.9-2.5-21c0-0.5,0.1-1,0.1-1.5v0c-2.6,2.2-4.3,5.1-6.1,8c0.4,0.4,0.6,0.8,0.8,1.2
		c0,0.1,0,0.1,0.1,0.2c1.7,3,2.1,6.6,3.4,9.8c2.1,5.1,1.8,10.7,3.2,16c0.5,1.9,1.4,3.6,1.9,5.4c0.1,0.4,0.2,0.7,0.3,1.1c0,0,0,0,0,0
		c0,0,0,0,0,0c0.6,1.1,1.5,1.6,2.7,1.7c0-0.3,0-0.5,0-0.8C17,113.4,15,106.8,13.4,100.2z"/>
	<path class="st131" d="M43,80.7c3.1,9.8,3.1,20.3,6.1,30c0.6,2.1,0.6,3.5-1,4.6c-0.2,0.2-0.5,0.3-0.8,0.4c0,0.4,0,0.7,0,1.1
		c0.2-0.1,0.5-0.2,0.7-0.3c0.6-0.3,1.2-0.5,1.8-0.8c0,0,0,0,0,0c0.6-0.6,1.2-1.1,1.8-1.7c0,0,0,0,0,0c0.3-0.4,0.5-0.9,0.8-1.3
		c0.1-0.1,0.1-0.2,0.2-0.4c0,0,0,0,0,0c-1.4-1.3,1.2-2.2,0.3-3.9c-3.2-5.3-4-11.6-5-17.5c-0.8-4.6-3.8-10,0.5-14.5
		c0.2-0.2,0.4-0.4,0.6-0.6c-1.6-1-3.4-1.5-5.3-1.7c-0.3,0.2-0.6,0.3-0.8,0.5C40.8,76.3,42.4,78.8,43,80.7z"/>
	<path class="st132" d="M23.5,72.4C23.5,72.4,23.5,72.4,23.5,72.4c0.2,0.3,0.4,0.6,0.5,0.8c3.8,5.8,4,12.7,5.4,19.1
		c2,8.8,1.9,18,5.2,26.5c0.3,0.7,0.3,1.5,0.3,2.2c0,0.3,0,0.5,0,0.8c0.4,0.7,1.1,0.9,1.8,0.9c0,0,0,0,0,0c0,0,0.1,0,0.1,0
		c0.9,0,1.9,0,2.5-0.9c0,0,0,0,0,0c0,0,0,0,0,0c-3.3-1.1-3-4.4-3.1-6.6c-0.4-5.3-1.9-10.2-3-15.3c-2.1-9.1-3.6-18.4-5.4-27.7
		c-0.8,0.1-1.6-0.1-2.3-0.3c-0.4-0.2-0.9-0.4-1.3-0.6c0,0,0,0,0,0c0,0,0,0,0,0c-0.3-0.1-0.5,0-0.8,0.1h0
		C23.5,71.8,23.5,72.1,23.5,72.4z"/>
	<path class="st133" d="M51.4,77.4c-0.5,1.1-0.9,2.2-0.3,3.4c1.8,3.5,1.7,7.3,2.4,11c1,5.6,1.8,11.4,3.6,16.8
		c0.1-0.1,0.3-0.1,0.4-0.2c0.7-0.3,1.4-0.6,2.1-0.9c0,0,0,0,0,0c0.3-0.5,0.6-1.1,1-1.6c0,0,0,0,0,0c-1.3-5.6-1.5-11.4-4-16.9
		c-1.2-2.6-2.1-6.9,0.7-9.9c0.2-0.2,0.4-0.4,0.6-0.6c0,0,0,0,0,0c0,0,0,0,0,0c-1.9-1.2-4-1.5-6.2-1.9c0,0,0,0,0,0
		C51.7,76.9,51.6,77.2,51.4,77.4z"/>
	<path class="st134" d="M112,23.9c9.3,6.5,18.9,12.7,28.1,19.3c0.1,0,0.1-0.1,0.2-0.1c0.9-0.6,2.1-1.3,0.6-2.4
		c-4.3-3.3-8.6-6.6-13-9.6c-6.3-4.3-13-8.2-19.2-12.8c-2.2-1.6-3.9-2.5-6.2-2c-0.4,0.1-0.8,0.2-1.3,0.4c0,0.3,0,0.6-0.1,0.9
		c0,0,0,0,0,0c0.3,0,0.6,0.1,0.9,0.2C106.1,18.7,109,21.8,112,23.9z"/>
	<path class="st135" d="M25.2,123.6C25.2,123.6,25.2,123.6,25.2,123.6c-0.1-0.3-0.3-0.6-0.4-0.8c-0.2-0.3-0.3-0.6-0.5-0.9
		c-0.4,0-0.7,0-1,0c-1.8-0.2-3-1.2-3.4-3.3c-2.4-12.2-4.7-24.5-7.2-36.7c-0.4-1.7-0.1-3,0.5-4.3c0.1-0.3,0.3-0.6,0.5-0.9
		c0,0,0,0,0,0c-0.9,0.2-2.1-0.1-2.6,1.1c-0.1,0.5-0.1,1-0.1,1.5c-0.5,7.1,0.9,14.1,2.5,21c1.5,6.6,3.5,13.2,3.8,20.1
		c0,0.3,0,0.5,0,0.8C19.7,122.6,22.3,123.5,25.2,123.6L25.2,123.6L25.2,123.6z"/>
	<path class="st95" d="M46.4,65.3c0-0.3,0-0.6,0-0.9c-1.7-0.3-2.8-0.5-1.4-2.7c3.1-4.6,7.9-7.3,11.6-11.2c0.6-0.6,1.5-1,1.9-1.7
		c1.8-2.9,4.1-3.5,6.7-2.6c0.4,0.1,0.9,0.3,1.4,0.6c-0.9-1.8-1.8-3.5-2.6-5.3c0,0,0,0,0,0c-0.4-0.2-0.8-0.2-1.1-0.3
		c-1.3-0.1-2.3,0.7-3.4,1.6C53.7,47.4,49,53.4,42.7,57.4c-2,1.3-2.3,3-1.9,4.8c0.1,0.4,0.2,0.8,0.3,1.2c1.5,0.9,3,1.7,4.4,2.6
		c0,0,0,0,0,0c0.2-0.2,0.5-0.5,0.7-0.7C46.4,65.4,46.4,65.4,46.4,65.3z"/>
	<path class="st136" d="M96.8,41.4c0.2-1.2,0.7-2.1,1.9-1c2,1.8,4.8,2.8,6,5.5c5.7,2.3,9.8,7,15,10.2c0.7,0.5,1.4,1.1,2.2,1.2
		c0.1,0,0.3,0,0.4,0c1.1-1.6,2.6-3.1,0-4.7c-7.1-4.7-13.9-10-21.3-14.4c-1.8-1-3.1-1.3-4.4-0.4c-0.3,0.2-0.7,0.5-1,0.9
		c-0.8,0.7-0.8,1.7-0.7,2.7c0.3,0,0.5,0,0.8,0C96.2,41.5,96.5,41.4,96.8,41.4z"/>
	<path class="st137" d="M57.3,61.7c3-1.6,5.4-4.3,7.9-6.8c1.1-1.2,2.2-1.4,3.5-1.2c0.3,0,0.5,0.1,0.8,0.2c0,0,0,0,0,0c0,0,0,0,0,0
		c-0.3-0.9-0.6-1.8-0.9-2.6c-0.4-0.5-0.9-0.8-1.3-1c-2.4-1.5-4.3,0.3-6.5,2.1C56,56.2,52,61,46.7,64.3c-0.1,0.1-0.2,0.1-0.3,0.2
		c0,0.3,0,0.6,0,0.9c0.1,0,0.1,0,0.2,0c0.7,0.1,1.2,0.4,1.4,1c0.1,0.2,0.1,0.5,0.1,0.8c0,0,0,0,0,0c0,0,0,0,0,0
		c1.8,1.7,4.1,2.4,6.2,3.5c-0.3-0.5-0.6-1-0.8-1.5C52.2,65.9,53.6,63.7,57.3,61.7z"/>
	<path class="st138" d="M14.3,118.2c-0.5-1.8-1.4-3.6-1.9-5.4c-1.4-5.3-1.1-10.9-3.2-16c-1.3-3.2-1.7-6.7-3.4-9.8
		c0-0.1-0.1-0.1-0.1-0.2c-0.2-0.4-0.5-0.8-0.8-1.2c-0.1,0.6-0.1,1.1-0.2,1.7c0,0,0,0,0,0c0.2,0.3,0.3,0.5,0.4,0.8
		c1,2.4-1.3,4.9-0.1,7.8c2.1,4.9,1.6,10.4,2.7,15.7c0.2,0.8,0.4,1.6,0.6,2.3c0,0,0,0,0,0c1.4,2.5,3.6,4.2,6.1,5.4c0,0,0,0,0,0
		C14.5,119,14.4,118.6,14.3,118.2z"/>
	<path class="st139" d="M58.6,48.8c-0.4,0.7-1.4,1.1-1.9,1.7c-3.7,3.9-8.5,6.6-11.6,11.2c-1.5,2.2-0.4,2.4,1.4,2.7
		c0.1-0.1,0.2-0.1,0.3-0.2c5.3-3.3,9.3-8.1,14.1-12c2.2-1.8,4.1-3.6,6.5-2.1c0.4,0.3,0.8,0.6,1.3,1c-0.6-1.5-1.2-2.9-1.8-4.4
		c0,0,0,0,0,0c-0.5-0.2-0.9-0.4-1.4-0.6C62.7,45.3,60.4,46,58.6,48.8z"/>
	<path class="st140" d="M40.5,73.7c-1.8,1.4-1.5,3.5-0.7,5.2c0.9,1.9,1.2,3.8,1.4,5.8c1,10.5,5.4,20.4,6.1,31
		c0.3-0.1,0.6-0.3,0.8-0.4c1.5-1,1.6-2.5,1-4.6c-3.1-9.8-3-20.2-6.1-30c-0.6-1.9-2.2-4.3,0.1-6.1c0.2-0.2,0.5-0.3,0.8-0.5
		c-0.7-0.8-1.7-0.9-2.7-0.9c0,0,0,0,0,0C40.9,73.4,40.7,73.6,40.5,73.7z"/>
	<path class="st141" d="M97.4,49.3c5.1,3.9,10.7,7.1,15.9,10.9c1.6,1.1,3.4,0.5,4.8,1.5c0,0,0,0,0,0c0,0,0,0,0,0
		c0.4-0.2,0.9-0.4,1.3-0.6c0.1-0.1,0.3-0.1,0.4-0.2c0,0,0,0,0,0c0-0.2,0.1-0.5,0.1-0.7c-0.1-0.1-0.2-0.1-0.2-0.2
		c-6.1-4.5-12.9-8-18.4-13.3c-1.2-1.2-3.5-1.1-5.3-1.6c-0.2,0.4-0.5,0.6-0.9,0.8c-0.3,0.1-0.6,0.1-0.9,0.1c0,0,0,0,0,0c0,0,0,0,0,0
		c-0.6,1.1-1,2.3-0.8,3.5c0.4-0.3,0.7-0.5,1-0.7C95.2,48.3,96.1,48.3,97.4,49.3z"/>
	<path class="st142" d="M65.2,81.7c-2.1,1.7-1.6,4.4-0.9,6c1.9,4.2,0.8,8.9,2.5,13c1.1-0.6,2.2-1.3,3.4-1.9c0,0,0,0,0,0
		c0.6-0.6,1.2-1.1,1.9-1.7h0c0-0.3,0-0.6,0-0.9l0,0c0,0,0,0,0,0c-1.4-4.1-2.7-8.3-1.1-12.6c0.1-0.3,0.2-0.5,0.3-0.8c0,0,0,0,0,0
		c0,0,0,0,0,0c-1.6-1-3.4-1.5-5.3-1.7c0,0,0,0,0,0c0,0,0,0,0,0C65.7,81.3,65.4,81.5,65.2,81.7z"/>
	<path class="st143" d="M97.6,53.9c5.6,3.3,10.4,7.8,16.5,10.4c0.2,0.1,0.3,0.2,0.5,0.2c0,0,0,0,0,0c0.6-0.3,1.2-0.6,1.8-0.9
		c0.2-0.2,0.4-0.5,0.6-0.7c0.2-0.2,0.4-0.4,0.6-0.6c0.2-0.2,0.4-0.4,0.5-0.6c0,0,0,0,0,0c-1.4-1-3.2-0.3-4.8-1.5
		c-5.2-3.8-10.8-7-15.9-10.9c-1.3-1-2.2-1-3.1-0.6c-0.3,0.2-0.7,0.4-1,0.7c-0.6,1.1-1,2.3-0.8,3.5c0.3-0.1,0.6-0.2,0.9-0.2
		C94.8,52.5,96,52.9,97.6,53.9z"/>
	<path class="st144" d="M95.8,44.6c0,0.1,0.1,0.3,0.1,0.4c1.8,0.5,4.1,0.5,5.3,1.6c5.5,5.3,12.3,8.8,18.4,13.3
		c0.1,0.1,0.2,0.1,0.2,0.2c0.7-0.3,1.4-0.6,2.2-0.9c0.1-0.1,0.2-0.1,0.4-0.2c0,0,0,0,0,0c0-0.3,0-0.5,0.1-0.8c0-0.1,0-0.3,0-0.4
		c0-0.2,0-0.3,0-0.5h0c-0.2,0-0.3,0-0.4,0c-0.9-0.2-1.5-0.8-2.2-1.2c-5.2-3.2-9.3-7.9-15-10.2c-0.4,0-0.7,0-1.1,0
		c-2.4-0.4-3.6-2.8-5.7-3.9c-0.4-0.2-0.8-0.4-1.2-0.5c-0.3,0-0.6,0-0.9,0c-0.3,0-0.5,0-0.8,0c0,0,0,0,0,0C95,41.7,95,42,95,42.3
		c0.1,0.4,0.3,0.8,0.4,1.2C95.6,43.8,95.7,44.2,95.8,44.6z"/>
	<path class="st145" d="M57.4,79.1c-2.8,3.1-1.9,7.3-0.7,9.9c2.4,5.5,2.7,11.3,4,16.9c0.2-0.1,0.4-0.2,0.6-0.4
		c0.7-0.5,1.4-0.9,2.2-1.4c0,0,0,0,0,0c0-0.3,0.1-0.6,0.1-0.9c0,0,0,0,0,0c-0.4-4.8-0.7-9.5-2.9-14c-1.4-2.9-1.5-6.2-0.2-9.3
		c0.1-0.2,0.2-0.5,0.3-0.7c0,0,0,0,0,0c0,0,0,0,0,0c-0.7-0.8-1.7-0.9-2.7-0.9c0,0,0,0,0,0C57.8,78.7,57.6,78.9,57.4,79.1z"/>
	<path class="st146" d="M58.2,66.4c4-3.1,6.8-7.9,12.1-8.9c0.3-0.1,0.6-0.1,0.8-0.1c-0.1-1.4-0.6-2.6-1.7-3.6c0,0,0,0,0,0
		c-0.3-0.1-0.5-0.1-0.8-0.2c-1.3-0.2-2.4,0-3.5,1.2c-2.4,2.5-4.9,5.3-7.9,6.8c-3.7,2-5.1,4.2-3.7,7.4c0.2,0.5,0.5,0.9,0.8,1.5
		c0.6,0.3,1.2,0.6,1.8,0.9c-0.2-0.4-0.3-0.8-0.3-1.2C55.6,68.6,56.9,67.4,58.2,66.4z"/>
	<path class="st147" d="M60.4,80.1c-1.4,3.1-1.2,6.4,0.2,9.3c2.2,4.5,2.5,9.2,2.9,14c0.2-0.1,0.4-0.2,0.6-0.3
		c0.6-0.2,1.2-0.5,1.8-0.7c0,0,0,0,0,0c0.3-0.5,0.6-0.9,0.9-1.4c0.1-0.1,0.1-0.2,0.2-0.3c0,0,0,0,0,0c-1.7-4.1-0.6-8.8-2.5-13
		c-0.7-1.6-1.2-4.4,0.9-6c0.2-0.2,0.5-0.4,0.8-0.5c0,0,0,0,0,0c-1.6-1.1-3.4-1.6-5.4-1.7c0,0,0,0,0,0C60.5,79.6,60.5,79.9,60.4,80.1
		z"/>
	<path class="st148" d="M100,69.9c1.1,0.4,1.9,1.5,2.9,2.3c0.1,0,0.1,0.1,0.2,0.1c0,0,0,0,0,0l0,0c0,0,0,0,0,0c0,0,0,0,0,0
		c0,0,0,0.3,0,0.3c0.5-0.3,1.1-0.5,1.6-0.8c0.3-0.2,0.7-0.3,1-0.5c0.5-0.4,1-0.8,1.5-1.3c0.1-0.1,0.2-0.2,0.3-0.3c0,0,0,0,0,0
		c0.3-0.3,0.6-0.7,0.9-1c-0.2,0-0.4-0.1-0.6-0.1c-4.5-1-7.4-4.9-11.1-7.1c-2.2-1.3-3.5-1.2-5-0.4c-0.3,0.2-0.7,0.4-1.1,0.6
		c0,0,0,0,0,0c0,0,0,0,0,0c-0.9,1-0.8,2.3-0.8,3.6c0.3-0.2,0.6-0.3,0.9-0.4C95,63.5,96.6,68.7,100,69.9z"/>
	<path class="st149" d="M91.5,61.1c1.5-0.8,2.9-0.9,5,0.4c3.8,2.3,6.6,6.1,11.1,7.1c0.2,0,0.4,0.1,0.6,0.1c1.3-0.7,2.9-1.1,3.5-2.7
		c-0.1,0-0.1-0.1-0.2-0.1c-5.4-1.7-10-4.8-14.2-8.6c-1.5-1.4-3.1-2.4-4.8-1.2c-0.4,0.3-0.7,0.6-1.1,1.1c0,0,0,0,0,0c0,0,0,0,0,0
		c-0.8,1.3-1,2.8-1,4.4c0,0,0,0,0,0C90.8,61.5,91.2,61.3,91.5,61.1z"/>
	<path class="st150" d="M92.6,56.3c1.6-1.1,3.3-0.1,4.8,1.2c4.2,3.8,8.8,6.8,14.2,8.6c0.1,0,0.1,0.1,0.2,0.1c0.3,0,0.6,0,0.9,0
		c0,0,0,0,0,0c0,0,0,0,0,0c0.2-0.1,0.4-0.3,0.6-0.4c0.1-0.1,0.2-0.1,0.3-0.2c0,0,0,0,0,0c0.3-0.3,0.6-0.7,0.9-1c0,0,0,0,0,0
		c-0.2-0.1-0.3-0.1-0.5-0.2c-6-2.6-10.9-7-16.5-10.4c-1.5-0.9-2.8-1.4-4.2-1.1c-0.3,0-0.6,0.1-0.9,0.2c0,0,0,0,0,0
		c-0.8,1.4-1.1,2.9-1,4.4c0,0,0,0,0,0C91.9,56.9,92.2,56.5,92.6,56.3z"/>
	<path class="st151" d="M61.5,72.4c-1.9-0.2-3.2-1.5-1.5-2.7c3.1-2.2,4.6-5.9,8.2-7.6c1.6-0.7,2.7-0.9,4-0.6
		c0.3,0.1,0.6,0.2,0.9,0.3c0,0,0,0,0,0c-0.6-1.5-1.2-2.9-1.8-4.4c0,0,0,0,0,0c-0.3,0-0.6,0.1-0.8,0.1c-5.4,1.1-8.2,5.8-12.1,8.9
		c-1.3,1-2.5,2.2-2.4,3.9c0,0.4,0.1,0.8,0.3,1.2c2,1.1,3.5,3.2,6.2,2.7c-0.1-0.2-0.2-0.4-0.3-0.6C61.9,73.2,61.7,72.8,61.5,72.4z"/>
	<path class="st152" d="M98.4,75.6c0.1,0.1,0.1,0.2,0.2,0.3c0.3,0,0.6,0,0.9,0c0,0,0,0,0,0c0,0,0.1-0.1,0.1-0.1
		c1-1.1,2.1-2.1,3.1-3.2c0,0,0.1-0.1,0.1-0.1c0.1-0.1,0.1-0.1,0.2-0.2c0,0,0,0,0,0c0,0,0,0,0,0c0,0,0,0,0,0c-0.1,0-0.1-0.1-0.2-0.1
		c-0.9-0.8-1.8-1.9-2.9-2.3c-3.4-1.2-4.9-6.4-9.4-5c-0.3,0.1-0.6,0.2-0.9,0.4c-0.9,1-0.7,2.3-1.1,3.5c0.4,0,0.7,0.1,1,0.2
		C93.6,69.7,96.5,72,98.4,75.6z"/>
	<path class="st153" d="M67.7,71.3c2.5-1,3.4-5.1,6.7-4.5c0.4,0.1,0.7,0.2,1.1,0.3c-0.6-1.2-1.1-2.4-1.7-3.5c-0.3,0-0.5-0.1-0.8-0.1
		c-1.1-0.2-2.1-0.2-3.2,0.9c-2.5,2.7-5.3,5.2-8,7.7c-0.1,0.1-0.3,0.3-0.4,0.4c0.2,0.4,0.4,0.8,0.6,1.2c0.1,0.2,0.2,0.4,0.3,0.6
		c1,1,2,2.2,3.5,2.5c-0.2-0.4-0.3-0.9-0.4-1.3C65.1,73.6,65.8,72,67.7,71.3z"/>
	<path class="st154" d="M70.9,83.6c-1.6,4.3-0.3,8.5,1.1,12.6c0,0,0,0,0,0c0.2-0.1,0.3-0.2,0.5-0.2c1-0.5,2-1.1,3-1.6c0,0,0,0,0,0
		c0.3-0.6,0.7-1.1,1-1.7c0,0,0,0,0,0c0,0,0,0,0,0c-1.3-0.9-1.4-2.5-2-3.7c-1.4-2.6-0.8-4,2-4.4c0,0,0,0,0,0c0,0,0,0,0,0
		c0,0,0-0.1,0-0.1c0-0.2-0.1-0.4-0.1-0.5c0,0,0,0,0,0c-1.7-0.4-3.4-0.8-5.1-1.1c0,0,0,0,0,0C71.2,83.1,71,83.4,70.9,83.6z"/>
	<path class="st155" d="M71.5,71.9c1.4-2.3,3.3-1,5.1-0.6c0.3,0.1,0.5,0.1,0.8,0.1h0c-0.6-1.5-1.2-2.9-1.8-4.4c0,0,0,0,0,0
		c-0.4-0.2-0.8-0.3-1.1-0.3c-3.3-0.6-4.2,3.5-6.7,4.5c-1.9,0.7-2.6,2.3-2.2,4.2c0.1,0.4,0.2,0.8,0.4,1.3c1.2,0.6,2.4,1.2,3.5,1.8
		c-0.4-0.5-0.6-0.9-0.7-1.3C67.9,74.9,70.5,73.6,71.5,71.9z"/>
	<path class="st156" d="M68.2,62.1c-3.6,1.7-5.1,5.4-8.2,7.6c-1.7,1.2-0.4,2.5,1.5,2.7c0.1-0.1,0.3-0.3,0.4-0.4c2.7-2.5,5.5-5,8-7.7
		c1-1.1,2.1-1.1,3.2-0.9c0.3,0,0.5,0.1,0.8,0.1c0-0.7-0.2-1.4-0.8-1.8c-0.3-0.1-0.6-0.2-0.9-0.3C70.9,61.2,69.7,61.4,68.2,62.1z"/>
	<path class="st157" d="M88.2,74.9c2.8-2.2,5.7-1.3,7.6,2.5c0.1,0.1,0.1,0.3,0.2,0.4c0,0,0,0,0,0c0,0,0,0,0,0
		c0.9-0.6,1.7-1.2,2.6-1.8c-0.1-0.1-0.1-0.2-0.2-0.3c-2-3.6-4.8-6-8.8-6.7c-0.3-0.1-0.7-0.1-1-0.2c-0.9,2.3-1.4,4.7-1.5,7.2
		C87.4,75.5,87.8,75.2,88.2,74.9z"/>
	<path class="st158" d="M77.4,82.4c-0.4-1.3-3.3-1.6-1.9-3.5c0.8-1.2,2.2-1.7,3.6-1.4c0.3,0.1,0.6,0.1,1,0.3c0,0,0,0,0,0
		c-0.6-1.5-1.2-2.9-1.8-4.4c-0.3,0-0.6,0-0.9-0.1c-4.9-0.2-6.3,1.6-4.7,6.3c0.1,0.3,0.2,0.6,0.3,0.9c0,0,0,0,0,0c0,0,0,0,0,0
		c1.2,1.3,2.9,1.8,4.5,2.5c0-0.1,0-0.3,0-0.4C77.4,82.5,77.4,82.4,77.4,82.4z"/>
	<path class="st159" d="M80,83.9C80,83.9,80,83.9,80,83.9C80,83.9,80,83.9,80,83.9c0.6,0.6,2.4,0.1,1.7,1.9c0.6,0.2,1.3,0.5,1.9,0.7
		c0.3,0,0.6,0,0.9,0l0,0c0-0.3,0-0.6-0.1-0.9c0,0,0,0,0,0c0,0,0,0,0,0c-2.2-2.2-2.5-5.5-4.3-7.9h0c-0.3-0.1-0.6-0.2-1-0.3
		c-1.5-0.3-2.8,0.2-3.6,1.4c-1.4,1.9,1.5,2.2,1.9,3.5c0,0.1,0,0.1,0,0.2c0,0.1,0,0.2,0,0.3L77.4,83c0.1,0,0.2,0.1,0.2,0.1
		C78.4,83.4,79.2,83.6,80,83.9z"/>
	<path class="st160" d="M87.4,78.2c2-1.6,3.5-0.4,5,2.1c0,0,0,0,0,0c0,0,0,0,0,0c0.1,0,0.3,0,0.4,0c0.2,0,0.3,0,0.5,0v0
		c0.7-0.5,1.4-1,2.1-1.5c0.2-0.1,0.3-0.2,0.5-0.4c0,0,0,0,0,0c0-0.3,0-0.5,0.1-0.8c0,0,0,0,0,0c-0.1-0.1-0.1-0.3-0.2-0.4
		c-1.8-3.8-4.8-4.7-7.6-2.5c-0.4,0.3-0.7,0.6-1.1,1c-0.6,1.1-1,2.3-0.8,3.5C86.7,78.9,87.1,78.5,87.4,78.2z"/>
	<path class="st161" d="M84.5,86.5c0.1,0,0.1-0.1,0.2-0.1c1.7-1.1,3.4-2.3,5.1-3.4c0,0,0,0,0,0c0,0,0,0,0,0c0.8-0.8,1.6-1.6,2.4-2.5
		c0.1-0.1,0.2-0.2,0.3-0.3c0,0,0,0,0,0c-1.4-2.5-3-3.7-5-2.1c-0.4,0.3-0.8,0.7-1.2,1.3c-0.6,2-1.2,4.1-1.8,6.1c0,0,0,0,0,0
		c0,0,0,0,0,0C84.4,85.9,84.4,86.2,84.5,86.5z"/>
	<path class="st162" d="M72.6,79.5c-1.6-4.7-0.2-6.5,4.7-6.3c0.3,0,0.6,0,0.9,0.1c0-0.7-0.2-1.4-0.8-1.8c-0.3,0-0.5-0.1-0.8-0.1
		c-1.8-0.5-3.7-1.7-5.1,0.6c-1,1.7-3.6,3-2.8,5.3c0.1,0.4,0.4,0.8,0.7,1.3c0,0,0,0,0,0c0.9,1.1,2.1,1.6,3.5,1.8c0,0,0,0,0,0
		C72.8,80.1,72.7,79.8,72.6,79.5z"/>
	<path class="st163" d="M25.5,72.1c0.7,0.3,1.5,0.4,2.3,0.3c0.1,0,0.3-0.1,0.4-0.1c0.7-0.2,1.4-0.4,2.1-0.6c0.7-0.2,1.4-0.3,2.1-0.3
		c0.2,0,0.4,0,0.7,0.1c0,0,0,0,0,0c0,0,0,0,0,0c0.6,0,1.3-0.1,1.9-0.1c-0.3-0.1-0.7-0.2-1-0.3c-3.3-1-6.5-0.9-9.8,0.3c0,0,0,0,0,0
		C24.6,71.7,25.1,71.9,25.5,72.1z"/>
	<path class="st120" d="M22.8,48.4c0.3-1.2,0.1-2.3-1-3c-0.3-0.2-0.6-0.3-1-0.4c-0.1,1.7,0.4,3.3,1.8,4.4c0,0,0,0,0,0
		C22.7,49.1,22.8,48.8,22.8,48.4z"/>
	<path class="st164" d="M95,45.7c0.4-0.1,0.7-0.3,0.9-0.8c0-0.1-0.1-0.3-0.1-0.4c-0.1-0.4-0.2-0.7-0.4-1.1c-0.1-0.4-0.3-0.8-0.4-1.2
		c-1,1-0.9,2.3-0.9,3.6c0,0,0,0,0,0C94.5,45.9,94.8,45.8,95,45.7z"/>
	<path class="st165" d="M76.6,84.6C76.6,84.6,76.6,84.6,76.6,84.6c0.1,0,0.2,0,0.3,0c0.7,0.1,1.4,0.1,2.1,0.2c0,0,0,0,0,0
		c0,0,0,0,0,0c0.1-0.1,0.1-0.1,0.2-0.2c0.3-0.3,0.5-0.5,0.8-0.8c0,0,0,0,0,0c-0.8-0.3-1.6-0.5-2.4-0.8c-0.1,0-0.2-0.1-0.2-0.1
		c-0.3,0.3-0.6,0.6-0.9,0.9c0,0,0,0,0,0c0.1,0.2,0.1,0.4,0.1,0.5C76.5,84.6,76.6,84.6,76.6,84.6z"/>
	<path class="st139" d="M48.1,66.3c-0.2-0.6-0.7-0.9-1.4-1c-0.1,0-0.1,0-0.2,0c0,0-0.1,0.1-0.1,0.1c-0.2,0.2-0.5,0.5-0.7,0.7
		c0,0,0,0,0,0c0.9,0.3,1.7,0.7,2.6,1c0,0,0,0,0,0C48.2,66.8,48.2,66.6,48.1,66.3z"/>
	<path class="st120" d="M59.7,152.3c-9-5.2-17.3-11.4-26.1-16.9c-0.4-0.2-0.6-0.5-0.8-0.8c-0.5-0.6-0.6-1.3-0.6-2.2c0,0,0,0,0,0
		c0,0,0,0,0,0c-1,0.7-0.9,1.8-0.8,2.8c1,14.5,16.6,24.9,29.2,17.6c0,0,0,0,0,0c0,0,0,0,0,0C60.3,152.7,60,152.5,59.7,152.3z"/>
	<path class="st73" d="M60.8,141.8c-7.7-5-15.2-10.4-23-15.3c-1.4-0.9-0.9-1.8-1.1-2.7c0-0.1,0-0.2-0.1-0.2c0,0,0,0,0,0c0,0,0,0,0,0
		c-1.4,0-2.8,0-4.3,0c-0.3,0-0.6,0-0.9,0c0,0,0,0,0,0c-2.1,0-4.1,0.1-6.2,0.1c0,0,0,0,0,0l0,0c0,0,0,0,0,0c1.7,1.4,3.7,0.9,5.5,0.7
		c3.3-0.3,3.3,1.3,2.5,3.6c0,0,0,0,0,0c0,0,0,0,0,0c0.1,0.4,0.3,0.9,0.4,1.3c0.2,0.5,0.3,0.9,0.5,1.4c6.9,2.5,12.6,7.2,18.5,11.2
		c3,2,6.3,3.5,9.1,5.9c1.8,1.5,3.5,0.3,5.2-0.6c0.5-0.3,1.1-0.5,1.6-0.6c0,0,0,0,0,0c1.2-0.9,1.7-2.1,1.8-3.5
		c-0.4,0.3-0.8,0.5-1.2,0.7C66,145.2,63.3,143.5,60.8,141.8z"/>
	<path class="st74" d="M61.2,135.7c-6.9-4.3-13.4-9.2-20.1-13.9c-0.5,0-1,0-1.5,0c0,0-0.1,0-0.1,0c0,0,0,0,0,0
		c-0.6,0.9-1.6,0.9-2.5,0.9c0,0-0.1,0-0.1,0c0,0,0,0,0,0c-0.1,0.3-0.1,0.5-0.1,0.8c0,0,0,0,0,0c0,0.1,0.1,0.1,0.1,0.2
		c0.2,0.9-0.4,1.8,1.1,2.7c7.8,4.9,15.3,10.2,23,15.3c2.5,1.7,5.2,3.4,8.3,2c0.4-0.2,0.8-0.4,1.2-0.7c0-2,2.3-3.2,1.8-5.3
		c-0.4,0.3-0.7,0.5-1,0.7C67.2,140.7,64.1,137.5,61.2,135.7z"/>
	<path class="st166" d="M61.7,147.9c-2.8-2.4-6.1-3.8-9.1-5.9c-5.9-4.1-11.6-8.7-18.5-11.2c-0.1,0.1-0.1,0.2-0.2,0.3
		c-0.2,0.2-0.4,0.2-0.5,0.1c-0.3-0.1-0.7-0.4-1-0.4l0,0c0,0.6,0,1.2,0,1.7c0,0,0,0,0,0c0,0.8,0.1,1.6,0.6,2.2
		c0.2,0.3,0.5,0.5,0.8,0.8c8.7,5.5,17.1,11.7,26.1,16.9c0.3,0.2,0.6,0.3,0.9,0.5c0,0,0,0,0,0c3.7-0.7,5.8-3.4,7.9-6.2c0,0,0,0,0,0
		c-0.6,0.1-1.1,0.3-1.6,0.6C65.2,148.1,63.5,149.4,61.7,147.9z"/>
	<path class="st167" d="M64.3,132.3c-5.9-4.6-12.8-7.7-18.4-12.7c-0.2-0.1-0.3-0.3-0.5-0.4c0,0,0,0,0,0c0,0,0,0,0,0
		c-0.8,0.3-1.7,0.6-2.5,1c0,0,0,0,0,0c-0.1,0.1-0.2,0.2-0.2,0.3c-0.4,0.4-0.9,0.6-1.5,0.6c0,0.1-0.1,0.3-0.1,0.4c0,0.1,0,0.2,0,0.2
		c0,0,0,0.1,0,0.1c0,0,0,0,0,0c6.7,4.7,13.2,9.6,20.1,13.9c2.9,1.8,5.9,5,9.8,2.8c0.3-0.2,0.7-0.4,1-0.7c0.6-1.1,1-2.3,0.9-3.5
		c-0.3,0.2-0.7,0.4-1,0.5C69,136,66.7,134.2,64.3,132.3z"/>
	<path class="st127" d="M67.5,129.4c-5.3-3.1-10-7.3-15.9-9.4c-2.1-0.8-1.6-2.3-1.6-3.6c0-0.3,0-0.5-0.1-0.8h0c0,0,0,0,0,0
		c-0.6,0.3-1.2,0.5-1.8,0.8c-0.2,0.1-0.5,0.2-0.7,0.3c0,0,0,0,0,0c-0.6,0.8-1.3,1.6-1.9,2.4c0,0,0,0,0,0c0.2,0.1,0.3,0.3,0.5,0.4
		c5.6,5,12.5,8.1,18.4,12.7c2.3,1.8,4.6,3.7,7.6,2.4c0.3-0.1,0.6-0.3,1-0.5c0.6-1.1,1-2.2,0.9-3.5c-0.3,0.1-0.6,0.2-0.9,0.3
		C70.9,131.5,69.3,130.5,67.5,129.4z"/>
	<path class="st168" d="M69,125.6c-5.4-4-11.8-6.6-16.8-11.3c-0.1-0.1-0.3-0.3-0.4-0.4c0,0,0,0,0,0c0,0,0,0,0,0
		c-0.6,0.6-1.2,1.1-1.8,1.7h0c0.1,0.3,0.1,0.5,0.1,0.8c0,1.3-0.6,2.8,1.6,3.6c5.9,2.1,10.6,6.3,15.9,9.4c1.9,1.1,3.4,2.1,5.4,1.6
		c0.3-0.1,0.6-0.2,0.9-0.3c0.8-1.4,1-2.9,0.9-4.4c-0.3,0.1-0.6,0.2-0.9,0.3C72.1,127,70.5,126.8,69,125.6z"/>
	<path class="st169" d="M56.6,110.9c-0.2-0.2-0.3-0.3-0.5-0.5l0,0c0,0,0,0,0,0c-1.1,0.6-2.3,1.2-3.4,1.8c0,0,0,0,0,0
		c-0.1,0.1-0.1,0.2-0.2,0.4c-0.3,0.4-0.5,0.9-0.8,1.3c0,0,0,0,0,0c0.1,0.1,0.3,0.3,0.4,0.4c5,4.7,11.4,7.3,16.8,11.3
		c1.5,1.1,3.1,1.4,4.9,1c0.3-0.1,0.6-0.2,0.9-0.3c0.6-1.1,1-2.3,0.9-3.5c-0.3-0.1-0.5-0.2-0.8-0.2C67.6,120.5,61.6,116.5,56.6,110.9
		z"/>
	<path class="st170" d="M60,108.1c-0.1-0.2-0.2-0.3-0.4-0.5c0,0,0,0,0,0c0,0,0,0,0,0c-0.7,0.3-1.4,0.6-2.1,0.9
		c-0.1,0.1-0.3,0.1-0.4,0.2c0,0,0,0,0,0c-0.3,0.6-0.7,1.1-1,1.7l0,0c0.1,0.2,0.3,0.3,0.5,0.5c5,5.6,11,9.6,18.2,11.6
		c0.3,0.1,0.5,0.2,0.8,0.2c0.6-1.1,1-2.3,0.9-3.5c-0.2-0.1-0.5-0.3-0.7-0.4C70.2,115.7,64.1,113.4,60,108.1z"/>
	<path class="st171" d="M71.6,107c-1.5-1.8-3.5-3-5.4-4.3c-0.1-0.1-0.3-0.2-0.4-0.3c0,0,0,0,0,0c0,0,0,0,0,0
		c-0.6,0.2-1.2,0.5-1.8,0.7c-0.2,0.1-0.4,0.2-0.6,0.3c0,0,0,0,0,0c0,0.3-0.1,0.6-0.1,0.9c0,0,0,0,0,0c0.1,0.1,0.1,0.2,0.2,0.3
		c3.1,5.1,8.5,7.2,13.4,10c0.2,0.1,0.4,0.2,0.6,0.3c0,0,0,0,0,0c0.1-0.4-0.1-0.9-0.3-1.3c-0.3-0.8-0.7-1.5,0.3-2
		c0.2-0.1,0.5-0.2,0.9-0.2c0,0,0,0,0,0c0,0,0,0,0,0c0.6-1.1,1-2.3,0.9-3.5c-0.3,0.3-0.7,0.5-1,0.7C75.8,109.8,73.6,109.3,71.6,107z"
		/>
	<polygon class="st171" points="77.4,114.8 77.4,114.8 77.4,114.8 	"/>
	<path class="st153" d="M70.4,99.7c-0.1-0.3-0.2-0.6-0.2-0.8l0,0c0,0,0,0,0,0c-1.1,0.6-2.2,1.3-3.4,1.9c0,0,0,0,0,0
		c-0.1,0.1-0.1,0.2-0.2,0.3c-0.3,0.5-0.6,0.9-0.9,1.4c0,0,0,0,0,0c0.1,0.1,0.3,0.2,0.4,0.3c1.9,1.3,3.9,2.4,5.4,4.3
		c1.9,2.3,4.1,2.8,6.5,1.5c0.3-0.2,0.7-0.4,1-0.7c0.6-1.1,1-2.3,0.9-3.5c-0.3,0.1-0.6,0.2-0.9,0.3C75.4,105.5,71.6,103.3,70.4,99.7z
		"/>
	<path class="st172" d="M115,143.7c7.4-6.5,14.8-13.1,22.1-19.7c0.4-0.4,0.3-1.4,0.4-2.1c-1.7,1.5-3.3,2.9-4.9,4.4
		c-5.8,5.1-11.5,10.2-17.4,15.2c-1,0.8-1.8,2.9-3.6,2c-0.2-0.1-0.4-0.2-0.6-0.4c0,0-0.1,0-0.1,0c-0.3,0-0.5,0-0.8,0c0,0,0,0,0,0
		c0,0.6,0.1,1.2,0.1,1.8c0,0,0,0,0,0c0.4,0.2,0.8,0.3,1.2,0.4C112.8,145.4,114,144.6,115,143.7z"/>
	<path class="st173" d="M72.4,97.3c-0.1-0.1-0.2-0.1-0.3-0.1v0h0c-0.6,0.6-1.2,1.1-1.9,1.7l0,0c0.1,0.3,0.1,0.6,0.2,0.8
		c1.1,3.7,5,5.8,8.6,4.8c0.3-0.1,0.6-0.2,0.9-0.3c0.8-1.4,1-2.9,0.9-4.4c-0.4,0.3-0.7,0.6-1,0.8C76.4,102.7,74.8,98.6,72.4,97.3z"/>
	<path class="st174" d="M76.2,94.7c-0.2-0.1-0.4-0.2-0.6-0.3c0,0,0,0,0,0c0,0,0,0,0,0c-1,0.5-2,1.1-3,1.6c-0.2,0.1-0.3,0.2-0.5,0.2
		l0,0c0,0.3,0,0.6,0,0.9v0c0.1,0,0.2,0.1,0.3,0.1c2.4,1.3,4.1,5.4,7.5,3.3c0.3-0.2,0.7-0.4,1-0.8c0.6-1.1,1-2.3,0.9-3.5
		c-0.3,0.2-0.7,0.2-1,0.3C79,96.8,77.7,95.5,76.2,94.7z"/>
	<path class="st175" d="M81.8,89.2L81.8,89.2L81.8,89.2c-1.6,1.1-3.3,2.3-4.9,3.4c-0.1,0.1-0.2,0.1-0.3,0.2c0,0,0,0,0,0
		c-0.3,0.6-0.7,1.1-1,1.7c0,0,0,0,0,0c0.2,0.1,0.4,0.2,0.6,0.3c1.5,0.8,2.8,2.1,4.7,1.8c0.3,0,0.6-0.1,1-0.3
		c0.9-2.3,1.6-4.6,1.7-7.1c-0.2,0-0.5,0-0.7,0C82.5,89.2,82.2,89.2,81.8,89.2z"/>
	<path class="st176" d="M88.9,88.2c0.1-0.2,0.2-0.4,0.3-0.5c0.7-1.3,1.3-2.5,0.9-4c-0.1-0.2-0.2-0.4-0.3-0.7c0,0,0,0,0,0
		c-1.7,1.1-3.4,2.3-5.1,3.4c-0.1,0-0.1,0.1-0.2,0.1l0,0c-0.3,0-0.6,0-0.9,0c-0.1,0.2-0.3,0.4-0.4,0.6c-0.3,0.5-0.6,0.9-0.9,1.4
		c-0.1,0.2-0.3,0.4-0.4,0.6v0c0.3,0,0.7,0,1,0c0.2,0,0.5,0,0.7,0c0.6-1,1.2-0.2,1.8,0v0c0-0.2,0.1-0.4,0.2-0.6
		C86.2,86.9,88,89.1,88.9,88.2z"/>
	<path class="st177" d="M108.7,131.8c1.8-2.2,3.9-4.2,5.8-6.3c-0.6,0.1-1,0.2-1.5,0.4c-1.6,0.8-2.6,2.4-3.8,3.7
		c-1.3,1.5-2.6,1.9-4.2,1.6c-0.3-0.1-0.7-0.2-1-0.3c0.3,0.6,0.5,1.2,0.8,1.8c0,0,0,0,0,0c0.3,0.1,0.6,0.1,0.9,0.2
		C106.7,132.9,107.8,132.9,108.7,131.8z"/>
	<path class="st63" d="M126,160.8c-0.1,0-0.2-0.1-0.4-0.1c-0.6-0.2-1.2-0.4-1.8-0.6c-0.1,0-0.3-0.1-0.4-0.1c0,0,0,0,0,0l0,0
		c-0.1,0.1-0.2,0.2-0.3,0.3c0,0,0,0-0.1,0.1c-0.2,0.2-0.4,0.3-0.5,0.5c0,0,0,0,0,0c0,0,0,0,0,0c0.9,1.1,2.2,1.6,3.6,1.7c0,0,0,0,0,0
		c0-0.3,0-0.6,0-0.9C126,161.4,126,161.1,126,160.8z"/>
	<path class="st120" d="M33.8,131c0.1-0.1,0.1-0.2,0.2-0.3c-0.2-0.5-0.3-0.9-0.5-1.4c-0.1-0.4-0.3-0.9-0.4-1.3c0,0,0,0,0,0
		c-1,0.7-0.9,1.7-0.9,2.7c0,0,0,0,0,0c0.3,0,0.7,0.3,1,0.4C33.5,131.2,33.7,131.2,33.8,131z"/>
	<path class="st178" d="M77.4,111.5c-1,0.4-0.7,1.2-0.3,2c0.2,0.5,0.4,1,0.3,1.3c0,0,0,0,0,0c-0.2-0.1-0.4-0.2-0.6-0.3
		c-4.9-2.8-10.3-4.8-13.4-10c-0.1-0.1-0.1-0.2-0.2-0.3c-0.7,0.5-1.4,0.9-2.2,1.4c-0.2,0.1-0.4,0.2-0.6,0.4c0,0,0,0,0,0
		c-0.3,0.5-0.6,1.1-1,1.6c0,0,0,0,0,0c0.1,0.2,0.2,0.3,0.4,0.5c4,5.3,10.2,7.6,15.8,10.8c0.2,0.1,0.5,0.3,0.7,0.4
		c0.8-1.4,1-2.8,0.9-4.4l0,0c0,0,0,0,0,0c0,0,0,0,0,0c0,0,0,0,0,0c1.2-1,0.8-2.3,0.9-3.5c0,0,0,0,0,0
		C77.9,111.3,77.6,111.4,77.4,111.5z"/>
	<path class="st179" d="M123,160.3C123,160.3,123,160.3,123,160.3c0.2-0.2,0.3-0.3,0.4-0.4c-0.7-0.4-1.4-0.7-2.2-0.8
		c-0.4-0.1-0.9-0.1-1.4-0.1c0,0,0,0,0,0c0.9,0.6,1.8,1.2,2.6,1.8c0,0,0,0,0,0C122.6,160.6,122.8,160.5,123,160.3z"/>
	<path class="st59" d="M332.5,92.2c-1,0-1.9,0-2.9,0c0,0.1,0,0.2,0,0.3c17.9,0,35.7,0,53.6,0c0-0.1,0-0.2,0-0.3c-0.6,0-1.3,0-1.9,0"
		/>
	<path class="st118" d="M388.1,85.4c0,0.1,0,0.1-0.1,0.2c-0.4,0.9-0.5,1.7-0.1,2.4c0.1,0.1,0.1,0.3,0.2,0.4
		C388.8,87.5,388.7,86.6,388.1,85.4z"/>
	<path class="st180" d="M277.1,57.3C277.1,57.3,277.1,57.3,277.1,57.3c1.9-4.5,1.5-5.1-3.1-5.1c-2.6,0-5.2,0-7.8,0
		c-4.6,0-4.9,0.5-3.2,5.1C267.7,57.3,272.4,57.3,277.1,57.3z"/>
	<path class="st181" d="M251.6,52.2c-3.5,0-7.1,0-10.6,0c-1.5,0-2.5,0.6-2.6,2.3c-0.1,1.9,0.8,2.7,2.7,2.7c1.6,0,3.2,0,4.9,0
		c0,0,0,0,0,0c1.9,0,3.8,0,5.7,0c1.6,0,2.4-0.9,2.3-2.5C254,53,253.2,52.2,251.6,52.2z"/>
	<path class="st182" d="M262.2,44.9c5,0,10,0.1,15,0.1c0,0,0,0,0,0c2.2-3.4-1.3-3.8-2.8-5.2c-4.1,0-8.1,0.1-12.2,0.1c0,0,0,0,0,0
		C262.2,41.5,262.2,43.2,262.2,44.9z"/>
	<path class="st180" d="M253.3,39.9c-4.1,0-8.1-0.1-12.2-0.1c0,0,0,0,0,0c-1.7,1.3-4.1,2.4-1.9,5.2c4.4,0,8.8,0,13.3,0c0,0,0,0,0,0
		h0C254.2,43.5,253.2,41.6,253.3,39.9z"/>
	<path class="st100" d="M263.7,46.7c3.9,0,7.9,0,11.8,0c1.1,0,1.5-0.8,1.6-1.7c0,0,0,0,0,0c-5,0-10-0.1-15-0.1
		C262.3,45.8,262.6,46.7,263.7,46.7z"/>
	<path class="st183" d="M239.2,45c0.3,2.1,2,2,3.3,1.7c3.3-0.6,7.1,1.9,9.9-1.7c0,0,0,0,0,0C248,45,243.6,45,239.2,45z"/>
	<path class="st100" d="M277.1,57.3C277.1,57.3,277.1,57.3,277.1,57.3c-4.7,0-9.4,0-14,0C267.7,58.8,272.4,58.9,277.1,57.3z"/>
	<path class="st113" d="M240.1,39.2c0.3,0.2,0.6,0.4,1,0.6c0,0,0,0,0,0c4.1,0,8.1,0.1,12.2,0.1C249,37.8,244.5,38.9,240.1,39.2z"/>
	<path class="st118" d="M275.2,39.5c0.1,0,0.1-0.2,0.1-0.3c-4.4-0.3-8.9-1.4-13.2,0.7c0,0,0,0,0,0c4.1,0,8.1-0.1,12.2-0.1
		C274.7,39.7,274.9,39.6,275.2,39.5z"/>
	<path class="st67" d="M247.8,143.9c-0.1,0-0.4,0-0.4,0.1c-0.1,2-0.4,4-0.1,5.9c0.1,0.6,0.6-0.4,0.8-0.8c0,0,0,0,0,0
		c0-1.7,0-3.3,0.1-5C248,144.1,247.9,144,247.8,143.9z"/>
	<path class="st68" d="M213.6,32.2c-0.1,0.7,0.2,1.9,1,1.4c1.7-1.2,4.6-1.6,4.3-5c-0.3-0.4-0.2-2.6-1.3-1.5
		C216.1,28.6,213.8,29.7,213.6,32.2z"/>
	<path class="st68" d="M213.6,22.8c-0.1,0.7,0.1,1.4,0.2,2.3c3.8-1.2,2.1-4.1,2.2-6.2c0-0.8-0.9-1.4-1.5-0.9
		C212.7,19.2,213.8,21.1,213.6,22.8z"/>
	<path class="st184" d="M118,61.7C118,61.7,118,61.7,118,61.7c-0.2,0.2-0.4,0.4-0.5,0.6c-0.2,0.2-0.4,0.4-0.6,0.6
		c-0.2,0.2-0.4,0.5-0.6,0.7c2.2-0.2,2.7,1,2.7,3c0,2.7,0.2,5.4,0.9,8.1c1.8,7.1,3.6,14.2,4.3,21.5c0,0.3,0.1,0.7,0.1,1
		c3,0.2,4.9,0.2,3.9-4.2c-1.1-5.5-2.5-11-3.4-16.6c-0.8-5.2-0.8-11.1-5-15.4c0,0,0,0,0,0c-0.1,0.1-0.3,0.1-0.4,0.2
		C118.9,61.3,118.5,61.5,118,61.7z"/>
	<path class="st179" d="M125.6,160.7c0.1,0,0.2,0.1,0.4,0.1c0.4-0.2,0.8-0.4,1.1-0.7c8.3-8.6,17.3-16.5,26.6-24
		c1.5-1.2,2-2.8,1.2-4.4c-0.2-0.3-0.4-0.6-0.6-1c-0.1,0.4-0.1,1-0.4,1.2c-8.1,5.8-14.8,13.1-22.4,19.5c-3,2.5-6.4,4.7-8.2,8.4
		c0,0,0,0,0,0c0.1,0,0.3,0.1,0.4,0.1C124.4,160.3,125,160.5,125.6,160.7z"/>
	<path class="st108" d="M107.4,10.5c0.1,0.1,0.2,0.2,0.3,0.3c0.1,0.1,0.2,0.2,0.3,0.3c4.3,4.3,10.4,6.3,14.6,10.8
		c0.3,0.3,1,0.3,1.8,0.2c0.3,0,0.5,0,0.8,0c-3.6-5.7-10.6-6.8-15.1-11.3c-0.3-0.3-1.1-0.3-1.8-0.2C107.9,10.5,107.7,10.5,107.4,10.5
		C107.4,10.5,107.4,10.5,107.4,10.5C107.4,10.5,107.4,10.5,107.4,10.5z"/>
	<path class="st185" d="M92.8,80.3c-0.1,0-0.3,0-0.4,0c0,0,0,0,0,0c-0.1,0.1-0.2,0.2-0.3,0.3c-0.8,0.8-1.6,1.6-2.4,2.5c0,0,0,0,0,0
		c0.1,0.2,0.2,0.5,0.3,0.7c0.5,1.5-0.2,2.7-0.9,4c-0.1,0.2-0.2,0.4-0.3,0.5c0.3,0.3,0.6,0.6,0.9,1c0.5,0,0.9,0,1.4,0
		c0.9,0,1.7,0,2.6,0c0.1,0,0.3,0,0.4,0c0,0,0,0,0,0c0,0,0,0,0,0c0,0,0,0,0,0c2.9-3.3,0.3-6-0.9-8.9v0C93.1,80.3,93,80.3,92.8,80.3z"
		/>
	<path class="st163" d="M34.7,118.8c-3.3-8.6-3.2-17.8-5.2-26.5C28,85.9,27.8,79,24,73.2c-0.2-0.2-0.3-0.5-0.5-0.7c0,0,0,0,0-0.1
		c0,0,0,0.1,0,0.1c-1.4,2.5-1.6,5.5-0.6,7.6c2,4.1,1.6,8.5,3.1,12.7c2.9,8.1,3.7,16.6,4.9,25.1c0.3,2.1,1,4.5,4.1,4.1
		c0-0.3,0-0.5,0-0.8C34.9,120.3,34.9,119.5,34.7,118.8z"/>
	<path class="st186" d="M40.5,119.8c1.2-1.9,0.4-3.9,0.2-5.9c-1.1-8.1-5.5-15.6-4.9-24.1c0.1-0.8-0.1-1.9-0.6-2.5
		c-2-2.8-1.9-6.4-3.5-9.4c-1-1.9-0.9-4.3,1-5.9c0.1-0.1,0.3-0.3,0.4-0.4c0,0,0,0,0,0c-0.2,0-0.4-0.1-0.7-0.1c-0.7,0-1.4,0.1-2.1,0.3
		c-0.7,0.2-1.4,0.4-2.1,0.6c-0.1,0-0.3,0.1-0.4,0.1c1.8,9.2,3.3,18.5,5.4,27.7c1.2,5.1,2.7,10,3,15.3c0.2,2.2-0.1,5.5,3.1,6.6
		c0,0,0,0,0,0c0,0,0.1,0,0.1,0c0.5,0,1,0,1.5,0c0,0,0,0,0,0c0,0,0-0.1,0-0.1c0-0.1,0-0.2,0-0.2c0-0.1,0.1-0.3,0.1-0.4
		C40.5,120.9,39.8,120.9,40.5,119.8z"/>
	<path class="st164" d="M98.8,40.4c-1.2-1.1-1.8-0.2-1.9,1c0.4,0.1,0.9,0.2,1.2,0.5c2,1.1,3.3,3.5,5.7,3.9c0.3,0.1,0.7,0.1,1.1,0
		C103.5,43.2,100.7,42.3,98.8,40.4z"/>
	<path class="st187" d="M81.6,85.8c-0.8-0.1-1.5-0.1-2.2-0.5c-0.1-0.1-0.3-0.2-0.4-0.3c0,0,0,0,0,0c-0.7-0.1-1.4-0.1-2.1-0.2
		c-0.1,0-0.2,0-0.3,0c0,0,0,0,0,0c-2.9,0.5-3.4,1.9-2,4.4c0.7,1.2,0.8,2.8,2,3.7c0,0,0,0,0,0c0.1-0.1,0.2-0.1,0.3-0.2
		c1.6-1.1,3.3-2.3,4.9-3.4l0,0c0.1-0.2,0.3-0.4,0.4-0.6c0.3-0.5,0.6-0.9,0.9-1.4c0.1-0.2,0.3-0.4,0.4-0.6C83,86.3,82.3,86,81.6,85.8
		C81.6,85.8,81.6,85.8,81.6,85.8z"/>
	<path class="st188" d="M81.6,85.8C81.6,85.8,81.6,85.8,81.6,85.8c0.9-1.8-1-1.3-1.6-1.9c0,0,0,0,0,0c-0.3,0.3-0.5,0.5-0.8,0.8
		c-0.1,0.1-0.1,0.1-0.2,0.2c0,0,0,0,0,0c0.1,0.1,0.3,0.2,0.4,0.3C80,85.7,80.8,85.7,81.6,85.8z"/>
</g>
</svg>
