<?xml version="1.0" encoding="utf-8"?>
<!-- Generator: Adobe Illustrator 21.1.0, SVG Export Plug-In . SVG Version: 6.00 Build 0)  -->
<svg version="1.1" id="Layer_1" xmlns="http://www.w3.org/2000/svg" xmlns:xlink="http://www.w3.org/1999/xlink" x="0px" y="0px"
	 viewBox="0 0 348 424.1" style="enable-background:new 0 0 348 424.1;" xml:space="preserve">
<style type="text/css">
	.st0{fill:#FF4E43;}
</style>
<g>
	<path class="st0" d="M338.9,174.8c0.3,91.1-74.4,165.3-165.3,165.4c-91.5,0-165.8-74.5-165.7-165.8C8,83.4,82.5,8.9,173.8,9.1
		C264.5,9.2,339.3,83.4,338.9,174.8z M52.3,175.5c0.2,5.2,1.4,11.4,2.2,17.6c2.4,17.9,9,34.5,19.1,49.2
		c16.9,24.5,39.8,41.1,68.9,48.7c3.9,1,5.4-0.1,5.4-3.9c0-6.2-0.2-12.3,0.1-18.5c0.2-4.7-1.3-7.1-5.9-8.8
		c-26.8-10.1-45-28.9-54.5-55.8c-4.8-13.6-5.4-27.9-3.7-42.3c1.7-15,7.5-28.2,15.9-40.3c10.8-15.4,25.7-25.6,43-32.7
		c1.9-0.8,4-3.7,4.2-5.8c0.5-7,0.1-14,0.1-21c0-3.6-1.6-4.8-5.1-3.8c-12.9,3.6-25,9-35.9,16.5C71.3,98.8,50.8,132.6,52.3,175.5z
		 M264.6,174.6c-1,7.4-1.3,15-3.1,22.1c-4.7,18.9-14.6,34.7-29.6,47.3c-8,6.8-16.8,11.9-26.5,15.5c-4.6,1.7-6.1,4.3-5.8,8.9
		c0.4,5,0.1,10,0.1,15c0,8,0.9,8.4,8.8,6.3c13.5-3.6,25.5-10.3,36.7-18.5c26.4-19.4,41.8-45.7,47.3-77.5c3.5-20.7,1.6-41.7-6-61.4
		C274.9,102.5,254.6,80,225.5,66c-6.7-3.2-13.9-5.3-20.9-7.8c-3.5-1.2-5.3-0.1-5.2,4c0.2,6.5,0.3,13,0,19.5
		c-0.2,4.2,1.5,6.2,5.4,7.7c15.1,5.8,28.1,14.7,38.5,27.4C257.1,133.6,264.5,152.6,264.6,174.6z"/>
	<g>
		<path d="M138.7,376.4c-0.6-1-1.3-1.8-2.2-2.5c-0.9-0.7-1.9-1.3-3-1.7c-1.1-0.4-2.3-0.6-3.6-0.6c-2.3,0-4.2,0.4-5.8,1.3
			c-1.6,0.9-2.9,2-3.8,3.5c-1,1.5-1.7,3.1-2.1,5c-0.4,1.9-0.7,3.8-0.7,5.8c0,1.9,0.2,3.8,0.7,5.6c0.4,1.8,1.2,3.4,2.1,4.9
			c1,1.5,2.3,2.6,3.8,3.5c1.6,0.9,3.5,1.3,5.8,1.3c3.1,0,5.5-0.9,7.2-2.8c1.7-1.9,2.8-4.4,3.2-7.4h9.7c-0.3,2.9-0.9,5.4-2,7.7
			c-1.1,2.3-2.5,4.3-4.2,5.9c-1.8,1.6-3.8,2.9-6.1,3.7c-2.3,0.9-4.9,1.3-7.7,1.3c-3.5,0-6.6-0.6-9.4-1.8c-2.8-1.2-5.2-2.9-7.1-5
			c-1.9-2.1-3.4-4.6-4.4-7.5c-1-2.9-1.5-6-1.5-9.3c0-3.4,0.5-6.6,1.5-9.5c1-2.9,2.5-5.5,4.4-7.6c1.9-2.2,4.3-3.9,7.1-5.1
			c2.8-1.2,5.9-1.9,9.4-1.9c2.5,0,4.9,0.4,7.1,1.1c2.2,0.7,4.2,1.8,6,3.2c1.8,1.4,3.2,3.1,4.4,5.2c1.2,2,1.9,4.4,2.2,7h-9.7
			C139.7,378.4,139.3,377.4,138.7,376.4z"/>
		<path d="M165.2,364.2v45.7h-9.1v-45.7H165.2z"/>
		<path d="M173.6,381.7c0.9-1.4,2.1-2.5,3.6-3.4c1.5-0.9,3.1-1.5,4.9-1.8c1.8-0.4,3.6-0.5,5.5-0.5c1.7,0,3.3,0.1,5.1,0.4
			c1.7,0.2,3.3,0.7,4.7,1.4c1.4,0.7,2.6,1.6,3.5,2.8c0.9,1.2,1.3,2.8,1.3,4.8v17.2c0,1.5,0.1,2.9,0.3,4.3c0.2,1.4,0.5,2.4,0.9,3.1
			H194c-0.2-0.5-0.3-1-0.4-1.6c-0.1-0.5-0.2-1.1-0.2-1.6c-1.5,1.5-3.2,2.5-5.1,3.1c-2,0.6-4,0.9-6,0.9c-1.6,0-3.1-0.2-4.4-0.6
			c-1.4-0.4-2.6-1-3.6-1.8c-1-0.8-1.8-1.8-2.4-3.1c-0.6-1.2-0.9-2.7-0.9-4.4c0-1.9,0.3-3.4,1-4.6c0.7-1.2,1.5-2.2,2.6-2.9
			c1-0.7,2.2-1.3,3.6-1.6s2.7-0.6,4.1-0.9c1.4-0.2,2.7-0.4,4-0.5s2.5-0.3,3.5-0.6s1.8-0.6,2.4-1.1c0.6-0.5,0.9-1.2,0.8-2.1
			c0-1-0.2-1.8-0.5-2.3s-0.7-1-1.3-1.3c-0.5-0.3-1.2-0.5-1.9-0.6c-0.7-0.1-1.5-0.2-2.3-0.2c-1.8,0-3.2,0.4-4.2,1.2s-1.6,2-1.8,3.8
			H172C172.2,384.9,172.7,383.1,173.6,381.7z M191.6,394.5c-0.6,0.2-1.2,0.4-1.9,0.5s-1.4,0.2-2.1,0.3c-0.7,0.1-1.5,0.2-2.2,0.3
			c-0.7,0.1-1.4,0.3-2,0.5c-0.7,0.2-1.2,0.5-1.7,0.9c-0.5,0.4-0.9,0.8-1.2,1.4c-0.3,0.6-0.4,1.3-0.4,2.1c0,0.8,0.1,1.5,0.4,2
			c0.3,0.6,0.7,1,1.2,1.3c0.5,0.3,1.1,0.5,1.8,0.7c0.7,0.1,1.4,0.2,2.1,0.2c1.8,0,3.2-0.3,4.2-0.9c1-0.6,1.7-1.3,2.2-2.1
			c0.5-0.8,0.8-1.7,0.9-2.5c0.1-0.9,0.2-1.5,0.2-2v-3.4C192.6,394.1,192.2,394.3,191.6,394.5z"/>
		<path d="M221.4,419.8c-1.8,1.2-4.2,1.7-7.3,1.7c-0.9,0-1.9,0-2.8-0.1c-0.9-0.1-1.8-0.1-2.8-0.2v-7.5c0.9,0.1,1.7,0.2,2.6,0.3
			c0.9,0.1,1.8,0.1,2.7,0.1c1.2-0.1,2.1-0.6,2.7-1.4s0.9-1.7,0.9-2.7c0-0.7-0.1-1.4-0.4-2l-11.6-31h9.7l7.5,22.7h0.1l7.2-22.7h9.4
			L225.5,414C224.5,416.7,223.1,418.6,221.4,419.8z"/>
	</g>
</g>
</svg>
