<svg xmlns="http://www.w3.org/2000/svg" xmlns:xlink="http://www.w3.org/1999/xlink" viewBox="0 0 800 800"><defs><style>.cls-1{fill:#c3addb;}.cls-2{clip-path:url(#clip-path);}.cls-3{fill:#fff;}.cls-4{fill:#f8bcbc;}.cls-5{fill:#fde8bd;}.cls-6{fill:#e7ffbe;}.cls-7{fill:#b5fcd0;}.cls-8{fill:#c4befc;}.cls-9{fill:#bc8b60;}.cls-10{fill:#bbf7f8;}.cls-11{fill:#f6d2a2;}.cls-12{fill:#fce3e4;}.cls-13{fill:#fff8a1;}.cls-14{fill:#fcdbdb;}.cls-15{fill:#f7bfbf;}.cls-16{opacity:0.2;}.cls-17{fill:#050505;}</style><clipPath id="clip-path"><circle class="cls-1" cx="396.16" cy="411.67" r="336.49"/></clipPath></defs><title>KUBICORN</title><g id="layer_8" data-name="layer 8"><path d="M396.16,757.37A345.7,345.7,0,0,1,151.72,167.22,346,346,0,0,1,572,113.92c4.64-5.53,10-11,16.41-13.72,6.15-2.62,10.42-1.39,12.91.11,5,3,6.47,8.85,7.14,14.21A107.4,107.4,0,0,1,621.09,112c6.14-.89,13.38-1.56,20.4-1.88a346.23,346.23,0,0,1,46.77,1.28c.55,0,1.39.08,2.37.11,6.07.2,14.38.49,18.05,6.35a10.73,10.73,0,0,1,1.31,8.7c-1.73,6.15-8.32,9.87-14.36,12.88l-1.13.57-2.61,1.36c-3.63,1.89-7.36,3.82-10.78,6l.33.22c1.08.72,1.93,1.29,2.58,1.81.4.29,2.15,1.28,3.32,1.93,8.79,4.94,19.72,11.08,15.89,20-1.91,4.44-6.88,6.44-15.05,7.38,1.14,1.26,2.29,2.61,3.47,4.05.3.37,1,1.07,1.64,1.74,3.66,3.77,8.67,8.93,7.78,15a11.47,11.47,0,0,1-5.38,8.4c-5.23,3.23-12.7,2.2-20,.21,43.34,59.2,66.19,129.36,66.19,203.53a345.7,345.7,0,0,1-345.7,345.7Zm0-681.4A335.7,335.7,0,0,0,158.79,649,335.7,335.7,0,0,0,731.86,411.67c0-75.21-24.19-146.17-70-205.18a5,5,0,0,1-.92-1.93,23.46,23.46,0,0,0-1-3.31,5,5,0,0,1,6.11-6.63c1.19.36,2.56.82,4,1.29,5.51,1.83,17,5.63,20.39,3.52a1.57,1.57,0,0,0,.74-1.33c0-1.39-3.54-5-5.06-6.61-.88-.91-1.64-1.69-2.21-2.39a72.07,72.07,0,0,0-10.54-10.78,5,5,0,0,1,3-8.89c11.22-.31,15.51-1.29,17.14-2-2-2.29-8.68-6.05-11.05-7.38a39.64,39.64,0,0,1-4.66-2.84c-.31-.25-1.11-.79-1.89-1.3-5.23-3.49-6.88-4.94-7.66-6.74a4.91,4.91,0,0,1-.26-.75c-1.09-4.23,2.39-6.17,3.88-7,.39-.22.79-.44,1.11-.66a129.6,129.6,0,0,1,14.32-8.23l2.57-1.34,1.24-.63c2.19-1.09,8.6-4.28,9.28-6.68,0-.12.08-.29-.16-.68-.68-.9-4-1.47-9.91-1.67-1.13,0-2.1-.07-2.92-.14a336.42,336.42,0,0,0-45.42-1.26c-6.7.31-13.6.95-19.42,1.79a92.39,92.39,0,0,0-16.87,3.86,5,5,0,0,1-6.52-4.28q-.09-.93-.17-1.93c-.3-3.57-.81-9.54-2.75-10.71-.69-.42-2.09-.23-3.83.52-5.3,2.26-10.48,8.14-15.29,14.16a5,5,0,0,1-6.51,1.15A334.55,334.55,0,0,0,396.16,76Zm298.14,91Z"/></g><g id="BACKGROUND"><circle class="cls-1" cx="396.16" cy="411.67" r="336.49"/><g class="cls-2"><rect class="cls-1" width="800" height="800"/></g><path d="M396.16,752.37A340.7,340.7,0,0,1,155.25,170.76,340.7,340.7,0,1,1,637.07,652.58,338.47,338.47,0,0,1,396.16,752.37Zm0-673c-183.22,0-332.28,149.06-332.28,332.28S212.94,743.95,396.16,743.95,728.44,594.89,728.44,411.67,579.38,79.39,396.16,79.39Z"/></g><g id="BACKGROUND_DETAILS" data-name="BACKGROUND DETAILS"><path class="cls-3" d="M318.61,225.78v-1.37"/></g><g id="COLOR"><polygon class="cls-4" points="604.51 122.08 615.21 118.85 631.14 117.52 653.25 116.41 674.91 116.41 694.13 118.85 699.71 119.25 703.07 121.42 703.07 125.98 698.79 130.16 686.47 136.78 672.3 145.11 671.25 147.59 677.97 153.24 691.28 161.38 696.84 166.38 695.65 170.14 691.53 171.48 671.73 172.92 683.09 182.96 692.31 193.32 694.51 198.58 692.56 202.05 689.3 203.27 678.49 202.03 661.74 197.06 664.59 205.29 664.41 211.36 661.52 215.56 657.14 217.11 644.82 214.81 630.2 206.8 611.16 193.31 601.81 188.55 599.07 127.03 604.51 122.08"/><path class="cls-5" d="M609.42,132.73c5.6-2.58,12.21-3.43,18.13-4.11,16.39-1.87,33.44-3.87,49.74-.47a86.54,86.54,0,0,0,9.92,1.83c1.37.12,6.78-.75,7.51.71,1.17,2.31-6.63,5.22-8.25,6.09l-14.17,8.33-1.06,2.48,6.72,5.65,13.31,8.15,5.56,5-1.19,3.76-4.12,1.35-19.8,1.43,11.35,10,9.22,10.36,2.2,5.26-1.95,3.47-3.26,1.22L678.49,202l-16.75-5,2.85,8.23-.17,6.07-2.9,4.21-4.37,1.55-12.32-2.3-14.63-8-19-13.49c-2.8-1.43-8.61-2.64-10.58-4.65-2.5-2.55-1.6-7.56-1.78-10.78-.41-7.7-.08-15.47-.64-23.15-.42-5.75-1.07-9.8,2.49-14.91A21.15,21.15,0,0,1,609.42,132.73Z"/><path class="cls-6" d="M609.25,144.42c2.6,0,5.23.25,7.1.16,15.35-.72,32.42-2,47.27,1.26,10.61,2.33,18.48,9.93,27.66,15.55l5.56,5-1.19,3.76-4.12,1.35-19.8,1.43,11.35,10,9.22,10.36,2.2,5.26-1.95,3.47-3.26,1.22L678.49,202l-16.75-5,2.85,8.23-.17,6.07-2.9,4.21-4.37,1.55-12.32-2.3-14.63-8-19-13.49c-2.8-1.43-8.61-2.64-10.58-4.65-2.5-2.55-1.6-7.56-1.78-10.78-.36-6.69-4.08-27.41,2.72-32.06C603.29,144.6,606.26,144.39,609.25,144.42Z"/><path class="cls-7" d="M611.85,160.07a51.15,51.15,0,0,1,11.43-.3c12.74.8,25.48,4.32,37.47,8.59,7.67,2.73,16.9,8.48,22.34,14.6l9.22,10.36,2.2,5.26-1.95,3.47-3.26,1.22L678.49,202l-16.75-5,2.85,8.23-.17,6.07-2.9,4.21-4.37,1.55-12.32-2.3-14.63-8-19-13.49c-2.8-1.43-8.61-2.64-10.58-4.65-2.5-2.55-1.61-7.55-1.78-10.77-.35-6.59-.7-11.52,5.78-15.33A21.13,21.13,0,0,1,611.85,160.07Z"/><path class="cls-8" d="M609.5,171c3,.67,5.91,1.67,8.92,2.63,8.73,2.79,18.29,6,26.33,10.48,13.33,7.38,28.22,14.82,16.77,31.46l-4.37,1.55-12.32-2.3-14.63-8-19-13.49c-2.8-1.43-8.61-2.64-10.59-4.66-3.13-3.2-2.56-13.88-2.16-18A25.72,25.72,0,0,1,609.5,171Z"/><path class="cls-9" d="M337.5,306.25l1.34-17.74,3.85-15.93L361,215.36l10.65-13.06-2.57-9.19,1.39-9.71,4.79-5.79,3.85-.31,4.53,3.21,3.66,9.2.77,4.54,12-3.53,10.49-1.63,17.62.09L440.89,192l1.73-5.29,7.48-6.64,7.57-.74,3.95,2,1.61,5.41-1.61,6.86-3.41,5.93,5,4.55,6.71,8,3.84,7.12L475.9,246l9,24.52.37,12v7.89l5.93-4.76,6.68-3.13,7.3.19,5.29,2.95-.84,5.13-5.28,5.94-17.6,16,3.52,19.5,3.11,19,.2,11.82s-2.74,13-2.9,13.41-7.23,12.5-7.23,12.5l-25.38,1.07-66.84-21.15s-34.94-9.42-34.79-9.87-3.65-28.89-3.65-28.89"/><path class="cls-4" d="M213.48,258.72c0-4.9,1.69-10.41,3-14.91,1.24-4.29,4.52-6.32,8.47-7.71,4.78-1.69,9.69-3,14.59-4.25,4-1,8-1.62,12.24.57,3.35,1.74,7.33,2.62,10.48,4.84a23.88,23.88,0,0,1,2.79,2.36c1.42,1.38,2.93,1.75,4.15,3.31.41.52.75,1.08,1.16,1.6,2.67,3.42,7.42,5.17,11.22,7a22.6,22.6,0,0,0,10,2.22,56.55,56.55,0,0,0,12.19-.91c4.42-.71,8.12-1.31,12.54.23,11.26,3.91,11.56,19.36,12.08,29.05.33,6.26-.68,17.05,4.67,21.76,2.89,2.54,9.06,3.81,12.76,4.1,5.21.41,10.73.66,15.33,3.25,4.19,2.35,9.87,5.93,11.91,10.43,2.15,4.75,1.29,10.81,1.13,15.89s-2.34,9.62-2.73,14.53c-.55,6.94,7.23,10.31,13,10.37,9.43.1,17.27-6.75,26.41-8.15,8-1.23,15.65,2.1,19.08,9.7,3.13,6.94,8.68,18.86,17.83,16.68,5.41-1.29,13.81-3.12,19.25-2,3.58.73,12,5.88,14.41,9.3,9.56,13.73.15,29.39-12.16,36.14-2.18,1.2-4.33,2.21-6.47,3.51-5.7,3.45-10.08,8.53-14.59,13.34-5.49,5.86-9.79,12.77-15.32,18.74s-11.59,13.83-19.64,16.46c-7.83,2.55-18.15,4.75-26.17,2.51-4.9-1.37-8.08-2.65-12-6.15-2.69-2.39-4.23-6.32-5.69-9.56-3-6.72-3-15.49-9.16-20.53-5.93-4.83-14.52-4.55-21.71-3.46-9.45,1.43-18.44,3.68-27.94,2.52-9.88-1.2-16.37-10.48-20-18.88a16.25,16.25,0,0,1-1-11.35c2.36-8.06,6-15.12,9.35-22.84,2.49-5.73,12-16.44,2.55-20.45-4.89-2.07-10.35-1.47-15.29-3.14-4.11-1.39-6.81-4.77-8.69-8.53-3.61-7.22-.87-14.73,0-22.22s.08-13.89-5-19.67c-3.2-3.64-5.68-6.06-6.71-11s-1.34-9.67-.11-14.36,2.84-8.41,1.47-13.88c-.81-3.23-2.08-6-4.77-8a32.17,32.17,0,0,0-9.05-4.15,40.36,40.36,0,0,0-8.46-2.09c-1.73-.18-3.48-.15-5.21-.2-8.49-.24-16.92-2.33-25.4-1.76-.24,0-.55,0-.6-.25S213.66,258.57,213.48,258.72Z"/><path class="cls-5" d="M213.49,258.71c.89-.76.44-5.53,1.81-7.17,1.84-2.2,5.31-2.9,7.94-3.51,5.66-1.32,11.74-1.08,17.51-.93,12.71.33,22.26,7.45,32.15,14.83,9.4,7,13.26,6.58,24.36,4.91a14.24,14.24,0,0,1,15.34,8.78c6.11,15.57-.82,38.07,21.4,43.63,10,2.51,20.7-4.09,30.63-1.31,14.53,4.07,7.57,24,6.76,34.08-.55,6.94,7.23,10.31,13,10.37,9.43.1,17.27-6.75,26.41-8.15,8-1.23,15.65,2.1,19.08,9.7,3.13,6.94,8.68,18.86,17.83,16.68,5.41-1.29,13.81-3.12,19.25-2,3.58.73,12,5.88,14.41,9.3,9.56,13.73.15,29.39-12.16,36.14-2.18,1.2-4.33,2.21-6.47,3.51-5.7,3.45-10.08,8.53-14.59,13.34-5.49,5.86-9.79,12.77-15.32,18.74s-11.59,13.83-19.64,16.46c-7.83,2.55-18.15,4.75-26.17,2.51-4.9-1.37-8.08-2.65-12-6.15-2.69-2.39-4.23-6.32-5.69-9.56-3-6.72-3-15.49-9.16-20.53-5.93-4.83-14.52-4.55-21.71-3.46-9.45,1.43-18.44,3.68-27.94,2.52-9.88-1.2-16.37-10.48-20-18.88a16.25,16.25,0,0,1-1-11.35c2.36-8.06,6-15.12,9.35-22.84,2.49-5.73,12-16.44,2.55-20.45-4.89-2.07-10.35-1.47-15.29-3.14-4.11-1.39-6.81-4.77-8.69-8.53-3.61-7.22-.87-14.73,0-22.22s.08-13.89-5-19.67c-3.2-3.64-5.68-6.06-6.71-11s-1.34-9.67-.11-14.36,2.84-8.41,1.47-13.88c-.81-3.23-2.08-6-4.77-8a32.17,32.17,0,0,0-9.05-4.15,40.36,40.36,0,0,0-8.46-2.09c-1.73-.18-3.48-.15-5.21-.2-8.49-.24-16.92-2.33-25.4-1.76-.24,0-.55,0-.6-.25S213.65,258.57,213.49,258.71Z"/><path class="cls-6" d="M266.88,274.65c4.75,1.89,9.66,3.52,14.27,5.75,4.29,2.08,7.9,5.43,12.29,7.28,6.91,2.9,9.15,3.83,11.26,12.17,1.72,6.8,1.94,13.38,4.71,19.91,3.31,7.82,10.68,18.08,20.08,18.48,7.83.34,18.28-10.33,24.84-2.7,4.14,4.81,1.95,14.77,3.37,20.66,2.13,8.8,10,17.12,19.34,18.41,13.5,1.85,22.47-7.55,33.92-12,7-2.69,14.47-3,19.5,3,4.77,5.64,7.2,17.45,17.27,15,5.41-1.29,13.81-3.12,19.25-2,3.58.73,12,5.88,14.41,9.3,9.56,13.73.15,29.39-12.16,36.14-2.18,1.2-4.33,2.21-6.47,3.51-5.7,3.45-10.08,8.53-14.59,13.34-5.49,5.86-9.79,12.77-15.32,18.74s-11.59,13.83-19.64,16.46c-7.83,2.55-18.15,4.75-26.17,2.51-4.9-1.37-8.08-2.65-12-6.15-2.69-2.39-4.23-6.32-5.69-9.56-3-6.72-3-15.49-9.16-20.53-5.93-4.83-14.52-4.55-21.71-3.46-9.45,1.43-18.44,3.68-27.94,2.52-9.88-1.2-16.37-10.48-20-18.88a16.25,16.25,0,0,1-1-11.35c2.36-8.06,6-15.12,9.35-22.84,2.49-5.73,12-16.44,2.55-20.45-4.89-2.07-10.35-1.47-15.29-3.14-4.11-1.39-6.81-4.77-8.69-8.53-3.61-7.22-.87-14.73,0-22.22s.08-13.89-5-19.67c-3.2-3.64-5.68-6.06-6.71-11C263.92,294.62,265.71,283.28,266.88,274.65Z"/><path class="cls-7" d="M265.69,299.44c3.23.2,7.56,3.32,10.35,4.72,5.2,2.61,8.35,5.82,11.8,10.73a83.09,83.09,0,0,1,10.35,20.36c2.24,6.53,3.52,18.76,10.44,22,7.8,3.68,15.63-5,23.41-2.16,10.47,3.87,5.27,18.16,8,26.38,5.16,15.49,27.87,20.61,41.59,15.87,12.18-4.21,31.47-19,43-6.13,5.62,6.32,6.69,14.57,15.74,17.57,12.36,4.1,17.12-7.18,27.25-11.63,6.91-3,15.12-.13,15.91,8.22.74,7.85-8,15.28-14.26,18.69-2.18,1.2-4.33,2.21-6.47,3.51-5.7,3.45-10.08,8.53-14.59,13.34-5.49,5.86-9.79,12.77-15.32,18.74s-11.59,13.83-19.64,16.46c-7.83,2.55-18.15,4.75-26.17,2.51-4.9-1.37-8.08-2.65-12-6.15-2.69-2.39-4.23-6.32-5.69-9.56-3-6.72-3-15.49-9.16-20.53-5.93-4.83-14.52-4.55-21.71-3.46-9.45,1.43-18.44,3.68-27.94,2.52-9.88-1.2-16.37-10.48-20-18.88a16.25,16.25,0,0,1-1-11.35c2.36-8.06,6-15.12,9.35-22.84,2.49-5.73,12-16.44,2.55-20.45-4.89-2.07-10.35-1.47-15.29-3.14-4.11-1.39-6.81-4.77-8.69-8.53-3.61-7.22-.87-14.73,0-22.22s.08-13.88-5-19.66c-3.48-4-7.91-9.25-7.59-14.93A4.63,4.63,0,0,1,265.69,299.44Z"/><path class="cls-10" d="M275,349.41c6.09,6.69,17,9.64,25.42,10.86,9.72,1.41,21,4.12,19.44,16.4-1.24,9.64-5.46,17.78-4.76,28,1,13.89,8.85,18.36,21.8,18.61,20.21.39,52.74-27,66.17-.81,2.67,5.2,5,12.56,10.91,15.46,7.74,3.78,15.23-1.17,21.81-4.52s17-8.6,24.23-5.11c-2.27,4.52-8.31,8.73-11.9,12.57-5.49,5.86-9.79,12.77-15.32,18.74s-11.59,13.83-19.64,16.46c-7.83,2.55-18.15,4.75-26.17,2.51-4.9-1.37-8.08-2.65-12-6.15-2.69-2.39-4.23-6.32-5.69-9.56-3-6.72-3-15.49-9.16-20.53-5.93-4.83-14.52-4.55-21.71-3.46-9.45,1.43-18.44,3.68-27.94,2.52-9.88-1.2-16.37-10.48-20-18.88a16.25,16.25,0,0,1-1-11.35c2.36-8.06,6-15.12,9.35-22.84,2.49-5.73,12-16.44,2.55-20.45-4.89-2.07-10.35-1.47-15.29-3.14C280.59,362.93,274.32,355.48,275,349.41Z"/><path class="cls-8" d="M294.5,397.62c.44,15.41,13.27,28.73,27.38,33.47,19,6.38,32.79-9.26,51.35-10.19,23.27-1.17,8.53,21.59,17.31,33.75,12.6,17.47,35.89-7,50.85-6.18,0,4.25-5.86,8.3-8.54,11.19-5.55,6-11.59,13.83-19.64,16.46-7.83,2.55-18.15,4.75-26.17,2.51-4.9-1.37-8.08-2.65-12-6.15-2.69-2.39-4.23-6.32-5.69-9.56-3-6.72-3-15.49-9.16-20.53-5.93-4.83-14.52-4.55-21.71-3.46-9.45,1.43-18.44,3.68-27.94,2.52-10.45-1.27-17.62-10.16-20.16-19.87C288.25,413.57,290.53,404.56,294.5,397.62Z"/><path class="cls-3" d="M469.23,424.08c-2.15,1.18-4.37,2.23-6.47,3.5-5.7,3.45-10.08,8.53-14.59,13.34-5.49,5.86-9.79,12.77-15.32,18.74s-11.59,13.83-19.64,16.46c-7.83,2.55-18.15,4.75-26.17,2.51-4.9-1.37-8.08-2.65-12-6.15-2.69-2.39-4.23-6.32-5.69-9.56-3-6.72-3-15.49-9.16-20.53-5.93-4.83-14.52-4.55-21.71-3.46-9.45,1.43-18.44,3.68-27.94,2.52-9.88-1.2-16.37-10.48-20-18.88a16.25,16.25,0,0,1-1-11.35c2.36-8.06,6-15.12,9.35-22.84,2.49-5.73,12-16.44,2.55-20.45-4.89-2.07-10.35-1.47-15.29-3.14-4.11-1.39-6.81-4.77-8.69-8.53-3.61-7.22-.87-14.73,0-22.22s.08-13.89-5-19.67c-3.2-3.64-5.68-6.06-6.71-11s-1.34-9.67-.11-14.36c.72-2.74,2.37-6.28,2-9.16-.28-2.12-2.33-3.89,0-5.72l3.34-11.75,1.67-12.43-.69-13.11-3.07-1.42-6.67,7.9-4.35,8.31c-.56,1.07-7.27,11.2-4.44,11.71a65.36,65.36,0,0,1-11.73-3,40,40,0,0,0-5-1.81,26.57,26.57,0,0,0-6.2-.48l-14.11,0c-1.07,0-2.29-.07-3-.9-1-1.25,0-3,.52-4.51,1.4-4.09-1.32-8.63-3.18-12.16-2-3.79-6.32-6.41-9.54-9.14a1.45,1.45,0,0,0-.79-.42c-.7,0-1,.83-1.16,1.52-.93,5.38-1.86,10.9-.84,16.26.86,4.54,3.08,8.74,4,13.28a4.88,4.88,0,0,1,0,2.21c-.41,1.47-1.91,2.3-3.24,3.05-12.82,7.24-19.9,23.06-26.15,35.94l-10.17,21-8.94,21.43-3.25,11.71,2.91-.73,13.91,2.65,8.76,3.92,15.84,7.5L204,378.78l8.93,8.82,6.24,9,3.68,7.61,15.55-10.79,13.1-12.64-2.22,9-.93,45,4.08,49.29L257.64,509l2.14,8.13-13,7.58-21.59,13.53-9,6.92-3.88,9.52-2.88,14.63-.3,18.09.23,17.86.61,5.07,6.22,1.22,8.82-.76,2.69-18.38,5.1-19.36,1.09-7.37,18.46-6.73,16.86-4.54v4l-14.15,25-16.31,36.1-11.78,28.3L224,658.16l5,2.57,8.89,2h2.73l7.12-11.61,18.18-27,16.39-20.95L298,584.54l9.88-9.16,1.69-1.55L320.88,579l18.42,5.58,26.18,2.79h21.1l18.79-.54,23.17-2.09L443.76,582l10.76-2.72,2.59,5.39,9.14,11.71,13.7,14.3,13.59,12.12,13,8.17,12.07,4.86,18.1,5.7,22,6.72,16.82,4.93h3.69l2.94-5.84,1.9-8.95-8.54-1.12L548.43,627l-20.28-12.12L515.4,604.4l-1.25-3.22,10.31,5.37L541,613.7l16.57,6.11,11.36,3.5,11.33,2.36L591.05,627l2.48-1.28,2.36-6.39.63-7.67-15.72-4.18-24.12-11.89-34.56-25.72-7.07-8.82-5.13-24.81,4.49-12.53,6-17.19L522,491.38l-1.2-14-6.13-21.28-8.41-15.35-8.86-10.32-13.15-9a18.15,18.15,0,0,0-6-2.19C474.85,418.86,472.47,422.3,469.23,424.08Z"/><path class="cls-11" d="M397.86,258.57c-1.11,1.13-2.32,2.64-1.76,4.12a10.38,10.38,0,0,0,7.94,1.12c.88-.24,1.73-.59,2.61-.79,2.94-.67,5.95.37,8.92.84,1.54.24,3.35.24,4.38-.93s.76-3.17-.06-4.59-2.05-2.56-2.81-4c-.33-.63-.68-1.39-1.37-1.49s-1.34.72-1.89,1.29c-1.43,1.47-3.77,1.53-5.78,1.14-1.85-.36-4.26-1.52-6.11-.71C400.43,255.21,399,257.43,397.86,258.57Z"/><path class="cls-3" d="M403,272.12a1.06,1.06,0,0,0,.06.57c.18.34.64.38,1,.38l6.5-.11a3.48,3.48,0,0,0,2.49-.7c.84-.85.57-2.24.66-3.43s.67-2.51.63-3.8a.82.82,0,0,0-.11-.44.87.87,0,0,0-.44-.28c-2.91-1.11-6.09-.66-9.05,0-.52.11-1.39.11-1.65.6s.05,1.87.06,2.43Q403.22,269.71,403,272.12Z"/><path d="M401.83,252.34a3.44,3.44,0,0,0,1.54,4.18,5.18,5.18,0,0,0,2.62.3,24.82,24.82,0,0,0,3.14-.44,7.47,7.47,0,0,0,3.7-1.63,8.78,8.78,0,0,0,1.94-3.51,2.25,2.25,0,0,0,.19-.91,1.8,1.8,0,0,0-1.22-1.37c-2.23-.94-4.65.19-6.92.38C404.72,249.51,402.64,250.07,401.83,252.34Z"/><path class="cls-12" d="M150.71,356.88c-3.5,8.14-2.71,17.4-1.71,26.2.5,4.41,1.07,8.91,3,12.92,1.74,3.63,4.51,6.65,7.25,9.6,1,1.05,2,2.11,3,3.08a28.4,28.4,0,0,0,3.73,2.9c6.23,4.06,15.67,6.77,23.16,6.37,9.11-.48,20.29-3.78,27.59-9.23l2-1.49a18,18,0,0,0,3.9-3.55l-3.49-7.08-6.24-9-6.84-7.17-6.94-5.64-13.31-7.15-9.59-4.55-12-4.23-8.89-2Z"/><path class="cls-12" d="M454.29,577.52c1.95-24.07-8.57-50.33-30.19-62.76a61.43,61.43,0,0,0-22.75-7.65,83.55,83.55,0,0,0-15.94-.32C367,508,348.5,513.27,333.75,524.35s-25.34,28.38-25.9,46.82c-.09,2.87,3.56,3.85,6.21,4.93a170.45,170.45,0,0,0,17.86,6.5c12,3.37,24.54,4.08,37,4.64,20.74.93,41.7,1.47,62.05-2.59,7.11-1.42,14.1-3.4,21.09-5.37C453.33,578.9,454.18,578.86,454.29,577.52Z"/><path class="cls-8" d="M610.39,611.31c2.07.31,4.43.9,5.34,2.79s0,3.86-.68,5.71a35.71,35.71,0,0,0-2.12,9.37,2.09,2.09,0,0,1-.39,1.27,2,2,0,0,1-1.27.48,37.45,37.45,0,0,1-15.11-1.32c-1.33-.4-2.87-1.19-2.89-2.57a3.71,3.71,0,0,1,.52-1.62c1.85-3.77,1.13-10,3.79-13.12S606.85,610.78,610.39,611.31Z"/><path class="cls-8" d="M580.15,649.63c-.7,1.08-1.59,2.31-1.15,3.52a3.67,3.67,0,0,0,2.47,1.82q4.07,1.44,8.18,2.76a21.54,21.54,0,0,0,4.53,1.09,5,5,0,0,0,2-.14,6.37,6.37,0,0,0,1.79-1.05,13.08,13.08,0,0,0,2.82-2.57,10.67,10.67,0,0,0,1.58-3.67,28.8,28.8,0,0,0,.72-3.7c.26-2,.16-4.37-1.42-5.63a5.37,5.37,0,0,0-2.08-.92c-2.66-.67-5.49-.54-8.12-1.31a23.35,23.35,0,0,0-5.11-1.4c-1.45-.09-1.92.45-2.46,1.78C582.61,643.34,582,646.74,580.15,649.63Z"/><path class="cls-8" d="M219.55,677.82a4.62,4.62,0,0,0,.45,2.23,4.45,4.45,0,0,0,3.33,1.74,22.08,22.08,0,0,0,10.45-.89,8,8,0,0,0,4.3-2.86,9.7,9.7,0,0,0,1.18-4l1.22-8.28a2.45,2.45,0,0,0-.23-1.87,2.27,2.27,0,0,0-.95-.63,37.14,37.14,0,0,0-5.76-1.76c-2.67-.66-5.34-1.35-8-2-.93-.22-1.6-.58-2.35.08s-1.07,2.6-1.36,3.48A45.43,45.43,0,0,0,219.55,677.82Z"/><path class="cls-8" d="M208.33,615.52a18.33,18.33,0,0,0-.37,5A57.32,57.32,0,0,0,209.5,632a3.18,3.18,0,0,0,.79,1.69c.76.69,1.94.52,2.93.26a34.4,34.4,0,0,0,12.55-6.22,3.78,3.78,0,0,0,1.27-1.44,4,4,0,0,0,.12-1.9q-.58-5.69-1.39-11.35a1.93,1.93,0,0,0-2.51-1.93q-5.08.08-10.15.47C210,611.85,209.11,612.36,208.33,615.52Z"/><polygon class="cls-5" points="228.17 196.49 233.02 201.69 236.5 218.09 241.52 241.39 245.43 260.14 245.73 265.15 241.54 268.22 233.02 270.08 224.06 268.07 222.48 255.92 221.75 230.91 223.1 213.88 226.92 200.07 228.17 196.49"/><path class="cls-4" d="M514.83,424.22c7.8-9.75,22-14,34.22-13.33a47.42,47.42,0,0,1,24.25,8.29c3.31,2.28,6.77,6.07,10.78,7.45,4.69,1.62,10.51.58,14.93-1.34a35.71,35.71,0,0,0,8.59-5c2.53-2.12,4.36-4.78,7.74-5.65s8.23-.92,11.15,1.52,4.35,5.78,8.41,7.25c6.47,2.34,13.88,1.4,20.49,1.43q10.85.05,21.71.25c12.25.22,5.42,10.48.75,15.93-3.58,4.17-9.49,4-13.81,6.43-7.71,4.35-10,11.72-13.45,19.21-2.67,5.79-5,11.86-12.27,12.45-9.8.79-20.53-5.11-30-2.31-9.6,2.85-10.55,12.59-16.53,19-5.84,6.29-14.61,8.74-22.19,4.26-6.85-4-13.67-11-18.23-17.33-4.31-6-8.56-12.55-14.79-16.75a24.21,24.21,0,0,0-10.24-3.92c-3.71-.51-9.25,1.71-11-2.46a34,34,0,0,1-1.13-4.3c-.82-3-2.61-5.57-4.21-8.21q-1.72-2.86-3.17-5.88c-1.18-2.47-2.17-3.72-.64-6.11C508.73,431.2,511.94,427.83,514.83,424.22Z"/><path class="cls-5" d="M517.43,436.25a32.94,32.94,0,0,1,14.4-9.89c12.08-3.93,20.94-.71,31.58,4.87,10.16,5.33,22.39,7.16,34.33,5.5,6.35-.88,12-5.07,18.23-5.5s10.2,3.64,16,4.93c13.38,3,27.58-5.32,40.62-.33,13.22,5.06-3.66,8.8-8.59,11.59-7.71,4.35-10,11.72-13.45,19.21-2.67,5.79-5,11.86-12.27,12.45-9.8.79-20.53-5.11-30-2.31-9.6,2.85-10.55,12.59-16.53,19-5.84,6.29-14.61,8.74-22.19,4.26-6.85-4-13.67-11-18.23-17.33-4.31-6-8.56-12.55-14.79-16.75a24.21,24.21,0,0,0-10.24-3.92c-3.71-.51-9.25,1.71-11-2.46a34,34,0,0,1-1.13-4.3c-2.14-7.8-4.42-9.25,1-16.43Q516.31,437.52,517.43,436.25Z"/><path class="cls-6" d="M523,445.79c14.09-5.57,29.47-2.09,43.64,4.12,10.54,4.62,21.51,7.92,32.35,3,4-1.82,10.45-7.09,14.89-6.52,4.66.6,7.19,6.72,11.38,9.12,8.7,5,16.29,2.52,23.31-3.07,5.41-4.3,9.33-4.54,15.87-5.48-6.91,1-11.44,14.55-13.79,19.66-2.67,5.79-5,11.86-12.27,12.45-9.8.79-20.53-5.11-30-2.31-9.6,2.85-10.55,12.59-16.53,19-5.84,6.29-14.61,8.74-22.19,4.26-6.85-4-13.67-11-18.23-17.33-4.31-6-8.56-12.55-14.79-16.75a24.21,24.21,0,0,0-10.24-3.92c-10-1.38-10.61-.13-12.86-11A40.44,40.44,0,0,1,523,445.79Z"/><path class="cls-6" d="M522.66,445.21a37.76,37.76,0,0,1,20.08-4.31c10.53.47,17.2,5.13,26.91,8.42,11.68,4,20.33.22,31.13-4.85,4.38-2.06,9.47-4.13,14.58-2.78,5.38,1.42,7.72,6.61,12.61,9,13.2,6.38,22.12-5.31,35.21-4.3-6.85,4.18-9.43,13.44-12.58,20.27-2.67,5.79-5,11.86-12.27,12.45-9.8.79-20.53-5.11-30-2.31-9.6,2.85-10.55,12.59-16.53,19-5.84,6.29-14.61,8.74-22.19,4.26-6.85-4-13.67-11-18.23-17.33-4.31-6-8.56-12.55-14.79-16.75a24.21,24.21,0,0,0-10.24-3.92c-10-1.38-10.61-.13-12.86-11A66.32,66.32,0,0,1,522.66,445.21Z"/><path class="cls-7" d="M525.33,452.7a62.71,62.71,0,0,1,11.38-3.22c8.23-1.26,13.65-.55,20.15,4.36,7.71,5.82,15.76,11.41,26.14,9.13,5.19-1.14,8.85-4.52,13.8-6.82,2.65-1.23,7.24-3.68,10.22-3.52,3.71.19,3.56,1.29,6.64,2.92,6.35,3.35,14.09,8.4,21.47,7.88,8-.57,14.21-7.46,21.86-8-1.23,6.94-11,23-18.66,23.66-9.8.79-20.53-5.11-30-2.31-9.6,2.85-10.55,12.59-16.53,19-5.84,6.29-14.61,8.74-22.19,4.26-6.85-4-13.67-11-18.23-17.33-4.31-6-8.56-12.55-14.79-16.75a24.21,24.21,0,0,0-10.25-3.92c-4.59-.64-10.5-.12-10.61-6.22C518.91,455,522.1,453.85,525.33,452.7Z"/><path class="cls-10" d="M528.71,461.72c10.38-4.31,22.72,5.65,31.2,10.84,11,6.71,20.71,6.94,31.05-.67,9.08-6.67,17.41-7.67,28-3.58,6,2.32,11.45,4.28,18.25,3.65,5.15-.47,9.16-3.48,13.78-4.2-4.29.67-6,10.78-12.71,11.33-9.8.79-20.53-5.11-30-2.31-9.6,2.85-10.55,12.59-16.53,19-5.84,6.29-14.61,8.74-22.19,4.26-6.85-4-13.67-11-18.23-17.33-7-9.79-13.37-19.91-26.4-18.76A14.67,14.67,0,0,1,528.71,461.72Z"/><path class="cls-8" d="M551.68,481.12c9.38,5.86,20.6,10.4,31.49,4.65,6.57-3.47,18.15-17.55,25.7-8.43-2.84,1.81-6,2.77-8.48,5.23-3.67,3.7-5,9.38-8.56,13.25-5.84,6.29-14.61,8.74-22.19,4.26C565.36,497.54,549.94,487,551.68,481.12Z"/><circle class="cls-3" cx="461.62" cy="250.3" r="31.05"/><circle class="cls-3" cx="361.21" cy="247.66" r="31.05"/><path class="cls-5" d="M412.65,163.39c-1.22,1.66-2.75,3.25-3,5.29s.78,4.1.44,6.13a10,10,0,0,1-1,2.57,48.19,48.19,0,0,0-2.36,6c-.42,1.32-.71,3,.3,3.92a3.85,3.85,0,0,0,2.17.79q4.61.66,9.25,1.08c2.4.22,5,.36,7.09-.75a8.08,8.08,0,0,0,4-6.9A13.29,13.29,0,0,0,427,173.7a2,2,0,0,1-.51-1.35,2.22,2.22,0,0,1,.51-.91,5.87,5.87,0,0,0,.25-6.49c-.55-.87-1.33-1.58-1.82-2.48a9.3,9.3,0,0,1-.86-3c-.51-3.12-.85-6.31-1.53-9.39-.55-2.47-1.89-3.22-3.66-1-1.57,1.94-2.1,5-3,7.25A31.46,31.46,0,0,1,412.65,163.39Z"/><polygon class="cls-13" points="568.12 185.96 575.04 193.32 585.44 200.5 591.86 202.82 597.86 202.82 600.61 200 602.73 191.27 600.22 170.14 609.8 167.96 625.28 162.34 630.2 158.52 628.76 152.25 620.21 145.94 604.51 136.78 602.88 124.29 600.22 108.19 597.34 105.28 591.05 106.29 583.05 111.83 571.63 124.99 568.84 126.34 551.14 127.72 539.59 128.74 535.69 132.47 535.15 135.79 538.03 142.16 545.12 150.94 548.42 153.95 538.36 166.79 531.96 179.86 530.11 189.28 531.72 194.41 534.77 196.58 539.59 197.25 547.74 195.83 558.7 191.64 568.12 185.96"/><path class="cls-3" d="M594.91,341.9a8.62,8.62,0,0,1,9.52,4.72l6-11.29a31.09,31.09,0,0,1,5-7.55c3.74-3.78,9.24-5.4,14.56-5.48a16.9,16.9,0,0,1,3.43.25,14.27,14.27,0,0,1,9.57,7.58,23.75,23.75,0,0,1,2.28,12.27,1.43,1.43,0,0,0,.13.85c.31.49,1,.41,1.6.29a19.24,19.24,0,0,1,10.44.81c1.58.59,3.23,1.54,3.73,3.15a9.15,9.15,0,0,0,.44,1.53c.66,1.28,2.4,1.38,3.83,1.49a11.56,11.56,0,0,1,7.13,2.79,6.73,6.73,0,0,1,1.91,7.1c-.86,2.17-3,3.53-5,4.75l-5.92,3.61a22.62,22.62,0,0,1-14.47,4.11c-6.06.24-12.64.32-17.51-3.29-1.47-1.09-3.22-2.57-4.88-1.79a5.68,5.68,0,0,0-1.3,1c-2.61,2.37-6.35,2.94-9.85,3.39-3.9.51-8,1-11.62-.68a18.31,18.31,0,0,0-2.59-1.18c-1.71-.49-3.52,0-5.25.38a29.33,29.33,0,0,1-11.3.74,14.22,14.22,0,0,1-9.54-5.66,3.13,3.13,0,0,1-.68-2.4,3.47,3.47,0,0,1,1.58-1.82,43.72,43.72,0,0,1,7.63-4.2c2.86-1.24,3.09-1.22,3.2-4.13C587.15,348.2,589.35,343.08,594.91,341.9Z"/><path class="cls-3" d="M537.64,300.69a6.67,6.67,0,0,1,7.37,3.65l4.63-8.73a24.05,24.05,0,0,1,3.86-5.84c2.89-2.93,7.15-4.18,11.27-4.24a13.07,13.07,0,0,1,2.65.19,11,11,0,0,1,7.4,5.87,18.38,18.38,0,0,1,1.77,9.49,1.11,1.11,0,0,0,.1.66c.24.38.8.32,1.24.23a14.89,14.89,0,0,1,8.08.63,4.37,4.37,0,0,1,2.89,2.44,7.08,7.08,0,0,0,.34,1.18c.51,1,1.85,1.07,3,1.15a8.94,8.94,0,0,1,5.52,2.16,5.21,5.21,0,0,1,1.48,5.49c-.66,1.68-2.3,2.73-3.84,3.68l-4.58,2.79a17.5,17.5,0,0,1-11.2,3.18c-4.69.19-9.78.25-13.55-2.54-1.14-.84-2.49-2-3.78-1.39a4.4,4.4,0,0,0-1,.8c-2,1.84-4.91,2.27-7.62,2.62-3,.39-6.23.76-9-.52a14.17,14.17,0,0,0-2-.91,8.24,8.24,0,0,0-4.06.29,22.7,22.7,0,0,1-8.75.57,11,11,0,0,1-7.38-4.38,2.42,2.42,0,0,1-.53-1.86,2.69,2.69,0,0,1,1.22-1.41,33.83,33.83,0,0,1,5.9-3.25c2.21-1,2.39-.94,2.48-3.2C531.63,305.57,533.34,301.6,537.64,300.69Z"/><path class="cls-3" d="M186.46,447.32c-4.52-1-9.67,1.42-11.46,5.68l-7.2-13.59c-1.71-3.22-3.45-6.49-6-9.09-4.5-4.55-11.13-6.51-17.53-6.59a20.34,20.34,0,0,0-4.12.3c-5,1-9.17,4.64-11.52,9.13a28.6,28.6,0,0,0-2.75,14.77,1.73,1.73,0,0,1-.15,1c-.37.59-1.24.49-1.93.35a23.17,23.17,0,0,0-12.57,1c-1.91.71-3.89,1.86-4.49,3.8a11,11,0,0,1-.53,1.84c-.8,1.54-2.89,1.66-4.61,1.79A13.91,13.91,0,0,0,93,461.07c-2.28,2.15-3.45,5.63-2.3,8.55,1,2.61,3.58,4.25,6,5.72l7.13,4.35a36.29,36.29,0,0,0,6.52,3.39c3.47,1.25,7.22,1.4,10.91,1.55,7.29.29,15.22.39,21.08-4,1.77-1.31,3.88-3.1,5.87-2.16a6.84,6.84,0,0,1,1.57,1.25c3.15,2.86,7.65,3.53,11.86,4.08,4.7.61,9.69,1.18,14-.81a22,22,0,0,1,3.12-1.42c2.05-.59,4.24,0,6.32.45a35.32,35.32,0,0,0,13.61.89c4.51-.75,8.92-3,11.49-6.81a3.76,3.76,0,0,0,.82-2.89,4.18,4.18,0,0,0-1.9-2.19,52.63,52.63,0,0,0-9.18-5.05c-3.44-1.49-3.73-1.47-3.85-5C195.8,454.91,193.15,448.74,186.46,447.32Z"/><path class="cls-3" d="M298.94,153.34l4.67-2.76a2.45,2.45,0,0,1,1.19-.45,2.55,2.55,0,0,1,1.07.33,28.59,28.59,0,0,0,23.2.38,9.49,9.49,0,0,0,3.29-2.11,7.17,7.17,0,0,0,1.06-7.36,13.32,13.32,0,0,0-5-5.85,23.88,23.88,0,0,0-12.63-4.22,5,5,0,0,1-1.87-.29,4.89,4.89,0,0,1-1.77-1.73,16.65,16.65,0,0,0-5.06-4.81,8.2,8.2,0,0,0-6.77-.76,1.69,1.69,0,0,1-1,.18c-.39-.11-.62-.5-.84-.84a9.71,9.71,0,0,0-5.71-3.88,28.87,28.87,0,0,0-7-.76c-2.14-.06-4.39-.09-6.3.9-2.52,1.31-3.85,4.07-5.42,6.44a4,4,0,0,1-2.22,1.91c.17-1.23-1.57-1.69-2.81-1.61q-2.88.18-5.74.6a14,14,0,0,1-1.81,5.05c-.56.93-1,.6-1.67.21a3.51,3.51,0,0,0-2.59-.52,14.81,14.81,0,0,0-5,1.27,6.74,6.74,0,0,0-3.46,3.64,8.73,8.73,0,0,0-.27,5.48c.77,1.91,2.71,3.07,4.63,3.83s4,1.29,5.6,2.56a32.36,32.36,0,0,0,2.85,2.43,9.76,9.76,0,0,0,3.69,1.08c2.7.4,5.59.66,8.05-.52,1.2-.57,2.31-1.49,3.64-1.51a6.51,6.51,0,0,1,3.28,1.32,24.21,24.21,0,0,0,20.14,2.11"/><path class="cls-5" d="M437.47,299.44c4.61,5.89,2.81,14.53.42,20.95-2.49,6.67-8.18,9.3-13.48,13.49-3.78,3-7,7.71-10.12,11-3.25-6.81-9.84-11.79-14.76-17.33-3.77-4.25-8.18-10-7.63-16.29s3.5-10.67,9.62-12.8c7.11-2.48,11.74,4.26,15,9.61v-.46C418.1,299.07,430.86,291,437.47,299.44Z"/><path class="cls-14" d="M256.85,269c.88-6.83,4.1-13.32,6.45-19.75,1.52-4.17,3.3-5.52,3.57,0a24.43,24.43,0,0,1-2.05,11.85C262.85,265.36,258.53,266.59,256.85,269Z"/><path class="cls-14" d="M207.93,254.4c-.15-1.73,1.7-17.29-4.5-12.78C199.6,244.41,204.83,253.34,207.93,254.4Z"/><path class="cls-14" d="M236.49,256.83c-10.22,0-20.48.84-30.69.61"/><path class="cls-14" d="M239.33,359.67c-1.43-1.68-6.72-2.78-9-2-4.9,1.68-.63,5.89,2.34,7.92,2.4,1.64,8.35,3.71,11,1.42,3.37-2.92-1.61-5.93-3.67-7.67"/><path class="cls-15" d="M471.45,281.94c-2.84-1.06-9.91,1.17-12.11,3.64-4.74,5.3,3.2,7.48,8.11,7.91,4,.35,12.48-1.15,14.12-5.68,2.08-5.75-5.9-6-9.54-6.72"/><path class="cls-15" d="M359,280.64c-2.84-1.06-9.91,1.17-12.11,3.64-4.74,5.3,3.2,7.48,8.11,7.91,4,.35,12.48-1.15,14.12-5.68,2.08-5.75-5.9-6-9.54-6.72"/><path class="cls-14" d="M171.33,329c1.53,1.51,5.27,4.64,2.26,7.28-1.95,1.7-6.71-.6-8.26-1.93-2-1.75-4.25-5.19-1-6.94,2.47-1.34,5.84,1.06,7.67,2.27C171.11,328.7,172.62,329.36,171.33,329Z"/><path class="cls-3" d="M594.09,117.67a167.24,167.24,0,0,1,.49,19.5c-.06,1.93,2.94,1.93,3,0a167.24,167.24,0,0,0-.49-19.5c-.16-1.91-3.16-1.93-3,0Z"/><path class="cls-3" d="M596.09,174.52a56.05,56.05,0,0,1,.12,8.59c-.18,2.68-.31,8.06-2.36,10.21-1.33,1.4.78,3.52,2.12,2.12,2.24-2.35,2.5-6,2.9-9.08a55,55,0,0,0,.21-11.84c-.16-1.91-3.16-1.93-3,0Z"/><g class="cls-16"><path class="cls-17" d="M597.75,199.92c-10.53-3-20.16-11.14-26.91-19.62a2.44,2.44,0,0,0-3.79-.24,3.51,3.51,0,0,0-1.36.37q-3.36,1.67-6.6,3.54a2.86,2.86,0,0,0-1.61.43c-2.53,1.52-7,1.47-9.89,1.29-4.57-.29-6.28-1.83-6.59-6.11l.33-.68c2.35-4.86,5-9.59,7.55-14.37,2-3.79,5.47-8.27,6.43-12.46.69-3-1.46-4.82-3.48-6.66-1.79-1.63-4.45-3.39-5.22-5.81-1.45-4.57,2.85-5.71,6.36-5.65,6.26.11,14.13,2.69,19.66-.49a5.63,5.63,0,0,0,3-1.47c1.44-1.4,2.08-3.7,3.06-5.4a58.08,58.08,0,0,1,4.66-6.73c3.53-4.5,7.45-9.3,13.59-9.7,3.83-.25,3.86-6.25,0-6-10.64.69-17.9,10.19-23,18.7-.28.46-.93,2.06-1.52,3.2a3,3,0,0,0-1.6,1.21,3.31,3.31,0,0,1-.25.3,17.57,17.57,0,0,1-4.4-.7c-2.53-.46-5,.19-7.54.13-5.74-.12-10.12,1.25-18.06,1.81-3.79.27-6.47,4.26-5.86,8.38.74,5,6.13,8.86,9.21,12.4,2.74,3.16,3.53,4.16,1.35,7.88-1.55,2.64-3.19,5.22-4.77,7.84-3.13,5.2-6.21,9.75-7.1,11.63-1.18,2.48-1.54,3.47-1.54,3.48-2,3.53-2.22,7.71-1.74,11.33.54,4,4,5.54,7.62,5.46,5.15-.11,10.38.36,14.92-2.1,2.16-1.17,4.23-2.45,6.3-3.75a20.81,20.81,0,0,0,9.21-4.9c7.28,8.52,15.63,14.9,26.3,17.93C598.19,205.43,601.46,201,597.75,199.92Z"/></g></g><g id="SHADOWS"><g class="cls-16"><path class="cls-17" d="M420.91,146.24c-.05,2.72-3.6,16.19,1.19,15.86-2.92,1.72-5.8,2.45-6.94,6.47-1.61,5.69,3.81,3.7,7.23,5.09-2.14,2.73-11.28,6.16-6.65,10.44,2.82,2.61,7.16,2,9.92,5-10.52-.16-20.89,3.09-30,8.18-11.47,6.39-20.54,12.31-18.24,26.7-2.77-.36-5.36-1.63-8.46-1.78a28.65,28.65,0,0,0-10.26,1.14,33,33,0,0,0-16.4,12.52c-8.93,13.6-4,28.42,10.19,35.58,8.22,4.14,17.72,5,26.1,1.52-.67.28-1.92,2.51-2.62,3.12a24.34,24.34,0,0,1-4.41,2.81c-3.06,1.67-6.57,3-9.12,5.4-2,1.93-4.92,6.5-1.37,8.38,2.86,1.52,7.08-1.68,9.89-2.13,4.53-.73,9.18-1.29,13.71-.29-6.5,2.34-14.06,2.6-19.78,7-2.45,1.88-2.19,4.85.3,7.11,2.82,2.56,7.1,1.1,10.16,0s9.23-2.22,11.18-4.62c.39,5.4-2.46,8.3-3.81,13.29-1.76,6.5-.38,13.87-.38,20.55,0,3.83-3,9.06-.75,12.45,3.95,5.86,15,2.06,20.8,2.59,5,.46,9.17,3.88,13.91,5.16-5.65,1.44-11.08,2.09-16.58,4.27a71.92,71.92,0,0,1-12.12,3.71c-7.75,1.56-15.4-.37-17.35-9.26-.77-3.54,1.26-8,2.07-11.47,1.2-5.1,2-9.44.73-14.65-2.08-8.41-5.15-14.15-13.49-16.8-7.4-2.36-15.13-2.38-22.75-3.53-.22,0,2.45-20.2,2.68-22,.43-3.28,2.28-7.28,2.2-10.41-.06-2.28-2.34-3.65-3.94-5.54a34.06,34.06,0,0,1-6.68-13.68c-3-11.81.82-25.06,11.16-32.42,5.6-4,12.26-3.79,18.49-5.29,1-3.2,3.78-6.17,6.14-8.48,2-2,3.18-4.65,5.41-6.44-5.71-5.65-2.85-16.76,2.47-21.8,1.47-1.4,4.7-3.19,4.65-.22,0,.42-1.25,1.19-1.38,1.73a5.56,5.56,0,0,0,.24,3.35,18.63,18.63,0,0,0,3.19,6.39c2.32,2.37,2.43-.09,5.18.22,1,.11,1.77,1.53,3.07,1.62,2.22.16,5.25-1.55,7.38-2,3.1-.71,6.34-.58,9.23-1.68.3-4.92.93-7.34,3.47-11.5s-.79-4-1-8.19c-.21-4.43,4.65-5.5,6.31-8.82,1-1.93,0-3.32.36-5.47.46-2.46,2.5-4.88,4.27-6.69"/></g><g class="cls-16"><path class="cls-17" d="M449.17,181.18c3.64-.85,7.93-1.77,11.22.54-2.41-.1-8.77,1.69-8.73,4.59,1-.54,2.2-1.37,3.54-1.13-.73,2.22-1.61,4.86,2.13,4.26-.61,2.06-7.47,3.11-2.4,5.73,1,.52,4.06-.57,3.67,1.82-.42,2.58-3.27.83-4.33.32-2.23-1.06-3.89-2.32-6.31-3-1.59-.42-4.76-.3-6.08-1.06C437.37,190.67,445.07,184.16,449.17,181.18Z"/></g><g class="cls-16"><path class="cls-17" d="M461,219.46c-5.59-2.1-15.67,1.63-20.8,4.06-7.6,3.61-11.5,8.48-13.22,16.6-1.67,7.9-2.46,18.22,1.13,25.83,3.93,8.32,11.74,13.25,20.27,15.83,9,2.73,25.69,2,31.31-7.24-2.14.67-4.1,2.13-6.35,2.72a29,29,0,0,1-9.56.39c-5.63-.48-11.69-1.67-15.73-5.78-9.19-9.35-10.11-25.29-2.83-36.07,5.41-8,11.75-11,20.95-13.9"/></g><g class="cls-16"><path class="cls-17" d="M402.07,249.84c-2.71,1.51-3.75,3.62-5.48,6.07-1.56,2.21-4.54,4.07-3.64,7.6.79,3.09,4.86,4.09,6.08,7,1.81,4.31-1.14,7.09,5.18,7.3,4.44.15,8.45-.52,8.75-5.43a17.78,17.78,0,0,1-5.37.53c-.5-1.8-1.1-4.68-.66-6.52.57-2.35,1.3-2.19,3.32-3.08-2-1-5.13.08-6.66-1.29-2.46-2.2,0-4.67,1.8-5.72C402.46,256.38,401.78,252.4,402.07,249.84Z"/></g><g class="cls-16"><path class="cls-17" d="M485.32,290.56c2.74-.88,4.7-3.28,7.5-3.91-2.66,2.89-9,12.71-.53,10.67,7.07-1.7,12.15-5.82,18.5-8.55,0,4.32-10.25,10.18-13.32,13a74.43,74.43,0,0,0-9.66,11.44,92.18,92.18,0,0,1-1.58-11.14C486,299.72,486.29,294.55,485.32,290.56Z"/></g><g class="cls-16"><path class="cls-17" d="M426.38,358.61c7.88,5.8,12.22,15.94,24.29,12.4,6-1.75,10.8-6,17.05-7.24,6-1.17,11.43-.84,17.12-3.76a14.4,14.4,0,0,0,5.34-3.95c1.55-1.92,1.49-4.45,3-6.16,1.47,5.7,1.82,15.27-.25,20.9-1.68,4.56-4.1,9.06-6,13.59a16,16,0,0,1-2.81,5.1c-3.25-9.85-20.79-12-29.44-10.55-4.65.79-10.13,3-14.62,1.09-3.36-1.4-5.11-3.85-6.67-7.06S427.26,364.07,426.38,358.61Z"/></g><g class="cls-16"><path class="cls-17" d="M228.9,198.65c-.1,3.89-3.26,10.13,1.92,11.69a9.87,9.87,0,0,0-3.75,6.6c-.37,2.43-.05,8,3.91,5.84-2.9,2.7-4.46,5.48-4.51,9.49,0,3.46,2.22,4.76,5.3,3.45-.5.21-1.84,2.91-2.24,3.48a6.69,6.69,0,0,0-1.6,4.27c.16,2.89,2.09,5.62,5.21,5.49-1.78,2-3.23,3.15-3.17,6.17.07,3.58,1.73,5,5.12,5.22-2.12,2-2,4.41.1,6.13s3.92,1.78,6.57,1.74c-3.51,2.62-15.48,3.75-18-.93-.89-1.66-1-4.51-1.22-6.37a57.51,57.51,0,0,1-.19-7.54c0-5.91.31-11.83.08-17.74-.14-3.47-.11-7-.08-10.46s.87-6.54,1.38-9.9c.35-2.32.84-4.62,1.39-6.91.38-1.58.74-3.15,1.18-4.71s2-3,1.82-4.71"/></g><g class="cls-16"><path class="cls-17" d="M220.54,238c-1.79-.11-3.69,4.37-4.41,5.74a26.09,26.09,0,0,0-2.1,5.58,35.19,35.19,0,0,0-1.52,10.23c3.14.33,6.55-.5,9.53-1.06A78.12,78.12,0,0,0,220.54,238Z"/></g><g class="cls-16"><path class="cls-17" d="M245.32,260.91a67.89,67.89,0,0,0-2.86-18.36c-1-3-2.15-6.87-2.14-10,2.39-.39,4.5-1.17,7-.9,1.31.15,5.05,1,5.6,2.22-4.06.12-8.95,3.61-9.07,8.05,2.26.16,4.37-1.72,6.8-.9-1,1.84-4.53,2.59-5.14,4.85,1.32.09,3.07-.31,4.26.19-.55,1.54-3.31,2.77-2.46,4.83,1.32-.18,2.78-1.41,4.08-2s2.64-1.15,3.93-1.84c1.71-.92,3.54-1.34,5.24-2.21-.29,1.5-2.06,2.88-2.86,4.18a27.82,27.82,0,0,0-2.75,7c-.72,2.49-1.26,5.82-3.06,7.76A16.56,16.56,0,0,0,245.32,260.91Z"/></g><g class="cls-16"><path class="cls-17" d="M273.56,248.93c1.42-.76,3.17,1.33,4.18,2a22.71,22.71,0,0,0,5.87,2.53c-2.1.65-6.94-1.76-8.45.22-2.63,3.44,1.13,7.93,4,9.77,4.63,3,11,1.79,16.11,2.72s11.52,3.11,14.58,7.79c1.49,2.28,3.16,7.82,1.12,10.17.07-2.5-2.4-7.27-4.36-8.88-4.57-3.74-13.08-3-18.32-1.59-5.56,1.45-8.66,3.38-9.42,8.86-.67,4.87-2.29,10.92.48,15.36s8,8.33,11.72,11.57c4.86,4.25,8.34,9.63,9.34,16,1,6.62-1.62,9.62-3.76,15.48-1.66,4.54-2.79,12,1.38,15.61,7.36,6.3,19.94-1,28.48,2.63,10.58,4.52-1.21,15.69-5.22,20.84-7.2,9.26-18.45,23.09-14.19,35.92,2.59,7.8,11.9,8.94,18.62,11.27a39.52,39.52,0,0,0,21.19,1.58c5.23-1.16,24.22-4.25,22.61,6.89-1.64-.16-6.72-2.92-8.18-1.46s2.52,4.5,3.45,5.81a59.47,59.47,0,0,1,8.42,18c1.82,6.2,5.43,9.78,11.86,11.75,12.61,3.86,25.81-.74,37-6.63,5.07-2.67,8.69-6.87,13-10.54,1.28,8.57-12.65,18-18.63,21.85-10.79,6.87-26.61,7.34-37.88,2.23-13.73-6.22-18.5-22.39-32.5-28.13-11.33-4.65-23.94-2-35.64-4.8-10.23-2.44-22.18-11.38-26.23-21.17-2.55-6.16-1.55-11.84.34-18.06s6.25-11.72,6.61-18.4c.37-7-6.35-13.69-10.93-18.68-5.51-6-9.33-9.47-12.09-17.54-2.91-8.5-.7-16-2-24.47-1.22-7.78-8.36-13.48-8.7-21.58-.29-6.82,3-14.48,5.28-20.59,1.65-4.45,3.82-8.24,5.8-12.52,2.25-4.88.29-15.83,4-19.16"/></g><g class="cls-16"><path class="cls-17" d="M426.08,376.54c-1-1.74-4-5.55-6.57-5.21-.17,1.47,1.48,2.63,2.18,3.84a10.86,10.86,0,0,1,1.43,4.33c.37,3.37-.76,6.64-.45,10,.44,4.74,5.35,9.72,10.07,10.54a27.7,27.7,0,0,0,22.18-5c3.6-2.59,8-6.29,12.61-4.41-2.59-5.32-12.64-1.46-16.23-.09-6.91,2.62-16.06,5.44-21.11-2.14-2.21-3.31-.7-7.24-2.73-10.48"/></g><g class="cls-16"><path class="cls-17" d="M210.06,241.64c-.51-.61-1.25-1.41-1.78-2-.05,4.38.82,8.87.6,13.39-4.22,1.19-.16-10.32-3.16-10.23-2.21.06-.22,6.51-.68,7.65-1.34,3.35-3-3.21-3.47-4.64-1.33-3.78-1.13-7.64-1.35-11.64-3.17,2.12-1.89,10.7-1.5,13.94.34,2.8.74,5.57,1.24,8.33.29,1.57.54,4.87,1.64,6.09,1.44,1.6,2.36,0,4.67-.91,1.52-.6,5-1.11,6.07-2.52.48-.62.32-2.11.44-2.92a55.55,55.55,0,0,1,1.5-6.46,6.29,6.29,0,0,0,.45-3.18C214.21,244.58,212.08,242.06,210.06,241.64Z"/></g><g class="cls-16"><path class="cls-17" d="M241.5,269.21c-2.33.33-4.41,1.69-6.83,2.05a40.06,40.06,0,0,1-7.87.46c-4.72-.24-8.12-.54-12.65,1.54a74.72,74.72,0,0,0-21.26,14.39c-6.25,6.08-12.75,13.27-16.61,21.1-2.25,4.57-5,12.84-.52,16.94,3.91,3.59,10.41,2.66,15,1.42-1.81,2.9-7.42,2.78-10.38,2.74-3.17,0-5.18-1.91-7.91-2.76-8.74-2.73-12.57,15.27-12.49,21,.06,4.58,3.33,10.05,6.75,13-6.29-.12-7.83,4.86-8.82,10.53-2.24,12.83,2.45,29.61,15.33,35.19,5.52,2.39,10.2,4.81,16.33,5.35,6.88.61,16.78,3.48,23.2,0-10.83,3.79-21.79,6.19-33.42,5.66a18.23,18.23,0,0,1-7.81-2.5c-3-1.71-6.69-2.46-9.48-4.51-5.93-4.34-8.17-12.26-10.18-18.83a71.21,71.21,0,0,1-3.19-25.28c.57-8.65,4.28-16,6.55-24.27,1.14-4.13,3.42-7.82,4.73-11.88,3-9.37,8.18-18.14,12-27.18a79.15,79.15,0,0,1,3.3-7.23c1.77-3.23,4.71-5.6,6.68-8.68,1.45-2.26,2.47-4.74,4-7,3.45-5,8.13-10.87,12.83-14.74a35.58,35.58,0,0,1,13.75-6.95,30.17,30.17,0,0,1,6.21-1.2c2.67-.13,3.26-.07,3.65,2.46.41,2.71-.53,5.39,1.83,7.34a10.27,10.27,0,0,0,5.47,2c2.95.4,7.5,1.18,10.25.29"/></g><g class="cls-16"><path class="cls-17" d="M214.84,331c-3.29,6.33-5.9,15.47-.46,21.43,3.29,3.6,9.55,4.41,14.16,3.87,5-.58,7.82-3.83,11.31-6.88-5,3-12.5,1.61-16.91-1.68C217.13,343.39,216.83,337,214.84,331Z"/></g><g class="cls-16"><path class="cls-17" d="M262.71,371.38c-1.15.71-1.95,10.79-2.32,12.52-.81,3.8-2.32,8-2.43,11.82-.24,8.55.79,18.11,1.3,26.73.43,7.32,1.31,14.61,2.33,21.75a246.32,246.32,0,0,0,11.69,47.52c10.23,29,35,49.48,62.57,61.18,16,6.77,33.6,13.8,50.78,16.27,18.54,2.67,37.53,2.34,56.11.48a120.38,120.38,0,0,0,27.14-6.24c4.19-1.44,8.41-3,12.46-4.79,3.6-1.57,8-2.43,11.24-4.6a20.54,20.54,0,0,0,4.29-3.41c1-1.1,1.33-2.74,2.41-3.63-2.43,3.79-5.76,7.48-7.68,11.56-1.17,2.47-3,6.55-2.59,9.29,1,6.47,7.37,13.26,12.22,17.19,3.54,2.88,7.3,4.67,11,7.26,5.59,3.94,10.15,8.72,16.4,11.88,4.19,2.12,9.47,2.38,13.93,4.09,6.48,2.48,12.82,4.76,19.16,7.63,3.46,1.57,7.3,2.28,10.86,3.59,3.17,1.17,6.22,2.8,9.53,3.55,5.76,1.3,9.41-3,13.65-5.82-.81,3-1.53,6,1.32,7.68,3.12,1.8,7.66,2.31,11.24,2.63.74.07,2.66-.15,3,.54.72,1.61-1.63,2.13-2.54,2.32-4.33.91-9.55-.92-13.61-2.24C589.44,626,582,625.23,575,624c-12.94-2.26-25.32-6.88-37.58-11.52a65,65,0,0,1-11.78-6.27c-2.37-1.47-6.24-4-9.12-3.88-.21,4,5,8.69,7.76,11.15-3.22-2.28-5.93-5.5-9.5-7.17a34.48,34.48,0,0,0-7.57-2.5c-5-1-6.93,0-5.48,5.18,1.59,5.64,2.66,9.63,7.66,13.2,9.13,6.52,19.94,8.54,30.24,12.4,7.28,2.73,13.56,7,20.56,10.14a28.47,28.47,0,0,0,9.69,2.71c2.84.12,6.27-.52,8.52-2.32,1.8-1.44,4-4.76,6.45-4.9,0,2.32-2.41,5.52-1.56,7.81.43,1.18,3.19,3.14,4.3,3.7,3.27,1.65,8.17,2,11.85,2.11-.33,1.6-.55,3.66-2.05,4.64-2.52,1.65-7.73-1.27-10.47-2.26A118.86,118.86,0,0,0,573.72,652a74.63,74.63,0,0,1-12-3.45,109.94,109.94,0,0,0-17.91-5.5c-4.34-1-8.54-2.52-12.77-3.92s-8.39-1.3-12.66-2.4c-3-.77-5.28-2.36-8-3.65-5.37-2.56-9.91-5.83-15-8.79-4.7-2.76-7.74-6.07-11.77-9.83a59,59,0,0,1-6.72-6.9c-3.69-4.77-8.88-8.19-12.5-13.08a58.21,58.21,0,0,1-4.73-6.84c-1.33-2.49-2.29-5.59-4.18-7.65-1.5-1.63-5.33-.52-7.38-.19-5.47.87-10.22,3.34-15.93,3.61-5.53.26-11.18,1.22-16.68,1.78-8.14.82-16.73,1.33-24.9,1.42-4,0-8,.27-11.91.46a158,158,0,0,1-23.52-.46c-7.61-.77-14.88-2.68-22.38-3.88-6.6-1.06-13.18-4.07-19.39-6.77-4.73-2.06-9.43-3.9-13.17-7.56-1.86-1.82-3.86-3.41-5.78-5.16s-4-3.27-6-4.84c-2.24-1.77-5.25-2.59-7.18-4.8-1.5-1.72-2.54-3.63-3.92-5.43-1-1.32-2.61-2-3.62-3.29s-2.39-3.29-3.42-4.73c-2.64-3.69-4.44-8.15-6.19-12.31-1.44-3.42-3.82-6.47-4.91-10-1.31-4.27-2.28-8.73-3.65-13a27.17,27.17,0,0,1-1.18-7.57c-.21-4.2-2-8.59-2.81-12.76a147.89,147.89,0,0,1-2.2-15.26c-.45-5.05-.85-9.9-1.54-14.92s-.28-10.33-.28-15.56c0-2.73.17-5.39.23-8.12.19-8.5,1.38-17.06,1.37-25.57,0-6.9,1.16-13.62,1.14-20.45,0-3.9,2.84-3.86,5.21-6.26S259.76,373.22,262.71,371.38Z"/></g><g class="cls-16"><path class="cls-17" d="M260.42,515.08A115.62,115.62,0,0,1,241.68,529c-8.69,5.1-18.05,8.15-24.35,16.6-8.16,11-7.83,24.5-8.46,37.53-.56,11.54,1.76,23.23,0,34.57-.55,3.51.3,6.52.43,9.95.09,2.33.16,6.28,3.5,5.95,2.64-.26,9.87-2,9.58-5.25-.21-2.27-2.15-2-3.44-3.23-1.72-1.67-1.49-4.84-1-7,.39-1.56.86-1.69,1.64-2.85,1.19-1.73,1.23-.86.19-2.44s-2.3-2.45-2.59-4.29c-.38-2.42.35-5.51.45-8a133.33,133.33,0,0,1,1.61-18.7c1.2-6.57,5.31-9,10.1-12.83a49.28,49.28,0,0,1,14.06-7.92c4.93-1.89,9.29-4.41,14.25-6.21a29.21,29.21,0,0,1,7.2-2,21.45,21.45,0,0,0,5.43-.93c4.68-1.87,4-7,2-10.69a98.86,98.86,0,0,1-5.35-10.71c-.82-2-1.38-4.16-2.1-6.23-.81-2.35-1.45-6.11-2.82-8.14"/></g><g class="cls-16"><path class="cls-17" d="M298.24,567.72c-1.85-1.23-5.51-1-7.64-1.12-3.09-.15-4.57.62-7.15,2.31-9.56,6.23-15.89,17.66-22.29,26.84-3.79,5.43-6.81,11.55-10.3,17.21-3.11,5.05-5.72,10.4-8.85,15.45-4.16,6.71-5.79,15.08-6.84,22.8-.28,2.08-1.11,4.41-1,6.52s2.14,3.27,2.25,5.2c-9,1.52-9.53,12.92-7.74,19.83a12.64,12.64,0,0,1-5.9-.6c-3.72-1.64-2.48-5-2.05-8.49,1.63-13.12,7-25,11.94-37.27,1.54-3.83,3.07-7.64,4.71-11.47,1.46-3.42,3-7,4.72-10.29,1.9-3.64,2.7-7.5,4.3-11.28s3.5-7.48,5.33-11.09c2.1-4.15,3.74-8.46,6.16-12.43a84.7,84.7,0,0,0,6.1-11.45c1.52-3.62,3.91-6.53,5.59-10,1.54-3.21,2.87-6.66,4.71-9.68,1-1.63,1.17-2.51,2.74-1.07.74.68,1.22,2.22,1.82,3.07,1,1.43,2,2.87,3,4.3,3.44,4.88,10.25,9.51,15.7,11.83"/></g></g><g id="DETAILS"><path d="M454.29,578.89h-.11a1.37,1.37,0,0,1-1.25-1.47c2.06-25.44-9.8-50.14-29.5-61.47a60.38,60.38,0,0,0-22.25-7.48,82,82,0,0,0-15.68-.31c-20,1.28-37.58,7.26-50.93,17.29-15.35,11.53-24.83,28.64-25.35,45.77a1.34,1.34,0,0,1-1.41,1.32,1.37,1.37,0,0,1-1.33-1.41c.55-18,10.43-35.85,26.44-47.87,13.78-10.35,31.9-16.52,52.4-17.83a84.82,84.82,0,0,1,16.2.33,63.17,63.17,0,0,1,23.26,7.82c20.6,11.84,33,37.59,30.87,64.06A1.37,1.37,0,0,1,454.29,578.89Z"/><path d="M222.9,405.52a1.37,1.37,0,0,1-1.3-.93c-3.71-11-11.64-20.49-24.24-29.06-11.5-7.82-24.69-12.6-36.07-16.24-3.87-1.24-6.42-1.65-10.5-.62a1.37,1.37,0,0,1-.67-2.65c4.67-1.17,7.82-.67,12,.67,11.57,3.7,25,8.57,36.77,16.58,13.11,8.91,21.38,18.87,25.3,30.44a1.37,1.37,0,0,1-.86,1.73A1.35,1.35,0,0,1,222.9,405.52Z"/><path d="M256.65,274.31h-.11A1.25,1.25,0,0,1,255.4,273a71.25,71.25,0,0,1,8.83-28.66,1.25,1.25,0,0,1,2.18,1.23,68.72,68.72,0,0,0-8.52,27.65A1.25,1.25,0,0,1,256.65,274.31Z"/><path d="M256.44,273.38a1.25,1.25,0,0,1-1.13-1.79,36,36,0,0,1,9-11.8A1.25,1.25,0,0,1,266,261.7a33.5,33.5,0,0,0-8.41,11A1.25,1.25,0,0,1,256.44,273.38Z"/><path d="M208.48,259.72h-.13a1.25,1.25,0,0,1-1.12-1.37c.56-5.52.84-11.21-2.12-15.13A1.4,1.4,0,0,1,204,243a1.6,1.6,0,0,1-.59-1.54,1.52,1.52,0,0,1,1-1.21,2,2,0,0,1,2.12.75c4.13,4.68,3.82,11.55,3.21,17.62A1.25,1.25,0,0,1,208.48,259.72Z"/><path d="M207.31,258.39a1.25,1.25,0,0,1-1.19-.88,20.22,20.22,0,0,0-3.41-6.45,1.25,1.25,0,1,1,2-1.55,22.71,22.71,0,0,1,3.83,7.25,1.25,1.25,0,0,1-1.2,1.63Z"/><path d="M518,358.07a11.93,11.93,0,0,1-8.68-3.83c-3-3.31-4.46-8.37-3.89-13.88a51.19,51.19,0,0,1,3.08-11.6l.56-1.6a13.26,13.26,0,0,0,1-5,14.25,14.25,0,0,0-2-5.49l-.54-1a45.6,45.6,0,0,1-4.9-17.86,1.82,1.82,0,1,1,3.64-.23A41.93,41.93,0,0,0,510.73,314l.52,1a17.16,17.16,0,0,1,2.46,7,16.39,16.39,0,0,1-1.23,6.43l-.57,1.62A47.69,47.69,0,0,0,509,340.74c-.47,4.47.61,8.49,2.94,11s6.69,3.71,9.59,1.55a5.21,5.21,0,0,0,1.78-4.68,3.88,3.88,0,0,0-2.05-3.2,1.82,1.82,0,0,1,1.47-3.33,7.4,7.4,0,0,1,4.2,6.12,8.83,8.83,0,0,1-3.23,8A9.61,9.61,0,0,1,518,358.07Z"/><path d="M504.75,283.17a1.82,1.82,0,0,1-1.82-1.71c-.46-7.67-.77-14.58,0-21.52.66-5.88,1.78-13.31,4.62-18.53,2.72-5,7.4-7.85,11.92-10.6,3.63-2.21,7.06-4.3,9.45-7.39,3.73-4.83,2.71-11,1.73-17-.13-.8-.26-1.6-.38-2.38-.53-3.56-1-7.53.47-9.67a1.82,1.82,0,0,1,3,2c-.35.52-.62,2.18.11,7.08.12.77.24,1.54.37,2.33,1.06,6.43,2.26,13.72-2.44,19.81-2.8,3.63-6.68,6-10.44,8.28-4.3,2.62-8.36,5.09-10.61,9.23-2.54,4.67-3.58,11.64-4.2,17.2-.74,6.65-.43,13.4,0,20.9a1.82,1.82,0,0,1-1.71,1.93Z"/><path d="M466.36,291.93a1.25,1.25,0,0,1-1.24-1.09l-.4-3.11a1.25,1.25,0,0,1,2.49-.32l.4,3.1a1.25,1.25,0,0,1-1.08,1.4Z"/><path d="M470.08,290.69a1.25,1.25,0,0,1-1.23-1l-.38-2.17a1.25,1.25,0,0,1,2.47-.43l.38,2.17a1.25,1.25,0,0,1-1,1.45Z"/><path d="M473.79,289.76a1.25,1.25,0,0,1-1.25-1.25v-2.8a1.25,1.25,0,1,1,2.51,0v2.8A1.25,1.25,0,0,1,473.79,289.76Z"/><path d="M352.89,288.51a1.25,1.25,0,0,1-1.25-1.25v-2.4a1.25,1.25,0,1,1,2.51,0v2.4A1.25,1.25,0,0,1,352.89,288.51Z"/><path d="M357.49,289.11a1.27,1.27,0,0,1-.32,0,1.25,1.25,0,0,1-.89-1.53l.66-2.48a1.25,1.25,0,0,1,2.42.64l-.66,2.48A1.25,1.25,0,0,1,357.49,289.11Z"/><path d="M362.86,288.51a1.25,1.25,0,0,1-1.25-1.25V286a1.25,1.25,0,0,1,2.51,0v1.25A1.25,1.25,0,0,1,362.86,288.51Z"/><path d="M447.43,194.83a1.25,1.25,0,0,1-1.14-1.76,21.62,21.62,0,0,1,7.7-9.12A1.25,1.25,0,0,1,455.4,186a19.15,19.15,0,0,0-6.82,8.07A1.25,1.25,0,0,1,447.43,194.83Z"/><path d="M449.16,191.73a1.25,1.25,0,0,1-.24-2.48,37.07,37.07,0,0,1,7.68-.59,1.25,1.25,0,0,1-.22,2.5,35.24,35.24,0,0,0-7,.55Z"/><path d="M382.45,196.81a1.25,1.25,0,0,1-1.24-1.05,19.15,19.15,0,0,0-4.55-9.54,1.25,1.25,0,1,1,1.9-1.64,21.62,21.62,0,0,1,5.13,10.78,1.25,1.25,0,0,1-1,1.44Z"/><path d="M381.56,193.38a1.25,1.25,0,0,1-.55-.13,35.15,35.15,0,0,0-6.6-2.3,1.25,1.25,0,0,1,.42-2.47,37.08,37.08,0,0,1,7.28,2.52,1.25,1.25,0,0,1-.55,2.38Z"/><path d="M224.06,215.14a1.25,1.25,0,0,1-.48-2.41,27.71,27.71,0,0,0,8.57-5.6,1.25,1.25,0,1,1,1.74,1.81,29.8,29.8,0,0,1-9.35,6.11A1.24,1.24,0,0,1,224.06,215.14Z"/><path d="M221.78,227.77a1.25,1.25,0,0,1-.21-2.49A23.44,23.44,0,0,0,235,218.07a1.25,1.25,0,0,1,1.83,1.72,25.9,25.9,0,0,1-14.86,8Z"/><path d="M222,242.25a1.25,1.25,0,0,1-.32-2.46,25.32,25.32,0,0,0,5.81-2.41c3.85-2,6.95-5.28,9.94-8.44a1.25,1.25,0,0,1,1.82,1.72c-3,3.16-6.38,6.75-10.6,8.95a27.68,27.68,0,0,1-6.32,2.61A1.27,1.27,0,0,1,222,242.25Z"/><path d="M222.43,255.87a1.25,1.25,0,0,1-.48-2.41,43.91,43.91,0,0,0,8.36-4.55,29.44,29.44,0,0,0,9-8.8,1.25,1.25,0,1,1,2.13,1.31A31.84,31.84,0,0,1,231.7,251a47,47,0,0,1-8.8,4.78A1.24,1.24,0,0,1,222.43,255.87Z"/><path d="M223.1,267.2a1.25,1.25,0,0,1-.25-2.48c4.24-.87,8-3.32,11.64-5.69l4.41-2.87c1.62-1.05,3-2,3.46-3.43a1.25,1.25,0,0,1,2.38.79c-.71,2.16-2.52,3.48-4.47,4.75l-4.41,2.87c-3.66,2.38-7.8,5.08-12.51,6Z"/><path d="M262.31,275.37a.91.91,0,0,1-.77-1.39,6,6,0,0,1,.62-.8,2.74,2.74,0,0,0,.52-.71.91.91,0,1,1,1.71.63,4.12,4.12,0,0,1-.86,1.28,4.51,4.51,0,0,0-.44.55A.91.91,0,0,1,262.31,275.37Z"/><path d="M265.81,269.29A.91.91,0,0,1,265,268a5.44,5.44,0,0,1,.56-.93.91.91,0,1,1,1.43,1.13,3.69,3.69,0,0,0-.35.58A.91.91,0,0,1,265.81,269.29Z"/><path d="M262.77,269.9a.91.91,0,0,1-.64-1.56.87.87,0,0,0,.22-.36.91.91,0,1,1,1.75.5,2.67,2.67,0,0,1-.69,1.16A.91.91,0,0,1,262.77,269.9Z"/><path d="M227.23,219.46h-.12a.91.91,0,0,1-.79-1c0-.36.1-.73.16-1.09a.91.91,0,1,1,1.8.29c-.05.34-.1.69-.15,1A.91.91,0,0,1,227.23,219.46Z"/><path d="M225.86,232.22A.91.91,0,0,1,225,231a2.89,2.89,0,0,0,.11-1.16.91.91,0,1,1,1.81-.18,4.69,4.69,0,0,1-.19,1.88A.91.91,0,0,1,225.86,232.22Z"/><path d="M225.55,236.48a.91.91,0,0,1-.91-.91V234.5a.91.91,0,1,1,1.82,0v1.06A.91.91,0,0,1,225.55,236.48Z"/><path d="M228.14,232.38a.91.91,0,0,1-.91-.91v-.76a.91.91,0,0,1,1.82,0v.76A.91.91,0,0,1,228.14,232.38Z"/><path d="M226.77,247.26a.91.91,0,0,1-.91-.91V245a.91.91,0,0,1,1.82,0v1.37A.91.91,0,0,1,226.77,247.26Z"/><path d="M227.68,259.42a.91.91,0,0,1-.7-1.49s0,0,0-.15a.91.91,0,0,1,1.79-.36,2,2,0,0,1-.35,1.68A.91.91,0,0,1,227.68,259.42Z"/><path d="M203.37,334.46a.91.91,0,0,1-.77-1.41,1,1,0,0,0,.16-.56.91.91,0,0,1,.9-.92h0a.91.91,0,0,1,.91.9,2.81,2.81,0,0,1-.45,1.57A.91.91,0,0,1,203.37,334.46Z"/><path d="M207,335.52a1.12,1.12,0,1,1,1-1.63,1.22,1.22,0,0,1-.71,1.58A.91.91,0,0,1,207,335.52Zm-.72-1.1h0Z"/><path d="M206.87,330.51h-.13a.91.91,0,0,1-.78-1,3.52,3.52,0,0,1,.41-1.23.91.91,0,1,1,1.59.9,1.7,1.7,0,0,0-.19.59A.91.91,0,0,1,206.87,330.51Z"/><path d="M235.88,359.83a.91.91,0,0,1-.78-1.39,3.78,3.78,0,0,1,1.22-1.22.91.91,0,1,1,.94,1.56,2,2,0,0,0-.6.6A.91.91,0,0,1,235.88,359.83Z"/><path d="M239.23,361.2a.91.91,0,0,1-.5-1.68,1.84,1.84,0,0,0,.58-.69.91.91,0,0,1,1.65.78,3.67,3.67,0,0,1-1.24,1.44A.91.91,0,0,1,239.23,361.2Z"/><path d="M241.35,362.56a.91.91,0,0,1-.5-1.68,1.86,1.86,0,0,0,.58-.69.91.91,0,0,1,1.65.78,3.68,3.68,0,0,1-1.24,1.44A.91.91,0,0,1,241.35,362.56Z"/><path d="M164.48,329.75a.91.91,0,0,1-.69-1.5,3.83,3.83,0,0,1,1.84-1.36.91.91,0,1,1,.44,1.77c-.3.07-.7.54-.89.77A.91.91,0,0,1,164.48,329.75Z"/><path d="M167.37,330.81a.9.9,0,0,1-.34-.07.91.91,0,0,1-.5-1.19,2.12,2.12,0,0,1,1.83-1.33.91.91,0,0,1,.16,1.82.32.32,0,0,0-.3.19A.91.91,0,0,1,167.37,330.81Z"/><path d="M170.26,332.48a.91.91,0,0,1-.88-1.15,7.88,7.88,0,0,1,.69-1.72.91.91,0,1,1,1.6.87,6.06,6.06,0,0,0-.53,1.32A.91.91,0,0,1,170.26,332.48Z"/><path d="M161.75,399.17a.91.91,0,0,1-.91-.91,2,2,0,0,1,.54-1.38.91.91,0,0,1,1.35,1.22.23.23,0,0,0-.07.14.91.91,0,0,1-.91.92Z"/><path d="M175.42,407.83a.91.91,0,0,1-.1-1.82,7.27,7.27,0,0,0,1-.26.91.91,0,0,1,.6,1.72,8.59,8.59,0,0,1-1.41.35Z"/><path d="M244.24,253.26a.91.91,0,0,1-.84-1.27c1.22-2.89,6.07-4.85,9.92-6a.91.91,0,1,1,.52,1.75c-4.77,1.41-8,3.26-8.76,4.95A.91.91,0,0,1,244.24,253.26Z"/><path d="M244,247.11a.91.91,0,0,1-.79-1.37,4.49,4.49,0,0,1,2.84-2,.91.91,0,0,1,.45,1.77,2.73,2.73,0,0,0-1.72,1.17A.91.91,0,0,1,244,247.11Z"/><path d="M221,257.36a.91.91,0,0,1-.91-.85,3.66,3.66,0,0,1,1.76-3.11,4.55,4.55,0,0,0,.9-.87.91.91,0,0,1,1.52,1,5.92,5.92,0,0,1-1.26,1.28c-.79.65-1.13,1-1.1,1.58a.91.91,0,0,1-.85,1Z"/><path d="M342.45,320.94h0c-15.31-.32-27.75-9.44-30.95-22.71a50.9,50.9,0,0,1-.94-9.3c-.41-9.39-.8-18.26-11.28-18.35-1.36,0-2.77.08-4.26.18-3.41.23-6.94.46-10.11-.62a21.86,21.86,0,0,1-7.08-3.65c-.56-.48-1.22-1-1.92-1.48a17.78,17.78,0,0,1-3.67-3.21.91.91,0,1,1,1.45-1.11,16.54,16.54,0,0,0,3.3,2.85c.73.53,1.43,1,2,1.57a20.18,20.18,0,0,0,6.47,3.31c2.82,1,6.17.74,9.4.53,1.46-.1,3-.19,4.39-.18,12.21.11,12.68,10.73,13.09,20.1a49.64,49.64,0,0,0,.89,8.95c3,12.45,14.74,21,29.21,21.31a.91.91,0,0,1,0,1.82Z"/><path d="M316.47,285.62h0a.91.91,0,0,1-.87-.95c.17-4-.9-9.42-4.42-12.49a21.66,21.66,0,0,0-6-3.67,15.64,15.64,0,0,0-2.88-.82,13.34,13.34,0,0,1-4-1.33.91.91,0,0,1,.92-1.57,11.81,11.81,0,0,0,3.47,1.13,17.25,17.25,0,0,1,3.21.93,23.35,23.35,0,0,1,6.5,4c4,3.5,5.24,9.5,5,13.94A.91.91,0,0,1,316.47,285.62Z"/><path d="M316,270.81a.91.91,0,0,1-.66-.29,6.41,6.41,0,0,1-1-1.52,3.4,3.4,0,0,0-.9-1.29.91.91,0,1,1,1-1.55,4.72,4.72,0,0,1,1.55,2,5.09,5.09,0,0,0,.68,1.1.91.91,0,0,1-.66,1.54Z"/><path d="M330.83,387h0a.91.91,0,0,1-.91-.91,29.22,29.22,0,0,1,1.78-8.45c1.45-4.61,2.82-9,.4-13s-8.09-4.3-12.63-4.52l-1.06-.05a43.25,43.25,0,0,0-6.15.24c-4.36.38-8.86.77-13.14-1.92-5.25-3.3-5.23-8.05-5.22-13.08v-1c0-.9,0-1.83.08-2.77a32.54,32.54,0,0,0-.08-5.55,13.24,13.24,0,0,0-.76-2.66,15.66,15.66,0,0,1-.81-2.77.91.91,0,0,1,1.8-.3,14.1,14.1,0,0,0,.73,2.45,14.8,14.8,0,0,1,.86,3,33.87,33.87,0,0,1,.1,5.87c0,.91-.07,1.82-.07,2.7v1c0,4.9,0,8.77,4.36,11.53,3.77,2.37,7.77,2,12,1.64a44.28,44.28,0,0,1,6.41-.25l1,.05c5,.25,11.15.56,14.1,5.4s1.29,9.66-.22,14.45a27.49,27.49,0,0,0-1.7,7.9A.91.91,0,0,1,330.83,387Z"/><path d="M314.88,354.66l-.22,0a20.55,20.55,0,0,0-2.68-.41c-2.32-.25-4.73-.51-6.66-2.59a.91.91,0,0,1,1.34-1.24c1.47,1.58,3.34,1.78,5.52,2a22.24,22.24,0,0,1,2.92.45.91.91,0,0,1-.22,1.8Z"/><path d="M324,355.81a3.9,3.9,0,0,1-2.1-.6.91.91,0,0,1,1-1.54,2.12,2.12,0,0,0,1.27.32.91.91,0,0,1,.12,1.82Z"/><path d="M330.08,431.54c-6.88,0-14.16-1.54-18-7.09a.91.91,0,0,1,1.5-1c4.72,6.82,16,6.66,22.28,6,1.37-.15,2.74-.34,4.11-.52,2.51-.34,5.1-.69,7.69-.83,1.13-.06,2.35-.25,3.64-.45,2.72-.42,5.53-.86,8-.2a.91.91,0,1,1-.47,1.76c-2.13-.56-4.75-.16-7.28.24-1.34.21-2.6.41-3.82.47-2.51.14-5.07.48-7.54.81-1.38.19-2.76.37-4.15.53A54.68,54.68,0,0,1,330.08,431.54Z"/><path d="M344,425.53c-3.17,0-6.28-.25-9.29-.48l-2.63-.2a.91.91,0,0,1-.84-1,.9.9,0,0,1,1-.84l2.64.2c3.11.25,6,.48,9.14.48a.91.91,0,1,1,0,1.82Z"/><path d="M442.84,395.3a13,13,0,0,1-5.76-1.4l-1.19-.56c-2-.93-4.11-1.9-5.57-4a22.33,22.33,0,0,1-2.79-6.42c-1.64-5.46-3.83-8.56-7.35-10.38a.91.91,0,1,1,.84-1.62c5.06,2.61,7.07,7.5,8.26,11.47a20.77,20.77,0,0,0,2.54,5.9c1.17,1.68,2.87,2.46,4.84,3.36l1.22.57c5.71,2.78,9.94.4,15.29-2.61,4.5-2.53,12.35-4.28,15.62,1.23a.91.91,0,0,1-1.57.93c-2.6-4.39-9.28-2.76-13.12-.59S446.84,395.3,442.84,395.3Z"/><path d="M438.76,399.81c-3.62,0-5.87-1-6.7-3.1a.91.91,0,0,1,1.69-.68c.72,1.81,3.63,2,5.95,1.94a.91.91,0,0,1,.09,1.82Z"/><path d="M417,467.91a.91.91,0,0,1-.34-1.76l.18-.08a8,8,0,0,0,1.88-.94.91.91,0,1,1,1.12,1.44,9.38,9.38,0,0,1-2.32,1.19l-.18.07A.9.9,0,0,1,417,467.91Z"/><path d="M419,463.81a.91.91,0,0,1-.68-1.52,8,8,0,0,1,2.08-1.56.91.91,0,1,1,.85,1.61,6.17,6.17,0,0,0-1.57,1.17A.91.91,0,0,1,419,463.81Z"/><path d="M423.8,463.81a.91.91,0,0,1-.73-1.46,9.13,9.13,0,0,1,.75-.84,4.26,4.26,0,0,0,1-1.23.91.91,0,0,1,1.69.68,5.73,5.73,0,0,1-1.34,1.82,7.17,7.17,0,0,0-.6.67A.91.91,0,0,1,423.8,463.81Z"/><path d="M427.44,457.43a.91.91,0,0,1-.7-1.5,14,14,0,0,0,1.5-2.14.91.91,0,1,1,1.59.9,15.86,15.86,0,0,1-1.69,2.42A.91.91,0,0,1,427.44,457.43Z"/><path d="M510.39,447l-.21,0a.91.91,0,0,1-.67-1.1c2.81-11.66,17.78-20.26,30-21,9.43-.56,17.23,3.78,23.64,8.09.82.55,1.61,1.13,2.39,1.7a24.65,24.65,0,0,0,7.14,4.07A49.71,49.71,0,0,0,585.93,441c5,.14,9.33-2.18,13.83-4.62s9-4.88,14.33-4.72a.91.91,0,0,1,.88.94.92.92,0,0,1-.94.88c-4.8-.12-9,2.11-13.41,4.5s-9.17,5-14.75,4.84a51.57,51.57,0,0,1-13.75-2.41,26.41,26.41,0,0,1-7.67-4.33c-.76-.56-1.54-1.12-2.34-1.66-6.16-4.14-13.65-8.31-22.51-7.78-11.33.66-25.75,8.87-28.33,19.59A.91.91,0,0,1,510.39,447Z"/><path d="M617.71,439a.91.91,0,0,1-.48-1.69,7.61,7.61,0,0,1,4.41-.82.91.91,0,1,1-.1,1.82,6,6,0,0,0-3.34.55A.91.91,0,0,1,617.71,439Z"/><path d="M513.35,450.6a.91.91,0,0,1-.8-1.35c1.62-3,8-5.62,11.07-6.37a.91.91,0,1,1,.44,1.77c-3.26.8-8.74,3.33-9.9,5.47A.91.91,0,0,1,513.35,450.6Z"/><path d="M575.91,454.27c-6.22,0-11.56-3.34-16.75-6.57-2.09-1.3-4.06-2.53-6.06-3.53-4.54-2.27-7.89-3.62-12.53-4.22-.74-.1-1.45-.21-2.16-.33-2.94-.48-5.49-.89-8.27.41a.91.91,0,0,1-.77-1.65c3.29-1.54,6.23-1.06,9.34-.56.69.11,1.38.23,2.1.32,4.88.63,8.5,2.09,13.11,4.4,2.08,1,4.18,2.35,6.21,3.62,5.23,3.26,10.64,6.66,16.74,6.26a.91.91,0,0,1,.11,1.82C576.62,454.26,576.26,454.27,575.91,454.27Z"/><path d="M588.71,451.66a2.89,2.89,0,0,1-1.24-.24.91.91,0,1,1,.78-1.65,5.29,5.29,0,0,0,2.24-.21l.37-.08a.91.91,0,0,1,.38,1.78l-.36.08A10.39,10.39,0,0,1,588.71,451.66Z"/><path d="M579,487.11a12.5,12.5,0,0,1-9.62-4.95c-.74-.91-1.54-1.79-2.4-2.73a31.22,31.22,0,0,1-5-6.55.91.91,0,0,1,1.63-.83,29.86,29.86,0,0,0,4.72,6.15c.83.91,1.7,1.86,2.47,2.81,2.8,3.44,6.55,4.92,10.29,4,3.06-.72,6-3.61,8.52-6.16.75-.75,1.48-1.48,2.18-2.11.54-.49,1.06-1,1.58-1.55a17.08,17.08,0,0,1,4.93-3.9c2.53-1.14,5.27-1.14,7.92-1.12h.55a.91.91,0,0,1,0,1.82h-.56c-2.47,0-5,0-7.16,1a15.5,15.5,0,0,0-4.39,3.52c-.55.55-1.09,1.11-1.65,1.62s-1.39,1.33-2.12,2.06c-2.73,2.72-5.82,5.8-9.39,6.64A11,11,0,0,1,579,487.11Z"/><path d="M605,466.55a.91.91,0,0,1-.34-1.76l.61-.25c.7-.28,1.41-.57,2.08-.88a.91.91,0,1,1,.77,1.65c-.7.32-1.44.62-2.17.91l-.6.24A.9.9,0,0,1,605,466.55Z"/><path d="M633,465.44q-.49,0-1,0a.91.91,0,1,1,.13-1.82c7.17.51,11-5.25,15-11.34,4.62-7,9.39-14.26,19.62-11.42a.91.91,0,0,1-.49,1.76c-9-2.48-13.16,3.9-17.61,10.66C644.67,459.25,640.59,465.44,633,465.44Z"/><path d="M659.87,436.92a.91.91,0,0,1-.33-1.76,12.08,12.08,0,0,1,3.68-.66,14.92,14.92,0,0,0,2.37-.29A.91.91,0,0,1,666,436a16.4,16.4,0,0,1-2.66.34,10.54,10.54,0,0,0-3.14.54A.91.91,0,0,1,659.87,436.92Z"/><path d="M651.84,438.09a.9.9,0,0,1-.79-.5.94.94,0,0,1,.41-1.25,11.58,11.58,0,0,1,2.65-.56.92.92,0,0,1,1,.85.91.91,0,0,1-.85,1,12.28,12.28,0,0,0-2,.38A.86.86,0,0,1,651.84,438.09Z"/><path d="M673.08,436.92h-.91a.91.91,0,0,1,0-1.82h.91a.91.91,0,0,1,0,1.82Z"/><path d="M661,432.59a.91.91,0,0,1-.22-1.79,8.8,8.8,0,0,1,2.05-.26.91.91,0,0,1,0,1.82h0a6.39,6.39,0,0,0-1.58.2Z"/><path d="M550.7,419.86a4.81,4.81,0,0,1-1.93-.33.91.91,0,1,1,.72-1.67,4.46,4.46,0,0,0,1.82.17c.26,0,.53,0,.79,0a.91.91,0,0,1,0,1.82H550.7Z"/><path d="M559.15,423.71a.89.89,0,0,1-.27,0,10.23,10.23,0,0,1-1.76-.75.91.91,0,1,1,.87-1.6,8.46,8.46,0,0,0,1.43.62.91.91,0,0,1-.27,1.78Z"/><path d="M559.15,420.29a.91.91,0,0,1-.33-.06,3.53,3.53,0,0,1-1.55-1.23.91.91,0,0,1,1.48-1.06,1.7,1.7,0,0,0,.73.59.91.91,0,0,1-.33,1.76Z"/><path d="M484.64,358.08h-.16a.91.91,0,0,1-.74-1.06,1.58,1.58,0,0,0-.08-.93.91.91,0,1,1,1.51-1,3.24,3.24,0,0,1,.37,2.26A.91.91,0,0,1,484.64,358.08Z"/><path d="M484.18,364.23a.91.91,0,0,1-.83-1.28,2,2,0,0,0,.16-1.11.91.91,0,1,1,1.81-.23,3.88,3.88,0,0,1-.3,2.08A.91.91,0,0,1,484.18,364.23Z"/><path d="M482.13,361.73a.91.91,0,0,1-.91-.91v-1.37a.91.91,0,1,1,1.82,0v1.37A.91.91,0,0,1,482.13,361.73Z"/><path d="M481.22,368.11a.91.91,0,0,1-.68-1.52,1.07,1.07,0,0,0,.25-.49.91.91,0,1,1,1.79.37,2.9,2.9,0,0,1-.67,1.33A.91.91,0,0,1,481.22,368.11Z"/><path d="M414.45,169a.91.91,0,0,1-.9-.75,2.85,2.85,0,0,1,1.41-3.26.91.91,0,0,1,.79,1.64c-.54.26-.47,1-.41,1.29a.91.91,0,0,1-.73,1.06Z"/><path d="M412.4,182.62a.91.91,0,0,1-.91-.85,4.22,4.22,0,0,1,.87-2.9.91.91,0,1,1,1.45,1.1,2.42,2.42,0,0,0-.5,1.66.91.91,0,0,1-.84,1Z"/><path d="M605.64,135.91a.91.91,0,0,1-.45-1.7c4.76-2.73,11.54-3.4,17-3.93l2.24-.23a251.36,251.36,0,0,1,26.92-1.66c2.88,0,5.76,0,8.65-.05a262.6,262.6,0,0,1,27.83.73l2.08.19c2.11.19,4.3.38,6.37.74a.91.91,0,1,1-.31,1.8c-2-.34-4.14-.54-6.22-.72l-2.09-.19a260.49,260.49,0,0,0-27.64-.72c-2.89,0-5.77.05-8.67.05h-.17a248.74,248.74,0,0,0-26.55,1.65l-2.25.23c-5.55.55-11.83,1.17-16.26,3.7A.9.9,0,0,1,605.64,135.91Z"/><path d="M658,148.5c-.79,0-1.58,0-2.38-.06-2.57-.13-5.21-.17-7.75-.22-2.82-.05-5.74-.1-8.61-.26l-1.77-.1c-2.89-.17-5.62-.33-8.47-.33-.49,0-1.06,0-1.65.06a12.73,12.73,0,0,1-5-.36.91.91,0,1,1,.7-1.68,11.86,11.86,0,0,0,4.23.22c.62,0,1.22-.06,1.74-.06,2.9,0,5.79.17,8.58.33l1.76.1c2.83.16,5.74.21,8.54.26,2.56,0,5.21.09,7.81.22a80.18,80.18,0,0,0,8.74-.2c2-.12,4-.24,6.08-.26h0a.91.91,0,0,1,0,1.82c-2,0-4,.14-6,.25C662.46,148.37,660.26,148.5,658,148.5Z"/><path d="M671.95,174.42h-.15c-3.05-.5-5.91-2.27-8.68-4a31.52,31.52,0,0,0-6.16-3.25c-2.35-.8-4.78-1.54-7.12-2.25s-4.61-1.4-6.9-2.17c-1-.35-2.12-.76-3.26-1.21-3.28-1.26-7-2.68-10.09-2.62a.88.88,0,0,1-.93-.89.91.91,0,0,1,.89-.93c3.49-.08,7.35,1.42,10.79,2.74,1.13.43,2.19.84,3.19,1.18,2.27.76,4.59,1.47,6.85,2.15s4.8,1.46,7.18,2.27a33.26,33.26,0,0,1,6.54,3.43c2.61,1.62,5.32,3.3,8,3.74a.91.91,0,0,1-.15,1.81Z"/><path d="M661,197.66a.91.91,0,0,1-.65-.27,15.6,15.6,0,0,0-4.24-2.56c-.81-.39-1.58-.75-2.27-1.15-2.63-1.51-5.18-3.2-7.64-4.84a87.46,87.46,0,0,0-12.24-7.2,98.32,98.32,0,0,0-17-6c-1.22-.29-2.44-.61-3.66-.93-2.43-.63-4.95-1.29-7.42-1.74-.36-.07-.74-.12-1.13-.17a8.69,8.69,0,0,1-4-1.24.91.91,0,1,1,1.08-1.47,7.31,7.31,0,0,0,3.19.9c.41.06.82.11,1.21.18,2.54.46,5.09,1.12,7.55,1.77,1.21.32,2.42.63,3.63.92A100.1,100.1,0,0,1,634.71,180a88.75,88.75,0,0,1,12.5,7.34c2.44,1.62,5,3.3,7.54,4.78.63.36,1.37.72,2.15,1.09a16.82,16.82,0,0,1,4.75,2.93.91.91,0,0,1-.65,1.55Z"/><path d="M686.3,124.52a.91.91,0,0,1-.77-1.4,2.78,2.78,0,0,1,2-1.33.9.9,0,0,1,1,.81.91.91,0,0,1-.81,1,1,1,0,0,0-.69.49A.91.91,0,0,1,686.3,124.52Z"/><path d="M690.63,125.43a.91.91,0,0,1-.81-1.33,4.67,4.67,0,0,1,1.13-1.42.91.91,0,0,1,1.18,1.39,2.86,2.86,0,0,0-.69.86A.91.91,0,0,1,690.63,125.43Z"/><path d="M663.29,139.79a.91.91,0,0,1-.88-1.16,2.58,2.58,0,0,1,1.05-1.42.91.91,0,0,1,1,1.51.76.76,0,0,0-.32.4A.91.91,0,0,1,663.29,139.79Z"/><path d="M664.2,162.57a1.19,1.19,0,0,1,.22-2.28h0a.91.91,0,0,1,.91.91,1.45,1.45,0,0,1-.59,1.19A.91.91,0,0,1,664.2,162.57Zm-.68-1.36h0Z"/><path d="M671.91,165.8a3.43,3.43,0,0,1-.58-.05.91.91,0,0,1-.74-1.05.92.92,0,0,1,1.05-.74h.07a.91.91,0,0,1,1.8-.24,1.63,1.63,0,0,1-.32,1.59A1.68,1.68,0,0,1,671.91,165.8ZM672,164"/><path d="M594.93,134.77h-.06a.91.91,0,0,1-.85-1c.06-.91.16-1.75.26-2.57a20.39,20.39,0,0,0,.2-4.58c-.14-1.48-.36-3-.58-4.45s-.42-2.81-.56-4.2a.91.91,0,0,1,1.81-.18c.14,1.35.34,2.76.55,4.12s.45,3,.59,4.55a22.13,22.13,0,0,1-.21,5c-.1.79-.2,1.6-.25,2.46A.91.91,0,0,1,594.93,134.77Z"/><path d="M594.47,140.92a.91.91,0,0,1-.53-1.65,1,1,0,0,0,.32-.57A.91.91,0,1,1,596,139a2.77,2.77,0,0,1-1,1.71A.91.91,0,0,1,594.47,140.92Z"/><path d="M594.47,192.65a.91.91,0,0,1-.62-1.58c1.69-1.56,1.51-3,1.23-5.21-.05-.43-.11-.87-.15-1.33a.91.91,0,1,1,1.81-.17c0,.44.09.86.15,1.27.3,2.35.58,4.58-1.8,6.77A.91.91,0,0,1,594.47,192.65Z"/><path d="M592.87,196.75a.91.91,0,0,1-.77-1.4,1.88,1.88,0,0,1,1.32-.87.91.91,0,0,1,.27,1.8s0,0,0,0A.91.91,0,0,1,592.87,196.75Z"/><path d="M545.72,183.8a3.66,3.66,0,0,1-1.54-.35.91.91,0,1,1,.77-1.65,1.77,1.77,0,0,0,2.13-.46.91.91,0,1,1,1.36,1.21A3.62,3.62,0,0,1,545.72,183.8Z"/><path d="M534.28,200.83a.9.9,0,0,1-.32-.06c-1.92-.72-4-1.75-5.89-2.66l-.29-.14a.91.91,0,0,1-.45-1.14,5.33,5.33,0,0,1,2.8-2.7c.25-.14.5-.27.74-.42a.91.91,0,0,1,1,1.55c-.27.17-.54.32-.82.47a6.07,6.07,0,0,0-1.53,1c1,.5,2.1,1,3.16,1.49a5.38,5.38,0,0,1-.15-1,.91.91,0,0,1,.86-1,.92.92,0,0,1,1,.86,6.16,6.16,0,0,0,.78,2.34.91.91,0,0,1-.81,1.33Z"/><path d="M408.53,274a.91.91,0,0,1-.91-.88c-.06-1.82,0-3.68.1-5.48.06-1.36.12-2.76.12-4.12a.91.91,0,1,1,1.82,0c0,1.41-.06,2.83-.12,4.21-.08,1.76-.16,3.59-.1,5.33a.91.91,0,0,1-.88.94Z"/><path d="M213.7,625.14a.91.91,0,0,1-.82-.51,3.07,3.07,0,0,1,.06-3,.91.91,0,0,1,1.52,1,1.33,1.33,0,0,0,.06,1.14.91.91,0,0,1-.82,1.32Z"/><path d="M216.67,624.91a.91.91,0,0,1-.91-.91v-1.59a.91.91,0,0,1,1.82,0V624A.91.91,0,0,1,216.67,624.91Z"/><path d="M225.32,675a.91.91,0,0,1-.91-.9,6.43,6.43,0,0,1,.53-2.66.91.91,0,0,1,1.67.74,4.58,4.58,0,0,0-.38,1.89.91.91,0,0,1-.9.93Z"/><path d="M227.83,675a.91.91,0,0,1-.91-.91V673a.91.91,0,0,1,1.82,0v1.14A.91.91,0,0,1,227.83,675Z"/><path d="M593.56,653.85l-.21,0a7,7,0,0,1-2.36-1.05.91.91,0,1,1,1-1.5,5.1,5.1,0,0,0,1.74.77.91.91,0,0,1-.21,1.8Z"/><path d="M594.92,651.12a1.45,1.45,0,0,1-1.18-.59,1.12,1.12,0,1,1,1.19.59Z"/><path d="M609.51,624.91h-.13l-1.4-.23a.91.91,0,0,1,.33-1.79l1.33.22a.91.91,0,0,1-.13,1.81Z"/><path d="M608.55,627.7a3.11,3.11,0,0,1-1.54-.4.91.91,0,1,1,.9-1.58,1.43,1.43,0,0,0,1,.13.91.91,0,1,1,.35,1.79A3.57,3.57,0,0,1,608.55,627.7Z"/><path d="M526.56,602.81a.9.9,0,0,1-.45-.12,8.11,8.11,0,0,0-2-.82.91.91,0,0,1,.44-1.77,9.85,9.85,0,0,1,2.51,1,.91.91,0,0,1-.46,1.7Z"/><path d="M532.19,604.63a3.52,3.52,0,0,1-2.09-.66.91.91,0,1,1,1.14-1.42,1.89,1.89,0,0,0,1,.25h0a.91.91,0,0,1,0,1.82Z"/><path d="M530.89,601.67a.93.93,0,0,1-.25,0,5.18,5.18,0,0,0-1.17-.19.91.91,0,0,1,.1-1.82,7,7,0,0,1,1.57.26.91.91,0,0,1-.25,1.79Z"/><path d="M538,606.68h-1.14a.91.91,0,0,1,0-1.82H538a.91.91,0,0,1,0,1.82Z"/><path d="M504.46,624.23a.92.92,0,0,1-.31-.06,10.85,10.85,0,0,1-2.5-1.26.91.91,0,0,1,1.08-1.47,8.82,8.82,0,0,0,2.05,1,.91.91,0,0,1-.31,1.77Z"/><path d="M510.16,627.65a.91.91,0,0,1-.24,0,6.12,6.12,0,0,1-2.15-1.07.91.91,0,0,1,1.13-1.43,4.27,4.27,0,0,0,1.5.75.91.91,0,0,1-.24,1.79Z"/><path d="M508.56,623.77h0a8.33,8.33,0,0,1-1.79-.26.91.91,0,0,1,.46-1.77,6.42,6.42,0,0,0,1.4.2.91.91,0,0,1,0,1.82Z"/><path d="M266.8,515.54a.91.91,0,0,1-.89-.73,6.27,6.27,0,0,0-.38-1.12,6.18,6.18,0,0,1-.55-2,.91.91,0,0,1,.85-1,.9.9,0,0,1,1,.85,4.58,4.58,0,0,0,.41,1.39,7.71,7.71,0,0,1,.48,1.45.91.91,0,0,1-.72,1.07Z"/><path d="M269.08,521.69a.91.91,0,0,1-.83-.53,10.82,10.82,0,0,1-.75-2.24.91.91,0,1,1,1.78-.38,9,9,0,0,0,.62,1.86.91.91,0,0,1-.83,1.29Z"/><path d="M271.35,516.91a.91.91,0,0,1-.82-.52,12.34,12.34,0,0,1-.74-2,.91.91,0,1,1,1.76-.49,10.46,10.46,0,0,0,.63,1.68.91.91,0,0,1-.82,1.3Z"/><path d="M273.86,526a.91.91,0,0,1-.79-.45c-.14-.24-.3-.47-.46-.71a8.56,8.56,0,0,1-1-1.7.91.91,0,0,1,1.7-.66,7.07,7.07,0,0,0,.78,1.34c.18.27.36.53.52.8a.91.91,0,0,1-.78,1.38Z"/><path d="M268.16,508a.91.91,0,0,1-.84-.56c-.25-.61-.49-1.24-.71-1.88a.91.91,0,1,1,1.73-.58c.2.6.43,1.2.66,1.76a.91.91,0,0,1-.49,1.19A.9.9,0,0,1,268.16,508Z"/><path d="M515.4,493a.91.91,0,0,1-.89-.7,9.21,9.21,0,0,1-.25-2,.91.91,0,0,1,.9-.93.93.93,0,0,1,.93.9,7.4,7.4,0,0,0,.2,1.63.91.91,0,0,1-.67,1.1Z"/><path d="M515.17,498.9h0a.91.91,0,0,1-.86-1,18.32,18.32,0,0,1,.24-2.16.91.91,0,0,1,1.8.31,16.81,16.81,0,0,0-.22,1.95A.91.91,0,0,1,515.17,498.9Z"/><path d="M512.67,495.71a.9.9,0,0,1-.33-.06.91.91,0,0,1-.51-1.18,2.32,2.32,0,0,0,.17-.82.91.91,0,0,1,.91-.89h0a.91.91,0,0,1,.89.93,4.11,4.11,0,0,1-.29,1.46A.91.91,0,0,1,512.67,495.71Z"/><path d="M510.84,505.51a.91.91,0,0,1-.65-1.55,3.39,3.39,0,0,0,.69-1.23.91.91,0,1,1,1.74.54,5.16,5.16,0,0,1-1.13,2A.91.91,0,0,1,510.84,505.51Z"/><path class="cls-8" d="M482.05,461.33l.6-.37c2.77-1.82,5.59-3.13,8.36-4.85-2.06-1.12-5.09-.51-7.45-.61-1.32-.06-2.66-.18-4-.3-.11-.34-.23-.68-.33-1-.81-3-1.12-6-3-9.84a80.69,80.69,0,0,0-3.07,10.37c-3.28-.31-7.42-.92-10.12.15.6,1.56,3.62,3.28,5,4.28,1.19.84,2.34,1.69,3.48,2.56-.59,2.55-1.19,5.05-1.9,7.43,2.12-.42,4.17-2.7,6-3.94l.21-.14c2.69,2.07,5.93,4.29,9.22,4.54.48-2.55-1.92-5.68-2.88-7.95Z"/><path class="cls-3" d="M186.73,507.78l.38-.24c1.76-1.16,3.55-2,5.32-3.08-1.31-.71-3.24-.32-4.74-.39-.84,0-1.69-.11-2.55-.19-.07-.22-.15-.43-.21-.66A28.5,28.5,0,0,0,183,497a51.32,51.32,0,0,0-2,6.59c-2.09-.2-4.72-.59-6.43.1.38,1,2.3,2.09,3.2,2.72s1.49,1.08,2.21,1.63c-.37,1.62-.76,3.21-1.21,4.73,1.35-.26,2.65-1.72,3.81-2.5l.14-.09c1.71,1.32,3.77,2.73,5.87,2.89.3-1.62-1.22-3.61-1.83-5.06Z"/><path class="cls-3" d="M110.26,399.15l.38-.24c1.76-1.16,3.55-2,5.32-3.08-1.31-.71-3.24-.32-4.74-.39-.84,0-1.69-.11-2.55-.19-.07-.22-.15-.43-.21-.66a28.5,28.5,0,0,0-1.91-6.26,51.32,51.32,0,0,0-2,6.59c-2.09-.2-4.72-.59-6.43.1.38,1,2.3,2.09,3.2,2.72s1.49,1.08,2.21,1.63c-.37,1.62-.76,3.21-1.21,4.73,1.35-.26,2.65-1.72,3.81-2.5l.14-.09c1.71,1.32,3.77,2.73,5.87,2.89.3-1.62-1.22-3.61-1.83-5.06Z"/><path class="cls-3" d="M370.73,156.24l.38-.24c1.76-1.16,3.55-2,5.32-3.08-1.31-.71-3.24-.32-4.74-.39-.84,0-1.69-.11-2.55-.19-.07-.22-.15-.43-.21-.66a28.5,28.5,0,0,0-1.91-6.26,51.32,51.32,0,0,0-2,6.59c-2.09-.2-4.72-.59-6.43.1.38,1,2.3,2.09,3.2,2.72s1.49,1.08,2.21,1.63c-.37,1.62-.76,3.21-1.21,4.73,1.35-.26,2.65-1.72,3.81-2.5l.14-.09c1.71,1.32,3.77,2.73,5.87,2.89.3-1.62-1.22-3.61-1.83-5.06Z"/><path class="cls-3" d="M564.42,347l.43-.27c2-1.31,4-2.26,6-3.5-1.48-.81-3.67-.36-5.37-.44-1,0-1.92-.13-2.89-.22-.08-.25-.17-.49-.24-.75-.59-2.15-.81-4.34-2.17-7.09A58.18,58.18,0,0,0,558,342.2c-2.37-.23-5.35-.66-7.29.11.43,1.12,2.61,2.37,3.63,3.08.86.61,1.69,1.22,2.51,1.85-.42,1.84-.86,3.64-1.37,5.36,1.53-.3,3-1.95,4.32-2.84l.15-.1c1.94,1.49,4.28,3.09,6.65,3.27.34-1.84-1.38-4.1-2.08-5.73Z"/><path class="cls-3" d="M621.34,501.15l.43-.27c2-1.31,4-2.26,6-3.5-1.48-.81-3.67-.36-5.37-.44-1,0-1.92-.13-2.89-.22-.08-.25-.17-.49-.24-.75-.59-2.15-.81-4.34-2.17-7.09a58.18,58.18,0,0,0-2.21,7.48c-2.37-.23-5.35-.66-7.29.11.43,1.12,2.61,2.37,3.63,3.08.86.61,1.69,1.22,2.51,1.85-.42,1.84-.86,3.64-1.37,5.36,1.53-.3,3-1.95,4.32-2.84l.15-.1c1.94,1.49,4.28,3.09,6.65,3.27.34-1.84-1.38-4.1-2.08-5.73Z"/><path class="cls-3" d="M460.48,680.93l.43-.27c2-1.31,4-2.26,6-3.5-1.48-.81-3.67-.36-5.37-.44-1,0-1.92-.13-2.89-.22-.08-.25-.17-.49-.24-.75-.59-2.15-.81-4.34-2.17-7.09a58.18,58.18,0,0,0-2.21,7.48c-2.37-.23-5.35-.66-7.29.11.43,1.12,2.61,2.37,3.63,3.08.86.61,1.69,1.22,2.51,1.85-.42,1.84-.86,3.64-1.37,5.36,1.53-.3,3-1.95,4.32-2.84l.15-.1c1.94,1.49,4.28,3.09,6.65,3.27.34-1.84-1.38-4.1-2.08-5.73Z"/><path class="cls-3" d="M564.42,565.15l.43-.27c2-1.31,4-2.26,6-3.5-1.48-.81-3.67-.36-5.37-.44-1,0-1.92-.13-2.89-.22-.08-.25-.17-.49-.24-.75-.59-2.15-.81-4.34-2.17-7.09a58.18,58.18,0,0,0-2.21,7.48c-2.37-.23-5.35-.66-7.29.11.43,1.12,2.61,2.37,3.63,3.08.86.61,1.69,1.22,2.51,1.85-.42,1.84-.86,3.64-1.37,5.36,1.53-.3,3-1.95,4.32-2.84l.15-.1c1.94,1.49,4.28,3.09,6.65,3.27.34-1.84-1.38-4.1-2.08-5.73Z"/><path class="cls-3" d="M333.42,637.64l.43-.27c2-1.31,4-2.26,6-3.5-1.48-.81-3.67-.36-5.37-.44-1,0-1.92-.13-2.89-.22-.08-.25-.17-.49-.24-.75-.59-2.15-.81-4.34-2.17-7.09a58.18,58.18,0,0,0-2.21,7.48c-2.37-.23-5.35-.66-7.29.11.43,1.12,2.61,2.37,3.63,3.08.86.61,1.69,1.22,2.51,1.85-.42,1.84-.86,3.64-1.37,5.36,1.53-.3,3-1.95,4.32-2.84l.15-.1c1.94,1.49,4.28,3.09,6.65,3.27.34-1.84-1.38-4.1-2.08-5.73Z"/><path class="cls-3" d="M603.2,265.67l.28-.17c1.3-.86,2.62-1.47,3.92-2.27-1-.52-2.39-.24-3.5-.29-.62,0-1.25-.08-1.88-.14-.05-.16-.11-.32-.15-.49a21,21,0,0,0-1.41-4.61,37.85,37.85,0,0,0-1.44,4.86c-1.54-.15-3.48-.43-4.75.07.28.73,1.7,1.54,2.36,2s1.1.79,1.63,1.2c-.27,1.2-.56,2.37-.89,3.49,1-.2,2-1.27,2.81-1.85l.1-.06a8.87,8.87,0,0,0,4.33,2.13c.22-1.19-.9-2.67-1.35-3.73Z"/><path class="cls-3" d="M684,486l.28-.17c1.3-.86,2.62-1.47,3.92-2.27-1-.52-2.39-.24-3.5-.29-.62,0-1.25-.08-1.88-.14-.05-.16-.11-.32-.15-.49a21,21,0,0,0-1.41-4.61,37.85,37.85,0,0,0-1.44,4.86c-1.54-.15-3.48-.43-4.75.07.28.73,1.7,1.54,2.36,2s1.1.79,1.63,1.2c-.27,1.2-.56,2.37-.89,3.49,1-.2,2-1.27,2.81-1.85l.1-.06a8.87,8.87,0,0,0,4.33,2.13c.22-1.19-.9-2.67-1.35-3.73Z"/><path class="cls-3" d="M436.21,624.28l.28-.17c1.3-.86,2.62-1.47,3.92-2.27-1-.52-2.39-.24-3.5-.29-.62,0-1.25-.08-1.88-.14-.05-.16-.11-.32-.15-.49a21,21,0,0,0-1.41-4.61,37.85,37.85,0,0,0-1.44,4.86c-1.54-.15-3.48-.43-4.75.07.28.73,1.7,1.54,2.36,2s1.1.79,1.63,1.2c-.27,1.2-.56,2.37-.89,3.49,1-.2,2-1.27,2.81-1.85l.1-.06a8.87,8.87,0,0,0,4.33,2.13c.22-1.19-.9-2.67-1.35-3.73Z"/><path class="cls-3" d="M634.43,569.09l.28-.17c1.3-.86,2.62-1.47,3.92-2.27-1-.52-2.39-.24-3.5-.29-.62,0-1.25-.08-1.88-.14-.05-.16-.11-.32-.15-.49a21,21,0,0,0-1.41-4.61,37.85,37.85,0,0,0-1.44,4.86c-1.54-.15-3.48-.43-4.75.07.28.73,1.7,1.54,2.36,2s1.1.79,1.63,1.2c-.27,1.2-.56,2.37-.89,3.49,1-.2,2-1.27,2.81-1.85l.1-.06a8.87,8.87,0,0,0,4.33,2.13c.22-1.19-.9-2.67-1.35-3.73Z"/><path class="cls-3" d="M277.7,668.43l.28-.17c1.3-.86,2.62-1.47,3.92-2.27-1-.52-2.39-.24-3.5-.29-.62,0-1.25-.08-1.88-.14-.05-.16-.11-.32-.15-.49a21,21,0,0,0-1.41-4.61,37.85,37.85,0,0,0-1.44,4.86c-1.54-.15-3.48-.43-4.75.07.28.73,1.7,1.54,2.36,2s1.1.79,1.63,1.2c-.27,1.2-.56,2.37-.89,3.49,1-.2,2-1.27,2.81-1.85l.1-.06a8.87,8.87,0,0,0,4.33,2.13c.22-1.19-.9-2.67-1.35-3.73Z"/><path class="cls-3" d="M398.52,694.86l.28-.17c1.3-.86,2.62-1.47,3.92-2.27-1-.52-2.39-.24-3.5-.29-.62,0-1.25-.08-1.88-.14-.05-.16-.11-.32-.15-.49a21,21,0,0,0-1.41-4.61,37.85,37.85,0,0,0-1.44,4.86c-1.54-.15-3.48-.43-4.75.07.28.73,1.7,1.54,2.36,2s1.1.79,1.63,1.2c-.27,1.2-.56,2.37-.89,3.49,1-.2,2-1.27,2.81-1.85l.1-.06a8.87,8.87,0,0,0,4.33,2.13c.22-1.19-.9-2.67-1.35-3.73Z"/><path class="cls-3" d="M539.75,684.88l.28-.17c1.3-.86,2.62-1.47,3.92-2.27-1-.52-2.39-.24-3.5-.29-.62,0-1.25-.08-1.88-.14-.05-.16-.11-.32-.15-.49a21,21,0,0,0-1.41-4.61,37.85,37.85,0,0,0-1.44,4.86c-1.54-.15-3.48-.43-4.75.07.28.73,1.7,1.54,2.36,2s1.1.79,1.63,1.2c-.27,1.2-.56,2.37-.89,3.49,1-.2,2-1.27,2.81-1.85l.1-.06a8.87,8.87,0,0,0,4.33,2.13c.22-1.19-.9-2.67-1.35-3.73Z"/><path class="cls-3" d="M225,444.61l.28-.17c1.3-.86,2.62-1.47,3.92-2.27-1-.52-2.39-.24-3.5-.29-.62,0-1.25-.08-1.88-.14-.05-.16-.11-.32-.15-.49a21,21,0,0,0-1.41-4.61,37.85,37.85,0,0,0-1.44,4.86c-1.54-.15-3.48-.43-4.75.07.28.73,1.7,1.54,2.36,2s1.1.79,1.63,1.2c-.27,1.2-.56,2.37-.89,3.49,1-.2,2-1.27,2.81-1.85l.1-.06a8.87,8.87,0,0,0,4.33,2.13c.22-1.19-.9-2.67-1.35-3.73Z"/><path class="cls-3" d="M146.26,562.91l.28-.17c1.3-.86,2.62-1.47,3.92-2.27-1-.52-2.39-.24-3.5-.29-.62,0-1.25-.08-1.88-.14-.05-.16-.11-.32-.15-.49a21,21,0,0,0-1.41-4.61,37.85,37.85,0,0,0-1.44,4.86c-1.54-.15-3.48-.43-4.75.07.28.73,1.7,1.54,2.36,2s1.1.79,1.63,1.2c-.27,1.2-.56,2.37-.89,3.49,1-.2,2-1.27,2.81-1.85l.1-.06a8.87,8.87,0,0,0,4.33,2.13c.22-1.19-.9-2.67-1.35-3.73Z"/><path class="cls-3" d="M496.56,160.06l.28-.17c1.3-.86,2.62-1.47,3.92-2.27-1-.52-2.39-.24-3.5-.29-.62,0-1.25-.08-1.88-.14-.05-.16-.11-.32-.15-.49a21,21,0,0,0-1.41-4.61,37.85,37.85,0,0,0-1.44,4.86c-1.54-.15-3.48-.43-4.75.07.28.73,1.7,1.54,2.36,2s1.1.79,1.63,1.2c-.27,1.2-.56,2.37-.89,3.49,1-.2,2-1.27,2.81-1.85l.1-.06a8.87,8.87,0,0,0,4.33,2.13c.22-1.19-.9-2.67-1.35-3.73Z"/><path class="cls-3" d="M193.94,204.87l.28-.17c1.3-.86,2.62-1.47,3.92-2.27-1-.52-2.39-.24-3.5-.29-.62,0-1.25-.08-1.88-.14-.05-.16-.11-.32-.15-.49a21,21,0,0,0-1.41-4.61,37.85,37.85,0,0,0-1.44,4.86c-1.54-.15-3.48-.43-4.75.07.28.73,1.7,1.54,2.36,2s1.1.79,1.63,1.2c-.27,1.2-.56,2.37-.89,3.49,1-.2,2-1.27,2.81-1.85l.1-.06a8.87,8.87,0,0,0,4.33,2.13c.22-1.19-.9-2.67-1.35-3.73Z"/><path class="cls-4" d="M464.05,484.45l.42-.17c2-.84,3.9-1.36,5.85-2.14-1.18-.94-3.17-.89-4.66-1.23-.83-.19-1.67-.41-2.51-.64,0-.23-.07-.46-.09-.69a28.88,28.88,0,0,0-.8-6.58,52,52,0,0,0-3.12,6.23c-2-.57-4.61-1.42-6.44-1,.2,1.06,1.93,2.49,2.71,3.28s1.29,1.34,1.92,2c-.66,1.55-1.32,3.07-2,4.5,1.39,0,2.95-1.24,4.25-1.82l.15-.06c1.47,1.62,3.28,3.39,5.34,3.92.59-1.56-.58-3.82-.93-5.37Z"/><path class="cls-7" d="M495.36,480.47l.26-.1c1.22-.52,2.42-.84,3.63-1.33-.73-.58-2-.56-2.89-.76-.52-.12-1-.26-1.56-.4,0-.14,0-.29-.06-.43a17.93,17.93,0,0,0-.5-4.09,32.28,32.28,0,0,0-1.93,3.87c-1.27-.35-2.86-.88-4-.65.13.66,1.2,1.55,1.68,2s.8.83,1.19,1.25c-.41,1-.82,1.91-1.27,2.79.86,0,1.83-.77,2.64-1.13l.09,0a7.56,7.56,0,0,0,3.32,2.43c.37-1-.36-2.37-.58-3.33Z"/></g><g id="LINEART"><path d="M187.42,420c-16.16,0-31.83-10.28-37-25.23a67.59,67.59,0,0,1-3.37-21c-.29-21.34,9.44-41.12,18.84-60.26,1.59-3.24,3.24-6.59,4.77-9.83,4.92-10.4,10.38-21.34,18.12-30.68a52.13,52.13,0,0,1,13.54-12,34.35,34.35,0,0,1,20.45-4.61,1.82,1.82,0,1,1-.37,3.63,30.67,30.67,0,0,0-18.23,4.13,48.59,48.59,0,0,0-12.59,11.2c-7.47,9-12.81,19.72-17.63,29.91-1.54,3.26-3.2,6.63-4.8,9.88-9.21,18.75-18.74,38.13-18.47,58.6a64,64,0,0,0,3.17,19.83c5.32,15.52,23.27,25.45,40,22.14,9.09-1.8,17.59-6.67,24.85-11.1,8.41-5.13,16-11.65,22.46-17.36,1.59-1.41,3.2-2.8,4.82-4.19A153.43,153.43,0,0,0,261,369a1.82,1.82,0,1,1,2.73,2.42,156.21,156.21,0,0,1-15.29,14.43c-1.6,1.38-3.2,2.76-4.78,4.16-6.58,5.81-14.32,12.46-23,17.74-7.52,4.59-16.36,9.65-26,11.57A37.08,37.08,0,0,1,187.42,420Z"/><path d="M376.23,589.22H365.48a120.39,120.39,0,0,1-70-21.84c-20.49-14.49-33.19-33.28-40-59.12-4.16-15.9-6.85-33.27-8.23-53.1-.54-7.77-.83-16-.85-24.33A448.65,448.65,0,0,1,249,382.43a1.82,1.82,0,0,1,3.63.38,444.84,444.84,0,0,0-2.55,48c0,8.3.31,16.4.84,24.09,1.36,19.61,4,36.76,8.13,52.43,6.54,25,18.78,43.1,38.53,57.07a116.76,116.76,0,0,0,67.87,21.17h5.42c14.88,0,30.25,0,45.29-1.25a193.28,193.28,0,0,0,25.65-3.77c10.36-2.31,17.79-4.18,26.38-9,8.85-4.94,18.11-10.67,25.84-19.12,10.51-11.5,18.75-26.55,23.81-43.54,5.16-17.29,1.55-41.6-9-60.5-8.05-14.46-19.4-24.29-32-27.69a1.82,1.82,0,1,1,1-3.52c13.52,3.66,25.66,14.11,34.2,29.43,11,19.7,14.71,45.15,9.29,63.32-5.22,17.51-13.74,33.06-24.62,45-8.08,8.83-17.63,14.76-26.76,19.85s-17,7-27.36,9.34A197,197,0,0,1,416.5,588C403.11,589.1,389.51,589.22,376.23,589.22Z"/><path d="M583.42,640.2c-6,0-17.93-3.56-22.69-5.51-18.44-7.58-35.87-18.41-46.62-29-1.71-1.69-3.37-3.45-5.06-5.39a1.82,1.82,0,1,1,2.75-2.4c1.63,1.87,3.23,3.57,4.87,5.19,10.42,10.26,27.41,20.81,45.44,28.21,4.75,2,17,5.51,21.82,5.23a1.82,1.82,0,1,1,.21,3.64Z"/><path d="M577.92,655c-2.9,0-7.15-1.4-11.26-2.76-1.71-.57-3.33-1.1-4.75-1.5-1.74-.49-3.43-.94-5.11-1.38-2.9-.77-5.65-1.49-8.55-2.4-3.87-1.22-7.61-2.35-11.3-3.47-6.89-2.09-13.39-4.06-20.44-6.46a82.16,82.16,0,0,1-28.86-16.67,240.88,240.88,0,0,1-17.5-17.18l-1.34-1.41c-6.4-6.72-13-13.67-16-21.85a1.82,1.82,0,0,1,3.42-1.25c2.73,7.46,9.08,14.14,15.22,20.59l1.34,1.41A234.71,234.71,0,0,0,490,617.57a78.78,78.78,0,0,0,27.66,16c7,2.39,13.47,4.35,20.32,6.43,3.7,1.12,7.45,2.26,11.34,3.48,2.82.89,5.52,1.6,8.39,2.35,1.69.45,3.4.9,5.16,1.39,1.49.42,3.15,1,4.9,1.55,3.77,1.25,8,2.67,10.29,2.58h.07a1.82,1.82,0,0,1,.06,3.64Z"/><path d="M592.26,628.86h-.1a123.58,123.58,0,0,1-18.15-2.5c-9.58-1.93-18.79-5.39-27.69-8.74-2-.74-3.95-1.48-5.92-2.21-13.14-4.82-25.51-11.61-34.83-17-14.32-8.26-26.94-16.26-37.52-23.78a1.82,1.82,0,1,1,2.11-3c10.49,7.45,23,15.39,37.23,23.59,9.18,5.3,21.38,12,34.26,16.71,2,.73,4,1.47,5.95,2.22,8.77,3.3,17.83,6.71,27.13,8.58a120.18,120.18,0,0,0,17.63,2.43,1.82,1.82,0,0,1-.1,3.64Z"/><path d="M596.52,613.52a1.83,1.83,0,0,1-.38,0,120.15,120.15,0,0,1-22.78-6.84c-13.77-5.78-24.7-14.13-36.28-23q-3-2.28-6-4.59l-2.63-1.94c-5.73-4.21-11.66-8.56-15-15.25-2.55-5.12-4-14.09-5.24-21.3-.36-2.19-.68-4.07-1-5.57a1.82,1.82,0,1,1,3.58-.71c.31,1.55.63,3.47,1,5.68,1.1,6.6,2.6,15.65,4.91,20.28,2.94,5.9,8.25,9.8,13.88,13.93.89.65,1.78,1.3,2.66,2q3.07,2.31,6.06,4.61c11.38,8.69,22.13,16.9,35.48,22.5a116.86,116.86,0,0,0,22.13,6.63,1.82,1.82,0,0,1-.38,3.61Z"/><path d="M220.08,682.79a1.82,1.82,0,0,1-1.82-1.78c-.21-8.38,3-19.94,4.71-26.16,3.73-13.45,9.85-26.68,15.77-39.47,2.44-5.28,5-10.74,7.25-16.06,4.44-10.36,9-20,13.46-28.79,1.24-2.41,2.77-5,4.24-7.55,1-1.76,2.09-3.58,3-5.26.62-1.13,1.36-2.51,2.14-4,1.65-3.08,3.51-6.58,4.93-8.93a1.82,1.82,0,1,1,3.13,1.88c-1.37,2.28-3.21,5.73-4.84,8.78-.79,1.47-1.53,2.86-2.15,4-.94,1.72-2,3.56-3.06,5.35-1.45,2.48-3,5.05-4.15,7.38-4.45,8.67-8.95,18.27-13.36,28.56-2.3,5.37-4.84,10.86-7.29,16.16-5.86,12.66-11.92,25.76-15.57,38.92-1.67,6-4.78,17.25-4.58,25.09a1.82,1.82,0,0,1-1.78,1.87Z"/><path d="M237.86,679.6a1.84,1.84,0,0,1-.37,0,1.82,1.82,0,0,1-1.42-2.15c.41-2,.72-4,1-6.05a81.14,81.14,0,0,1,1.74-9.1,1.82,1.82,0,1,1,3.52,1,77.37,77.37,0,0,0-1.65,8.69c-.31,2-.63,4.16-1.06,6.24A1.82,1.82,0,0,1,237.86,679.6Z"/><path d="M240.59,664.56a1.82,1.82,0,0,1-1.65-2.6,89.55,89.55,0,0,1,6.36-10.51c1.28-1.92,2.49-3.73,3.48-5.37,10-16.69,22.58-32.26,34.72-47.31q3.89-4.83,7.73-9.62c3.32-4.17,9.15-9.45,13.83-13.69,1.19-1.07,2.29-2.08,3.25-3a1.82,1.82,0,0,1,2.48,2.68c-1,.9-2.08,1.91-3.28,3-4.59,4.15-10.3,9.33-13.43,13.26q-3.83,4.81-7.74,9.64c-12.05,15-24.52,30.42-34.43,46.9-1,1.71-2.26,3.56-3.57,5.52a87.21,87.21,0,0,0-6.1,10A1.82,1.82,0,0,1,240.59,664.56Z"/><path d="M230.21,568.86a1.82,1.82,0,0,1-.6-3.54c3.68-1.28,7.11-2.57,10.42-3.82,9.59-3.62,18.66-7,30.29-8.61a1.82,1.82,0,1,1,.49,3.61c-11.23,1.52-19.69,4.71-29.5,8.41-3.33,1.26-6.78,2.56-10.51,3.86A1.81,1.81,0,0,1,230.21,568.86Z"/><path d="M210.06,612.15a1.82,1.82,0,0,1-1.82-1.82c0-2.86-.25-5.72-.5-8.5a80,80,0,0,1-.45-10.87c.14-3,.14-6.17.14-9.49,0-13.25,0-28.28,9.86-38.59a70.16,70.16,0,0,1,12.48-10.1c3.72-2.44,7.61-4.7,11.38-6.88l2.39-1.38c2-1.18,4.41-2.58,6.77-4.07,1.36-.85,2.7-1.81,4-2.73.8-.56,1.59-1.13,2.4-1.67l2.06-1.4a1.82,1.82,0,1,1,2.05,3l-2.06,1.4c-.79.53-1.56,1.08-2.34,1.64-1.34.95-2.73,1.93-4.17,2.84-2.4,1.51-4.82,2.94-6.87,4.13L243,529.07c-3.72,2.15-7.57,4.38-11.2,6.77a66.65,66.65,0,0,0-11.85,9.57c-8.85,9.25-8.85,22.89-8.85,36.07,0,3.37,0,6.55-.15,9.66a76.08,76.08,0,0,0,.44,10.37c.25,2.85.51,5.8.51,8.82A1.82,1.82,0,0,1,210.06,612.15Z"/><path d="M225.1,612.61H225a1.82,1.82,0,0,1-1.71-1.93,140.63,140.63,0,0,1,2.61-18q.28-1.49.56-3a91.89,91.89,0,0,1,2.56-9.6c1.51-5,3.08-10.13,3.15-14.43a1.82,1.82,0,0,1,1.82-1.79h0a1.82,1.82,0,0,1,1.79,1.85c-.08,4.81-1.72,10.21-3.31,15.43a89.41,89.41,0,0,0-2.47,9.21q-.28,1.52-.57,3a137.77,137.77,0,0,0-2.55,17.54A1.82,1.82,0,0,1,225.1,612.61Z"/><path d="M216.54,613.57c-3.06,0-6.08-.45-7.69-1.88a1.82,1.82,0,1,1,2.42-2.72c1.69,1.5,9.29,1.07,13.39,0a1.82,1.82,0,0,1,.88,3.54A43.45,43.45,0,0,1,216.54,613.57Z"/><path d="M210.52,636.31a1.82,1.82,0,0,1-1.68-1.1c-2.84-6.6-3-15.11-.55-25.3a1.82,1.82,0,0,1,3.54.86c-2.28,9.41-2.16,17.15.36,23a1.82,1.82,0,0,1-1.67,2.54Z"/><path d="M211.17,636.34a7,7,0,0,1-.89-.05,1.82,1.82,0,0,1,.46-3.62c3.08.4,12.49-2.77,14-7.82a1.82,1.82,0,1,1,3.5,1C226.2,632.77,215.88,636.34,211.17,636.34Z"/><path d="M226.47,627.19h-.19a1.82,1.82,0,0,1-1.62-2,45.5,45.5,0,0,0-1.32-13.94,1.82,1.82,0,1,1,3.53-.91,48.93,48.93,0,0,1,1.42,15.23A1.82,1.82,0,0,1,226.47,627.19Z"/><path d="M226.53,684.47a14,14,0,0,1-7.41-2,1.82,1.82,0,0,1,1.93-3.09c4.32,2.7,12,1.31,15.41-2.82a1.82,1.82,0,0,1,2.79,2.34A16.92,16.92,0,0,1,226.53,684.47Z"/><path d="M240.59,664.56h-.13c-6.27-.45-12.75-1.35-17.59-4.93A1.82,1.82,0,1,1,225,656.7c4.09,3,10,3.82,15.68,4.22a1.82,1.82,0,0,1-.13,3.64Z"/><path d="M224.42,269.9a1.82,1.82,0,0,1-1.51-.8c-1.77-2.61-1.87-5.68-2-8.4,0-.81-.05-1.58-.12-2.31-.25-2.79-.28-5.61-.31-8.34,0-2.2-.05-4.48-.2-6.67-.37-5.63-.78-12,.07-18.06.18-1.31.36-2.61.54-3.92.34-2.53.69-5.15,1.1-7.73a85.15,85.15,0,0,1,4.81-18.74,1.82,1.82,0,1,1,3.38,1.38,81.76,81.76,0,0,0-4.58,17.93c-.4,2.54-.75,5.13-1.09,7.65-.18,1.31-.35,2.63-.54,3.94-.8,5.68-.4,11.86,0,17.31.15,2.29.18,4.62.21,6.87,0,2.66.06,5.41.3,8.06.07.84.1,1.69.13,2.51.08,2.43.16,4.73,1.34,6.47a1.82,1.82,0,0,1-1.51,2.85Z"/><path d="M233.63,271.74a24,24,0,0,1-10-2,1.82,1.82,0,1,1,1.61-3.27,20.7,20.7,0,0,0,9.37,1.64c3.46-.15,8.13-1.67,10.2-4.68a1.82,1.82,0,1,1,3,2.07c-3,4.34-8.89,6.08-13,6.26Z"/><path d="M246.29,266.25a1.82,1.82,0,0,1-1.78-2.22,29.2,29.2,0,0,0-.9-3.62c-.34-1.17-.63-2.18-.76-2.9-.46-2.57-1-5.13-1.53-7.75-.67-3.23-1.3-6.5-1.91-9.66-1.23-6.38-2.5-13-4.12-19.31-.58-2.26-1.05-4.32-1.51-6.32-.64-2.77-1.24-5.38-2-8.2a38.09,38.09,0,0,0-4.71-9.6,1.82,1.82,0,0,1,3-2.12,41.16,41.16,0,0,1,5.26,10.72c.82,2.91,1.44,5.56,2.08,8.38.46,2,.93,4,1.49,6.23,1.65,6.45,2.93,13.1,4.17,19.53.61,3.15,1.23,6.4,1.9,9.61.55,2.64,1.08,5.23,1.55,7.85.1.54.39,1.55.67,2.53,1,3.33,1.29,4.69.87,5.72A1.82,1.82,0,0,1,246.29,266.25Zm-1.69-2.51h0Z"/><path d="M394.51,481.38a29.71,29.71,0,0,1-8-1c-5.2-1.45-8.59-2.86-12.74-6.54-2.69-2.39-4.27-5.94-5.66-9.08l-.49-1.09a49.53,49.53,0,0,1-2.45-7.49c-1.3-4.83-2.53-9.39-6.2-12.38-5.7-4.64-14.31-4-20.29-3.07-1.91.29-3.8.61-5.69.93-7.33,1.25-14.92,2.55-22.75,1.59-11.81-1.44-18.49-13.13-21.42-20a18.08,18.08,0,0,1-1.1-12.58,130,130,0,0,1,6.9-17.41c.84-1.86,1.69-3.73,2.52-5.64a44.71,44.71,0,0,1,2.41-4.45c2.15-3.66,4.84-8.22,3.9-11a4.5,4.5,0,0,0-2.81-2.56,28.5,28.5,0,0,0-7.76-1.67,36.6,36.6,0,0,1-7.4-1.43c-4-1.35-7.28-4.52-9.73-9.44-3-6.1-2-12.24-1-18.18.29-1.67.59-3.39.78-5.06.93-8.1-.44-13.56-4.56-18.25l-.84-.94c-2.82-3.18-5.26-5.92-6.29-10.93-1.22-5.93-1.25-10.76-.09-15.19.2-.76.41-1.49.61-2.21,1-3.57,1.89-6.65.85-10.77a1.82,1.82,0,1,1,3.54-.88c1.27,5.07.22,8.75-.88,12.65-.2.7-.4,1.4-.59,2.13-1,3.87-1,8.17.13,13.53.84,4.06,2.77,6.24,5.45,9.25l.85,1c6.17,7,6.15,14.95,5.45,21.08-.2,1.77-.51,3.55-.81,5.27-1,5.61-1.88,10.9.63,15.93,2,4.08,4.54,6.57,7.64,7.61a33.37,33.37,0,0,0,6.67,1.26,31.69,31.69,0,0,1,8.74,1.93A8,8,0,0,1,307,371c1.45,4.38-1.56,9.51-4.22,14a42.74,42.74,0,0,0-2.21,4.05c-.84,1.93-1.7,3.82-2.54,5.69a127.26,127.26,0,0,0-6.73,16.93,14.4,14.4,0,0,0,1,10.12c2.62,6.12,8.51,16.58,18.51,17.79,7.31.89,14.3-.31,21.7-1.57,1.9-.33,3.82-.65,5.75-.95,6.66-1,16.31-1.71,23.14,3.85,4.58,3.73,6,9.08,7.42,14.26a46.19,46.19,0,0,0,2.25,6.94l.5,1.12c1.24,2.8,2.65,6,4.75,7.83,3.63,3.23,6.54,4.43,11.29,5.75,7.79,2.17,18-.16,25.11-2.49,6.39-2.08,11.67-8,16.32-13.16.86-1,1.71-1.91,2.55-2.81,2.68-2.89,5.13-6.09,7.5-9.19s5-6.53,7.83-9.56l1.55-1.66c4-4.33,8.16-8.8,13.42-12,1.41-.85,2.82-1.59,4.19-2.3.78-.41,1.56-.81,2.35-1.25,7.35-4,12.95-10.95,14.61-18A18.63,18.63,0,0,0,479.89,389c-2-2.94-10.11-7.9-13.28-8.55-5.42-1.11-14.56,1.06-18.46,2-10.76,2.58-16.95-11.12-19.92-17.7s-9.49-9.81-17.14-8.65c-3.79.58-7.34,2.16-11.1,3.83-4.88,2.17-9.94,4.43-15.6,4.35-3.61,0-9-1.35-12.26-4.92a9.63,9.63,0,0,1-2.57-7.42,40.58,40.58,0,0,1,1.38-7,33.43,33.43,0,0,0,1.35-7.44c0-.94.08-1.92.13-2.92.23-4.27.47-8.68-1.11-12.16-1.81-4-7.22-7.39-11.14-9.59s-8.75-2.57-13.43-2.93l-1.15-.09c-1-.08-9.63-.86-13.82-4.55-5-4.4-5.11-12.7-5.19-19.37,0-1.33,0-2.58-.09-3.66l-.06-1.24c-.49-9.64-1.16-22.84-10.79-26.19-4-1.38-7.34-.84-11.61-.16a58.24,58.24,0,0,1-12.6.94,24.4,24.4,0,0,1-10.66-2.4l-.9-.43a56.3,56.3,0,0,1-8.38-4.56,1.82,1.82,0,0,1,2.09-3,53.57,53.57,0,0,0,7.85,4.25l.91.43c3.25,1.54,5.4,1.87,9.27,2a54.92,54.92,0,0,0,11.81-.89c4.63-.74,8.58-1.37,13.42.31,11.95,4.15,12.72,19.37,13.24,29.44l.06,1.23c.06,1.16.08,2.44.1,3.81.08,5.95.17,13.35,4,16.68,2.23,2,7.58,3.33,11.7,3.65l1.14.09c5.08.39,10.32.79,14.94,3.39s10.45,6.35,12.67,11.27c1.94,4.29,1.67,9.37,1.43,13.86-.05,1-.1,1.92-.13,2.83a36.73,36.73,0,0,1-1.47,8.25,37.23,37.23,0,0,0-1.27,6.37,6,6,0,0,0,1.62,4.67c2.32,2.53,6.49,3.7,9.6,3.73,4.86,0,9.35-1.93,14.08-4,3.82-1.69,7.76-3.44,12-4.1,9.19-1.41,17.44,2.81,21,10.75,4.1,9.1,8.85,17.3,15.75,15.65,6.44-1.53,14.53-3.14,20-2,4,.82,12.91,6.25,15.54,10a22.43,22.43,0,0,1,3.63,18.37c-1.9,8.08-8.18,15.9-16.41,20.42-.81.44-1.62.86-2.42,1.28-1.38.72-2.68,1.39-4,2.18-4.82,2.92-8.8,7.21-12.64,11.35l-1.56,1.68c-2.71,2.89-5.19,6.14-7.6,9.28s-4.92,6.43-7.72,9.45c-.82.89-1.66,1.82-2.51,2.76-5,5.53-10.59,11.8-17.91,14.19C408.35,479.62,401.26,481.38,394.51,481.38Z"/><path d="M265,241.44a1.82,1.82,0,0,1-1.27-.51,21.77,21.77,0,0,0-2.57-2.18,27,27,0,0,0-5.89-2.83,44.23,44.23,0,0,1-4.38-1.88c-3.49-1.81-6.77-1.5-10.94-.42a1.82,1.82,0,0,1-.91-3.53c3.92-1,8.53-1.88,13.53.72a40.87,40.87,0,0,0,4,1.72,30.14,30.14,0,0,1,6.67,3.25,25.36,25.36,0,0,1,3,2.54,1.82,1.82,0,0,1-1.27,3.13Z"/><path d="M213.48,260.54a1.82,1.82,0,0,1-1.82-1.82c0-4.86,1.56-10.25,2.81-14.58l.24-.84a12.17,12.17,0,0,1,6.16-7.51,1.82,1.82,0,1,1,1.83,3.16,8.67,8.67,0,0,0-4.48,5.37l-.24.84c-1.25,4.32-2.67,9.22-2.67,13.56A1.82,1.82,0,0,1,213.48,260.54Z"/><path d="M253.26,265.35a1.82,1.82,0,0,1-.87-.22A27.77,27.77,0,0,0,246,263a1.8,1.8,0,0,1-2.06-1.51,1.85,1.85,0,0,1,1.53-2.1c2.19-.36,8,2.14,8.7,2.51a1.82,1.82,0,0,1-.87,3.42Z"/><path d="M252.44,274.68a1.82,1.82,0,0,1-1.82-1.82c0-12.2,3.7-22.45,12-33.23a31.46,31.46,0,0,1,6.68-6.07l.28-.21a1.82,1.82,0,1,1,2.18,2.92l-.28.21a28.25,28.25,0,0,0-6,5.37c-7.88,10.24-11.24,19.52-11.24,31A1.82,1.82,0,0,1,252.44,274.68Z"/><path d="M263.15,282.2a1.82,1.82,0,0,1-1-3.35,22.79,22.79,0,0,0,3.81-5.53c1.93-4,2.8-9,3.64-13.81.22-1.26.43-2.49.66-3.68a43,43,0,0,0,.4-10.45c0-.7,0-1.49-.06-2.31,0-2.43-.08-5.45-.87-7a1.82,1.82,0,1,1,3.23-1.69c1.2,2.29,1.24,5.64,1.28,8.6,0,.78,0,1.52.05,2.18a46.14,46.14,0,0,1-.47,11.32c-.23,1.17-.44,2.38-.65,3.61-.88,5.06-1.8,10.3-3.94,14.77-.73,1.52-3.32,5.84-5.09,7A1.82,1.82,0,0,1,263.15,282.2Z"/><path d="M203.31,264.42a1.82,1.82,0,0,1-1.55-.85c-5.68-9.06-7.39-23.25-4.16-34.5a1.82,1.82,0,0,1,3.5,1c-2.92,10.17-1.34,23.44,3.75,31.56a1.82,1.82,0,0,1-1.54,2.79Z"/><path d="M214.67,252.12a1.82,1.82,0,0,1-1.76-1.35c-1.49-5.54-3-8.89-5.12-11.21-.47-.51-.93-1-1.41-1.59-2.34-2.67-4.77-5.44-7.77-6.74a1.82,1.82,0,1,1,1.45-3.34c3.75,1.63,6.57,4.84,9.06,7.68.46.53.92,1,1.37,1.54,3.16,3.49,4.77,8.38,5.94,12.71a1.82,1.82,0,0,1-1.76,2.3Z"/><path d="M577.86,504.15a17.9,17.9,0,0,1-9.16-2.51c-6.5-3.84-13.53-10.51-18.78-17.84l-.89-1.24c-8.4-11.74-15-21-31.78-18.52a1.82,1.82,0,1,1-.54-3.61c18.95-2.82,26.88,8.27,35.28,20l.88,1.23c4.9,6.83,11.67,13.28,17.68,16.82,6.39,3.77,14.21,2.23,19.92-3.93a36.15,36.15,0,0,0,4.82-7.29c2.76-5,5.62-10.2,12.53-12.25,5.77-1.71,11.84-.45,17.72.77,4.43.92,8.63,1.79,12.63,1.47,5.77-.47,7.88-5.09,10.33-10.43l.44-1c.49-1.06.95-2.11,1.41-3.15,2.91-6.61,5.65-12.85,12.8-16.89a27.05,27.05,0,0,1,5.78-2.19c2.92-.86,5.67-1.66,7.54-3.84,4.22-4.92,6.4-9.33,5.54-11.23-.63-1.4-3.37-1.66-4.95-1.69-7.22-.13-14.51-.21-21.68-.25-1.47,0-3,0-4.53.08-5.53.15-11.24.31-16.58-1.62-3.07-1.11-4.77-3.05-6.41-4.93a23.14,23.14,0,0,0-2.55-2.63c-2.43-2-6.65-1.9-9.52-1.16-2,.52-3.38,1.85-5,3.4-.64.62-1.31,1.27-2,1.88a36.9,36.9,0,0,1-9,5.3c-5.62,2.45-11.7,3-16.26,1.39-3-1-5.56-3.14-8-5.18-1.12-.92-2.17-1.79-3.19-2.49a45.28,45.28,0,0,0-23.31-8c-10-.51-24.56,2.49-32.7,12.65-.9,1.13-1.85,2.25-2.8,3.37-2.75,3.24-5.6,6.59-7.33,10.35a1.82,1.82,0,1,1-3.31-1.52c1.94-4.21,5-7.76,7.86-11.19.93-1.09,1.85-2.18,2.74-3.28,7.4-9.25,21.44-14.76,35.73-14a48.91,48.91,0,0,1,25.19,8.61c1.15.79,2.26,1.71,3.44,2.68,2.22,1.83,4.51,3.72,6.9,4.55,4.37,1.51,9.9.32,13.61-1.29a33.38,33.38,0,0,0,8.15-4.75c.63-.53,1.22-1.1,1.85-1.71,1.81-1.75,3.67-3.56,6.61-4.31,3.89-1,9.29-1,12.77,1.89a26.27,26.27,0,0,1,3,3c1.46,1.67,2.71,3.11,4.9,3.9,4.69,1.69,10.05,1.55,15.24,1.4,1.54,0,3.13-.08,4.64-.08,7.19,0,14.5.12,21.73.25,4.34.08,7.1,1.37,8.21,3.84,1.94,4.33-2.25,10.6-6.1,15.1-2.57,3-6.14,4-9.28,5a24,24,0,0,0-5,1.87c-6.09,3.44-8.48,8.88-11.25,15.18-.47,1.06-.94,2.13-1.43,3.21l-.43.95c-2.55,5.58-5.44,11.91-13.35,12.55-4.53.37-9.17-.6-13.67-1.53-5.68-1.18-11-2.3-15.94-.85-5.48,1.63-7.75,5.74-10.37,10.51a38.92,38.92,0,0,1-5.34,8A21,21,0,0,1,577.86,504.15Z"/><path d="M474.47,223.85a1.82,1.82,0,0,1-1.8-1.52,27.51,27.51,0,0,0-8.51-15c-7.67-7.29-18.86-12.9-30.7-15.41-24.23-5.13-57.29,2.09-70.86,25.6a1.82,1.82,0,1,1-3.16-1.82c14.42-25,49.29-32.75,74.77-27.34,12.67,2.69,24.19,8.49,32.45,16.34a31.16,31.16,0,0,1,9.59,17,1.82,1.82,0,0,1-1.5,2.1Z"/><path d="M337.49,308.07a1.82,1.82,0,0,1-1.8-1.54c-.58-3.71.27-10.33.84-14.72l.15-1.21c.37-3,1.08-6.28,1.76-9.49.72-3.41,1.41-6.63,1.69-9.29a1.82,1.82,0,0,1,3.63.38c-.3,2.85-1,6.16-1.75,9.67-.67,3.14-1.36,6.39-1.71,9.19l-.16,1.22c-.5,3.92-1.35,10.49-.85,13.69a1.82,1.82,0,0,1-1.52,2.08Z"/><path d="M482.59,391.61a1.82,1.82,0,0,1-1.09-3.29c5.53-4.11,9.54-16.71,10.2-23.84,1-11.27-1.23-22.44-3.44-33.24-.87-4.25-1.76-8.64-2.45-13A204.81,204.81,0,0,1,483,294.35c-.15-4,0-9.41.11-14.66.08-3.34.16-6.5.16-9.12a1.82,1.82,0,0,1,3.65,0c0,2.67-.08,5.85-.16,9.21-.13,5.19-.26,10.56-.11,14.43a205.62,205.62,0,0,0,2.73,23.48c.67,4.26,1.56,8.62,2.42,12.82,2.26,11.06,4.59,22.5,3.49,34.31-.71,7.69-4.91,21.41-11.65,26.43A1.81,1.81,0,0,1,482.59,391.61Z"/><path d="M461.62,283.17a32.87,32.87,0,1,1,32.87-32.87A32.91,32.91,0,0,1,461.62,283.17Zm0-62.09a29.22,29.22,0,1,0,29.22,29.22A29.26,29.26,0,0,0,461.62,221.08Z"/><circle cx="469.95" cy="232.66" r="4.74" transform="translate(-26.87 400.45) rotate(-45)"/><circle cx="378.54" cy="236.82" r="4.74" transform="translate(-56.59 337.03) rotate(-45)"/><path d="M361.21,280.53a32.87,32.87,0,1,1,32.87-32.87A32.91,32.91,0,0,1,361.21,280.53Zm0-62.09a29.22,29.22,0,1,0,29.22,29.22A29.26,29.26,0,0,0,361.21,218.44Z"/><path d="M370,317.08a1.61,1.61,0,0,1-1.08-2.81,37.32,37.32,0,0,1,5.76-4,37.72,37.72,0,0,0,5.32-3.64c3.69-3.21,8.36-10,7.24-12.72-.6-1.47-3.44-1.54-5.08-1.44-7.09.41-20.81,5.23-26.12,10.06a1.61,1.61,0,1,1-2.17-2.39c5.86-5.33,20.36-10.45,28.11-10.9,4.44-.25,7.21.9,8.25,3.44,2.1,5.15-4.69,13.4-8.11,16.37a40.22,40.22,0,0,1-5.77,4,34.33,34.33,0,0,0-5.27,3.63A1.61,1.61,0,0,1,370,317.08Z"/><path d="M486.81,314.35a1.61,1.61,0,0,1-.93-2.93,69.64,69.64,0,0,0,7.63-7c1.69-1.68,3.28-3.28,4.69-4.5.37-.33.86-.73,1.43-1.21,2.81-2.34,10.28-8.56,9.64-11.84-.18-.92-1.19-1.69-3-2.26-6.49-2.06-15.88,2.92-20.16,7.31a1.61,1.61,0,0,1-2.31-2.25c4.68-4.79,15.36-10.69,23.44-8.13,3,1,4.78,2.55,5.2,4.72.93,4.76-5.05,10.21-10.74,14.94-.54.45-1,.84-1.37,1.15-1.32,1.16-2.88,2.71-4.53,4.36a71.35,71.35,0,0,1-8.05,7.31A1.61,1.61,0,0,1,486.81,314.35Z"/><path d="M457.81,201.62a1.61,1.61,0,0,1-1.22-2.67c2.89-3.35,5.54-8.57,5-12.7a6.31,6.31,0,0,0-2.83-4.52c-7.45-2.46-12.95.92-17.27,10.65a1.61,1.61,0,1,1-2.95-1.31c5-11.33,12.26-15.48,21.46-12.32a1.62,1.62,0,0,1,.36.17,9.64,9.64,0,0,1,4.43,6.88c.78,5.48-2.59,11.65-5.7,15.26A1.61,1.61,0,0,1,457.81,201.62Z"/><path d="M372.35,205.07a1.61,1.61,0,0,1-1.33-.7c-2.15-3.13-3.17-8.75-3.51-11-.62-4.14.72-11.89,4.82-15.68a7.62,7.62,0,0,1,7.17-1.93c5.34,1.25,8.77,7.41,10.19,18.32a1.61,1.61,0,0,1-3.2.42c-1.21-9.31-3.89-14.7-7.73-15.59a4.41,4.41,0,0,0-4.25,1.16c-3.12,2.88-4.33,9.42-3.82,12.83s1.53,7.56,3,9.67a1.61,1.61,0,0,1-1.33,2.53Z"/><path d="M408.75,190.62a1.61,1.61,0,0,1-1.12-.45c-1.72-1.65-2.14-4.53-1.28-8.79a14.85,14.85,0,0,1,1.26-3.44c.81-1.71,1.24-2.75.85-4.11-1.25-4.32.11-8.88,4-13.18a9.14,9.14,0,0,1,1.59-1.48c0-.17.06-.38.11-.63.73-4.15,2.08-10.16,5.33-14.41a1.65,1.65,0,0,1,1.53-.62c1.57.22,3.39,4.26,3.4,4.3a17.48,17.48,0,0,1,1,4.65c.09.89.25,1.75.42,2.65a21.89,21.89,0,0,1,.51,5.21,7.29,7.29,0,0,1,3.25,5.83,10.07,10.07,0,0,1-1.61,6.55,9.68,9.68,0,0,1,3.55,6.92c.4,3.92-.92,8.76-4.81,10.73a1.61,1.61,0,1,1-1.46-2.88c2.39-1.22,3.35-4.71,3.06-7.52-.11-1-.68-4.5-3.51-5.27a1.61,1.61,0,0,1-.38-3c1.26-.72,2.13-3.09,1.94-5.29-.08-.87-.45-3-2.29-3.64a1.61,1.61,0,0,1-1.05-1.75,16.21,16.21,0,0,0-.38-5.36c-.17-.92-.34-1.87-.45-2.89a14.63,14.63,0,0,0-.76-3.81c-.07-.15-.31-.56-.59-1a36,36,0,0,0-3.49,11.13c-.05.3-.09.53-.12.71a2.16,2.16,0,0,1-1.2,1.94,5,5,0,0,0-1.15,1.05c-3.11,3.48-4.2,6.89-3.26,10.13.75,2.6-.19,4.61-1,6.38a12,12,0,0,0-1,2.7c-.83,4.15,0,5.46.36,5.83a1.61,1.61,0,0,1-1.12,2.77Z"/><path d="M539,198.85c-4.49,0-7.59-1.48-9.26-4.43-6.06-10.71,11-36.32,17.62-41.72a1.61,1.61,0,0,1,2,2.5c-6.9,5.65-21.49,29.44-16.85,37.64,2.68,4.73,11.91,2.62,19.18,0a61.66,61.66,0,0,0,15.35-8.15,1.61,1.61,0,0,1,2,2.54,65.74,65.74,0,0,1-16.26,8.65Q544.57,198.85,539,198.85Z"/><path d="M548.42,155.56a1.61,1.61,0,0,1-1-.37c-4.89-4-11-10.81-13.42-17.64a6.75,6.75,0,0,1,.38-6.18c2.54-3.94,9.47-4.49,15-4.94,1.25-.1,2.43-.19,3.36-.32a133.67,133.67,0,0,1,17.79-1.38,1.61,1.61,0,1,1,0,3.23,130.75,130.75,0,0,0-17.37,1.35c-1,.14-2.24.23-3.53.34-4.34.35-10.9.88-12.59,3.48a3.69,3.69,0,0,0,0,3.34c2.22,6.22,7.88,12.47,12.44,16.24a1.61,1.61,0,0,1-1,2.85Z"/><path d="M600.22,171.75a1.61,1.61,0,0,1-.39-3.18c.76-.19,1.84-.43,3.15-.71,6.52-1.42,21.77-4.73,25-10a3.32,3.32,0,0,0,.45-2.72c-.8-3.09-5.8-5.92-9.45-8-.8-.46-1.55-.88-2.21-1.27-4.48-2.71-7.08-4.2-11-6.46l-2.1-1.2a1.61,1.61,0,0,1,1.61-2.8l2.1,1.2c3.95,2.26,6.55,3.76,11.07,6.49.63.38,1.35.79,2.12,1.23,4.15,2.35,9.84,5.57,11,10a6.52,6.52,0,0,1-.83,5.22c-4,6.48-19,9.75-27.1,11.5-1.27.27-2.31.5-3,.69A1.62,1.62,0,0,1,600.22,171.75Z"/><path d="M604.51,138.39a1.61,1.61,0,0,1-1.6-1.46c-.32-3.36-.69-5.88-1.08-8.55-.25-1.69-.5-3.45-.77-5.53-.13-1-.23-2.19-.33-3.4-.39-4.65-.88-10.45-3.6-12.08-1.24-.75-3.07-.61-5.45.4-6.6,2.81-12.72,10.55-17.63,16.76-.78,1-1.53,1.94-2.25,2.83a1.61,1.61,0,0,1-2.51-2c.71-.88,1.46-1.82,2.23-2.8,5.14-6.5,11.55-14.59,18.9-17.72,3.38-1.44,6.2-1.51,8.38-.2,4.13,2.48,4.7,9.19,5.15,14.57.1,1.18.19,2.29.32,3.27.26,2.06.51,3.8.76,5.47.4,2.71.77,5.26,1.1,8.71a1.61,1.61,0,0,1-1.45,1.76Z"/><path d="M595.3,204.87c-6,0-13.71-4.57-13.81-4.64A58.65,58.65,0,0,1,566.88,187a1.61,1.61,0,0,1,2.49-2.05,55.58,55.58,0,0,0,13.81,12.54c3.89,2.38,12.55,5.91,14.94,3.26,4.85-5.37,2.81-16.94,1.33-25.39-.32-1.82-.62-3.53-.82-5a1.61,1.61,0,0,1,3.2-.43c.19,1.4.48,3.08.8,4.87,1.6,9.1,3.79,21.57-2.11,28.11A6.72,6.72,0,0,1,595.3,204.87Z"/><path d="M655.59,218.73c-.58,0-1.18,0-1.82-.08-10.55-.94-21.38-8.12-28.61-13.45l-1.26-.93c-6.94-5.12-14.12-10.41-21.91-14.48a1.61,1.61,0,0,1,1.5-2.86c8,4.19,15.29,9.56,22.33,14.75l1.26.93c6.92,5.09,17.24,12,27,12.83,3.91.35,6.6-.54,8-2.65,2.4-3.63.86-10.13-1.73-15a1.61,1.61,0,0,1,1.56-2.37,43.72,43.72,0,0,1,7.6,2.13c6.64,2.2,17.75,5.89,21.88,3.34a3.36,3.36,0,0,0,1.56-2.58c.3-2.08-3.36-5.85-5.54-8.1-.85-.88-1.58-1.63-2.11-2.27a66.76,66.76,0,0,0-14.43-13.72,1.61,1.61,0,0,1,.86-2.95l1.75,0c19-.34,21.87-2.33,22.23-3.17.61-1.41-3.55-4.64-12.36-9.58a40.5,40.5,0,0,1-4.43-2.68c-.37-.3-1.17-.83-2-1.39-3.9-2.6-6.71-4.59-7.18-6.45-.75-2.9,1.52-4.17,3-5,.43-.24.87-.48,1.26-.75a128.36,128.36,0,0,1,14.13-8.12l2.58-1.34,1.29-.65c3-1.49,9.22-4.58,10.11-7.74a2.48,2.48,0,0,0-.36-2.1c-1.35-2.16-7.86-2.38-11.36-2.5-1.1,0-2.05-.07-2.82-.14a338.29,338.29,0,0,0-45.66-1.26c-6.76.31-13.71,1-19.59,1.81a95.56,95.56,0,0,0-18.85,4.49,1.61,1.61,0,1,1-1-3.05A98.44,98.44,0,0,1,621.81,117c6-.87,13-1.52,19.91-1.84a341.42,341.42,0,0,1,46.09,1.27c.68.06,1.59.09,2.65.13,4.94.17,11.72.4,14,4a5.72,5.72,0,0,1,.74,4.69c-1.18,4.18-6.7,7.23-11.78,9.75l-1.23.62L689.58,137a125.86,125.86,0,0,0-13.78,7.9c-.52.36-1.05.66-1.53.92-1.59.89-1.57,1-1.47,1.38.41.94,4.22,3.49,5.85,4.57,1,.66,1.76,1.17,2.24,1.56a44.11,44.11,0,0,0,4,2.38c8.65,4.86,15.65,9.24,13.74,13.67-1.56,3.62-9.89,4.72-22.14,5.06a77.1,77.1,0,0,1,11.28,11.51c.43.53,1.12,1.24,1.92,2.06,3.1,3.19,7,7.16,6.42,10.81a6.53,6.53,0,0,1-3.06,4.86c-5.4,3.34-16.49-.34-24.59-3-1.37-.45-2.71-.9-3.86-1.25,2,4.95,2.87,11,.14,15.16C663.43,216.52,660.81,218.73,655.59,218.73Z"/><path d="M592.25,628.65a1.61,1.61,0,0,1-.93-2.93c2.64-1.87,3.58-8.47,3.58-14a1.61,1.61,0,0,1,3.23,0c0,4.91-.64,13.61-4.95,16.66A1.61,1.61,0,0,1,592.25,628.65Z"/><path d="M615.88,615.85a1.6,1.6,0,0,1-.62-.12c-6-2.5-13.24-3.47-18.43-2.45a1.61,1.61,0,1,1-.62-3.17c5.86-1.15,13.63-.14,20.29,2.64a1.61,1.61,0,0,1-.62,3.1Z"/><path d="M608.69,632.36a33,33,0,0,1-5.5-.62l-1.29-.21-.87-.13c-3.27-.49-7.33-1.1-9.77-3.16a1.56,1.56,0,1,1,2-2.39c1.77,1.49,5.35,2,8.22,2.46l.89.13,1.34.22c2.55.44,5.71,1,7.74.13a1.56,1.56,0,0,1,1.22,2.88A10.21,10.21,0,0,1,608.69,632.36Z"/><path d="M612.06,631.78a1.56,1.56,0,0,1-1.18-2.59,17.51,17.51,0,0,0,2.35-5.06l.25-.71a20.94,20.94,0,0,0,.84-9,1.56,1.56,0,1,1,3.1-.38,24.27,24.27,0,0,1-1,10.42l-.24.69c-.7,2-1.58,4.51-2.95,6.08A1.56,1.56,0,0,1,612.06,631.78Z"/><path d="M578.15,654.77a1.61,1.61,0,0,1-.79-3c2.83-1.57,4.48-8,5.08-13.55a1.61,1.61,0,1,1,3.21.35c-.53,4.88-2.11,13.46-6.72,16A1.6,1.6,0,0,1,578.15,654.77Z"/><path d="M603,644.59a1.6,1.6,0,0,1-.78-.2c-5.7-3.14-12.78-4.88-18.05-4.42a1.61,1.61,0,1,1-.28-3.21c6-.51,13.57,1.34,19.88,4.81a1.61,1.61,0,0,1-.78,3Z"/><path d="M595.37,660.3a25.91,25.91,0,0,1-6.87-1.3l-1.25-.35-.86-.23c-3.19-.84-7.17-1.88-9.37-4.19a1.56,1.56,0,0,1,2.26-2.16c1.59,1.67,5.09,2.59,7.91,3.33l.87.23,1.31.37c2.48.71,5.58,1.59,7.69,1a1.56,1.56,0,0,1,.9,3A8.94,8.94,0,0,1,595.37,660.3Z"/><path d="M597.5,660a1.56,1.56,0,0,1-1.06-2.71,17.53,17.53,0,0,0,2.89-4.78l.32-.67a20.94,20.94,0,0,0,1.81-8.85,1.56,1.56,0,0,1,1.54-1.59h0a1.56,1.56,0,0,1,1.56,1.54,24.25,24.25,0,0,1-2.12,10.25l-.32.66c-.92,1.92-2.06,4.32-3.58,5.73A1.56,1.56,0,0,1,597.5,660Z"/><path d="M407.39,258a12.21,12.21,0,0,1-3-.33c-1.82-.48-4-1.28-4.55-3.18-.37-1.25.06-2.57,1.3-3.94s4.26-2.64,6.56-3.14h0c1.91-.41,5.43-.82,7.4,1.12a4.64,4.64,0,0,1,1.11,4.48,5.28,5.28,0,0,1-2.52,3.45A12.29,12.29,0,0,1,407.39,258ZM403,253.55a5.14,5.14,0,0,0,2.23.94,10.39,10.39,0,0,0,6.73-.82,1.94,1.94,0,0,0,1-1.31c.15-.73.08-1.24-.19-1.51-.5-.49-2.06-.77-4.42-.26h0a10.84,10.84,0,0,0-4.82,2.14A2.63,2.63,0,0,0,403,253.55Z"/><path d="M400.62,266.09a6.84,6.84,0,0,1-4.75-1.43,4.25,4.25,0,0,1-1.34-3.54c.19-3.36,3.54-6.85,6.4-7.72a1.64,1.64,0,1,1,1,3.13c-1.89.57-4,3-4.09,4.77,0,.66.18.85.27.94.25.23,1.36.93,5.09.36a21.16,21.16,0,0,0,2.55-.59,9.6,9.6,0,0,1,6.73,0c2.08.76,4,.87,4.89.29.19-.12.77-.47.93-1.82a9.57,9.57,0,0,0-2.22-5.31c-.46-.5-.78-.6-.84-.6a1.64,1.64,0,1,1-.13-3.27,4.34,4.34,0,0,1,3.38,1.65c1.86,2,3.32,5.78,3.06,7.92a5.42,5.42,0,0,1-2.46,4.22c-2.49,1.53-5.91.65-7.72,0a6.48,6.48,0,0,0-4.74,0,24,24,0,0,1-2.93.67A20.17,20.17,0,0,1,400.62,266.09Z"/><path d="M408.26,275.15c-1.73,0-3.45-.07-5.13-.15a1.64,1.64,0,0,1-1.57-1.62l-.09-8.3a1.64,1.64,0,0,1,1.62-1.65h0a1.64,1.64,0,0,1,1.64,1.62l.08,6.74a57.19,57.19,0,0,0,7-.06l1-6.89a1.64,1.64,0,1,1,3.24.49l-1.22,8.14a1.64,1.64,0,0,1-1.41,1.38A41.24,41.24,0,0,1,408.26,275.15Z"/><path d="M416.38,176.83a16.53,16.53,0,0,1-1.94-.11,8.15,8.15,0,0,1-5-2.34,1.61,1.61,0,0,1,2.35-2.21,5,5,0,0,0,3.06,1.35c3.66.43,7.12-.77,9.72-1.87a1.61,1.61,0,1,1,1.25,3A24.29,24.29,0,0,1,416.38,176.83Z"/><path d="M421.28,164.07a12.43,12.43,0,0,1-7-2.48,1.61,1.61,0,1,1,2-2.57c1.85,1.41,5.43,2.72,7.21,1.08a1.61,1.61,0,0,1,2.19,2.37A6.26,6.26,0,0,1,421.28,164.07Z"/><path d="M184.49,331.38a16.72,16.72,0,0,1-1.68-.08,12.92,12.92,0,0,1-9.15-4.89c-5.31-6.82-1.21-18.3,4.07-23.53a3.19,3.19,0,0,1,4.49,4.53c-3.39,3.36-6.43,11.35-3.53,15.08a6.6,6.6,0,0,0,4.76,2.46,15.19,15.19,0,0,0,10.49-3.48,38.4,38.4,0,0,0,5.26-6l1-1.36a3.19,3.19,0,1,1,5,3.92l-1,1.32a43.77,43.77,0,0,1-6.18,7A21.77,21.77,0,0,1,184.49,331.38Z"/><path d="M230.3,354a21.59,21.59,0,0,1-4.49-.5c-4.66-1-10.61-4.17-12.67-8.81-3.48-7.84,1.51-19.66,6-25.17a3.19,3.19,0,0,1,5,4c-3.51,4.34-7.25,13.73-5.1,18.57,1,2.33,5,4.49,8.16,5.15,4.34.92,7.31.12,11-2.94,3-2.53,7-6.45,9-9.86a3.19,3.19,0,1,1,5.45,3.31c-3.11,5.13-8.74,10-10.39,11.44C238.31,352.49,234.58,354,230.3,354Z"/></g></svg>