<?xml version="1.0" encoding="utf-8"?>
<!-- Generator: Adobe Illustrator 16.0.4, SVG Export Plug-In . SVG Version: 6.00 Build 0)  -->
<!DOCTYPE svg PUBLIC "-//W3C//DTD SVG 1.1//EN" "http://www.w3.org/Graphics/SVG/1.1/DTD/svg11.dtd">
<svg version="1.1" id="AW" xmlns="http://www.w3.org/2000/svg" xmlns:xlink="http://www.w3.org/1999/xlink" x="0px" y="0px"
	 width="1190.551px" height="841.89px" viewBox="0 0 1190.551 841.89" enable-background="new 0 0 1190.551 841.89"
	 xml:space="preserve">
<g>
	<g>
		<g>
			<path fill="#E95420" d="M301.414,325.984c-54.706,0-99.214,44.511-99.214,99.21c0,54.706,44.508,99.216,99.214,99.216
				c54.711,0,99.212-44.51,99.212-99.216C400.625,370.495,356.125,325.984,301.414,325.984z"/>
		</g>
		<g>
			<path fill="#FFFFFF" d="M348.183,377.717L348.183,377.717H254.64l0,0c-2.348,0-4.252,1.903-4.252,4.253v5.669
				c0,2.348,1.904,4.251,4.252,4.251c0.001,0,0.004,0,0.006,0h93.53c0.002,0,0.004,0,0.006,0c2.348,0,4.252-1.903,4.252-4.251
				v-5.669C352.435,379.62,350.532,377.717,348.183,377.717z"/>
			<path fill="#FFFFFF" d="M348.183,404.647v-0.002H254.64v0.002c-2.348,0-4.252,1.903-4.252,4.251v5.668
				c0,2.349,1.904,4.253,4.252,4.253c0.001,0,0.004-0.001,0.006-0.001h93.53c0.002,0,0.004,0.001,0.006,0.001
				c2.348,0,4.252-1.905,4.252-4.253v-5.668C352.435,406.55,350.532,404.647,348.183,404.647z"/>
			<path fill="#FFFFFF" d="M348.183,431.575L348.183,431.575H254.64l0,0c-2.348,0-4.252,1.905-4.252,4.253v5.669
				c0,2.349,1.904,4.252,4.252,4.252h93.543l0,0c2.349,0,4.251-1.903,4.251-4.252v-5.669
				C352.435,433.48,350.532,431.577,348.183,431.575z"/>
			<path fill="#FFFFFF" d="M348.183,458.505L348.183,458.505H254.64l0,0c-2.348,0-4.252,1.903-4.252,4.252v5.67
				c0,2.347,1.904,4.252,4.252,4.252h93.543l0,0c2.349,0,4.251-1.905,4.251-4.252v-5.67
				C352.435,460.408,350.532,458.505,348.183,458.505z"/>
		</g>
	</g>
	<g>
		<path d="M531.155,473.191c-1.344-3.34-3.258-7.749-5.737-13.229c-2.483-5.479-5.267-11.456-8.355-17.938
			c-3.089-6.479-6.242-13.159-9.461-20.044c-3.223-6.879-6.311-13.328-9.261-19.34c-2.953-6.014-5.572-11.291-7.852-15.834
			c-2.283-4.541-3.961-7.749-5.031-9.62c-1.739,16.705-3.108,34.842-4.109,54.416c-1.003,19.577-1.905,40.121-2.706,61.633h-13.428
			c1.202-25.254,2.57-49.438,4.108-72.556c1.534-23.114,3.439-45.229,5.712-66.341h12.026c4.014,6.683,8.298,14.398,12.852,23.148
			c4.552,8.753,9.07,17.839,13.555,27.259c4.484,9.419,8.837,18.708,13.055,27.858c4.216,9.154,7.935,17.408,11.147,24.753
			c3.206-7.345,6.916-15.599,11.124-24.753c4.209-9.15,8.55-18.439,13.028-27.858c4.477-9.42,8.984-18.506,13.528-27.259
			c4.542-8.75,8.819-16.466,12.828-23.148h11.425c2.271,21.112,4.175,43.227,5.712,66.341c1.535,23.118,2.906,47.302,4.109,72.556
			h-13.833c-0.8-21.512-1.702-42.056-2.705-61.633c-1.001-19.574-2.372-37.711-4.109-54.416c-1.067,1.872-2.733,5.08-5,9.62
			c-2.267,4.544-4.867,9.82-7.797,15.834c-2.936,6.012-6.001,12.461-9.202,19.34c-3.202,6.885-6.333,13.565-9.398,20.044
			c-3.069,6.481-5.834,12.459-8.298,17.938c-2.469,5.479-4.367,9.889-5.7,13.229H531.155z"/>
		<path d="M735.669,493.234c-2.633-6.803-5.061-13.353-7.281-19.656c-2.223-6.297-4.346-12.438-6.375-18.426h-67.795
			c-2.316,6-4.588,12.151-6.807,18.451c-2.217,6.303-4.564,12.847-7.041,19.631h-14.232c5.275-14.459,10.258-27.933,14.949-40.422
			c4.691-12.485,9.295-24.301,13.805-35.444c4.51-11.144,8.99-21.85,13.438-32.125c4.447-10.272,9.121-20.575,14.023-30.906h12.021
			c4.895,10.283,9.535,20.575,13.926,30.872s8.846,21.014,13.361,32.153c4.516,11.143,9.098,22.965,13.74,35.473
			c4.641,12.508,9.742,25.975,15.303,40.399H735.669z M687.972,369.97c-5.029,11.538-9.924,23.247-14.688,35.122
			c-4.764,11.879-9.693,24.691-14.791,38.436h59.232c-5.119-13.761-10.105-26.589-14.953-38.483
			C697.923,393.151,692.99,381.459,687.972,369.97z"/>
		<path d="M871.279,493.234c-2.633-6.803-5.061-13.353-7.281-19.656c-2.223-6.297-4.346-12.438-6.377-18.426h-67.795
			c-2.316,6-4.586,12.151-6.805,18.451c-2.219,6.303-4.566,12.847-7.045,19.631h-14.229c5.273-14.459,10.256-27.933,14.947-40.422
			c4.691-12.485,9.295-24.301,13.805-35.444c4.508-11.144,8.99-21.85,13.438-32.125c4.449-10.272,9.121-20.575,14.023-30.906h12.023
			c4.891,10.283,9.531,20.575,13.924,30.872c4.391,10.297,8.848,21.014,13.363,32.153c4.516,11.143,9.098,22.965,13.738,35.473
			c4.643,12.508,9.742,25.975,15.305,40.399H871.279z M823.578,369.97c-5.027,11.538-9.924,23.247-14.686,35.122
			c-4.764,11.879-9.691,24.691-14.791,38.436h59.232c-5.119-13.761-10.105-26.589-14.953-38.483
			C833.533,393.151,828.597,381.459,823.578,369.97z"/>
		<path d="M939.847,484.416c10.822,0,19.24-1.975,25.254-5.927c6.014-3.951,9.02-10.347,9.02-19.185
			c0-5.089-0.971-9.342-2.906-12.754c-1.939-3.414-4.51-6.296-7.717-8.64c-3.207-2.341-6.883-4.347-11.023-6.005
			c-4.143-1.66-8.486-3.42-13.027-5.279c-5.746-2.255-10.895-4.58-15.434-6.972c-4.545-2.391-8.416-5.089-11.625-8.096
			c-3.207-3.006-5.648-6.445-7.314-10.322c-1.674-3.875-2.506-8.418-2.506-13.629c0-11.891,3.939-20.911,11.824-27.058
			c7.885-6.146,18.84-9.22,32.871-9.22c3.74,0,7.414,0.27,11.023,0.803c3.607,0.534,6.98,1.236,10.121,2.104
			c3.137,0.87,6.014,1.837,8.619,2.906c2.605,1.07,4.775,2.205,6.514,3.406l-4.811,11.425c-3.875-2.672-8.586-4.811-14.131-6.414
			c-5.547-1.604-11.523-2.406-17.938-2.406c-4.41,0-8.453,0.436-12.125,1.305c-3.68,0.87-6.85,2.271-9.521,4.208
			c-2.674,1.939-4.777,4.378-6.314,7.316c-1.537,2.94-2.305,6.482-2.305,10.623c0,4.278,0.803,7.885,2.406,10.824
			c1.602,2.94,3.838,5.479,6.715,7.616c2.871,2.139,6.244,4.076,10.121,5.812c3.875,1.737,8.084,3.542,12.627,5.411
			c5.477,2.273,10.654,4.545,15.533,6.816c4.875,2.273,9.119,4.943,12.727,8.017c3.609,3.075,6.48,6.812,8.621,11.224
			c2.135,4.409,3.205,9.82,3.205,16.234c0,12.562-4.377,21.981-13.129,28.261c-8.752,6.281-20.613,9.419-35.576,9.419
			c-5.346,0-10.223-0.334-14.631-1.001c-4.408-0.669-8.354-1.502-11.824-2.507c-3.477-1.001-6.414-2.034-8.82-3.104
			c-2.404-1.068-4.277-2.005-5.613-2.807l4.412-11.824c1.334,0.8,3.139,1.735,5.41,2.805c2.27,1.071,4.941,2.105,8.02,3.107
			c3.07,1.002,6.543,1.838,10.422,2.505C930.894,484.083,935.169,484.416,939.847,484.416z"/>
	</g>
</g>
</svg>
