<?xml version="1.0" encoding="utf-8"?>
<!-- Generator: Adobe Illustrator 21.1.0, SVG Export Plug-In . SVG Version: 6.00 Build 0)  -->
<svg version="1.1" id="Layer_1" xmlns="http://www.w3.org/2000/svg" xmlns:xlink="http://www.w3.org/1999/xlink" x="0px" y="0px"
	 viewBox="0 0 288 115" style="enable-background:new 0 0 288 115;" xml:space="preserve">
<style type="text/css">
	.st0{fill:#463F3A;}
	.st1{fill:#B0BA36;}
	.st2{fill:#815575;}
	.st3{fill:#00718B;}
</style>
<g>
	<path class="st0" d="M11.7,27.8h0.2c3.3-4.5,10.7-7,16.5-7c13,0,19.1,9.4,19.1,20.4V69h-8V42.6c0-7.6-3.7-14.4-13-14.4
		c-11,0-14.8,10.2-14.8,18.6V69h-8V22.1h8V27.8L11.7,27.8z"/>
	<path class="st0" d="M59.9,45.1c0,9.2,5.4,17.9,15.4,17.9c10.3,0,15.7-8.3,15.7-17.8c0-9.4-5.9-17-15.8-17
		C65.9,28.2,59.9,36.3,59.9,45.1L59.9,45.1z M98.5,69h-8v-6.5h-0.2c-4.1,5.2-9.6,7.8-16.2,7.8c-13.8,0-22.5-11.7-22.5-24.7
		c0-13.4,8.5-24.9,22.6-24.9c6.4,0,12.2,3,16.1,8h0.2v-6.7h8V69L98.5,69z"/>
	<path class="st1" d="M184,24l-3,6.9c4.7,3.1,7.5,8.5,7.5,14.6c0,4.8-1.7,9.1-4.6,12.2l4.5,6.1c5-4.5,8.1-11,8.1-18.3
		C196.5,36.3,191.5,28.3,184,24L184,24z"/>
	<path class="st2" d="M155.2,44.3c0.6-8.9,7.2-16.1,16.6-16.1c1.2,0,2.4,0.1,3.5,0.3l3-6.9c-2.1-0.6-4.2-0.9-6.5-0.9
		c-13.6,0-24.4,10.8-24.6,24.4L155.2,44.3L155.2,44.3z"/>
	<path class="st3" d="M178.9,61.4c-2.1,1-4.5,1.5-7.1,1.5c-8.1,0-14.1-5.3-16-12.5l-7.9,0.9c2.5,11,12.3,19,24,19
		c4.2,0,8.1-1,11.5-2.8L178.9,61.4L178.9,61.4z"/>
	<path class="st0" d="M210.2,45.1c0,9.2,5.4,17.9,15.4,17.9c10.3,0,15.7-8.3,15.7-17.8c0-9.4-5.9-17-15.8-17
		C216.2,28.2,210.2,36.3,210.2,45.1L210.2,45.1z M210.6,28.8h0.2c3.9-5.2,9.7-8,16.2-8c13.8,0,22.5,11.9,22.5,24.9
		c0,13.4-8.5,24.7-22.6,24.7c-6.4,0-12.3-2.8-16.1-7.9h-0.2v32.9h-8V22.1h8V28.8L210.6,28.8z"/>
	<polygon class="st0" points="126,53.6 140,22.1 149,22.1 126,72.1 102.9,22.1 112,22.1 126,53.6 	"/>
	<path class="st0" d="M278,45.2c-4.1-2.7-17-5.1-16.7-11.1c0.3-3.9,3.3-6.6,7.6-6.6c5.3,0,7.6,2.8,9.6,6.9l7.1-2.7
		c-2.5-6.8-8.7-10.9-16.6-10.9c-8.7,0-15.9,5.9-15.9,14c0,5.8,3.6,9,7.3,11.1c3.6,2,16.2,5.1,16.9,11c0.5,3.9-3.3,6.6-7.6,6.6
		c-5.3,0-7.6-2.8-9.6-6.9l-7.1,2.7c2.5,6.8,8.7,10.9,16.6,10.9c8.7,0,15.9-5.9,15.9-14C285.6,50.5,281.9,47.8,278,45.2L278,45.2z"/>
	<path class="st0" d="M226.6,91.3c0-1.6-1-2.9-2.6-2.9c-1.6,0-2.6,1.4-2.6,2.9c0,1.5,0.9,2.9,2.6,2.9
		C225.7,94.2,226.6,92.9,226.6,91.3L226.6,91.3z M220,80.3h1.6v8.3h0c0.6-1,1.6-1.6,2.8-1.6c2.3,0,3.8,2,3.8,4.2
		c0,2.3-1.4,4.4-3.9,4.4c-1.1,0-2.1-0.6-2.8-1.5h0v1.3H220V80.3L220,80.3z"/>
	<polygon class="st0" points="228.4,87.2 230.2,87.2 233,92.4 235.5,87.2 237.3,87.2 230.7,100 228.9,100 232.1,94 228.4,87.2 	"/>
	<path class="st0" d="M244.7,82.3V90c0,2.1,0.6,4.1,3.2,4.1c2.5,0,3.2-2,3.2-4.1v-7.7h1.6v8.3c0,2.9-1.8,5.1-4.8,5.1
		c-3,0-4.8-2.2-4.8-5.1v-8.3H244.7L244.7,82.3z"/>
	<path class="st0" d="M256.3,88.3L256.3,88.3c0.5-0.9,1.5-1.3,2.5-1.3c2.3,0,2.9,1.5,2.9,3.5v4.8h-1.6v-4.6c0-1.4-0.2-2.3-1.8-2.3
		c-2,0-2,1.8-2,3.2v3.7h-1.6v-8.1h1.6V88.3L256.3,88.3z"/>
	<path class="st0" d="M265.7,95.4h-1.6v-8.1h1.6V95.4L265.7,95.4z M266,83.5c0,0.6-0.5,1.1-1.1,1.1c-0.6,0-1.1-0.5-1.1-1.1
		c0-0.6,0.5-1.1,1.1-1.1C265.5,82.4,266,82.9,266,83.5L266,83.5z"/>
	<polygon class="st0" points="270.9,92.3 273.3,87.2 275,87.2 270.9,95.6 266.9,87.2 268.6,87.2 270.9,92.3 	"/>
	<path class="st0" d="M282,91.3c0-1.6-1-2.9-2.6-2.9c-1.6,0-2.6,1.4-2.6,2.9c0,1.5,0.9,2.9,2.6,2.9C281.1,94.2,282,92.9,282,91.3
		L282,91.3z M283.5,95.4h-1.6v-1.3h0c-0.6,0.9-1.6,1.5-2.8,1.5c-2.5,0-3.9-2.1-3.9-4.4c0-2.2,1.5-4.2,3.8-4.2c1.2,0,2.2,0.6,2.8,1.6
		h0v-1.4h1.6V95.4L283.5,95.4z"/>
</g>
</svg>
