<?xml version="1.0" encoding="utf-8"?>
<!-- Generator: Adobe Illustrator 21.1.0, SVG Export Plug-In . SVG Version: 6.00 Build 0)  -->
<svg version="1.1" id="Layer_1" xmlns="http://www.w3.org/2000/svg" xmlns:xlink="http://www.w3.org/1999/xlink" x="0px" y="0px"
	 viewBox="0 0 268.5 354.3" style="enable-background:new 0 0 268.5 354.3;" xml:space="preserve">
<style type="text/css">
	.st0{fill:#2094F2;}
	.st1{fill:#EC254B;}
	.st2{fill:#2095F2;}
	.st3{fill:#2195F2;}
	.st4{fill:#81ADE5;}
	.st5{fill:none;}
	.st6{fill:#FEFEFE;}
	.st7{fill:#FEFEFE;stroke:#999999;stroke-width:3;stroke-miterlimit:10;}
	.st8{fill:#4C5436;}
	.st9{fill:#4F5937;}
	.st10{fill:#546037;}
	.st11{fill:#9FB574;}
	.st12{fill:#88B43E;}
	.st13{fill:#383434;}
	.st14{fill:#8AB541;}
	.st15{fill:#8AB542;}
	.st16{fill:#8DB645;}
	.st17{fill:#90B84B;}
	.st18{fill:#94BA51;}
	.st19{fill:#99BB5C;}
	.st20{fill:#96BA56;}
	.st21{fill:#4A5136;}
	.st22{fill:#51583C;}
	.st23{fill:#4E5836;}
	.st24{fill:#4A5037;}
	.st25{fill:#4C513A;}
	.st26{fill:#515C37;}
	.st27{fill:#464A35;}
	.st28{fill:#535841;}
	.st29{fill:#555E3E;}
	.st30{fill:#556238;}
	.st31{fill:#F7D24E;}
	.st32{fill:#FAE8AD;}
	.st33{fill:#FAD86E;}
	.st34{fill:#8CB645;}
	.st35{fill:#91B94B;}
	.st36{fill:#91B84C;}
	.st37{fill:#F7EBCD;}
	.st38{fill:#96BA57;}
	.st39{fill:#9DBB67;}
	.st40{fill:#9BBC60;}
	.st41{fill:#9DBA67;}
	.st42{fill:#EFDDA6;}
	.st43{fill:#9ABB60;}
	.st44{fill:#9EB86E;}
	.st45{fill:#80A73D;}
	.st46{fill:#A0B578;}
	.st47{fill:#9FB379;}
	.st48{fill:#9DBA66;}
	.st49{fill:#423D36;}
	.st50{fill:#A0BB6E;}
	.st51{fill:#A0B673;}
	.st52{fill:#97A67A;}
	.st53{fill:#9BAD78;}
	.st54{fill:#91997D;}
	.st55{fill:#47423C;}
	.st56{fill:#635A45;}
	.st57{fill:#635C4A;}
	.st58{fill:#939F78;}
	.st59{fill:#6D883A;}
	.st60{fill:#69624C;}
	.st61{fill:#8C9775;}
	.st62{fill:#70664D;}
	.st63{fill:#5F5740;}
	.st64{fill:#595345;}
	.st65{fill:#756A4C;}
	.st66{fill:#685F49;}
	.st67{fill:#776C52;}
	.st68{fill:#6B624B;}
	.st69{fill:#99BC5B;}
</style>
<g>
	<path d="M7.8,311.3h5l12.4,20h0.1v-20h4.5v27.1h-5l-12.4-20h-0.1v20H7.8V311.3z"/>
	<path d="M44.8,338.9c-1.6,0-3-0.3-4.2-0.8c-1.2-0.5-2.3-1.2-3.1-2.1c-0.8-0.9-1.5-2-1.9-3.3c-0.4-1.3-0.7-2.7-0.7-4.2
		c0-1.5,0.2-2.9,0.7-4.1c0.4-1.3,1.1-2.4,1.9-3.3c0.8-0.9,1.9-1.6,3.1-2.1c1.2-0.5,2.6-0.8,4.2-0.8c1.6,0,3,0.3,4.2,0.8
		c1.2,0.5,2.3,1.2,3.1,2.1c0.8,0.9,1.5,2,1.9,3.3c0.4,1.3,0.7,2.6,0.7,4.1c0,1.5-0.2,2.9-0.7,4.2c-0.4,1.3-1.1,2.4-1.9,3.3
		c-0.8,0.9-1.9,1.6-3.1,2.1C47.8,338.7,46.4,338.9,44.8,338.9z M44.8,335.5c1,0,1.8-0.2,2.5-0.6c0.7-0.4,1.3-0.9,1.7-1.6
		s0.8-1.4,1-2.2c0.2-0.8,0.3-1.7,0.3-2.5c0-0.8-0.1-1.7-0.3-2.5s-0.6-1.6-1-2.2c-0.5-0.6-1-1.2-1.7-1.6c-0.7-0.4-1.5-0.6-2.5-0.6
		c-1,0-1.8,0.2-2.5,0.6c-0.7,0.4-1.3,0.9-1.7,1.6c-0.5,0.6-0.8,1.4-1,2.2c-0.2,0.8-0.3,1.7-0.3,2.5c0,0.9,0.1,1.7,0.3,2.5
		c0.2,0.8,0.6,1.6,1,2.2c0.5,0.7,1,1.2,1.7,1.6C43,335.3,43.9,335.5,44.8,335.5z"/>
	<path d="M77.8,338.4h-4.1v-2.7h-0.1c-0.6,1.1-1.4,2-2.5,2.5c-1.1,0.5-2.3,0.7-3.5,0.7c-1.5,0-2.9-0.3-4-0.8
		c-1.2-0.5-2.1-1.3-2.9-2.2c-0.8-0.9-1.3-2-1.7-3.3c-0.4-1.3-0.6-2.7-0.6-4.1c0-1.8,0.2-3.3,0.7-4.6c0.5-1.3,1.1-2.4,1.9-3.2
		c0.8-0.8,1.7-1.4,2.7-1.8c1-0.4,2.1-0.6,3.1-0.6c0.6,0,1.2,0.1,1.9,0.2c0.6,0.1,1.2,0.3,1.8,0.6c0.6,0.3,1.1,0.6,1.6,1
		s0.9,0.9,1.2,1.4h0.1v-10h4.3V338.4z M62.7,328.8c0,0.8,0.1,1.7,0.3,2.5c0.2,0.8,0.5,1.5,1,2.2c0.4,0.6,1,1.1,1.7,1.5
		s1.5,0.6,2.4,0.6c1,0,1.8-0.2,2.5-0.6c0.7-0.4,1.3-0.9,1.7-1.6c0.4-0.7,0.8-1.4,1-2.2c0.2-0.8,0.3-1.7,0.3-2.5
		c0-2.2-0.5-3.9-1.5-5.1c-1-1.2-2.3-1.8-4-1.8c-1,0-1.9,0.2-2.6,0.6s-1.3,1-1.7,1.6c-0.4,0.7-0.8,1.4-1,2.3
		C62.8,327,62.7,327.9,62.7,328.8z"/>
	<path d="M86.8,329.7c0,0.8,0.1,1.5,0.3,2.2c0.2,0.7,0.5,1.3,1,1.9c0.4,0.5,1,1,1.6,1.3c0.7,0.3,1.4,0.5,2.4,0.5
		c1.3,0,2.3-0.3,3.1-0.8c0.8-0.5,1.3-1.4,1.7-2.5h4.1c-0.2,1.1-0.6,2-1.2,2.8c-0.6,0.8-1.2,1.5-2,2.1c-0.8,0.6-1.7,1-2.6,1.3
		c-1,0.3-2,0.4-3.1,0.4c-1.5,0-2.9-0.3-4.1-0.8c-1.2-0.5-2.2-1.2-3-2.1s-1.4-2-1.9-3.3s-0.6-2.7-0.6-4.2c0-1.4,0.2-2.7,0.7-4
		c0.4-1.3,1.1-2.4,1.9-3.3c0.8-1,1.8-1.7,3-2.3c1.2-0.6,2.5-0.8,4-0.8c1.5,0,2.9,0.3,4.2,1c1.2,0.6,2.2,1.5,3.1,2.6
		c0.8,1.1,1.4,2.3,1.8,3.7s0.5,2.8,0.3,4.3H86.8z M97,326.9c-0.1-0.7-0.2-1.3-0.4-2c-0.2-0.6-0.6-1.2-1-1.7
		c-0.4-0.5-0.9-0.8-1.5-1.1c-0.6-0.3-1.3-0.4-2-0.4c-0.8,0-1.5,0.1-2.1,0.4c-0.6,0.3-1.2,0.6-1.6,1.1c-0.4,0.5-0.8,1-1.1,1.7
		s-0.4,1.3-0.4,2.1H97z"/>
	<path d="M117.7,311.3h4.8v23h13.8v4.1h-18.5V311.3z"/>
	<path d="M156.3,334c0,0.5,0.1,0.9,0.2,1.1c0.1,0.2,0.4,0.3,0.8,0.3c0.1,0,0.3,0,0.5,0c0.2,0,0.4,0,0.6-0.1v3
		c-0.2,0-0.3,0.1-0.6,0.2c-0.2,0.1-0.5,0.1-0.7,0.2c-0.3,0.1-0.5,0.1-0.8,0.1c-0.3,0-0.5,0-0.6,0c-0.9,0-1.6-0.2-2.2-0.5
		s-1-1-1.1-1.9c-0.9,0.8-1.9,1.4-3.2,1.8s-2.5,0.6-3.6,0.6c-0.9,0-1.7-0.1-2.5-0.4c-0.8-0.2-1.5-0.6-2.1-1.1
		c-0.6-0.5-1.1-1.1-1.5-1.8c-0.4-0.7-0.6-1.6-0.6-2.5c0-1.2,0.2-2.2,0.7-3c0.4-0.8,1-1.4,1.7-1.8c0.7-0.4,1.5-0.7,2.4-0.9
		c0.9-0.2,1.8-0.3,2.7-0.4c0.8-0.2,1.5-0.3,2.2-0.3c0.7-0.1,1.3-0.2,1.9-0.3c0.5-0.2,1-0.4,1.3-0.7c0.3-0.3,0.5-0.8,0.5-1.4
		c0-0.6-0.1-1-0.4-1.4c-0.3-0.4-0.6-0.6-1-0.8c-0.4-0.2-0.8-0.3-1.3-0.4c-0.5-0.1-0.9-0.1-1.4-0.1c-1.2,0-2.2,0.3-3,0.8
		c-0.8,0.5-1.2,1.3-1.3,2.4h-4.3c0.1-1.3,0.4-2.3,0.9-3.2c0.5-0.8,1.2-1.5,2-2c0.8-0.5,1.8-0.9,2.8-1.1c1-0.2,2.1-0.3,3.2-0.3
		c1,0,1.9,0.1,2.8,0.3c0.9,0.2,1.8,0.5,2.5,1c0.7,0.5,1.3,1,1.8,1.8c0.5,0.7,0.7,1.6,0.7,2.6V334z M151.9,328.6
		c-0.7,0.4-1.5,0.7-2.4,0.8c-1,0.1-1.9,0.2-2.9,0.4c-0.5,0.1-0.9,0.2-1.3,0.3s-0.8,0.3-1.1,0.6c-0.3,0.2-0.6,0.6-0.8,1
		c-0.2,0.4-0.3,0.9-0.3,1.4c0,0.5,0.1,0.9,0.4,1.2c0.3,0.3,0.6,0.6,1,0.8c0.4,0.2,0.8,0.3,1.3,0.4c0.5,0.1,0.9,0.1,1.3,0.1
		c0.5,0,1-0.1,1.6-0.2c0.6-0.1,1.1-0.3,1.6-0.6c0.5-0.3,0.9-0.7,1.2-1.2s0.5-1,0.5-1.7V328.6z"/>
	<path d="M161.9,318.8h4.1v2.7h0.1c0.3-0.5,0.7-0.9,1.1-1.3c0.4-0.4,0.8-0.7,1.3-1s1-0.5,1.6-0.7c0.6-0.2,1.3-0.2,2.1-0.2
		c1.2,0,2.3,0.3,3.3,0.8s1.8,1.4,2.2,2.5c0.7-1,1.6-1.8,2.5-2.4c1-0.6,2.2-0.9,3.6-0.9c2.1,0,3.7,0.5,4.8,1.5c1.2,1,1.7,2.7,1.7,5.1
		v13.6h-4.3v-11.5c0-0.8,0-1.5-0.1-2.1s-0.2-1.2-0.4-1.7c-0.2-0.5-0.6-0.8-1.1-1.1c-0.5-0.3-1.1-0.4-2-0.4c-1.5,0-2.5,0.5-3.2,1.4
		c-0.7,0.9-1,2.2-1,3.9v11.5H174v-12.6c0-1.4-0.2-2.4-0.7-3.1s-1.4-1-2.7-1c-0.6,0-1.1,0.1-1.6,0.3s-1,0.6-1.4,1s-0.7,1-0.9,1.6
		c-0.2,0.6-0.4,1.4-0.4,2.2v11.7h-4.3V318.8z"/>
	<path d="M196,311.3h4.3v10h0.1c0.3-0.5,0.7-0.9,1.1-1.3c0.4-0.4,0.9-0.7,1.4-1s1.1-0.5,1.6-0.6c0.6-0.1,1.1-0.2,1.7-0.2
		c1.5,0,2.9,0.3,4,0.8c1.2,0.5,2.1,1.3,2.9,2.2c0.8,1,1.3,2.1,1.7,3.3s0.6,2.6,0.6,4.1c0,1.3-0.2,2.6-0.5,3.8
		c-0.3,1.2-0.9,2.3-1.6,3.3c-0.7,1-1.6,1.7-2.6,2.3c-1.1,0.6-2.3,0.9-3.8,0.9c-0.7,0-1.3,0-2-0.1c-0.7-0.1-1.3-0.3-1.9-0.5
		c-0.6-0.3-1.2-0.6-1.7-1s-0.9-0.9-1.2-1.6h-0.1v2.7H196V311.3z M211.1,328.6c0-0.9-0.1-1.7-0.3-2.6c-0.2-0.8-0.6-1.6-1-2.2
		c-0.5-0.6-1-1.2-1.7-1.6c-0.7-0.4-1.5-0.6-2.4-0.6c-1.8,0-3.2,0.6-4.1,1.9c-0.9,1.3-1.4,3-1.4,5.1c0,1,0.1,1.9,0.4,2.8
		c0.2,0.8,0.6,1.6,1.1,2.2c0.5,0.6,1.1,1.1,1.7,1.4c0.7,0.4,1.5,0.5,2.3,0.5c1,0,1.8-0.2,2.5-0.6c0.7-0.4,1.2-0.9,1.7-1.6
		c0.4-0.6,0.8-1.4,1-2.2C211,330.3,211.1,329.5,211.1,328.6z"/>
	<path d="M238.6,338.4h-4.1v-2.7h-0.1c-0.6,1.1-1.4,2-2.5,2.5c-1.1,0.5-2.3,0.7-3.5,0.7c-1.5,0-2.9-0.3-4-0.8
		c-1.2-0.5-2.1-1.3-2.9-2.2s-1.3-2-1.7-3.3c-0.4-1.3-0.6-2.7-0.6-4.1c0-1.8,0.2-3.3,0.7-4.6c0.5-1.3,1.1-2.4,1.9-3.2
		c0.8-0.8,1.7-1.4,2.7-1.8c1-0.4,2.1-0.6,3.1-0.6c0.6,0,1.2,0.1,1.9,0.2c0.6,0.1,1.2,0.3,1.8,0.6c0.6,0.3,1.1,0.6,1.6,1
		s0.9,0.9,1.2,1.4h0.1v-10h4.3V338.4z M223.5,328.8c0,0.8,0.1,1.7,0.3,2.5c0.2,0.8,0.5,1.5,1,2.2c0.4,0.6,1,1.1,1.7,1.5
		c0.7,0.4,1.5,0.6,2.4,0.6c1,0,1.8-0.2,2.5-0.6c0.7-0.4,1.3-0.9,1.7-1.6s0.8-1.4,1-2.2c0.2-0.8,0.3-1.7,0.3-2.5
		c0-2.2-0.5-3.9-1.5-5.1c-1-1.2-2.3-1.8-4-1.8c-1,0-1.9,0.2-2.6,0.6c-0.7,0.4-1.3,1-1.7,1.6c-0.4,0.7-0.8,1.4-1,2.3
		S223.5,327.9,223.5,328.8z"/>
	<path d="M260.7,334c0,0.5,0.1,0.9,0.2,1.1c0.1,0.2,0.4,0.3,0.8,0.3c0.1,0,0.3,0,0.5,0c0.2,0,0.4,0,0.6-0.1v3
		c-0.2,0-0.3,0.1-0.6,0.2c-0.2,0.1-0.5,0.1-0.7,0.2c-0.3,0.1-0.5,0.1-0.8,0.1s-0.5,0-0.6,0c-0.9,0-1.6-0.2-2.2-0.5
		c-0.6-0.4-1-1-1.1-1.9c-0.9,0.8-1.9,1.4-3.2,1.8c-1.3,0.4-2.5,0.6-3.6,0.6c-0.9,0-1.7-0.1-2.5-0.4c-0.8-0.2-1.5-0.6-2.1-1.1
		c-0.6-0.5-1.1-1.1-1.5-1.8c-0.4-0.7-0.6-1.6-0.6-2.5c0-1.2,0.2-2.2,0.7-3c0.4-0.8,1-1.4,1.7-1.8s1.5-0.7,2.4-0.9
		c0.9-0.2,1.8-0.3,2.7-0.4c0.8-0.2,1.5-0.3,2.2-0.3c0.7-0.1,1.3-0.2,1.9-0.3c0.5-0.2,1-0.4,1.3-0.7c0.3-0.3,0.5-0.8,0.5-1.4
		c0-0.6-0.1-1-0.4-1.4c-0.3-0.4-0.6-0.6-1-0.8c-0.4-0.2-0.8-0.3-1.3-0.4s-0.9-0.1-1.4-0.1c-1.2,0-2.2,0.3-3,0.8
		c-0.8,0.5-1.2,1.3-1.3,2.4h-4.3c0.1-1.3,0.4-2.3,0.9-3.2s1.2-1.5,2-2c0.8-0.5,1.8-0.9,2.8-1.1c1-0.2,2.1-0.3,3.2-0.3
		c1,0,1.9,0.1,2.8,0.3c0.9,0.2,1.8,0.5,2.5,1c0.7,0.5,1.3,1,1.8,1.8c0.5,0.7,0.7,1.6,0.7,2.6V334z M256.4,328.6
		c-0.7,0.4-1.5,0.7-2.4,0.8c-1,0.1-1.9,0.2-2.9,0.4c-0.5,0.1-0.9,0.2-1.3,0.3c-0.4,0.1-0.8,0.3-1.1,0.6c-0.3,0.2-0.6,0.6-0.8,1
		c-0.2,0.4-0.3,0.9-0.3,1.4c0,0.5,0.1,0.9,0.4,1.2c0.3,0.3,0.6,0.6,1,0.8c0.4,0.2,0.8,0.3,1.3,0.4s0.9,0.1,1.3,0.1
		c0.5,0,1-0.1,1.6-0.2c0.6-0.1,1.1-0.3,1.6-0.6c0.5-0.3,0.9-0.7,1.2-1.2c0.3-0.5,0.5-1,0.5-1.7V328.6z"/>
</g>
<g>
	<g>
		<path class="st5" d="M47.9,49.3l-0.5,0.3c6-3.4,12-6.7,18-10.1L47.9,49.3z"/>
		<path class="st5" d="M87.4,26.3l-5,2.9l-5.7,3.5C80.2,30.6,84,28.7,87.4,26.3z"/>
		<path class="st6" d="M38.2,54.7c3.1-1.7,6.1-3.5,9.2-5.2l0.5-0.3L38.2,54.7z"/>
		<path class="st7" d="M255.8,97.7c0-7.1,0-14.1-1.6-21c-0.5-1.1-1-2.1-1.5-3.2c-1.9-3.5-4.7-5.8-8.1-7.7c-9-5-18-9.9-26.7-15.3
			l-41.2-24c-11.3-6.8-22.8-13.2-34.2-19.8c-0.6,0-1.3,0-1.9-0.1c-10.2-2.2-19.8-0.9-28.3,5.6c-1,0.8-2.4,1-3.5,1.5L87.4,26.3
			c-3.4,2.5-7.2,4.3-10.8,6.4l5.7-3.5L47.9,49.3l17.5-9.9c-6,3.4-12,6.8-18,10.1L22.4,64C13.5,67.9,9,74.9,9,84.5
			c-0.1,39.8-0.1,79.6,0,119.4c0,7.8,2.9,14.2,9.9,18.3c5.9,3.4,11.8,6.6,17.6,10.2c7.1,4.4,14.5,8.4,20.9,12.2
			c1.8,0.8,3.9,2.6,5.8,3.4c1.9,1.1,2.7,1.5,4,2.4c7.1,3.4,5.2,2.3,11.8,6.7c1.7,1.5,11.2,6.8,12.5,7.5c8.3,4.2,16.4,8.8,24.3,13.7
			c9.7,6.1,19.5,6.4,29.7,1.4c2.7-1.3,5-2.4,7.9-4.1c2.1-1.4,3.6-2.1,6.4-3.9c8.8-5.2,17.7-10.4,26.5-15.6
			c6.1-3.5,12.2-6.9,18.3-10.4c4.2-2.4,8.4-4.8,12.5-7.2c8.3-4.9,16.4-10.2,24.9-14.5c7-3.5,11.3-8.5,12.7-16.1
			c0.6-3.3,1-6.7,1-10.1C255.7,164.4,255.7,131.1,255.8,97.7z"/>
		<path class="st6" d="M88.3,25.6l-6,3.6l5-2.9C87.7,26,88,25.8,88.3,25.6z"/>
		<path class="st8" d="M88.5,56.1c-3.1-3-5.5-6.8-10-8c2.4,3.7,6,6,9,8.9c0,0,0,0,0,0C87.9,56.8,88.2,56.5,88.5,56.1z"/>
		<path class="st9" d="M100.2,57.2c1.5-1.6,0.1-4,1.5-5.6c-0.1-0.9,0.1-2-1-2.6c0,0,0,0,0,0c0,0,0,0,0,0c-0.9,1.8-1.3,3.7-1.4,5.6
			c0,0,0,0,0,0C100.3,55.3,100.1,56.3,100.2,57.2z"/>
		<path class="st10" d="M101.8,51.6c0.8-0.8,1-1.9,0.4-2.8c-0.3-0.5-0.9-0.1-1.3,0.3c0,0,0,0,0,0C101.8,49.6,101.7,50.6,101.8,51.6z
			"/>
		<ellipse transform="matrix(0.9122 -0.4097 0.4097 0.9122 -66.2894 95.5237)" class="st11" cx="189.8" cy="202.5" rx="0" ry="0"/>
	</g>
	<g>
		<path class="st5" d="M48.1,49.1l-0.5,0.3c6-3.4,12-6.7,18-10.1L48.1,49.1z"/>
		<path class="st5" d="M87.6,26.1l-5,2.9l-5.7,3.5C80.5,30.4,84.3,28.5,87.6,26.1z"/>
		<path class="st6" d="M38.4,54.5c3.1-1.7,6.1-3.5,9.2-5.2l0.5-0.3L38.4,54.5z"/>
		<path class="st6" d="M256,97.5c0-7.1,0-14.1-1.6-21c-0.5-1.1-1-2.1-1.5-3.2c-1.9-3.5-4.7-5.8-8.1-7.7c-9-5-18-9.9-26.7-15.3
			l-41.2-24c-11.3-6.8-22.8-13.2-34.2-19.8c-0.6,0-1.3,0-1.9-0.1c-10.2-2.2-19.8-0.9-28.3,5.6c-1,0.8-2.4,1-3.5,1.5L87.6,26.1
			c-3.4,2.5-7.2,4.3-10.8,6.4l5.7-3.5L48.1,49.1l17.5-9.9c-6,3.4-12,6.8-18,10.1L22.7,63.8c-9,3.9-13.4,10.8-13.5,20.5
			c-0.1,39.8-0.1,79.6,0,119.4c0,7.8,2.9,14.2,9.9,18.3c5.9,3.4,11.8,6.6,17.6,10.2c7.1,4.4,14.5,8.4,20.9,12.2
			c1.8,0.8,3.9,2.6,5.8,3.4c1.9,1.1,2.7,1.5,4,2.4c7.1,3.4,5.2,2.3,11.8,6.7c1.7,1.5,11.2,6.8,12.5,7.5c8.3,4.2,16.4,8.8,24.3,13.7
			c9.7,6.1,19.5,6.4,29.7,1.4c2.7-1.3,5-2.4,7.9-4.1c2.1-1.4,3.6-2.1,6.4-3.9c8.8-5.2,17.7-10.4,26.5-15.6
			c6.1-3.5,12.2-6.9,18.3-10.4c4.2-2.4,8.4-4.8,12.5-7.2c8.3-4.9,16.4-10.2,24.9-14.5c7-3.5,11.3-8.5,12.7-16.1
			c0.6-3.3,1-6.7,1-10.1C256,164.2,256,130.9,256,97.5z M239.4,214.6c-29.5,17-59,34-88.4,51c-3.7,2.2-7.6,4.1-11.2,6.5
			c-4.8,3.1-9.7,3.1-14.5,0.3c-19.2-11-38.3-22.1-57.5-33.2c-14.2-8.2-28.3-16.4-42.5-24.5c-5.3-3-7.7-7.3-7.7-13.5
			c0.1-19.1,0.1-38.2,0.1-57.4c0-19.3,0.1-38.5,0-57.8c0-5.6,2.4-9.7,7-12.4C58,54.3,91.5,35.2,124.9,15.8c5.2-3,10-2.8,15.1,0.1
			c33.2,19.2,66.4,38.3,99.6,57.5c5,2.9,7.5,7.2,7.5,12.9c0,38.4,0,76.8,0,115.1C247.2,207.4,244.5,211.7,239.4,214.6z"/>
		<path class="st6" d="M88.6,25.4l-6,3.6l5-2.9C88,25.8,88.3,25.6,88.6,25.4z"/>
		<path class="st12" d="M239.7,73.4c-33.2-19.1-66.4-38.3-99.6-57.5c-5.1-3-9.9-3.2-15.1-0.1C91.5,35.2,58,54.3,24.6,73.7
			c-4.6,2.7-7,6.8-7,12.4c0.1,19.3,0,38.5,0,57.8c0,19.1,0.1,38.3-0.1,57.4c0,6.2,2.4,10.5,7.7,13.5c14.2,8.1,28.4,16.3,42.5,24.5
			c19.2,11.1,38.3,22.2,57.5,33.2c4.8,2.8,9.6,2.8,14.5-0.3c3.6-2.3,7.5-4.3,11.2-6.5c29.5-17,59-34,88.4-51
			c5.1-2.9,7.8-7.3,7.8-13.2c0-38.4,0-76.8,0-115.1C247.2,80.6,244.6,76.3,239.7,73.4z M226.3,192.7c-10.6,4.4-21.5,8.2-32.4,11.8
			c-3,1-5.9,2-9,2.8c-1.7,0.5-2,1.2-1.3,2.8c1,2.1,1.8,4.4,2.5,6.6c1.3,3.9,1,4.4-3,4.5c-5.1,0-10.2,0-15.3,0
			c-1.9,0-3.1-0.6-3.9-2.5c-2.5-5.6-2.6-5.5-8.8-3.2c0,0,0,0,0,0c0,0,0,0,0,0c1.6,0.1,3,0.1,1.5,2.4c-3.4,5.1-7.9,9.2-11.6,14
			c-3,3.9-6.3,7.1-10.9,8.9c-1.3,0.3-2.6,0.5-3.9,0.8c-1,0-2.1,0-3.1,0c-2.1-0.3-1.4-1.9-1.6-3.1c0,0,0,0,0,0c0,0,0,0,0,0
			c0-0.5,0-1,0-1.6c-0.2-0.3-0.5-0.5-0.7-0.8c0,0,0,0,0,0c0,0,0,0,0,0c0,1-0.1,2.1-0.1,3.1c-0.7,1.1-1.4,2.1-1.6-0.2
			c-0.5-5.8-1.8-11.5-3-17.2c-5.4-0.6-10.8,0.2-16.2,0.4c-23,0.6-45.2-2-64.7-15.7c-0.3-0.2-0.6-0.5-0.9-0.7
			c-1.1-0.7-2.1-1.6-1.3-2.8c0.9-1.4,2.1-0.3,3,0.3c3.5,2.5,7.3,4.6,11.1,6.6c11.1,5.5,22.9,7.9,35.1,8.9c2,0.2,3.5-0.2,4.3-2.3
			c3-8.1,6.2-16.1,9.4-24.1c0.4-1.1,0.8-2.2,0.5-3.4c0,0,0,0,0,0c-2.4-0.8-3.8-3.1-6-4.2c-0.6-0.3-1.1-0.9-0.7-1.6
			c0.4-0.6,1.2-0.5,1.7-0.1c1.4,1,2.9,1.8,4,3c1.4,1.5,2.2,0.4,3.2-0.4c6.2-16,12.4-31.9,18.5-47.9c1.7-4.3,3.3-8.5,5-12.8
			c1.7-4.4,1.1-8.4-1.5-12.2c-0.5,2.1-2.3,1.4-3.5,1.4c-7.7,0.1-15.4,0-23.2,0c0,0,0,0,0,0c0,1,0,2.1,0,3.1c0,0,0,0,0,0
			c-0.2,4,2.3,7.5,2.2,11.6c-2.8-3.4-3.8-7.3-3.8-11.6c0,0,0,0,0,0c-1.6-3-0.6-6.2-0.9-9.3c0,0,0,0,0,0c-1.5-5-0.6-10.1-0.7-15.1
			c0,0,0,0,0,0c0.2-2.4-0.7-4.9,0.7-7.1c0,0,0,0,0,0c0-1,0.1-2.1,0.1-3.1c0,0,0,0,0,0c0,0,0,0,0,0c-0.3-3-0.1-6,0.7-8.9
			c1.4-5.2-1.1-8.9-4.4-12.4c-1.4-1.5-2.8-3.1-4.2-4.6c0,0,0,0,0,0c-3.1-2.9-6.7-5.3-9-8.9c4.5,1.2,7,5,10,8
			c2.3,1.9,4.5,3.9,6.2,6.4c1.2,1.8,2.1,1.7,3.1,0c0,0,0,0,0,0c0.5-2.6,1.1-5.2,1.6-7.8c0,0,0,0,0,0c0,0,0,0,0,0
			c0.1-2,0.5-3.9,1.4-5.6c0,0,0,0,0,0c0.4-0.4,1-0.7,1.3-0.3c0.7,1,0.5,2-0.4,2.8c-1.4,1.6,0,4-1.5,5.6c-0.3,2.3-0.6,4.6-1,6.9
			c-0.1,2.3,1.3,2.4,3,2.4c3.9,0,7.8-0.5,11.7,0.7c1.3,0.4,2.6,0.6,3.5,1.6c0,0,0,0,0,0c11.4,5.3,17,15.6,21.9,26.2
			c7.9,17.1,13.8,35,20.5,52.6c0.4,1.1,0.7,2.3,1.6,3.1c0,0,0,0,0,0c0,0,0,0,0,0c-0.3-1.7-0.7-3.5-1-5.3c2.5,0.2,3.6,2.2,5.2,3.5
			c13.3,11.1,26.6,22.1,39.9,33.2c3.1,2.6,6,5.3,9.2,7.9c1.6,1.3,1.6,2.5,0.3,3.8c3.5-0.8,6.6-2.3,9.9-3.6c1.2-0.5,3-1.6,3.7,0.3
			C229.4,191.9,227.4,192.3,226.3,192.7z"/>
		<path class="st12" d="M96.6,93C96.6,93,96.6,93,96.6,93c0,0,0-0.1,0-0.1c0,0-0.1,0-0.1,0.1C96.6,93,96.6,93,96.6,93
			C96.6,93,96.6,93,96.6,93z"/>
		<path class="st12" d="M96.4,101.7c0,0,0.1,0.1,0.1,0.1c0-0.1,0-0.2,0-0.2C96.4,101.7,96.4,101.7,96.4,101.7z"/>
		<path class="st13" d="M108.3,82.6c0.1,0,0.2,0.1,0.3,0.1c-0.1-0.1-0.1-0.2-0.2-0.3C108.4,82.4,108.4,82.5,108.3,82.6
			C108.3,82.6,108.3,82.6,108.3,82.6z"/>
		<polygon class="st13" points="180.5,200.7 180.5,200.7 180.5,200.7 		"/>
		<path class="st13" d="M225.1,189.9c-3.3,1.3-6.4,2.9-9.9,3.6c0,0,0,0,0,0c-1.5,0.8-2.9,1.7-4.7,1.7c0,0,0,0,0,0
			c-2,1.1-4,2.1-6.3,2.3c-0.2,0.1-0.5,0.2-0.7,0.1c0,0,0,0,0,0c-1.1,1.1-2.5,1.4-4,1.5c0,0,0,0,0,0c-1.4,1-3,1.5-4.7,1.5
			c0,0,0,0,0,0h0c-0.4,0.6-0.9,0.7-1.6,0.7c0,0,0,0,0,0c-0.3,0-0.5,0-0.8,0c0,0,0,0,0,0c0,0,0,0,0,0c-0.7,0.4-1.3,1.1-2.3,0.9
			c0,0,0,0,0,0c-0.6,0.7-1.4,0.8-2.3,0.8c-0.1,0-0.2,0.1-0.2,0.1c-5.3,2.4-6,2.1-7-2.5c-0.9-0.9-1.4-1.9-1.4-3.2h0
			c-0.3-1-0.7-2.1-1-3.1c-0.7-0.6-0.8-1.5-0.8-2.3c-0.2-0.5-0.4-1.1-0.7-1.6c-1-1.4-1.7-2.8-1.6-4.6c-1-1.1-1.2-2.5-1.6-3.9
			c0,0,0,0,0,0c-1.6-2.7-2.6-5.5-3.2-8.6c0,0,0,0,0,0c-1.1-1.1-1.5-2.5-1.6-4c0-0.1-0.1-0.1-0.1-0.2c-1.3-1.8-1.9-3.9-2.2-6.1
			c-0.7-0.6-0.8-1.4-0.8-2.2c-1.9-3.2-2.8-6.8-3.9-10.3c0,0,0,0,0,0c-0.9-0.9-1.2-2-1.6-3.1c-6.7-17.6-12.6-35.5-20.5-52.6
			c-4.9-10.6-10.5-20.9-21.9-26.2c0,0,0,0,0,0c0,0,0,0,0,0c-5.5-1.4-11.1-1.9-16.8-1.6c-0.8,0-1.5-0.1-2.1-0.8
			c-0.7-0.2-1.3-0.9-1.3,0.7c0,5.3-0.4,10.6-1.8,15.8c0,0,0,0,0,0c0,1-0.1,2.1-0.1,3.1c0,0,0,0,0,0c0,0,0,0,0,0
			c0,2.4,0.1,4.8,0.1,7.1c0.2,0,0.4,0,0.7,0c0,0,0,0,0,0c0,0,0,0,0,0c0,0,0.1,0,0.1,0.1c0,0,0.1,0,0.1-0.1c0-2.1,0-4.2,0-6.2
			c0,0,0,0,0,0c0,0,0,0,0,0c-0.5-1.7,0.2-2.4,1.9-2.4c3.5-0.1,7-0.2,9.8,2.4c1.4,0.3,2.4,1.2,3,2.4c0,0,0,0,0,0
			c0.2,0.3,0.5,0.5,0.7,0.8c0,0,0,0,0,0c0.7,0.3,0.8,0.9,1,1.5c0.2,0.2,0.5,0.5,0.7,0.7c0.5,0.6,0.9,1.2,1.4,1.9
			c1.1,0.3,1.2,1.4,1.6,2.2c0.2,0.3,0.5,0.6,0.7,1c0,0,0,0,0,0c1.6,1.8,2.5,3.9,3.2,6.1c0,0,0,0,0,0c0.3,0.5,0.5,1.1,0.8,1.6
			c0,0,0,0,0,0c1.8,2.3,2.1,5.3,3.1,8c0,0,0,0,0,0c2.6,3.8,3.2,7.9,1.5,12.2c-1.7,4.2-3.4,8.5-5,12.8c-6.2,16-12.4,31.9-18.5,47.9
			c0.4,1.9-1.5,2.2-2.3,3.3c0,0,0,0,0,0c0,0,0,0,0,0c0.2,1.2-0.1,2.3-0.5,3.4c-3.1,8-6.3,16.1-9.4,24.1c-0.8,2.2-2.3,2.5-4.3,2.3
			c-12.2-1-24-3.4-35.1-8.9c-3.9-1.9-7.6-4.1-11.1-6.6c-0.9-0.7-2.1-1.8-3-0.3c-0.8,1.2,0.3,2.2,1.3,2.8c0.3,0.2,0.6,0.5,0.9,0.7
			c19.5,13.6,41.7,16.2,64.7,15.7c5.4-0.1,10.8-1,16.2-0.4c0.5,0,0.9,0,1.4,0c0,0,0,0,0,0c0,0,0,0,0,0c1.9-1.3,4.2-1.5,6.4-1.5
			c1,0,2-0.1,3-0.1c1.4-1,3.1-0.8,4.7-0.8c0,0,0,0,0,0c1.2-0.9,2.6-0.7,4-0.8c0,0,0,0,0,0c4.1-1.3,8.3-1.9,12.6-2.3
			c0.9-0.9,2-0.8,3.1-0.8c0,0,0,0,0,0c6.2-2.3,6.3-2.3,8.8,3.2c0.8,1.9,2,2.5,3.9,2.5c5.1-0.1,10.2,0,15.3,0c3.9,0,4.3-0.6,3-4.5
			c-0.8-2.2-1.6-4.4-2.5-6.6c-0.7-1.6-0.4-2.3,1.3-2.8c3-0.8,6-1.9,9-2.8c10.9-3.6,21.7-7.5,32.4-11.8c1.1-0.5,3.1-0.8,2.5-2.4
			C228.1,188.4,226.3,189.4,225.1,189.9z M160.7,199.9c-6.8-19.6-14.4-39-20-59c-0.4-1.5-0.9-2.7-2.4-3.3c0,0,0,0,0,0c0,0,0,0,0,0
			c-1.6,1,0.2,2.3-0.2,3.4c0,0,0,0,0,0c0,0,0,0,0,0c1,8.4,4.4,16,7.1,23.9c4.8,14.2,9.9,28.3,15,42.4c0.9,2.6,0.5,3.8-2.3,4.3
			c-4,0.7-7.9,1.6-11.8,2.4c0,0,0,0,0,0c-4.1,1.5-8.3,2.1-12.6,2.3c-3.2,0.5-6.4,1-9.6,1.5c-1.9,0.3-3.4,0.1-3.8-2.2
			c-0.3,0.5-0.5,1.1-0.8,1.6c-1.6,2.4-3.9,1.3-6,1.4c-0.3,0-0.6-0.4-0.8-0.7c-0.7-1.3,2-6.9,3.8-7.8c0,0,0,0,0,0c0,0,0,0,0,0
			c0.3,0,0.6,0,0.9,0c0,0,0,0,0,0c0,0,0,0,0,0c-1.1-2.9-0.3-5.5,0.7-8.2c3.6-9.6,7-19.3,10.4-29c0.5-1.4,1.5-3-0.9-3.8c0,0,0,0,0,0
			c0,0,0,0,0,0c-1.6,0.8-1.7,2.5-2.3,3.9c-3.5,9.7-7,19.4-10.5,29.1l0,0c-1.1,2.3-0.2,5.2-2.4,7.1c-4.5,11-4.5,10.9-16.5,10.2
			c-2.5-0.2-2.8-0.9-1.9-3.1c2.4-5.9,4.5-11.9,6.8-17.9c0,0,0,0,0,0c0,0,0,0,0,0c-0.1-3.8,2.2-6.6,3.8-9.6v0
			c6.3-16,12.6-32,18.9-47.9c2.1-5.3,4.1-10.7,6.2-16c0.3-0.8,0.1-2.1,1.6-2.1v0c0.4,0,0.7,0,1.1,0c0,0,0,0,0,0c0,0,0,0,0,0
			c-4.8-13.5-9.2-27.3-19.7-37.8c0,0,0,0,0,0c0,0,0,0,0,0c-4.3-2.1-9.3-1.8-13.5-4.2c0.3-2.7,0.5-5.5,0.8-8.2c0,0,0,0,0,0
			c0,0,0,0,0,0c-0.7-2.2,1.4-2.3,2.3-3.3c0,0,0,0,0,0c11.5-1.5,20,3.3,26.6,12.4c6.8,9.3,11.1,19.8,15.1,30.5
			c11.4,29.9,22.5,59.9,33.9,89.8c1.2,3.1,0.7,4.1-2.4,5C164.5,210.2,164.3,210.4,160.7,199.9z M176.8,218.4c-2.1,0-4.2-0.2-6.3,0.1
			c-3.5,0.5-4.2-1.8-4.6-3.7c-0.6-2.2,0.6-2.2,1.6-2.5c3-0.8,6-1.6,9-2.6c2.4-0.8,3.7-0.3,4.7,2.3
			C184.1,219.7,183.9,218.3,176.8,218.4z"/>
		<path class="st13" d="M135.4,132.1C135.4,132.1,135.4,132,135.4,132.1C135.4,132,135.4,132.1,135.4,132.1
			C135.4,132.1,135.4,132.1,135.4,132.1C135.4,132.1,135.4,132.1,135.4,132.1z"/>
		<path class="st14" d="M165.5,155.8c4.1,3.2,8.4,6.1,12.2,9.5c9.4,8.2,18.9,16.2,28.6,24.1c1.8,1.4,4.9,2.4,4.1,5.9c0,0,0,0,0,0
			c0,0,0,0,0,0c1.8,0,3.2-0.9,4.7-1.7c0,0,0,0,0,0c1.3-1.4,1.3-2.6-0.3-3.8c-3.1-2.6-6.1-5.3-9.2-7.9
			c-13.3-11.1-26.6-22.1-39.9-33.2c-1.6-1.3-2.7-3.2-5.2-3.5c0.3,1.9,0.7,3.6,1,5.3c0,0,0,0,0,0c1.1,3.5,1.9,7.1,3.9,10.3
			C166.1,159.2,164.4,157.8,165.5,155.8z"/>
		<path class="st14" d="M121.6,104.8c0.7,3.1-0.2,4.2-3.6,4c-5.5-0.4-11.1-0.2-16.7-0.1c-1.7,0-3-0.3-4.1-1.6c0,0,0,0,0,0
			c0,0,0,0,0,0c0,1.8,0.1,3.6,0.1,5.4c0,0,0,0,0,0c0.2,0.6,0.5,1.1,0.7,1.7h0c0,0,0,0,0,0c7.7,0,15.4,0,23.2,0c1.3,0,3,0.7,3.5-1.4
			c0,0,0,0,0,0C123.7,110.1,123.4,107.1,121.6,104.8z"/>
		<path class="st15" d="M152.1,216.3c1.5,0.2,1.3,0.7,0.5,1.7c-3.9,4.3-7.7,8.7-11.5,13.1c-2.6,3-5.2,6-7,9.7
			c4.6-1.8,7.9-5,10.9-8.9c3.7-4.8,8.2-8.9,11.6-14c1.6-2.3,0.1-2.3-1.5-2.4c0,0,0,0,0,0C154.2,215.5,153,215.4,152.1,216.3z"/>
		<path class="st16" d="M152.6,218c0.8-0.9,1-1.5-0.5-1.7c-4.3,0.4-8.5,1-12.6,2.3c0,0,0,0,0,0c0,0,0,0,0,0c1.1,0,2.2,0.1,3.2,0.1
			c0,0,0,0,0,0c0,0,0,0,0,0c0.5,0,1.1,0,1.6,0c1.2-1.3,2.6-0.8,4.9-0.5c-6.7,7.9-13.5,15.1-19,23.3c1.3-0.3,2.6-0.5,3.9-0.8
			c1.7-3.7,4.3-6.7,7-9.7C144.9,226.7,148.8,222.3,152.6,218z"/>
		<path class="st17" d="M144.4,218.7c-1.7,4.2-5.2,7-7.8,10.6c-3.1,4.1-7.5,7.2-9.5,12.2c1,0,2.1,0,3.1,0c5.5-8.2,12.3-15.3,19-23.3
			C147,218,145.6,217.5,144.4,218.7z"/>
		<path class="st18" d="M144.4,218.7c-0.5,0-1.1,0-1.6,0c0,0,0,0,0,0c-5.5,6.8-10.4,14-17.3,19.6c0,0,0,0,0,0
			c0.1,1.2-0.6,2.9,1.6,3.1c2-5,6.4-8.1,9.5-12.2C139.2,225.8,142.7,223,144.4,218.7z"/>
		<path class="st19" d="M137.3,219.6C137.3,219.6,137.3,219.6,137.3,219.6c-4.4,4.6-7.4,10.4-12.6,14.2c0.1,0.8,0.1,1.5,0.2,2.3
			c0,0,0,0,0,0c0.2,0.3,0.5,0.5,0.7,0.8c4.2-4.9,8.5-9.8,12.7-14.8C139.2,220.9,140.3,219.4,137.3,219.6z"/>
		<path class="st20" d="M142.8,218.8C142.8,218.8,142.8,218.8,142.8,218.8c-1.1,0-2.2-0.1-3.2-0.1c0,0,0,0,0,0
			c-1.4,0.1-2.8-0.1-4,0.8c0,0,0,0,0,0c0,0,0,0,0,0c0.6,0,1.1,0.1,1.7,0.1c0,0,0,0,0,0c0,0,0,0,0,0c3-0.2,1.9,1.4,0.9,2.5
			c-4.2,5-8.5,9.9-12.7,14.8c0,0.5,0,1,0,1.6c0,0,0,0,0,0C132.4,232.8,137.3,225.5,142.8,218.8z"/>
		<path class="st21" d="M98.8,66.3c0-0.8,0-1.6,0-2.4l0,0h0c0-0.7-0.2-1.2-0.8-1.6c0,0,0,0,0,0c0,0,0,0,0,0c-1,1.8-1.9,1.8-3.1,0
			c-1.7-2.5-3.8-4.5-6.2-6.4c-0.3,0.3-0.7,0.6-1,1c0,0,0,0,0,0c0,0,0,0,0,0c1.4,1.5,2.8,3.1,4.2,4.6c3.4,3.5,5.8,7.2,4.4,12.4
			c-0.8,2.9-1,5.9-0.7,8.9c0,0,0,0,0,0c1.4-5.2,1.8-10.4,1.8-15.8C97.5,65.4,98.1,66.1,98.8,66.3z"/>
		<path class="st22" d="M124.1,233.5C124.1,233.5,124.1,233.5,124.1,233.5c-0.1-1.5-0.1-3-0.2-4.5c0,0,0,0,0,0
			c-0.7-1.3-1.4-2.5-1.3-4c0,0,0,0,0,0c0,0,0,0,0,0c-0.4-1-0.7-2.1-1.1-3.1c0,0,0,0,0,0c-0.5,0-0.9,0-1.4,0c1.2,5.7,2.5,11.4,3,17.2
			c0.2,2.2,1,1.3,1.6,0.2C123.3,237.4,124.2,235.4,124.1,233.5z"/>
		<path class="st8" d="M88.8,55.9c-3.1-3-5.5-6.8-10-8c2.4,3.7,6,6,9,8.9c0,0,0,0,0,0C88.1,56.6,88.4,56.2,88.8,55.9z"/>
		<path class="st23" d="M97.2,117.3c-0.3,0-0.5,0-0.8,0c0,4.3,1,8.2,3.8,11.6c0.2-4.1-2.4-7.6-2.2-11.6c0,0,0,0,0,0c0,0,0,0,0,0
			C97.8,117.3,97.5,117.3,97.2,117.3z"/>
		<path class="st23" d="M102.7,185.6c-1,0.8-1.8,1.9-3.2,0.4c-1.2-1.2-2.6-2.1-4-3c-0.6-0.4-1.3-0.5-1.7,0.1
			c-0.4,0.7,0.1,1.3,0.7,1.6c2.2,1.2,3.6,3.4,6,4.2c0,0,0,0,0,0C101.1,187.8,103,187.5,102.7,185.6z"/>
		<path class="st24" d="M97.3,112.5C97.3,112.5,97.3,112.5,97.3,112.5C97.3,112.5,97.3,112.5,97.3,112.5c0-1.8-0.1-3.6-0.1-5.4
			c0,0,0,0,0,0c-1.2-1.6-0.4-3.5-0.7-5.3c0,0-0.1-0.1-0.1-0.1c-1.5,2-0.3,4.3-0.8,6.3c0,0,0,0,0,0c0,0,0,0,0,0
			c0.3,3.1-0.7,6.3,0.9,9.3c0,0,0,0,0,0c0.3,0,0.5,0,0.8,0C97.3,115.7,97.3,114.1,97.3,112.5z"/>
		<path class="st25" d="M96.4,101.7c0,0,0.1-0.1,0.1-0.1c0-2.9-0.1-5.8-0.1-8.7c0,0,0,0,0,0c-0.2,0-0.4,0-0.7,0c-0.3,0-0.5,0-0.8,0
			c0.1,5-0.8,10.1,0.7,15.1c0,0,0,0,0,0C96.1,106,94.9,103.7,96.4,101.7z"/>
		<path class="st26" d="M98.8,63.9c0,0.8,0,1.6,0,2.4c0.5,0.7,1.3,0.8,2.1,0.8c5.7-0.3,11.3,0.1,16.8,1.6c0,0,0,0,0,0
			c-0.9-1.1-2.2-1.3-3.5-1.6c-3.8-1.2-7.8-0.7-11.7-0.7c-1.8,0-3.2-0.1-3-2.4C99.3,63.9,99.1,63.9,98.8,63.9L98.8,63.9z"/>
		<path class="st27" d="M98.8,63.9L98.8,63.9c0.2,0,0.5,0,0.7,0c0.3-2.3,0.6-4.6,1-6.9c-0.2-0.9,0.1-1.9-0.8-2.5c0,0,0,0,0,0
			c-0.5,2.6-1.1,5.2-1.6,7.8c0,0,0,0,0,0C98.7,62.6,98.8,63.2,98.8,63.9z"/>
		<path class="st9" d="M100.5,57c1.5-1.6,0.1-4,1.5-5.6c-0.1-0.9,0.1-2-1-2.6c0,0,0,0,0,0c0,0,0,0,0,0c-0.9,1.8-1.3,3.7-1.4,5.6
			c0,0,0,0,0,0C100.6,55.1,100.3,56.1,100.5,57z"/>
		<path class="st28" d="M95.6,85.8C95.6,85.8,95.6,85.8,95.6,85.8c-1.4,2.3-0.5,4.8-0.7,7.1c0,0,0,0,0,0c0.3,0,0.5,0,0.8,0
			C95.7,90.6,95.6,88.2,95.6,85.8z"/>
		<path class="st29" d="M124.1,233.5c0.1,1.9-0.8,4,0.7,5.7c0-1,0.1-2.1,0.1-3.1c0,0,0,0,0,0c-0.1-0.8-0.1-1.5-0.2-2.3
			C124.5,233.7,124.3,233.6,124.1,233.5z"/>
		<path class="st30" d="M97.3,112.5C97.3,112.5,97.3,112.5,97.3,112.5c0,1.6,0,3.2,0,4.8c0.3,0,0.5,0,0.8,0c0,0,0,0,0,0
			c0-1,0-2.1,0-3.1h0C97.8,113.6,97.5,113.1,97.3,112.5z"/>
		<path class="st10" d="M102,51.4c0.8-0.8,1-1.9,0.4-2.8c-0.3-0.5-0.9-0.1-1.3,0.3c0,0,0,0,0,0C102.1,49.4,101.9,50.4,102,51.4z"/>
		<path class="st31" d="M135.6,131.9c-0.1,0.1-0.1,0.1-0.2,0.2c0,0,0,0,0,0C135.5,132,135.6,132,135.6,131.9z"/>
		<path class="st31" d="M175.1,207.1c3.2-0.9,3.6-1.9,2.4-5c-11.4-29.9-22.6-59.9-33.9-89.8c-4-10.6-8.3-21.2-15.1-30.5
			c-6.6-9.1-15.1-13.9-26.6-12.4c0.4,2.2,2.4,3.3,3.3,5.3c0,0,0,0,0,0c0.6,0.5,1.3,1,1.2,1.9c0,0,0,0,0,0c2.1,2.7,4.4,5.3,5.9,8.5
			c0,0,0,0,0,0c10.6,10.5,15,24.2,19.7,37.8c0,0,0,0,0,0c1.5,1.6,2.6,3.3,2.8,5.5c0,0,0,0,0,0c0,0,0,0,0,0c0.7,1.1,1.3,2.2,0.7,3.5
			c0,0,0,0,0,0c0.9-0.2,0.9,0.5,1,1.1c0,0,0,0,0,0c0.9,1.4,1.4,3,1.6,4.7c0,0,0,0,0,0c1.5,0.6,2,1.9,2.4,3.3c5.6,20,13.3,39.3,20,59
			C164.3,210.4,164.5,210.2,175.1,207.1z"/>
		<path class="st12" d="M137.4,141c-2.1,8.5-5.1,16.8-7.8,25.1c-0.4,1.4-1.4,2.1-2.3,3c0,0,0,0,0,0c2.4,0.8,1.4,2.4,0.9,3.8
			c-3.4,9.7-6.8,19.4-10.4,29c-1,2.8-1.8,5.4-0.7,8.2c0,0,0,0,0,0c1.4,1.6,2.8,3.3,2.9,5.6c0,0,0,0,0,0c0.4,2.3,1.9,2.5,3.8,2.2
			c3.2-0.5,6.4-1,9.6-1.5c4-1.7,8.3-2.2,12.6-2.3c0,0,0,0,0,0c0,0,0,0,0,0c3.9-0.8,7.9-1.7,11.8-2.4c2.8-0.5,3.2-1.7,2.3-4.3
			c-5.1-14.1-10.2-28.2-15-42.4c-2.7-7.9-6.1-15.5-7.1-23.9c0,0,0,0,0,0c0,0-0.3-0.1-0.3-0.1L137.4,141z"/>
		<path class="st32" d="M135.4,132.1C135.4,132.1,135.3,132.1,135.4,132.1C135.3,132.1,135.4,132.1,135.4,132.1
			C135.4,132.1,135.4,132.1,135.4,132.1z"/>
		<path class="st32" d="M129.6,166.1c2.7-8.3,5.8-16.5,7.8-25.1c-0.6-1.9-1.7-3.6-1.6-5.7c0,0,0,0,0,0c-0.5-1-1.3-2-0.5-3.3
			c-1.1-0.2-1.2-1-1.3-1.9c-1.3-2.3-2.4-4.7-3-7.4c-1.5,0-1.3,1.3-1.6,2.1c-2.1,5.3-4.1,10.7-6.2,16c-6.3,16-12.6,32-18.9,47.9
			c0,2.5,2.1,3.7,3.3,5.4c1.3,0.4,1.4,1.8,2.3,2.6v0c0,0,0,0,0,0c1.4,0.9,1.8,2.1,1.6,3.7c0.7-0.2,1.3,0,1.6,0.8
			c0.5,0.2,1,0.5,1.5,0.7c3.5-9.7,7-19.4,10.5-29.1c0.5-1.4,0.7-3.1,2.3-3.9c0,0,0,0,0,0C128.2,168.2,129.2,167.5,129.6,166.1z"/>
		<path class="st33" d="M112.1,203.1C112.1,203.1,112.1,203.1,112.1,203.1c-0.8-0.6-1-1.5-0.7-2.4c-1.4-0.1-2.1-1.1-2.6-2.2
			c-0.7-1.1-1.5-2.1-2.2-3.2c-3.2-3-3.2-3-5,1.2c-0.3,0.7-0.7,1.3-1.1,2c0,0,0,0,0,0c-2.2,6-4.4,12-6.8,17.9
			c-0.9,2.2-0.7,2.9,1.9,3.1c12,0.7,12,0.8,16.5-10.2C112,207.2,113.6,205.1,112.1,203.1z"/>
		<path class="st34" d="M206.3,189.4c-9.7-7.9-19.2-15.9-28.6-24.1c-3.9-3.3-8.1-6.3-12.2-9.5c-1.1,2,0.6,3.4,0,5
			c0,0.8,0.1,1.6,0.8,2.2c0.3,2.2,0.9,4.3,2.2,6.1c0,0.1,0.1,0.1,0.1,0.2c0,0,0,0,0,0c0,0,0,0,0,0c0-0.3,0.1-0.5,0.1-0.8
			c-0.1-2.1-0.9-4-2.4-5.5c0.4-2.1,1.4-1.4,2.3-0.5c11.3,10.6,23.8,19.7,35.3,29.9c1,0.9,1.1,2.4,3,2.8c-1.2,0.9-2,1.6-2.9,2.3
			c0,0,0,0,0,0c2.3-0.2,4.3-1.2,6.3-2.3c0,0,0,0,0,0C211.2,191.8,208.1,190.8,206.3,189.4z M166.4,162.9
			C166.4,162.9,166.4,162.9,166.4,162.9C166.4,162.9,166.4,162.9,166.4,162.9L166.4,162.9z"/>
		<path class="st35" d="M207,195.3c-1.8-0.4-2-2-3-2.8c-11.6-10.2-24.1-19.3-35.3-29.9c-1-0.9-2-1.7-2.3,0.5
			c1.5,1.5,2.3,3.3,2.4,5.5c3.5,0.9,5.2,4.1,7.8,6.2c8.6,6.7,16.8,13.9,25.1,20.9c0.7,0.6,1.1,1.4,1.7,2.1c0,0,0,0,0,0c0,0,0,0,0,0
			c0.3,0,0.5,0,0.7-0.1c0,0,0,0,0,0C205,196.9,205.9,196.2,207,195.3z"/>
		<polygon class="st35" points="166.4,162.9 166.4,162.9 166.4,162.9 		"/>
		<path class="st36" d="M115.1,100.1c-5.9-0.2-11.9-0.1-17.9-0.1c0,5.5,0,5.5,5.4,5.5c5.1,0,10.1,0,15.2,0c1.7,0,3.2-0.1,3-2.4
			c0,0,0,0,0,0c0,0,0,0,0,0c-0.7-2.3-1.6-4.3-3.2-6.1C118.2,99.2,117.8,100.2,115.1,100.1z"/>
		<path class="st37" d="M176.6,209.7c-3,1-6,1.8-9,2.6c-1,0.3-2.2,0.3-1.6,2.5c0.4,2,1.1,4.2,4.6,3.7c2-0.3,4.2,0,6.3-0.1
			c7.1-0.1,7.3,1.3,4.5-6.5C180.3,209.3,179,208.9,176.6,209.7z"/>
		<path class="st18" d="M168.6,169.1c0,0.1,0.1,0.1,0.1,0.2c0,0,0,0,0,0C168.7,169.2,168.6,169.2,168.6,169.1z"/>
		<path class="st18" d="M201.7,195.5c-8.3-7-16.5-14.2-25.1-20.9c-2.6-2-4.4-5.2-7.8-6.2c0,0.3-0.1,0.5-0.1,0.8
			c1.1,0.7,1.5,1.9,1.6,3.1c9.3,8.5,19.6,15.6,28.7,24.3c1,0.9,1.6,1.4,0.4,2.5c0,0,0,0,0,0c0,0,0,0,0,0c1.5-0.1,2.9-0.5,4-1.5
			c0,0,0,0,0,0C202.9,196.9,202.4,196.1,201.7,195.5z"/>
		<path class="st34" d="M96.5,101.9c0.3,1.7-0.5,3.6,0.7,5.3c0,0,0,0,0,0c1.1,1.3,2.4,1.6,4.1,1.6c5.6-0.1,11.1-0.3,16.7,0.1
			c3.4,0.2,4.3-0.9,3.6-4c0,0,0,0,0,0c-0.3-0.5-0.5-1.1-0.8-1.6c0,0,0,0,0,0c0.2,2.3-1.3,2.4-3,2.4c-5.1,0-10.1,0-15.2,0
			c-5.4,0-5.4,0-5.4-5.5c0-1,0-2.1,0-3.1c0,0,0,0,0,0c0-0.8,0-1.6,0-2.4c0,0,0,0,0,0c0,0,0,0,0,0c0-0.5,0-1,0-1.6c0,0,0,0,0,0
			c0,0,0,0,0,0c0,0,0,0,0,0c0,0,0,0,0,0c0,0,0,0,0,0c-0.2,0-0.4,0-0.6,0.1c0,0,0,0,0,0c0,0-0.1,0-0.1,0c-0.1,0-0.1-0.1-0.1-0.1
			c0,0,0,0,0,0c0,2.9,0.1,5.8,0.1,8.7C96.5,101.7,96.5,101.8,96.5,101.9z"/>
		<path class="st20" d="M199.1,196.7c-9.1-8.7-19.4-15.9-28.7-24.3c0,0.3-0.1,0.6-0.1,0.9c0,0,0,0,0,0c0,0,0,0,0,0
			c0.5,3.1,1.5,6,3.2,8.6c0,0,0,0,0,0c0,0,0,0,0,0c0-0.3,0.1-0.6,0.1-0.9c0,0,0,0,0,0c0.1-1.1-1.2-2.1-0.4-3.5
			c7.5,5,13.4,11.8,20.6,17c1.4,1,2.8,1.9,3.9,3.2c1.7,2.1-0.7,1-1.3,1.4c-0.5,0.5-1,1.1-1.6,1.6c0,0,0,0,0,0
			c1.7-0.1,3.3-0.6,4.7-1.5c0,0,0,0,0,0C200.7,198.1,200,197.6,199.1,196.7z"/>
		<path class="st38" d="M108.6,96.9c-3.8,0.2-7.5,0.1-11.3,0c0,1,0,2.1,0,3.1c6,0,11.9-0.2,17.9,0.1c2.7,0.1,3.1-0.9,2.5-3.1
			c0,0,0,0,0,0c-0.2-0.3-0.5-0.6-0.7-1C114.3,97.8,111.4,96.7,108.6,96.9z"/>
		<path class="st39" d="M123.9,229C123.9,229,123.9,229,123.9,229C123.9,229,123.9,229,123.9,229c0.1,1.5,0.1,3,0.2,4.5c0,0,0,0,0,0
			c0.2,0.1,0.4,0.2,0.6,0.3c5.3-3.8,8.3-9.6,12.6-14.2c0,0,0,0,0,0c-0.6,0-1.1-0.1-1.7-0.1c0,0,0,0,0,0c-1.6,0-3.3-0.2-4.7,0.8
			C129.8,224.2,126.9,226.6,123.9,229z"/>
		<path class="st40" d="M176.4,182c-0.8-0.9-1.8-1-2.8-0.9c0,0,0,0,0,0c0,0.3-0.1,0.6-0.1,0.9c0,0,0,0,0,0c0.3,1.4,0.6,2.8,1.6,3.9
			c1.3-1.6,2,0,2.7,0.6c4.7,3.9,9.3,8,14.4,11.4c1.3,0.9,2.2,1.9,1,3.5c0.6,0.1,1.2-0.1,1.6-0.7h0c0.5-0.5,1-1.1,1.6-1.6
			C189.7,193.4,182.2,188.6,176.4,182z"/>
		<path class="st41" d="M192.1,197.8c-5.1-3.4-9.6-7.5-14.4-11.4c-0.8-0.6-1.4-2.3-2.7-0.6c0,1.7,0.6,3.2,1.6,4.6
			c1.5-2.4,2.5,0.2,3.1,0.6c4.3,3.3,8.4,6.9,12.6,10.4c0,0,0,0,0,0c0.3,0,0.6,0,0.8,0c0,0,0,0,0,0
			C194.3,199.8,193.4,198.7,192.1,197.8z"/>
		<path class="st42" d="M108.3,82.6c0-0.1,0.1-0.1,0.1-0.2c-1.1-1.8-1.9-3-2.6-4.3v0c-0.8-0.6-1.4-1.3-1.7-2.3
			c-1.6-0.9-1.7-3.9-4.5-3.1c0,0,0,0,0,0c-0.3,2.7-0.5,5.5-0.8,8.2C101.8,81.1,104.8,81.4,108.3,82.6
			C108.3,82.6,108.3,82.6,108.3,82.6z"/>
		<path class="st43" d="M97.3,94.5C97.3,94.5,97.3,94.5,97.3,94.5c0,0.8,0,1.6,0,2.4c0,0,0,0,0,0c3.8,0,7.6,0.2,11.3,0
			c2.8-0.2,5.7,1,8.3-0.8c-0.4-0.8-0.5-1.9-1.6-2.2C109.3,95.3,103.3,94.2,97.3,94.5z"/>
		<path class="st44" d="M176.6,190.4c0.2,0.5,0.4,1.1,0.7,1.6c4.5,3.1,8.6,6.7,12.7,10.2c0,0,0,0,0,0c0,0,0,0,0,0c0,0,0,0,0,0
			c0,0,0,0,0,0c0,0,0,0,0,0c0,0,0,0,0,0c0,0,0,0,0,0c1,0.2,1.6-0.5,2.3-0.9c0,0,0,0,0,0c-4.2-3.5-8.3-7.1-12.6-10.4
			C179.1,190.6,178.1,188,176.6,190.4z"/>
		<path class="st45" d="M112.4,217.9c0.2,0.3,0.5,0.7,0.8,0.7c2.1-0.1,4.4,1,6-1.4c-1.5-2.2-2.4-4.6-3-7.2
			C114.4,211,111.7,216.6,112.4,217.9z"/>
		<polygon class="st45" points="116.1,210.1 116.1,210.1 116.1,210.1 		"/>
		<path class="st46" d="M122.6,225C122.6,225,122.6,225,122.6,225c-0.1,1.5,0.6,2.7,1.3,4c0,0,0,0,0,0c3-2.4,6-4.8,7-8.8
			c-1,0-2,0.1-3,0.1C126.1,221.9,123.6,222.6,122.6,225z"/>
		<path class="st11" d="M179.8,197.5C179.8,197.5,179.8,197.5,179.8,197.5C179.8,197.5,179.8,197.5,179.8,197.5
			c0.3,0.3,0.5,0.5,0.8,0.8c0,0,0,0,0,0c1,0,1.8,0.4,2.3,1.2c1.8,2.5,4.3,3,7.2,2.8c-4.1-3.6-8.2-7.2-12.7-10.2
			c0,0.9,0.2,1.7,0.8,2.3C179.6,194.9,179.8,196.1,179.8,197.5z"/>
		<ellipse transform="matrix(0.9122 -0.4097 0.4097 0.9122 -66.1855 95.6055)" class="st11" cx="190" cy="202.3" rx="0" ry="0"/>
		<path class="st47" d="M99.9,87.5c-1.7,0-2.8,0.4-2.6,2.4c5,0,9.9,0,14.9,0c0,0,0,0,0,0c-0.2-0.3-0.5-0.5-0.7-0.8c0,0,0,0,0,0
			c0,0,0,0,0,0C107.8,86.9,103.8,87.5,99.9,87.5z"/>
		<path class="st48" d="M106.9,92.9c-3.2,0.2-6.4,0.1-9.6,0.1c0,0,0,0,0,0c0,0.5,0,1,0,1.6c0,0,0,0,0,0c6-0.4,12.1,0.8,18-0.7
			c-0.5-0.6-0.9-1.2-1.4-1.9C111.7,93.9,109.2,92.8,106.9,92.9z"/>
		<path class="st49" d="M105.8,78.1C105.8,78.1,105.8,78.1,105.8,78.1L105.8,78.1c0.8,1.2,1.5,2.5,2.6,4.3c0.1,0.1,0.1,0.2,0.2,0.3
			c-0.1,0-0.2-0.1-0.3-0.1c-3.5-1.2-6.4-1.5-9.4-1.7c4.2,2.3,9.2,2,13.5,4.2c0,0,0,0,0,0c-1.4-3.2-3.7-5.8-5.9-8.5
			C106.3,77.1,106.1,77.6,105.8,78.1z"/>
		<path class="st50" d="M97.3,91.4C97.3,91.4,97.3,91.4,97.3,91.4c0,0.5,0,1,0,1.6c0,0,0,0,0,0c0,0,0,0,0,0c0,0,0,0,0,0
			c3.2,0,6.4,0.1,9.6-0.1c2.3-0.1,4.9,0.9,7-0.9c-0.2-0.2-0.5-0.5-0.7-0.7C107.9,91.3,102.6,91.4,97.3,91.4
			C97.3,91.4,97.3,91.4,97.3,91.4z"/>
		<path class="st51" d="M97.3,91.4C97.3,91.4,97.3,91.4,97.3,91.4c5.3,0,10.6-0.1,15.9-0.1c-0.1-0.6-0.3-1.2-1-1.5
			c-5,0-9.9,0-14.9,0C97.3,90.4,97.3,90.9,97.3,91.4z"/>
		<path class="st52" d="M96.6,93c0.2,0,0.4-0.1,0.6-0.1c0,0,0,0,0,0c0-0.5,0-1,0-1.6c0,0,0,0,0,0c0-0.5,0-1,0-1.6
			c-0.2-1.9,0.8-2.4,2.6-2.4c3.9,0.1,7.9-0.5,11.6,1.6c0,0,0,0,0,0c-0.7-1.2-1.6-2.1-3-2.4c-3.9-0.5-7.8-1.5-11.7,0.1c0,0,0,0,0,0
			c0,2.1,0,4.2,0,6.2C96.6,93,96.6,93,96.6,93C96.6,93,96.6,93,96.6,93z"/>
		<path class="st53" d="M190,202.3C190,202.3,190,202.3,190,202.3C190,202.3,190,202.3,190,202.3c-2.9,0.3-5.4-0.3-7.2-2.8
			c-0.5-0.8-1.4-1.2-2.3-1.2c0,0.8,0,1.6,0,2.4c0,0,0,0,0,0c0,0,0,0,0,0l0,0c0,0,0,0,0,0c1.4,3.7,4.6,2.4,7.2,2.4
			c-0.1,0-0.2,0.1-0.2,0.1c0.1,0,0.2-0.1,0.2-0.1C188.6,203,189.4,203,190,202.3C190,202.3,190,202.3,190,202.3
			C190,202.3,190,202.3,190,202.3z"/>
		<path class="st54" d="M108.4,86.6c-2.9-2.5-6.3-2.5-9.8-2.4c-1.7,0.1-2.4,0.8-1.9,2.4c0,0,0,0,0,0
			C100.6,85.1,104.5,86.1,108.4,86.6z"/>
		<path class="st55" d="M106.5,195.3c0.3-0.3,0.7-0.6,1-1c-1.2-1.7-3.3-2.9-3.3-5.4v0c-1.7,3-3.9,5.8-3.8,9.6c0,0,0,0,0,0
			c0.4-0.7,0.8-1.3,1.1-2C103.3,192.2,103.3,192.2,106.5,195.3z"/>
		<path class="st56" d="M104.1,75.8c0.4-0.4,0.8-0.7,1.1-1.1c0,0,0,0,0,0c0,0,0,0,0,0c-0.8-1.9-2.9-3.1-3.3-5.3c0,0,0,0,0,0
			c-0.9,1-3.1,1.1-2.3,3.3c0,0,0,0,0,0C102.5,71.9,102.6,74.9,104.1,75.8z"/>
		<path class="st57" d="M134.9,128.4C134.9,128.4,134.9,128.4,134.9,128.4c-0.2-2.2-1.3-4-2.8-5.5c0,0,0,0,0,0c-0.4,0-0.7,0-1.1,0v0
			c0.5,2.6,1.7,5,3,7.4C134.3,129.6,134.6,129,134.9,128.4z"/>
		<path class="st9" d="M117,210.1C117,210.1,117,210.1,117,210.1c-0.3,0-0.6,0-0.9,0c0,0,0,0,0,0c0.7,2.5,1.5,5,3,7.2
			c0.3-0.5,0.5-1.1,0.8-1.6c0,0,0,0,0,0C119.8,213.4,118.4,211.7,117,210.1z"/>
		<path class="st58" d="M122.6,225c1-2.4,3.5-3.1,5.3-4.6c-2.2,0-4.5,0.2-6.4,1.5c0,0,0,0,0,0C121.9,222.9,122.2,224,122.6,225
			C122.6,225,122.6,225,122.6,225z"/>
		<path class="st59" d="M133.4,216.3c4.3-0.2,8.5-0.8,12.6-2.3c0,0,0,0,0,0C141.7,214.1,137.4,214.6,133.4,216.3z"/>
		<path class="st60" d="M136.6,132.9C136.6,132.9,136.6,132.9,136.6,132.9c-0.2,0.9,0.1,1.9-0.8,2.5c-0.1,2.1,1,3.8,1.6,5.7l0.3,0
			c0,0,0.3,0.1,0.3,0.1c0,0,0,0,0,0c0.5-1.1-1.3-2.4,0.2-3.4c0,0,0,0,0,0C138,136,137.6,134.3,136.6,132.9
			C136.6,132.9,136.6,132.9,136.6,132.9z"/>
		<path class="st61" d="M180.5,200.7C180.5,200.7,180.5,200.7,180.5,200.7C180.5,200.7,180.5,200.7,180.5,200.7
			C180.5,200.7,180.5,200.7,180.5,200.7c0-0.8,0-1.6,0-2.4c0,0,0,0,0,0c-0.3-0.3-0.5-0.5-0.8-0.8c0,0,0,0,0,0c-0.2,0-0.4,0-0.7,0h0
			C179.1,198.8,179.6,199.8,180.5,200.7c1,4.6,1.7,4.9,7,2.5c0.1,0,0.2-0.1,0.2-0.1C185.1,203.1,182,204.4,180.5,200.7z"/>
		<path class="st62" d="M112.1,203.1C112.1,203.1,112.1,203.1,112.1,203.1C112.1,203.1,112.1,203.1,112.1,203.1
			c1.5,2.1-0.1,4.1,0,6.2c2.2-1.9,1.3-4.9,2.4-7.1l0,0c-0.5-0.2-1-0.5-1.5-0.7C112.9,202.1,112.8,202.7,112.1,203.1z"/>
		<path class="st35" d="M170.4,172.4c-0.2-1.2-0.5-2.4-1.6-3.1c0,0,0,0,0,0c0,0,0,0,0,0c0,0,0,0,0,0c0.1,1.5,0.5,2.9,1.6,4
			c0,0,0,0,0,0C170.3,173,170.3,172.7,170.4,172.4z"/>
		<path class="st53" d="M179.8,197.5c0.1-1.4-0.1-2.6-1.6-3.1c0.3,1,0.7,2.1,1,3.1C179.3,197.5,179.6,197.5,179.8,197.5
			C179.8,197.5,179.8,197.5,179.8,197.5z"/>
		<path class="st63" d="M135.3,132.1C135.3,132.1,135.4,132.1,135.3,132.1c0.1-0.1,0.1-0.1,0.1-0.1c0.1-0.1,0.1-0.1,0.2-0.2
			c0,0,0,0,0,0c0.6-1.3,0-2.4-0.7-3.5c0,0,0,0,0,0c-0.3,0.6-0.6,1.2-0.9,1.9C134.1,131.1,134.2,131.9,135.3,132.1z"/>
		<path class="st64" d="M135.4,132.1C135.4,132.1,135.4,132.1,135.4,132.1c-0.1,0-0.1,0.1-0.1,0.1c-0.8,1.2,0,2.2,0.5,3.3
			c0,0,0,0,0,0c0.9-0.6,0.6-1.6,0.8-2.5c0,0,0,0,0,0c-0.1-0.6-0.1-1.3-1-1.1c0,0,0,0,0,0c0,0,0,0,0,0
			C135.6,132,135.5,132,135.4,132.1z"/>
		<path class="st65" d="M104.1,75.8c0.3,1,0.9,1.7,1.7,2.3c0,0,0,0,0,0c0.2-0.5,0.5-1,0.7-1.5c0,0,0,0,0,0c0-0.9-0.6-1.4-1.2-1.9
			c0,0,0,0,0,0C104.9,75,104.5,75.4,104.1,75.8z"/>
		<path class="st66" d="M108.8,198.5c0.7-0.3,1-0.8,1-1.5v0c-0.8-0.8-1-2.2-2.3-2.6c-0.3,0.3-0.7,0.6-1,1
			C107.3,196.3,108,197.4,108.8,198.5z"/>
		<path class="st67" d="M108.8,198.5c0.5,1.1,1.2,2.1,2.6,2.2c0,0,0,0,0,0c0,0,0,0,0,0c0.2-1.6-0.3-2.8-1.6-3.7c0,0,0,0,0,0
			C109.8,197.6,109.5,198.2,108.8,198.5z"/>
		<path class="st68" d="M111.4,200.7c-0.2,0.9-0.1,1.8,0.7,2.4c0,0,0,0,0,0c0.7-0.3,0.9-1,0.9-1.7
			C112.7,200.6,112.2,200.4,111.4,200.7C111.4,200.6,111.4,200.6,111.4,200.7C111.4,200.6,111.4,200.7,111.4,200.7z"/>
		<path class="st69" d="M176.4,182c5.8,6.7,13.3,11.4,19.9,17.1c0.5-0.4,3,0.7,1.3-1.4c-1-1.3-2.5-2.2-3.9-3.2
			c-7.2-5.2-13.1-12-20.6-17c-0.8,1.4,0.5,2.3,0.4,3.5c0,0,0,0,0,0c0,0,0,0,0,0C174.6,181,175.6,181.1,176.4,182z"/>
	</g>
</g>
</svg>
