<?xml version="1.0" encoding="utf-8"?>
<!-- Generator: Adobe Illustrator 21.1.0, SVG Export Plug-In . SVG Version: 6.00 Build 0)  -->
<svg version="1.1" id="Layer_1" xmlns="http://www.w3.org/2000/svg" xmlns:xlink="http://www.w3.org/1999/xlink" x="0px" y="0px"
	 viewBox="0 0 288 288" style="enable-background:new 0 0 288 288;" xml:space="preserve">
<style type="text/css">
	.st0{fill:#999999;}
</style>
<g id="AsIV6N.tif">
	<g>
		<path d="M73.3,107.3c-5.4,12.2-10.8,24.3-16.2,36.3c-0.4,0.8-0.7,1.7-1.1,2.5c-0.4,0.8-1.2,0.9-1.9,0.7c-1-0.4-0.3-1.1-0.1-1.7
			c6.4-14.4,12.8-28.8,19.3-43.3c1,0.3,1,1.2,1.3,1.8c6.1,13.6,12.1,27.2,18.2,40.7c0.8,1.8,0.9,2.6-1.5,2.5c-9.3-0.1-18.6,0-28,0
			c-0.4,0-0.8,0-1.2,0c-0.5,0-0.9-0.2-1-0.9c0-0.6,0.4-0.9,0.9-0.9c0.7,0,1.3,0,2,0c8.1,0,16.1,0,24.2,0c1.4,0,2.3-0.1,1.5-1.9
			c-5.3-11.7-10.5-23.5-15.8-35.3C73.9,107.8,73.7,107.7,73.3,107.3z"/>
		<path d="M108.3,123.9c0-6.7,0-13.5,0-20.2c0-1.7,0.3-2.5,2.3-2.5c5.7,0.2,11.5-0.2,17.2,1c2.6,0.6,5.1,1.4,7.3,3
			c5.7,4.1,5.7,12.3-0.1,16.3c-1.8,1.2-3.8,2-5.7,3c-0.7,0.4-1.3,0.3-1.7-0.5c-0.6-1,0.4-1.1,0.9-1.3c1.4-0.7,2.9-1.3,4.2-2.1
			c5.9-3.4,5.9-11.3,0-14.7c-3.5-2-7.4-2.5-11.3-2.7c-2.8-0.2-5.7,0-8.5-0.1c-1.8-0.1-2.2,0.6-2.2,2.3c0.1,12.8,0,25.6,0,38.5
			c0,0.7,0,1.3,0,2c0,0.8-0.4,1-1.1,1c-0.7,0-1.1-0.3-1.1-1c0-0.6,0-1.2,0-1.7C108.3,137.4,108.3,130.7,108.3,123.9z"/>
		<path d="M155.4,123.9c0-6.8,0-13.7,0-20.5c0-1.6,0.3-2.2,2.1-2.2c9.4,0,18.8-0.1,28.2-0.2c0.9,0,2-0.3,1.9,1.2
			c0,1.5-1.2,1.1-2,1.1c-8.4,0.1-16.8,0.3-25.2,0.2c-2.3,0-2.7,0.7-2.7,2.8c0.1,11.9,0.1,23.8,0,35.7c0,2.2,0.5,3,2.9,3
			c8.5-0.2,17-0.1,25.5-0.1c0.7,0,1.3,0,2,0.1c0.5,0,0.7,0.3,0.8,0.8c0,0.5-0.2,0.8-0.7,0.9c-0.6,0.1-1.2,0.1-1.7,0.1
			c-9.4,0-18.8-0.1-28.2,0.1c-2.3,0-2.7-0.8-2.7-2.9C155.5,137.4,155.4,130.7,155.4,123.9z"/>
		<path d="M202.9,101.5c1.5-0.6,2.4,0.1,3.2,1.4c3.4,5.4,7,10.7,10.4,16.1c1.1,1.8,1.6,1.5,2.6-0.1c3.4-5.3,6.9-10.6,10.3-15.9
			c0.4-0.5,0.7-1.2,1.2-1.5c0.5-0.4,1.4-0.4,1.9,0c0.6,0.5-0.1,1-0.4,1.4c-9.3,14.3-18.6,28.6-27.9,42.8c-0.2,0.3-0.3,0.6-0.6,0.8
			c-0.6,0.5-1.5,0.6-2.1,0.1c-0.6-0.5,0.1-1.1,0.4-1.5c2.7-4.1,5.3-8.2,8-12.3c1.7-2.6,3.3-5.4,5.2-7.9c1.2-1.6,0.9-2.6-0.1-4.1
			c-3.8-5.6-7.4-11.2-11.1-16.9C203.7,103.1,203,102.5,202.9,101.5z"/>
		<path d="M220.9,125.5c4.3,6.7,8.7,13.3,13,20c0.2,0.3,0.6,0.8,0.3,1.1c-0.3,0.3-0.9,0.3-1.4,0.3c-1-0.1-1.3-1-1.7-1.7
			c-3.6-5.4-7.1-10.9-10.6-16.3C219.6,127.7,219.2,126.6,220.9,125.5z"/>
		<path d="M173.5,125.2c-3.6,0-7.2,0-10.7,0c-0.7,0-1.8,0.3-1.7-1.1c0.1-1.2,1.1-0.8,1.7-0.8c7.2,0,14.3,0,21.5,0
			c0.7,0,1.8-0.3,1.7,1.1c-0.1,1.2-1.1,0.8-1.7,0.8C180.6,125.2,177.1,125.2,173.5,125.2z"/>
	</g>
</g>
<g>
	<path class="st0" d="M9.8,182.1c0.2,0.8,0.5,1.4,0.9,1.8c0.5,0.3,1.1,0.5,2,0.5c0.4,0,0.8,0,1.1-0.1c0.3-0.1,0.5-0.2,0.7-0.4
		c0.2-0.2,0.3-0.4,0.4-0.6c0.1-0.2,0.1-0.4,0.1-0.7c0-0.5-0.2-0.8-0.5-1.1c-0.3-0.2-0.7-0.4-1.1-0.5s-1-0.2-1.5-0.3
		c-0.5-0.1-1-0.2-1.5-0.4c-0.5-0.2-0.8-0.5-1.1-0.8s-0.5-0.8-0.5-1.5c0-0.8,0.3-1.5,0.9-2c0.6-0.5,1.4-0.8,2.5-0.8
		c1,0,1.9,0.2,2.6,0.7c0.7,0.5,1,1.2,1.2,2.3h-1.1c-0.1-0.7-0.4-1.3-0.9-1.6c-0.5-0.3-1.1-0.5-1.8-0.5c-0.7,0-1.3,0.2-1.6,0.5
		c-0.4,0.3-0.6,0.7-0.6,1.2c0,0.4,0.2,0.8,0.5,1c0.3,0.2,0.7,0.4,1.1,0.6c0.5,0.1,1,0.3,1.5,0.4c0.5,0.1,1,0.3,1.5,0.5
		c0.5,0.2,0.8,0.5,1.1,0.8s0.5,0.8,0.5,1.5c0,0.5-0.1,0.9-0.3,1.2c-0.2,0.4-0.5,0.7-0.8,0.9c-0.3,0.2-0.8,0.4-1.2,0.5
		c-0.5,0.1-1,0.2-1.6,0.2c-0.6,0-1.1-0.1-1.5-0.3c-0.4-0.2-0.8-0.4-1.1-0.7s-0.6-0.6-0.7-1c-0.2-0.4-0.3-0.8-0.3-1.3H9.8z"/>
	<path class="st0" d="M22.9,180.5c0,0.5,0.1,1,0.2,1.5c0.1,0.5,0.3,0.9,0.6,1.2s0.6,0.6,1,0.8c0.4,0.2,0.9,0.3,1.4,0.3
		c0.7,0,1.4-0.2,1.9-0.6c0.5-0.4,0.9-0.9,1-1.6h1.3c-0.1,0.5-0.3,0.9-0.5,1.3s-0.5,0.7-0.8,1s-0.7,0.5-1.2,0.7
		c-0.5,0.2-1,0.2-1.6,0.2c-0.8,0-1.4-0.1-2-0.4c-0.6-0.3-1-0.6-1.4-1.1c-0.4-0.5-0.6-1-0.8-1.6c-0.2-0.6-0.3-1.3-0.3-2
		s0.1-1.4,0.3-2s0.5-1.2,0.9-1.6c0.4-0.5,0.8-0.8,1.4-1.1c0.5-0.3,1.2-0.4,1.9-0.4c1.3,0,2.4,0.5,3.1,1.4c0.8,0.9,1.1,2.2,1.1,4
		H22.9z M29.2,179.6c0-0.5-0.1-0.9-0.2-1.3c-0.1-0.4-0.3-0.8-0.6-1.1c-0.3-0.3-0.6-0.5-1-0.7c-0.4-0.2-0.8-0.3-1.3-0.3
		c-0.5,0-0.9,0.1-1.3,0.3c-0.4,0.2-0.7,0.4-1,0.7s-0.5,0.7-0.6,1.1c-0.2,0.4-0.3,0.8-0.3,1.3H29.2z"/>
	<path class="st0" d="M37.5,185.1h-1.1v-9.7h1.1v1.8h0c0.3-0.8,0.7-1.3,1.2-1.6s1.1-0.5,2-0.5v1.2c-0.6,0-1.2,0.1-1.6,0.3
		s-0.7,0.5-1,0.9c-0.2,0.4-0.4,0.8-0.5,1.3c-0.1,0.5-0.1,1-0.1,1.5V185.1z"/>
	<path class="st0" d="M45.3,175.4h1.2l3.1,8.3l3.1-8.3H54l-3.8,9.7H49L45.3,175.4z"/>
	<path class="st0" d="M60.1,180.5c0,0.5,0.1,1,0.2,1.5c0.1,0.5,0.3,0.9,0.6,1.2s0.6,0.6,1,0.8c0.4,0.2,0.9,0.3,1.4,0.3
		c0.7,0,1.4-0.2,1.9-0.6c0.5-0.4,0.9-0.9,1-1.6h1.3c-0.1,0.5-0.3,0.9-0.5,1.3s-0.5,0.7-0.8,1s-0.7,0.5-1.2,0.7
		c-0.5,0.2-1,0.2-1.6,0.2c-0.8,0-1.4-0.1-2-0.4c-0.6-0.3-1-0.6-1.4-1.1c-0.4-0.5-0.6-1-0.8-1.6c-0.2-0.6-0.3-1.3-0.3-2
		s0.1-1.4,0.3-2s0.5-1.2,0.9-1.6c0.4-0.5,0.8-0.8,1.4-1.1c0.5-0.3,1.2-0.4,1.9-0.4c1.3,0,2.4,0.5,3.1,1.4c0.8,0.9,1.1,2.2,1.1,4
		H60.1z M66.4,179.6c0-0.5-0.1-0.9-0.2-1.3c-0.1-0.4-0.3-0.8-0.6-1.1c-0.3-0.3-0.6-0.5-1-0.7c-0.4-0.2-0.8-0.3-1.3-0.3
		c-0.5,0-0.9,0.1-1.3,0.3c-0.4,0.2-0.7,0.4-1,0.7s-0.5,0.7-0.6,1.1c-0.2,0.4-0.3,0.8-0.3,1.3H66.4z"/>
	<path class="st0" d="M74.7,185.1h-1.1v-9.7h1.1v1.8h0c0.3-0.8,0.7-1.3,1.2-1.6s1.1-0.5,2-0.5v1.2c-0.6,0-1.2,0.1-1.6,0.3
		s-0.7,0.5-1,0.9c-0.2,0.4-0.4,0.8-0.5,1.3c-0.1,0.5-0.1,1-0.1,1.5V185.1z"/>
	<path class="st0" d="M83.6,185.1v-13.5h1.1v13.5H83.6z"/>
	<path class="st0" d="M92,180.5c0,0.5,0.1,1,0.2,1.5c0.1,0.5,0.3,0.9,0.6,1.2s0.6,0.6,1,0.8c0.4,0.2,0.9,0.3,1.4,0.3
		c0.7,0,1.4-0.2,1.9-0.6c0.5-0.4,0.9-0.9,1-1.6h1.3c-0.1,0.5-0.3,0.9-0.5,1.3s-0.5,0.7-0.8,1s-0.7,0.5-1.2,0.7
		c-0.5,0.2-1,0.2-1.6,0.2c-0.8,0-1.4-0.1-2-0.4c-0.6-0.3-1-0.6-1.4-1.1c-0.4-0.5-0.6-1-0.8-1.6c-0.2-0.6-0.3-1.3-0.3-2
		s0.1-1.4,0.3-2s0.5-1.2,0.9-1.6c0.4-0.5,0.8-0.8,1.4-1.1c0.5-0.3,1.2-0.4,1.9-0.4c1.3,0,2.4,0.5,3.1,1.4c0.8,0.9,1.1,2.2,1.1,4H92z
		 M98.4,179.6c0-0.5-0.1-0.9-0.2-1.3c-0.1-0.4-0.3-0.8-0.6-1.1c-0.3-0.3-0.6-0.5-1-0.7c-0.4-0.2-0.8-0.3-1.3-0.3
		c-0.5,0-0.9,0.1-1.3,0.3c-0.4,0.2-0.7,0.4-1,0.7s-0.5,0.7-0.6,1.1c-0.2,0.4-0.3,0.8-0.3,1.3H98.4z"/>
	<path class="st0" d="M106.1,182.1c0.2,0.8,0.5,1.4,0.9,1.8c0.5,0.3,1.1,0.5,2,0.5c0.4,0,0.8,0,1.1-0.1c0.3-0.1,0.5-0.2,0.7-0.4
		c0.2-0.2,0.3-0.4,0.4-0.6c0.1-0.2,0.1-0.4,0.1-0.7c0-0.5-0.2-0.8-0.5-1.1c-0.3-0.2-0.7-0.4-1.1-0.5s-1-0.2-1.5-0.3
		c-0.5-0.1-1-0.2-1.5-0.4c-0.5-0.2-0.8-0.5-1.1-0.8s-0.5-0.8-0.5-1.5c0-0.8,0.3-1.5,0.9-2c0.6-0.5,1.4-0.8,2.5-0.8
		c1,0,1.9,0.2,2.6,0.7c0.7,0.5,1,1.2,1.2,2.3h-1.1c-0.1-0.7-0.4-1.3-0.9-1.6c-0.5-0.3-1.1-0.5-1.8-0.5c-0.7,0-1.3,0.2-1.6,0.5
		c-0.4,0.3-0.6,0.7-0.6,1.2c0,0.4,0.2,0.8,0.5,1c0.3,0.2,0.7,0.4,1.1,0.6c0.5,0.1,1,0.3,1.5,0.4c0.5,0.1,1,0.3,1.5,0.5
		c0.5,0.2,0.8,0.5,1.1,0.8s0.5,0.8,0.5,1.5c0,0.5-0.1,0.9-0.3,1.2c-0.2,0.4-0.5,0.7-0.8,0.9c-0.3,0.2-0.8,0.4-1.2,0.5
		c-0.5,0.1-1,0.2-1.6,0.2c-0.6,0-1.1-0.1-1.5-0.3c-0.4-0.2-0.8-0.4-1.1-0.7s-0.6-0.6-0.7-1c-0.2-0.4-0.3-0.8-0.3-1.3H106.1z"/>
	<path class="st0" d="M119.2,182.1c0.2,0.8,0.5,1.4,0.9,1.8c0.5,0.3,1.1,0.5,2,0.5c0.4,0,0.8,0,1.1-0.1c0.3-0.1,0.5-0.2,0.7-0.4
		c0.2-0.2,0.3-0.4,0.4-0.6c0.1-0.2,0.1-0.4,0.1-0.7c0-0.5-0.2-0.8-0.5-1.1c-0.3-0.2-0.7-0.4-1.1-0.5s-1-0.2-1.5-0.3
		c-0.5-0.1-1-0.2-1.5-0.4c-0.5-0.2-0.8-0.5-1.1-0.8s-0.5-0.8-0.5-1.5c0-0.8,0.3-1.5,0.9-2c0.6-0.5,1.4-0.8,2.5-0.8
		c1,0,1.9,0.2,2.6,0.7c0.7,0.5,1,1.2,1.2,2.3h-1.1c-0.1-0.7-0.4-1.3-0.9-1.6c-0.5-0.3-1.1-0.5-1.8-0.5c-0.7,0-1.3,0.2-1.6,0.5
		c-0.4,0.3-0.6,0.7-0.6,1.2c0,0.4,0.2,0.8,0.5,1c0.3,0.2,0.7,0.4,1.1,0.6c0.5,0.1,1,0.3,1.5,0.4c0.5,0.1,1,0.3,1.5,0.5
		c0.5,0.2,0.8,0.5,1.1,0.8s0.5,0.8,0.5,1.5c0,0.5-0.1,0.9-0.3,1.2c-0.2,0.4-0.5,0.7-0.8,0.9c-0.3,0.2-0.8,0.4-1.2,0.5
		c-0.5,0.1-1,0.2-1.6,0.2c-0.6,0-1.1-0.1-1.5-0.3c-0.4-0.2-0.8-0.4-1.1-0.7s-0.6-0.6-0.7-1c-0.2-0.4-0.3-0.8-0.3-1.3H119.2z"/>
	<path class="st0" d="M145,179.5c0.2,0,0.5-0.1,0.8-0.1c0.3,0,0.5-0.1,0.7-0.2c0.2-0.1,0.3-0.2,0.3-0.4c0-0.2,0.1-0.4,0.1-0.6
		c0-0.6-0.2-1-0.6-1.4s-1-0.6-1.9-0.6c-0.4,0-0.7,0-1.1,0.1c-0.3,0.1-0.6,0.2-0.8,0.4s-0.4,0.4-0.6,0.7c-0.2,0.3-0.3,0.6-0.3,1.1
		h-1.1c0-0.6,0.2-1.1,0.4-1.5c0.2-0.4,0.5-0.7,0.9-1c0.4-0.3,0.8-0.4,1.2-0.6s1-0.2,1.5-0.2c0.5,0,0.9,0.1,1.4,0.2s0.8,0.3,1.1,0.5
		c0.3,0.2,0.6,0.5,0.7,0.9c0.2,0.4,0.3,0.9,0.3,1.4v5.3c0,0.4,0.1,0.7,0.2,0.8c0.2,0.1,0.5,0.1,0.9-0.1v0.9c-0.1,0-0.2,0.1-0.4,0.1
		c-0.2,0-0.3,0.1-0.5,0.1c-0.2,0-0.3,0-0.5-0.1c-0.2,0-0.3-0.1-0.4-0.2s-0.2-0.2-0.3-0.3c-0.1-0.1-0.1-0.3-0.1-0.4
		c0-0.2,0-0.3,0-0.5c-0.5,0.5-1,0.9-1.6,1.2c-0.6,0.3-1.3,0.4-2,0.4c-0.4,0-0.8-0.1-1.2-0.2c-0.4-0.1-0.7-0.3-1-0.5
		s-0.5-0.5-0.7-0.9s-0.3-0.8-0.3-1.2c0-1.6,1.1-2.6,3.4-2.9L145,179.5z M146.9,180c-0.5,0.2-1,0.3-1.4,0.4c-0.5,0.1-1,0.1-1.5,0.1
		c-0.9,0.1-1.5,0.3-2,0.6c-0.5,0.3-0.7,0.8-0.7,1.5c0,0.3,0.1,0.6,0.2,0.8c0.1,0.2,0.3,0.4,0.5,0.5c0.2,0.1,0.4,0.2,0.7,0.3
		c0.3,0.1,0.5,0.1,0.8,0.1c0.4,0,0.9-0.1,1.3-0.2c0.4-0.1,0.8-0.3,1.1-0.5s0.6-0.5,0.8-0.9c0.2-0.4,0.3-0.8,0.3-1.3V180z"/>
	<path class="st0" d="M155.9,185.1h-1.1v-9.7h1.1v1.8h0c0.3-0.8,0.7-1.3,1.2-1.6s1.1-0.5,2-0.5v1.2c-0.6,0-1.2,0.1-1.6,0.3
		s-0.7,0.5-1,0.9c-0.2,0.4-0.4,0.8-0.5,1.3c-0.1,0.5-0.1,1-0.1,1.5V185.1z"/>
	<path class="st0" d="M171.5,178.5c-0.2-0.7-0.5-1.3-1-1.7c-0.5-0.4-1.1-0.6-1.8-0.6c-0.6,0-1.1,0.1-1.5,0.4s-0.7,0.6-1,0.9
		c-0.3,0.4-0.5,0.8-0.6,1.3c-0.1,0.5-0.2,1-0.2,1.5c0,0.5,0.1,1,0.2,1.5c0.1,0.5,0.3,0.9,0.6,1.3c0.3,0.4,0.6,0.7,1,0.9
		s0.9,0.3,1.5,0.3c0.8,0,1.5-0.2,2-0.7c0.5-0.5,0.8-1.1,1-1.9h1.2c-0.1,0.5-0.3,1-0.5,1.5c-0.2,0.4-0.5,0.8-0.8,1.1
		c-0.3,0.3-0.8,0.6-1.2,0.7s-1,0.3-1.6,0.3c-0.8,0-1.4-0.1-2-0.4s-1-0.6-1.4-1.1s-0.6-1-0.8-1.6s-0.3-1.3-0.3-2
		c0-0.7,0.1-1.3,0.3-1.9c0.2-0.6,0.5-1.2,0.9-1.6c0.4-0.5,0.8-0.8,1.4-1.1s1.2-0.4,1.9-0.4c1.1,0,2,0.3,2.7,0.8
		c0.7,0.5,1.1,1.4,1.3,2.5H171.5z"/>
	<path class="st0" d="M178.8,185.1v-13.5h1.1v5.1c0.4-0.5,0.9-0.9,1.4-1.2c0.5-0.3,1.1-0.4,1.7-0.4c0.6,0,1.2,0.1,1.7,0.3
		c0.5,0.2,0.9,0.6,1.3,1.1c0.2,0.3,0.4,0.7,0.4,1.1c0,0.4,0.1,0.8,0.1,1.1v6.3h-1.1v-6.3c0-0.9-0.2-1.5-0.6-2
		c-0.4-0.4-1-0.7-1.9-0.7c-0.3,0-0.7,0.1-1,0.2c-0.3,0.1-0.5,0.2-0.8,0.4c-0.2,0.2-0.4,0.4-0.6,0.6s-0.3,0.5-0.4,0.7
		c-0.1,0.3-0.2,0.6-0.2,0.9c0,0.3,0,0.6,0,0.9v5.2H178.8z"/>
	<path class="st0" d="M193,173.3v-1.7h1.2v1.7H193z M193.1,185.1v-9.7h1.1v9.7H193.1z"/>
	<path class="st0" d="M204.2,185.2c-0.1,0-0.3,0.1-0.5,0.1c-0.2,0.1-0.5,0.1-0.7,0.1c-0.6,0-1-0.1-1.3-0.4s-0.4-0.8-0.4-1.5v-7.1
		h-1.4v-0.9h1.4v-2.7h1.1v2.7h1.8v0.9h-1.8v6.6c0,0.2,0,0.4,0,0.6c0,0.2,0,0.3,0.1,0.4c0.1,0.1,0.2,0.2,0.3,0.2s0.3,0.1,0.6,0.1
		c0.1,0,0.3,0,0.5,0c0.2,0,0.3-0.1,0.5-0.1V185.2z"/>
	<path class="st0" d="M210.4,180.5c0,0.5,0.1,1,0.2,1.5c0.1,0.5,0.3,0.9,0.6,1.2s0.6,0.6,1,0.8c0.4,0.2,0.9,0.3,1.4,0.3
		c0.7,0,1.4-0.2,1.9-0.6c0.5-0.4,0.9-0.9,1-1.6h1.3c-0.1,0.5-0.3,0.9-0.5,1.3c-0.2,0.4-0.5,0.7-0.8,1c-0.3,0.3-0.7,0.5-1.2,0.7
		s-1,0.2-1.6,0.2c-0.8,0-1.4-0.1-2-0.4s-1-0.6-1.4-1.1s-0.6-1-0.8-1.6c-0.2-0.6-0.3-1.3-0.3-2s0.1-1.4,0.3-2
		c0.2-0.6,0.5-1.2,0.9-1.6c0.4-0.5,0.8-0.8,1.4-1.1c0.5-0.3,1.2-0.4,1.9-0.4c1.3,0,2.4,0.5,3.1,1.4c0.8,0.9,1.1,2.2,1.1,4H210.4z
		 M216.7,179.6c0-0.5-0.1-0.9-0.2-1.3c-0.1-0.4-0.3-0.8-0.6-1.1c-0.3-0.3-0.6-0.5-1-0.7c-0.4-0.2-0.8-0.3-1.3-0.3s-0.9,0.1-1.3,0.3
		c-0.4,0.2-0.7,0.4-1,0.7s-0.5,0.7-0.6,1.1s-0.3,0.8-0.3,1.3H216.7z"/>
	<path class="st0" d="M230.7,178.5c-0.2-0.7-0.5-1.3-1-1.7c-0.5-0.4-1.1-0.6-1.8-0.6c-0.6,0-1.1,0.1-1.5,0.4s-0.7,0.6-1,0.9
		c-0.3,0.4-0.5,0.8-0.6,1.3c-0.1,0.5-0.2,1-0.2,1.5c0,0.5,0.1,1,0.2,1.5c0.1,0.5,0.3,0.9,0.6,1.3c0.3,0.4,0.6,0.7,1,0.9
		s0.9,0.3,1.5,0.3c0.8,0,1.5-0.2,2-0.7c0.5-0.5,0.8-1.1,1-1.9h1.2c-0.1,0.5-0.3,1-0.5,1.5c-0.2,0.4-0.5,0.8-0.8,1.1
		c-0.3,0.3-0.8,0.6-1.2,0.7s-1,0.3-1.6,0.3c-0.8,0-1.4-0.1-2-0.4s-1-0.6-1.4-1.1s-0.6-1-0.8-1.6s-0.3-1.3-0.3-2
		c0-0.7,0.1-1.3,0.3-1.9c0.2-0.6,0.5-1.2,0.9-1.6c0.4-0.5,0.8-0.8,1.4-1.1s1.2-0.4,1.9-0.4c1.1,0,2,0.3,2.7,0.8
		c0.7,0.5,1.1,1.4,1.3,2.5H230.7z"/>
	<path class="st0" d="M241.4,185.2c-0.1,0-0.3,0.1-0.5,0.1c-0.2,0.1-0.5,0.1-0.7,0.1c-0.6,0-1-0.1-1.3-0.4s-0.4-0.8-0.4-1.5v-7.1
		H237v-0.9h1.4v-2.7h1.1v2.7h1.8v0.9h-1.8v6.6c0,0.2,0,0.4,0,0.6c0,0.2,0,0.3,0.1,0.4c0.1,0.1,0.2,0.2,0.3,0.2s0.3,0.1,0.6,0.1
		c0.1,0,0.3,0,0.5,0c0.2,0,0.3-0.1,0.5-0.1V185.2z"/>
	<path class="st0" d="M253.5,175.4h1.1v9.7h-1.1v-1.3c-0.1,0.2-0.3,0.4-0.5,0.5c-0.2,0.2-0.4,0.4-0.6,0.5c-0.2,0.2-0.5,0.3-0.8,0.4
		c-0.3,0.1-0.7,0.2-1.1,0.2c-0.6,0-1.2-0.1-1.6-0.3c-0.4-0.2-0.8-0.4-1.1-0.8c-0.3-0.3-0.5-0.7-0.6-1.1c-0.1-0.4-0.2-0.9-0.2-1.4
		v-6.4h1.1v6.4c0,0.8,0.2,1.5,0.6,1.9c0.4,0.4,1,0.7,1.9,0.7c0.5,0,0.9-0.1,1.2-0.3s0.7-0.4,0.9-0.8c0.2-0.3,0.4-0.7,0.6-1.2
		c0.1-0.4,0.2-0.9,0.2-1.5V175.4z"/>
	<path class="st0" d="M262.2,185.1h-1.1v-9.7h1.1v1.8h0c0.3-0.8,0.7-1.3,1.2-1.6s1.1-0.5,2-0.5v1.2c-0.6,0-1.2,0.1-1.6,0.3
		s-0.7,0.5-1,0.9c-0.2,0.4-0.4,0.8-0.5,1.3c-0.1,0.5-0.1,1-0.1,1.5V185.1z"/>
	<path class="st0" d="M271.7,180.5c0,0.5,0.1,1,0.2,1.5c0.1,0.5,0.3,0.9,0.6,1.2s0.6,0.6,1,0.8c0.4,0.2,0.9,0.3,1.4,0.3
		c0.7,0,1.4-0.2,1.9-0.6c0.5-0.4,0.9-0.9,1-1.6h1.3c-0.1,0.5-0.3,0.9-0.5,1.3c-0.2,0.4-0.5,0.7-0.8,1c-0.3,0.3-0.7,0.5-1.2,0.7
		s-1,0.2-1.6,0.2c-0.8,0-1.4-0.1-2-0.4s-1-0.6-1.4-1.1s-0.6-1-0.8-1.6c-0.2-0.6-0.3-1.3-0.3-2s0.1-1.4,0.3-2
		c0.2-0.6,0.5-1.2,0.9-1.6c0.4-0.5,0.8-0.8,1.4-1.1c0.5-0.3,1.2-0.4,1.9-0.4c1.3,0,2.4,0.5,3.1,1.4c0.8,0.9,1.1,2.2,1.1,4H271.7z
		 M278,179.6c0-0.5-0.1-0.9-0.2-1.3c-0.1-0.4-0.3-0.8-0.6-1.1c-0.3-0.3-0.6-0.5-1-0.7c-0.4-0.2-0.8-0.3-1.3-0.3s-0.9,0.1-1.3,0.3
		c-0.4,0.2-0.7,0.4-1,0.7s-0.5,0.7-0.6,1.1s-0.3,0.8-0.3,1.3H278z"/>
</g>
</svg>
