<svg id="_1_color" data-name="1 color" xmlns="http://www.w3.org/2000/svg" viewBox="0 0 400 400"><defs><style>.cls-1{fill:#1380c4;}</style></defs><title>logo_aqua_blue</title><path class="cls-1" d="M109.83,174.57h26V149.14h-26ZM60.22,250.86H83.8l26-25.43H60.22Zm47.16-101.72H83.8l-26,25.43h49.61Zm91.88,23.52a19.34,19.34,0,0,0-7.32-3.35,44.53,44.53,0,0,0-9.67-.9,52.36,52.36,0,0,0-9.53.89c-3.17.59-5.64,1.14-7.34,1.63l-.81.23v11.24h1.88l.21-.09a49,49,0,0,1,8.36-2.68,34,34,0,0,1,7.19-.92,35.47,35.47,0,0,1,5,.35,9.64,9.64,0,0,1,3.85,1.33,6,6,0,0,1,2.3,2.58,10.72,10.72,0,0,1,.86,4.68v.69c-4.42.26-8.59.64-12.43,1.14a38.66,38.66,0,0,0-11.1,3,17.41,17.41,0,0,0-8,6.73,19.46,19.46,0,0,0-2.54,10.17,19.67,19.67,0,0,0,1.39,7.34,17.78,17.78,0,0,0,3.75,5.89,17.55,17.55,0,0,0,12.45,5.14,23.83,23.83,0,0,0,6.66-.73,28.37,28.37,0,0,0,4.87-2,22.28,22.28,0,0,0,3.81-2.48l1.17-.92v4.63h11.33V188a24,24,0,0,0-1.54-9.07A14.72,14.72,0,0,0,199.25,172.66Zm-5,38.57a32.91,32.91,0,0,1-6,4.11,15.29,15.29,0,0,1-7.29,1.74c-3.07,0-5.39-.7-6.92-2.09s-2.25-3.41-2.25-6.21a7.42,7.42,0,0,1,2-5.63,13.63,13.63,0,0,1,5.57-3.16,43.6,43.6,0,0,1,7.83-1.39c2.68-.28,5-.51,7-.69Zm-84.43,14.2,26-25.43V177h-26ZM31.74,250.86h26V225.43h-26Zm0-27.88h26V174.57L31.74,200Zm272.54-12.14A31.63,31.63,0,0,1,298,215a15,15,0,0,1-6.64,1.78,11.51,11.51,0,0,1-5-.85,5.85,5.85,0,0,1-2.55-2.58,12.94,12.94,0,0,1-1.31-4.58,65.73,65.73,0,0,1-.31-7v-32H270.76v36.34a30.76,30.76,0,0,0,1.35,9.68,18.56,18.56,0,0,0,3.86,6.77,15.18,15.18,0,0,0,5.9,4,20.21,20.21,0,0,0,7.07,1.24,19.63,19.63,0,0,0,9-2,37.54,37.54,0,0,0,6.39-4.21v4.74h11.38v-56.5H304.28Zm57.65-38.18a19.34,19.34,0,0,0-7.32-3.35,44.53,44.53,0,0,0-9.67-.9,52.34,52.34,0,0,0-9.53.89c-3.17.59-5.64,1.14-7.35,1.63l-.81.23v11.24h1.88l.21-.09a49.06,49.06,0,0,1,8.36-2.68,34,34,0,0,1,7.19-.92,35.46,35.46,0,0,1,5,.35,9.65,9.65,0,0,1,3.85,1.33,6.06,6.06,0,0,1,2.3,2.58,10.73,10.73,0,0,1,.86,4.68v.69c-4.42.26-8.59.64-12.43,1.14a38.66,38.66,0,0,0-11.1,3,17.41,17.41,0,0,0-8,6.73,19.46,19.46,0,0,0-2.54,10.17,19.68,19.68,0,0,0,1.39,7.34,17.79,17.79,0,0,0,3.75,5.89,17.55,17.55,0,0,0,12.45,5.14,23.84,23.84,0,0,0,6.66-.73,28.39,28.39,0,0,0,4.87-2,22.28,22.28,0,0,0,3.81-2.48l1.17-.92v4.63h11.33V188a24,24,0,0,0-1.54-9.07A14.71,14.71,0,0,0,361.93,172.66Zm-5,38.57a32.91,32.91,0,0,1-6,4.11,15.29,15.29,0,0,1-7.29,1.74c-3.07,0-5.39-.7-6.92-2.09s-2.25-3.41-2.25-6.21a7.42,7.42,0,0,1,2-5.63,13.63,13.63,0,0,1,5.57-3.16,43.6,43.6,0,0,1,7.83-1.39c2.68-.28,5-.51,7-.69ZM249.2,171.47a30.53,30.53,0,0,0-5.2-2.23,25.27,25.27,0,0,0-7.58-1,21.61,21.61,0,0,0-9.17,2,22.09,22.09,0,0,0-7.56,5.77,29.21,29.21,0,0,0-5.29,9.37,37.93,37.93,0,0,0-2,12.74c0,9,1.92,16.18,5.71,21.29a18.53,18.53,0,0,0,15.62,7.86,21.76,21.76,0,0,0,8.86-1.77,28,28,0,0,0,6.2-3.9v24.61h11.38V169.72H249.63ZM248.8,211a26.17,26.17,0,0,1-6,3.82,16.9,16.9,0,0,1-7,1.55c-4,0-6.84-1.5-8.71-4.59s-2.95-8-2.95-14.06,1.23-11,3.66-14.29,5.72-4.75,10.18-4.75a22.94,22.94,0,0,1,5.56.65,29.28,29.28,0,0,1,5.32,2Z"/></svg>