<?xml version="1.0" encoding="utf-8"?>
<!-- Generator: Adobe Illustrator 21.0.2, SVG Export Plug-In . SVG Version: 6.00 Build 0)  -->
<svg version="1.1" id="Layer_1" xmlns="http://www.w3.org/2000/svg" xmlns:xlink="http://www.w3.org/1999/xlink" x="0px" y="0px"
	 viewBox="0 0 134.8 32.4" style="enable-background:new 0 0 134.8 32.4;" xml:space="preserve">
<style type="text/css">
	.st0{fill:#00A0DE;}
	.st1{fill:#3F3E29;}
</style>
<path class="st0" d="M14.5,6.7l3.6-3.6L16.9,2l6-1.6l-1.6,6l-1.1-1.1l-5.3,5.3l0,0c-0.6,0.6-1.5,0.6-2.1,0l-8-8c0,0-1-1.1,0-2.1
	c1-1,2.1,0,2.1,0l6.3,6.3C13.5,7.1,14.1,7.1,14.5,6.7"/>
<path class="st1" d="M20.7,14.4l3.6,3.6l1.2-1.1l1.6,6l-6-1.6l1.1-1.1l-5.3-5.3h0c-0.6-0.6-0.6-1.5,0-2.1l8-8c0,0,1.1-1,2.1,0
	c1,1,0,2.1,0,2.1l-6.3,6.3C20.4,13.5,20.4,14.1,20.7,14.4"/>
<path class="st1" d="M6.7,13L3.1,9.4L2,10.6l-1.6-6l6,1.6L5.2,7.3l5.3,5.3l0,0c0.6,0.6,0.6,1.5,0,2.1l-8,8c0,0-1.1,1-2.1,0
	c-1-1,0-2.1,0-2.1l6.3-6.3C7.1,14,7.1,13.4,6.7,13"/>
<path class="st0" d="M13.1,20.7l-3.6,3.6l1.1,1.1l-6,1.6l1.6-6l1.1,1.1l5.3-5.3h0c0.6-0.6,1.5-0.6,2.1,0l8,8c0,0,1,1.1,0,2.1
	c-1,1-2.1,0-2.1,0l-6.3-6.3C14.1,20.3,13.5,20.3,13.1,20.7"/>
<path class="st1" d="M41.1,21.7c-0.7,0.7-2,1.2-3.3,1.2c-1.4,0-2.4-0.4-3.3-1.4v1.3h-3.2V4.5h3.3v6.1c0.9-1,1.9-1.3,3.2-1.3
	c1.3,0,2.5,0.5,3.3,1.2c1.3,1.3,1.4,3.6,1.4,5.6C42.4,18.1,42.4,20.4,41.1,21.7 M36.8,12.2c-2,0-2.3,1.6-2.3,3.8
	c0,2.2,0.3,3.9,2.3,3.9c2,0,2.3-1.7,2.3-3.9C39.1,13.9,38.9,12.2,36.8,12.2"/>
<path class="st1" d="M44.2,4.4h3.4v2.7h-3.4V4.4z M44.3,9.4h3.3v13.4h-3.3V9.4z"/>
<path class="st1" d="M55,27.8c-2.1,0-3.5-0.4-4.9-1.7l2.1-2.1c0.7,0.7,1.5,1,2.6,1c2,0,2.7-1.4,2.7-2.8v-1.4c-0.9,1-1.9,1.3-3.2,1.3
	c-1.3,0-2.4-0.4-3.2-1.2c-1.3-1.3-1.4-3-1.4-5.3c0-2.3,0.1-4,1.4-5.3c0.7-0.7,1.9-1.2,3.2-1.2c1.4,0,2.3,0.4,3.3,1.4V9.4h3.2v12.9
	C60.9,25.5,58.6,27.8,55,27.8 M55.3,12.2c-2,0-2.2,1.7-2.2,3.5c0,1.8,0.2,3.5,2.2,3.5c2,0,2.2-1.7,2.2-3.5
	C57.5,13.9,57.3,12.2,55.3,12.2"/>
<path class="st1" d="M71.1,22.9c-2.1,0-4-0.2-5.7-1.9l2.2-2.2c1.1,1.1,2.5,1.3,3.6,1.3c1.2,0,2.4-0.4,2.4-1.4c0-0.7-0.4-1.1-1.4-1.2
	L70,17.2c-2.4-0.2-3.9-1.3-3.9-3.8c0-2.8,2.4-4.3,5.2-4.3c2.1,0,3.8,0.4,5.1,1.6l-2.1,2.1c-0.8-0.7-2-0.9-3.1-0.9
	c-1.3,0-1.9,0.6-1.9,1.3c0,0.5,0.2,1.1,1.4,1.2l2.1,0.2c2.6,0.3,4,1.7,4,3.9C76.7,21.5,74.2,22.9,71.1,22.9"/>
<polygon class="st1" points="92.3,22.8 89.6,22.8 86.8,14.4 84,22.8 81.2,22.8 77.1,9.4 80.6,9.4 82.8,17.7 85.5,9.4 88,9.4 
	90.7,17.7 92.9,9.4 96.4,9.4 "/>
<path class="st1" d="M97.6,4.4h3.4v2.7h-3.4V4.4z M97.7,9.4h3.3v13.4h-3.3V9.4z"/>
<path class="st1" d="M108.3,22.8c-2.7,0-3.9-1.9-3.9-3.8v-6.6H103V9.8h1.4v-4h3.3v4h2.4v2.5h-2.4v6.4c0,0.8,0.4,1.2,1.2,1.2h1.2v2.8
	H108.3z"/>
<path class="st1" d="M117.4,22.9c-2.7,0-6-1.4-6-6.9c0-5.4,3.3-6.8,6-6.8c1.8,0,3.2,0.6,4.4,1.8l-2.3,2.3c-0.7-0.7-1.3-1.1-2.2-1.1
	c-0.8,0-1.4,0.3-1.9,0.9c-0.5,0.6-0.7,1.5-0.7,3c0,1.4,0.2,2.3,0.7,3c0.5,0.6,1.1,0.9,1.9,0.9c0.9,0,1.5-0.3,2.2-1.1l2.3,2.2
	C120.6,22.3,119.2,22.9,117.4,22.9"/>
<path class="st1" d="M130.7,22.8v-8.2c0-1.8-1.1-2.4-2.2-2.4c-1.1,0-2.2,0.6-2.2,2.4v8.2H123V4.5h3.3v6.1c0.9-0.9,2-1.4,3.2-1.4
	c2.9,0,4.5,2.1,4.5,4.9v8.7H130.7z"/>
<path class="st0" d="M70.2,32.4v-4c0-1-0.6-1.5-1.3-1.5c-0.7,0-1.4,0.5-1.4,1.5v4h-1.3v-6.6h1.3v0.7c0.5-0.5,1.1-0.7,1.8-0.7
	c0.7,0,1.2,0.2,1.6,0.6c0.5,0.5,0.7,1.1,0.7,1.9v4.2H70.2z"/>
<path class="st0" d="M76.3,29.4c0,1.1,0.6,1.9,1.7,1.9c0.7,0,1.1-0.2,1.6-0.7l0.8,0.8c-0.7,0.7-1.3,1-2.5,1c-1.7,0-3-0.9-3-3.4
	c0-2.1,1.1-3.4,2.8-3.4c1.8,0,2.8,1.3,2.8,3.2v0.6H76.3z M79.1,27.6c-0.2-0.5-0.7-0.8-1.3-0.8c-0.6,0-1.1,0.3-1.3,0.8
	c-0.1,0.3-0.2,0.5-0.2,0.9h3C79.3,28.1,79.3,27.9,79.1,27.6"/>
<path class="st0" d="M86.4,32.4c-1.2,0-1.8-0.9-1.8-1.8v-3.6h-0.8v-1h0.8v-2H86v2h1.3v1H86v3.6c0,0.5,0.2,0.8,0.7,0.8h0.5v1.1H86.4z
	"/>
<polygon class="st0" points="98,32.4 96.9,32.4 95.3,27.7 93.8,32.4 92.6,32.4 90.6,25.7 92,25.7 93.3,30.4 94.8,25.7 95.8,25.7 
	97.4,30.4 98.7,25.7 100.1,25.7 "/>
<path class="st0" d="M107.9,31.7c-0.4,0.4-1.1,0.8-2,0.8c-0.9,0-1.5-0.3-2-0.8c-0.6-0.7-0.8-1.5-0.8-2.6c0-1.1,0.2-1.9,0.8-2.6
	c0.4-0.4,1.1-0.8,2-0.8c0.9,0,1.6,0.3,2,0.8c0.6,0.7,0.8,1.5,0.8,2.6C108.7,30.2,108.5,31,107.9,31.7 M106.9,27.2
	c-0.2-0.2-0.6-0.4-1-0.4c-0.4,0-0.7,0.1-1,0.4c-0.4,0.4-0.5,1.1-0.5,1.8c0,0.7,0.1,1.4,0.5,1.8c0.2,0.2,0.6,0.4,1,0.4
	c0.4,0,0.7-0.1,1-0.4c0.4-0.4,0.5-1.1,0.5-1.8C107.4,28.3,107.3,27.6,106.9,27.2"/>
<path class="st0" d="M115.9,27.3c-0.3-0.3-0.5-0.4-1-0.4c-0.7,0-1.3,0.6-1.3,1.5v4h-1.3v-6.6h1.3v0.7c0.3-0.5,1-0.8,1.8-0.8
	c0.6,0,1.1,0.2,1.6,0.6L115.9,27.3z"/>
<polygon class="st0" points="124.5,32.4 122.7,29.3 121.7,30.4 121.7,32.4 120.4,32.4 120.4,23.8 121.7,23.8 121.7,28.8 124.3,25.7 
	125.9,25.7 123.6,28.3 126.2,32.4 "/>
<path class="st0" d="M132,32.4c-1.1,0-2-0.2-2.8-1l0.9-0.9c0.5,0.5,1.3,0.7,1.9,0.7c0.8,0,1.4-0.3,1.4-0.9c0-0.4-0.2-0.7-0.9-0.8
	l-1.1-0.1c-1.2-0.1-2-0.7-2-1.8c0-1.3,1.1-2,2.5-2c1,0,1.8,0.2,2.5,0.7l-0.8,0.8c-0.4-0.4-1-0.5-1.6-0.5c-0.8,0-1.2,0.4-1.2,0.8
	c0,0.4,0.2,0.7,0.9,0.8l1,0.1c1.2,0.1,2,0.7,2,1.9C134.8,31.7,133.6,32.4,132,32.4"/>
</svg>
