<?xml version="1.0" encoding="utf-8"?>
<!-- Generator: Adobe Illustrator 21.1.0, SVG Export Plug-In . SVG Version: 6.00 Build 0)  -->
<svg version="1.1" id="Layer_1" xmlns="http://www.w3.org/2000/svg" xmlns:xlink="http://www.w3.org/1999/xlink" x="0px" y="0px"
	 viewBox="0 0 500 323.1" style="enable-background:new 0 0 500 323.1;" xml:space="preserve">
<style type="text/css">
	.st0{fill:#0B5565;}
	.st1{fill:#27AAE0;}
	.st2{fill:#375C92;}
	.st3{fill:#8DC53E;}
	.st4{fill:#34A474;}
	.st5{enable-background:new    ;}
	.st6{fill:#003399;}
	.st7{fill:#0088D1;}
	.st8{fill:#4299D0;}
	.st9{fill:#252728;}
	.st10{fill:none;}
	.st11{fill:#E95028;}
	.st12{fill:#FB6D26;}
	.st13{fill:#FBA226;}
	.st14{fill:#E14329;}
	.st15{fill:#BC5A34;}
	.st16{fill:#FFFFFF;}
	.st17{fill:#195C8B;}
	.st18{fill:#0E89C8;}
	.st19{fill:#54AEDE;}
	.st20{fill:#1F608E;}
	.st21{fill:#246391;}
	.st22{fill:none;stroke:#246391;stroke-width:0;stroke-linecap:round;stroke-linejoin:round;}
	.st23{fill:#83C6EB;}
	.st24{fill:none;stroke:#83C6EB;stroke-width:0;stroke-linecap:round;stroke-linejoin:round;}
	.st25{fill:#369BD1;}
	.st26{fill:none;stroke:#369BD1;stroke-width:0;stroke-linecap:round;stroke-linejoin:round;}
	.st27{fill:#0D538A;}
	.st28{fill:#0B528A;}
	.st29{fill:none;stroke:#0B528A;stroke-width:0;stroke-linecap:round;stroke-linejoin:round;}
	.st30{fill:#0B487D;}
	.st31{fill:none;stroke:#0B487D;stroke-width:0;stroke-linecap:round;stroke-linejoin:round;}
</style>
<g>
	<path class="st10" d="M227.3,279c0-6.2,0-12.4,0-18.7C227.4,266.6,227.3,272.8,227.3,279c0,4.8-0.1,9.7,0,14.5
		C227.2,288.7,227.3,283.8,227.3,279z"/>
	<path class="st10" d="M307.6,269.5c3.4,0,6.9,0.1,10.3,0C314.5,269.6,311,269.6,307.6,269.5c-2.1,0-4.1,0-6.2,0
		C303.4,269.5,305.5,269.5,307.6,269.5z"/>
	<path class="st10" d="M303.4,59.9C303.4,59.9,303.4,59.9,303.4,59.9C291,60,278.6,60,266.2,60.2C278.6,60,291,60,303.4,59.9z"/>
	<path class="st10" d="M308.8,65.3c-0.8-0.8-1.6-1.6-2.3-2.4c-0.3-0.3-0.6-0.6-1-1c0.3,0.3,0.6,0.6,1,1
		C307.2,63.7,308,64.5,308.8,65.3z"/>
	<path class="st10" d="M181.7,297.1c0-0.8,0.1-1.6,0.1-2.4C181.8,295.5,181.7,296.3,181.7,297.1c-2.5,1-4.2,2.3-5,3.9
		C177.5,299.5,179.1,298.1,181.7,297.1z"/>
	<path class="st10" d="M203.1,111.8l0.5,0C203.6,111.8,203.3,111.8,203.1,111.8z"/>
	<path class="st10" d="M302,58.5c-0.3-0.3-0.7-0.6-1-1c-15.4-15.3-30.8-30.6-46.2-46c15.4,15.3,30.8,30.6,46.2,46
		C301.4,57.8,301.7,58.2,302,58.5z"/>
	<path class="st10" d="M206.5,162.7c-0.1,0.2-0.3,0.4-0.3,0.6C206.3,163.1,206.4,162.9,206.5,162.7L206.5,162.7z"/>
	<path class="st10" d="M204.3,111.8l0.2,0c6.7,0,13.5,0,20.2,0c-6.7,0-13.5,0-20.2,0c0-0.9,0.1-1.9,0.1-2.8c0,0.9-0.1,1.9-0.1,2.8
		C204.5,111.8,204.4,111.8,204.3,111.8z"/>
	<path class="st10" d="M206.7,165.3c0.3,0.3,0.7,0.6,1.2,0.8c15.4,14.7,30.9,29.4,46.4,44.1c-15.5-14.7-30.9-29.4-46.4-44.1
		C207.4,165.9,207,165.6,206.7,165.3z"/>
	<path class="st10" d="M75.7,285c0-8.3,0-16.5,0-24.8C75.8,268.4,75.7,276.7,75.7,285c0,6-0.3,12.1,0,18.1
		C75.5,297,75.7,291,75.7,285z"/>
	<path class="st10" d="M254.6,59.1c-0.1,1,0.2,1.8,1.1,2.4C254.8,60.9,254.5,60.1,254.6,59.1z"/>
	<path class="st10" d="M256.3,61.9c14.3,14.6,28.7,29.2,42.9,43.9C285,91.1,270.6,76.5,256.3,61.9C256.3,61.9,256.3,61.9,256.3,61.9
		z"/>
	<path class="st10" d="M493,285c0,4.1,0,8.3,0,12.4C493,293.2,493,289.1,493,285c0-8.3-0.1-16.5,0-24.8
		C492.9,268.4,493,276.7,493,285z"/>
	<path class="st10" d="M276.6,189.4c10.3-9.8,20.2-19.2,30-28.6c9.1-9.1,18.5-17.8,27.6-26.9c-9.1,9.1-18.5,17.8-27.6,26.9
		C296.7,170.2,286.9,179.6,276.6,189.4z"/>
	<path class="st17" d="M33.4,314.8c8.9,0.6,18,0.1,27,0.3c3.8,0.1,5.2-1.1,5.7-5.2c3.2-28.2,0.9-30.9-26.8-29.7c-0.3,0-0.7,0-1,0
		c-5.2-0.7-6.4,2-6.4,6.7c0,4.7,1.8,6.1,6.1,5.8c3.1-0.2,6.2,0,9.3,0c3.2,0,6.1-0.3,6.3,4.5c0.2,5.2-2.9,5.4-6.6,5.4
		c-2.1,0-4.1,0.1-6.2,0.1c-12.9-0.4-18.5-5.3-18.4-15.9c0.1-10.9,6.4-16.5,19.1-16.7c6.6-0.1,13.1-0.1,19.7,0
		c3.5,0.1,5.1-1.3,4.8-4.8c-0.3-2.8,1-5.9-3.8-7.1c-22.7-5.4-46.9-0.5-52.4,19.8c-1.5,5.3-1.3,11.2,0,16.6
		C12.4,305.3,20.7,314,33.4,314.8z"/>
	<path class="st18" d="M315.8,111.7c-1.4,0-2.9,0.2-4.3,0.2c-0.4,0-0.8,0-1.2-0.1c-0.2,0-0.4,0-0.5-0.1c-0.3-0.1-0.7-0.2-1-0.3
		c-0.2-0.1-0.3-0.1-0.5-0.2c-0.7-0.3-1.3-0.8-1.8-1.6c0-15.6,0-31.2,0.1-46.9c-0.3-0.3-0.6-0.6-1-1c-0.7-0.7-1.4-1.4-2.1-2.1
		C291,60,278.6,60,266.2,60.2c-3.4,0-7-0.9-9.9,1.7c14.3,14.6,28.7,29.2,42.9,43.9c2.7,2.8,6.9,5,5,10.2c4,9.6,1.1,19.6,1.9,29.4
		c0.4,5.1,0.4,10.3,0.5,15.5c9.1-9.1,18.5-17.8,27.6-26.9c3-3,6-6.1,9-9.2c3.9-4.2,7.7-8.4,11.4-12.8
		C341.6,111.9,328.7,111.9,315.8,111.7z"/>
	<path class="st18" d="M303.4,59.9C303.4,59.9,303.4,59.9,303.4,59.9c0.7,0.7,1.4,1.4,2.1,2.1C304.8,61.2,304.1,60.6,303.4,59.9z"/>
	<path class="st19" d="M306.1,145.4c-0.8-9.8,2.1-19.8-1.9-29.4c-16.7,29.2-30.4,59.9-46.7,91.6c6.6-6.2,12.9-12.3,19.1-18.1
		c10.3-9.8,20.2-19.2,30-28.6C306.5,155.7,306.5,150.5,306.1,145.4z"/>
	<path class="st20" d="M493.1,260.2c0-3.3-0.7-5.2-4.5-5.2c-3.7,0-4.9,1.6-4.7,5c0.1,1.4-0.1,2.8,0,4.1c0.7,6.8,0.3,10.6-9,8.4
		c-12.9-3-23.7,7-24.3,20.3c-0.5,12.7,8.4,22,21.6,22.2c20.8,0.4,20.8,0.4,20.8-17.7c0-4.1,0-8.3,0-12.4
		C493,276.7,492.9,268.4,493.1,260.2z M477.2,305.8c-7.7-0.7-16-0.6-16.8-11.1c-0.6-7.8,3.5-12.7,11.5-12.8
		c10.6-0.1,11.5,7.8,12.3,17.2C484.9,303,483.8,306.4,477.2,305.8z"/>
	<path class="st21" d="M213,290C213,290,213,290,213,290c0.9-0.3,2-0.3,3-0.5c1.7-0.3,3.1-0.9,2.8-3.6c-0.5-4.6-2.1-8.8-6.7-10.9
		c-8.5-3.9-17.3-4.5-26.2-1.3c-11.3,4.2-12.8,12.1-4,21c8.9,2,17.8,4,27.3,6.1c-9.9,7.1-16.8,6-27.4-3.7c-2.5,1-4.2,2.3-5,3.9
		c-0.3,0.5-0.4,1.1-0.5,1.6c0,0.3,0,0.6,0,0.9c0,0.3,0.1,0.6,0.1,0.9c0.4,1.8,1.8,3.7,4.2,5.7c8.2,6.7,17.9,6.3,27.3,3.3
		c12.1-3.8,13.8-11.7,5.2-21.3c-0.7-0.4-1.5-0.8-2.2-1.2C211.5,290.6,212.2,290.3,213,290z M185.4,285.5c12.3-6.8,20.6-5.2,24.9,5.4
		C201.3,288.1,193.2,289.5,185.4,285.5z"/>
	<path class="st21" d="M213,290C213,290,213,290,213,290L213,290c0.9-0.3,2-0.3,3-0.5C215,289.6,213.9,289.7,213,290z"/>
	<path class="st22" d="M176.2,303.5c0,0.3,0.1,0.6,0.1,0.9"/>
	<path class="st23" d="M204.3,111.8c0,0-0.1,0-0.1,0l-0.4,0l-0.2,0l-0.5,0c-0.2,0-0.5,0-0.5,0c0.1,0.6,0.2,1.2,0.2,1.8
		c0.1,0.4,0.1,0.8,0.2,1.2c0.4,3.1,0.6,6.3,0.7,9.4c0,0.9,0.1,1.7,0.1,2.6c0,1.7,0,3.4,0,5c0,1.7,0,3.4,0,5
		c-0.1,5-0.1,10.1,0.1,15.1c0.1,3.2-1.5,7,1.9,9.6c15.9-16.1,31.2-33,48.5-47.7c0,0,0,0,0,0c-0.5-0.9-1.2-1.4-1.8-1.8
		c-0.2-0.1-0.4-0.2-0.6-0.3c-0.3-0.1-0.5-0.2-0.8-0.3c-2-0.4-4.2,0.3-6.2,0.2c-3.4-0.1-6.7-0.1-10.1-0.1c-3.4,0-6.7,0-10.1,0
		c0,0,0,0,0,0c-6.7,0-13.5,0-20.2,0L204.3,111.8z"/>
	<path class="st24" d="M224.7,111.8C224.7,111.8,224.7,111.8,224.7,111.8"/>
	<path class="st23" d="M254.3,114C254.3,114,254.3,114,254.3,114C254.3,114,254.3,114,254.3,114c-0.5-0.9-1.2-1.4-1.8-1.8
		C253.2,112.6,253.8,113.2,254.3,114z"/>
	<path class="st24" d="M251.1,111.7c0.3,0.1,0.6,0.2,0.8,0.3"/>
	<path class="st25" d="M206.5,162.7c15.3,0.3,30.6,0.6,46,0.9c0.6-0.1,1.2-0.1,1.7,0c0,0,0,0,0,0c0-16.5,0.1-33,0.1-49.6
		c-17.4,14.7-32.6,31.5-48.5,47.7c0,0,0,0,0,0c0,0,0,0,0,0l0,0c0,0,0,0-0.1,0l-0.1,0l0.2,0.7c0,0,0,0,0,0c0,0,0.1,0,0.2,0
		c0,0,0.1,0,0.1,0c0,0,0.1,0,0.1,0C206.4,162.7,206.5,162.7,206.5,162.7C206.5,162.7,206.5,162.7,206.5,162.7L206.5,162.7
		C206.5,162.7,206.5,162.7,206.5,162.7z"/>
	<path class="st25" d="M206.2,162.6c0.2,0.1,0.3,0.1,0.3,0.1c0,0,0,0,0,0C206.5,162.7,206.4,162.7,206.2,162.6z"/>
	<path class="st25" d="M206.1,162.6c0,0-0.1,0-0.1,0C206,162.6,206.1,162.6,206.1,162.6z"/>
	<path class="st26" d="M205.9,162.5C205.8,162.5,205.8,162.5,205.9,162.5"/>
	<path class="st25" d="M206,162.6c-0.1,0-0.1,0-0.2,0C205.9,162.5,205.9,162.5,206,162.6z"/>
	<path class="st25" d="M206.2,162.6C206.2,162.6,206.1,162.6,206.2,162.6C206.1,162.6,206.2,162.6,206.2,162.6z"/>
	<path class="st25" d="M254.2,163.6C254.2,163.6,254.2,163.6,254.2,163.6C254.2,163.6,254.2,163.6,254.2,163.6
		c0-16.5,0.1-33,0.1-49.6c0,0,0,0,0,0C254.3,130.5,254.3,147.1,254.2,163.6z"/>
	<polygon class="st25" points="205.8,161.7 205.8,161.7 205.8,161.7 	"/>
	<path class="st25" d="M205.7,161.8C205.8,161.7,205.8,161.7,205.7,161.8L205.7,161.8L205.7,161.8z"/>
	<path class="st25" d="M205.8,161.7C205.8,161.7,205.8,161.7,205.8,161.7c-0.1,0-0.1,0-0.1,0.1L205.8,161.7L205.8,161.7z"/>
	<path class="st23" d="M202.7,80.4c0.1,5.8,0.1,11.7,0.2,17.5c0.1,3.3-1.1,6.9,1.7,9.8c1.1-1.8,2.1-3.6,3.1-5.4
		c3.1-5.5,6.1-11,9-16.6c4.8-9.3,9.4-18.7,13.8-28.2c6.2-13.3,12.2-26.6,18.2-39.9c-15.4,15.1-30.8,30.2-46.2,45.3
		C202.6,68.7,202.7,74.6,202.7,80.4z"/>
	<path class="st24" d="M216.8,85.7c-2.9,5.6-5.9,11.1-9,16.6"/>
	<path class="st24" d="M204.6,107.7c1.1-1.8,2.1-3.6,3.1-5.4"/>
	<path class="st23" d="M248.8,17.6c-15.4,15.1-30.8,30.2-46.2,45.3v0l0,0C218,47.8,233.4,32.7,248.8,17.6z"/>
	<path class="st25" d="M154.8,113.6c4.7-1.2,9.5-1.8,14.3-2c10.5-0.4,21,0.9,31.5,0.4c0.7-0.1,1.4-0.1,2.1-0.2c0,0,0,0,0,0l0.5,0
		c0.2,0,0.5,0,0.5,0s0.1,0,0.2,0l0.4,0c0,0,0.1,0,0.1,0c0.1,0,0.2,0,0.2,0c0-0.9,0.1-1.9,0.1-2.8c0-0.5,0-0.9,0-1.4l0,0
		c-2.8-2.9-1.6-6.5-1.7-9.8c-0.1-5.8-0.2-11.6-0.2-17.5c-0.1-5.8-0.1-11.7-0.1-17.5c-15.9,15.6-31.8,31.2-47.7,46.8
		C153.5,111,152.5,112.3,154.8,113.6z"/>
	<path class="st25" d="M204.6,109c0-0.5,0-0.9,0-1.4l0,0C204.6,108.1,204.6,108.6,204.6,109z"/>
	<path class="st25" d="M203.6,111.8l0.2,0C203.7,111.8,203.6,111.8,203.6,111.8z"/>
	<path class="st25" d="M203.1,111.8l-0.5,0c0,0,0,0,0,0h0C202.7,111.8,202.9,111.8,203.1,111.8z"/>
	<path class="st26" d="M204.2,111.8c0,0,0.1,0,0.1,0"/>
	<path class="st25" d="M202.6,62.9L202.6,62.9c0.1,5.8,0.1,11.7,0.1,17.5C202.7,74.6,202.6,68.7,202.6,62.9z"/>
	<path class="st20" d="M263,305.2c-5.5,0.2-11.1,0.6-16.6-0.2c-9.7-1.3-9.7-9.2-10.1-16.6c-0.4-8.7,5.8-6.6,10.7-6.7
		c5.9-0.1,11.8-0.1,17.6,0c3.7,0.1,4.7-1.8,4.7-5.1c0-3.4-1.1-5.1-4.7-5c-5.2,0.2-10.4-0.4-15.5,0.1c-8.8,0.9-15.1-0.3-12.9-11.5
		c0.6-3.1-0.6-5.1-4.5-5.2c-4.1,0-4.4,2.3-4.4,5.3c0,6.2,0,12.4,0,18.7c0,4.8-0.1,9.7,0,14.5c0.2,13.4,7.8,21.2,21.1,21.5
		c4.8,0.1,9.7,0.1,14.5,0c3,0,6.3,0.7,6.4-4.3C269.5,305.8,267,305,263,305.2z"/>
	<path class="st27" d="M252.5,163.6c-8,4.5-16.7,1.3-25.1,2.1c-6.5,0.6-13,0.3-19.6,0.4c15.4,14.7,30.9,29.4,46.4,44.1
		c0-3.8,0-7.7,0-11.6c0-11.6,0-23.3,0-35.1C253.6,163.5,253.1,163.5,252.5,163.6z"/>
	<path class="st27" d="M254.2,198.7c0-11.6,0-23.3,0-35.1c0,0,0,0,0,0C254.2,175.3,254.2,187.1,254.2,198.7z"/>
	<path class="st28" d="M306.4,109.7c0.6,0.7,1.2,1.2,1.8,1.6c0.2,0.1,0.3,0.2,0.5,0.2c0.3,0.1,0.7,0.2,1,0.3c0.2,0,0.4,0.1,0.5,0.1
		c0.4,0,0.8,0.1,1.2,0.1c1.5,0,2.9-0.3,4.3-0.2c12.9,0.2,25.8,0.2,38.7,0.2c-13.8-17-30-31.6-45.7-46.7c-0.1,11.6-0.2,23.2-0.4,34.8
		C308.3,103.4,309.5,107.1,306.4,109.7z"/>
	<path class="st28" d="M309.7,111.8c-0.3-0.1-0.7-0.2-1-0.3C309,111.7,309.4,111.8,309.7,111.8z"/>
	<path class="st28" d="M306.4,109.7C306.4,109.7,306.4,109.7,306.4,109.7c0.6,0.7,1.2,1.2,1.8,1.6
		C307.6,111,306.9,110.5,306.4,109.7z"/>
	<path class="st29" d="M309.7,111.8c0.2,0,0.4,0.1,0.5,0.1"/>
	<path class="st29" d="M308.7,111.5c-0.2-0.1-0.3-0.1-0.5-0.2"/>
	<path class="st29" d="M311.5,112c-0.4,0-0.8,0-1.2-0.1"/>
	<path class="st28" d="M254.8,11.6c0,16,0,31.2,0,46.3c15.4-0.1,30.8-0.2,46.2-0.3C285.6,42.2,270.2,26.9,254.8,11.6z"/>
	<path class="st28" d="M169.1,111.6c-4.8,0.2-9.5,0.7-14.3,2c15.1,14.9,30.2,29.9,45.3,44.8c0.2-15.5,0.3-30.9,0.5-46.4
		C190.1,112.5,179.5,111.2,169.1,111.6z"/>
	<path class="st28" d="M200.6,112C200.6,112,200.6,112,200.6,112c-10.5,0.5-21-0.8-31.5-0.4C179.5,111.2,190.1,112.5,200.6,112z"/>
	<path class="st17" d="M117,287.6c-2-10.7-12.4-18.3-22.2-15.4c-10.5,3.1-10.7-1.6-9.8-9.1c0.1-1,0-2.1,0-3.1c0.2-3.3-1-5-4.7-5.1
		c-3.9-0.1-4.6,1.9-4.6,5.1c0.1,8.3,0,16.5,0,24.8c0,6-0.3,12.1,0,18.1c0,0.9,0.1,1.7,0.1,2.6c0.2,3.4-3,9,4.2,9.4
		c7.4,0.3,4.4-5.4,4.8-8.9c0.4-3.7,0.3-7.6,0-11.4c-0.6-8.4,4.2-12.3,11.6-12.8c8.1-0.5,11.8,4.5,12.1,12.2c0.2,5.5,0.1,11,0,16.5
		c0,2.9,1.2,4.4,4.3,4.3c2.7,0,4.9-0.4,4.8-3.7C117.6,303.4,118.4,295.3,117,287.6z"/>
	<path class="st20" d="M148.1,271.7c-12.2-0.7-21.9,8.2-22.5,20.5c-0.5,12.7,7.9,22.3,20.1,22.8c12,0.5,21.2-7.9,21.8-20
		C168.4,282.2,160.2,272.4,148.1,271.7z M146.9,305.1c-7.9-0.3-12.1-4.8-12-11.8c0.1-6.8,3.8-11.8,11.7-11.6
		c7.5,0.3,11.7,4.4,11.7,11.7C158.3,300.7,154.2,304.9,146.9,305.1z"/>
	<path class="st21" d="M317.6,304.7c-4.8,0.1-9.7,0.1-14.5,0c-9.9-0.2-15.2-4.6-15.2-12.8c0-8.1,5-12.2,15.5-12.4
		c4.8-0.1,9.7-0.1,14.5,0c3.3,0,5-1.2,5-4.9c0-3.5-1.4-5-4.9-4.9c-3.4,0.1-6.9,0-10.3,0c-2.1,0-4.1,0-6.2,0
		c-14.2,0.3-23.2,8.8-23.2,22.2c-0.1,13.2,8.9,22.5,22.7,23c5.5,0.2,11-0.1,16.5,0c3.9,0.1,5.5-1.4,5.4-5.5
		C322.7,305.3,320.7,304.6,317.6,304.7z"/>
	<path class="st20" d="M371.2,271.7c-12.1,0.2-21.2,9.8-21.1,22.1c0.2,12,9,21,20.8,21.2c12.3,0.2,21.4-8.9,21.5-21.5
		C392.4,280.9,383.4,271.6,371.2,271.7z M371.9,305.2c-7.9-0.5-12.2-4.4-12.1-11.8c0.2-7.1,3.7-11.8,11.5-11.6
		c7.4,0.2,11.7,4.4,11.7,11.6C383,300.7,378.7,304.6,371.9,305.2z"/>
	<path class="st21" d="M438.2,271.6c-4.4,0.1-4.9,2.6-4.8,6.1c0.1,4.8,0.1,9.7,0,14.5c-0.1,7.7-3.2,12.7-11.6,12.8
		c-8.5,0.1-11.4-5.3-11.8-12.7c-0.3-5.2-0.2-10.4,0-15.5c0.1-3.4-0.9-5.1-4.6-5.1c-3.7,0-4.8,1.7-4.7,5.1c0.1,6.2-0.2,12.4,0.1,18.6
		c0.5,10,7.2,17.5,17,19.4c9.6,1.9,18.8-2.8,23.2-11.7c2.7-5.5,2.2-11.4,2.2-17.3c0-2.8-0.1-5.5,0-8.3
		C443.3,274,442.7,271.6,438.2,271.6z"/>
	<path class="st20" d="M337.3,255.2c-4.9-0.1-4.5,3.2-4.5,6.3c0,15.9,0,31.8,0,47.7c0,3.3,0.1,6.2,4.8,6c4.1-0.2,4-2.9,3.9-5.7
		c0-4,0-7.9,0-11.9c0-4,0-7.9,0-11.9c0-7.9,0-15.9,0-23.8C341.5,258.7,342.2,255.3,337.3,255.2z"/>
	<path class="st20" d="M341.5,297.4c0-4,0-7.9,0-11.9c0-7.9,0-15.9,0-23.8c0,7.9,0,15.9,0,23.8C341.5,289.5,341.5,293.5,341.5,297.4
		z"/>
	<path class="st30" d="M205.8,161.7c-3.4-2.6-1.8-6.4-1.9-9.6c-0.2-5-0.1-10.1-0.1-15.1c0-1.7,0-3.4,0-5c0-1.7,0-3.4,0-5
		c0-0.9,0-1.7-0.1-2.6c-0.1-3.1-0.3-6.3-0.7-9.4c0-0.4-0.1-0.8-0.2-1.2c-0.1-0.6-0.2-1.2-0.2-1.8c-0.7,0.1-1.4,0.1-2.1,0.2
		c0,0,0,0,0,0c-0.2,15.5-0.3,30.9-0.5,46.4c0.6,1.2,1.4,2,2.4,2.5C203.5,161.4,204.6,161.6,205.8,161.7
		C205.8,161.7,205.8,161.7,205.8,161.7z"/>
	<path class="st30" d="M202.5,160.9c1,0.5,2.1,0.7,3.3,0.8c0,0,0,0,0,0C204.6,161.6,203.5,161.4,202.5,160.9z"/>
	<path class="st31" d="M203.8,137c0-1.7,0-3.4,0-5"/>
	<path class="st31" d="M203.7,124.3c-0.1-3.1-0.3-6.3-0.7-9.4"/>
	<path class="st30" d="M202.7,111.8L202.7,111.8c0.1,0.6,0.2,1.2,0.2,1.8C202.8,113,202.7,112.4,202.7,111.8z"/>
	<path class="st30" d="M205.8,161.7C205.8,161.7,205.8,161.7,205.8,161.7C205.8,161.7,205.8,161.7,205.8,161.7
		C205.8,161.7,205.8,161.7,205.8,161.7z"/>
	<path class="st30" d="M205.8,161.7C205.8,161.7,205.8,161.7,205.8,161.7C205.8,161.7,205.8,161.7,205.8,161.7
		C205.8,161.7,205.8,161.7,205.8,161.7C205.8,161.7,205.8,161.7,205.8,161.7L205.8,161.7z"/>
	<path class="st30" d="M200.6,112c0.7-0.1,1.4-0.1,2.1-0.2C202,111.9,201.3,111.9,200.6,112C200.6,112,200.6,112,200.6,112
		C200.6,112,200.6,112,200.6,112z"/>
	<path class="st30" d="M266.2,60.2c12.4-0.2,24.8-0.2,37.2-0.3c0,0,0,0,0,0c-0.5-0.5-0.9-0.9-1.4-1.4c-0.3-0.3-0.7-0.6-1-1
		c-15.4,0.1-30.8,0.2-46.2,0.3c-0.1,0.4-0.2,0.8-0.2,1.2c0,0,0,0,0,0c-0.1,1,0.2,1.8,1.1,2.4c0.2,0.1,0.4,0.2,0.6,0.3c0,0,0,0,0,0
		c0,0,0,0,0,0C259.2,59.2,262.8,60.2,266.2,60.2z"/>
	<line class="st31" x1="254.6" y1="59.1" x2="254.6" y2="59.1"/>
	<path class="st30" d="M255.7,61.5c0.2,0.1,0.4,0.2,0.6,0.3c0,0,0,0,0,0C256.1,61.8,255.9,61.7,255.7,61.5z"/>
	<path class="st30" d="M303.4,59.9C303.4,59.9,303.4,59.9,303.4,59.9c-0.5-0.5-0.9-0.9-1.4-1.4C302.5,58.9,303,59.4,303.4,59.9
		C303.4,59.9,303.4,59.9,303.4,59.9z"/>
	<path class="st30" d="M227.4,165.7c8.4-0.7,17,2.4,25.1-2.1c-15.3-0.3-30.6-0.6-46-0.9l0,0c-0.1,0.2-0.3,0.4-0.3,0.6
		c-0.3,0.8-0.1,1.4,0.5,1.9c0.3,0.3,0.7,0.6,1.2,0.8C214.4,166,220.9,166.2,227.4,165.7z"/>
	<path class="st30" d="M206.5,162.7L206.5,162.7c15.3,0.3,30.6,0.6,46,0.9C237.2,163.3,221.8,163,206.5,162.7
		C206.5,162.7,206.5,162.7,206.5,162.7z"/>
	<path class="st30" d="M306.4,109.7c3.1-2.7,1.9-6.3,2-9.6c0.2-11.6,0.3-23.2,0.4-34.8c-0.8-0.8-1.6-1.6-2.3-2.4
		C306.4,78.5,306.4,94.1,306.4,109.7z"/>
	<path class="st30" d="M306.4,62.9c0,15.6,0,31.2-0.1,46.9c0,0,0,0,0,0C306.4,94.1,306.4,78.5,306.4,62.9z"/>
</g>
</svg>
