<svg xmlns="http://www.w3.org/2000/svg" viewBox="0 0 475 210"><defs><style>.a{fill:#231f20;}</style></defs><title>integration-tile</title><path class="a" d="M158.72,67.67h0A5.4,5.4,0,0,0,154.84,66,5.33,5.33,0,0,0,151,67.67h0a5.61,5.61,0,0,0-1.59,3.94A5.55,5.55,0,0,0,151,75.55l0,0a5.35,5.35,0,0,0,3.86,1.61,5.42,5.42,0,0,0,3.88-1.61v0a5.53,5.53,0,0,0,1.59-3.93,5.59,5.59,0,0,0-1.59-3.94ZM154.84,144h0a5.47,5.47,0,0,0,3.88-1.62v0a5.53,5.53,0,0,0,1.59-3.92,5.6,5.6,0,0,0-1.59-4h0a5.37,5.37,0,0,0-3.88-1.63,5.29,5.29,0,0,0-3.86,1.63h0a5.62,5.62,0,0,0-1.59,4A5.55,5.55,0,0,0,151,142.3l0,0a5.39,5.39,0,0,0,3.86,1.62Zm29.84-16.88h0a5.4,5.4,0,0,0,3.33-2.59l.1-.2h0a5.57,5.57,0,0,0,.43-4,5.49,5.49,0,0,0-2.55-3.39l-.08-.05a5.45,5.45,0,0,0-7.41,2.1,5.63,5.63,0,0,0,2,7.63h0a5.42,5.42,0,0,0,4.16.54h0ZM160.46,99.29h0a7.82,7.82,0,0,0-11.22,0,8.1,8.1,0,0,0-2.31,5.7,8.19,8.19,0,0,0,2.31,5.73,7.86,7.86,0,0,0,11.22,0,8.18,8.18,0,0,0,2.31-5.73,8.09,8.09,0,0,0-2.31-5.7Zm-3.16-9.5h0a15,15,0,0,1,8.24,4.33h0c.35.35.69.74,1,1.13L172,92a12.11,12.11,0,0,1,5.33-14.13l.09-.06a11.57,11.57,0,0,1,8.87-1.16,11.83,11.83,0,0,1,7.18,5.61h0a12.18,12.18,0,0,1,1.18,9.11,11.91,11.91,0,0,1-5.5,7.3l-.75.45h-.08a11.68,11.68,0,0,1-8.14.76,11.81,11.81,0,0,1-5.72-3.57L169,99.56a15.54,15.54,0,0,1,1,5.43,15.76,15.76,0,0,1-1,5.46l5.46,3.2a11.62,11.62,0,0,1,5.72-3.57,11.49,11.49,0,0,1,9,1.21l.18.09h0a12,12,0,0,1,5.32,7.21,12.17,12.17,0,0,1-1.18,9.1l-.1.2h0v0a11.91,11.91,0,0,1-7.06,5.43,11.71,11.71,0,0,1-9-1.2v0A12.11,12.11,0,0,1,172,118l-5.47-3.21c-.31.39-.65.76-1,1.11l0,0a14.88,14.88,0,0,1-8.24,4.3v6.43a11.68,11.68,0,0,1,5.9,3.26h0v0a12.13,12.13,0,0,1,0,17v0h0a11.66,11.66,0,0,1-16.7,0h0v0a12.11,12.11,0,0,1,0-17v0h0a11.69,11.69,0,0,1,5.89-3.26v-6.43a14.84,14.84,0,0,1-8.23-4.3l0,0a15.54,15.54,0,0,1,0-21.75h0a14.93,14.93,0,0,1,8.23-4.33v-6.4a11.89,11.89,0,0,1-5.89-3.27h0v0a12.13,12.13,0,0,1,0-17h0a11.65,11.65,0,0,1,16.7,0h0a12.15,12.15,0,0,1,0,17v0a11.88,11.88,0,0,1-5.9,3.27ZM188,85.52l0-.07a5.5,5.5,0,0,0-3.29-2.53,5.4,5.4,0,0,0-4.17.55h0A5.51,5.51,0,0,0,178,86.87a5.67,5.67,0,0,0,.55,4.23l0,0a5.4,5.4,0,0,0,3.31,2.55,5.28,5.28,0,0,0,4.15-.54l.07,0a5.56,5.56,0,0,0,2.48-3.35,5.67,5.67,0,0,0-.53-4.23h0"/><path class="a" d="M212.27,87.4h6.1v19l8.8-9.9h7.32l-10.62,11.47,10.67,14.54h-7l-9.17-13v13h-6.1V87.4"/><path class="a" d="M241.57,109.57a7.75,7.75,0,0,0,7.78,7.92,7.23,7.23,0,0,0,6.8-4.17,9.09,9.09,0,0,0,1-3.65,8.28,8.28,0,0,0-.7-3.66,7.5,7.5,0,0,0-7.12-4.59c-4.93,0-7.73,4.07-7.73,8.1Zm21.61,12.9h-6.1v-3.74c-1.62,3-5,4.55-8.61,4.55-8.2,0-13-6.5-13-13.84,0-8.2,5.82-13.79,13-13.79,4.66,0,7.5,2.51,8.61,4.6v-3.8h6.1v26"/><path class="a" d="M270.09,101.24h-3.16V96.45h3.16V95c0-7.73,5.78-8.2,10.16-8.25v4.78c-1.54,0-4.05,0-4.05,3.66v1.28h4.05v4.79h-4.05v21.23h-6.1V101.24"/><path class="a" d="M284.39,87.4h6.1v19l8.8-9.9h7.32L296,107.92l10.66,14.54h-7l-9.17-13v13h-6.1V87.4"/><path class="a" d="M313.69,109.57a7.75,7.75,0,0,0,7.78,7.92,7.23,7.23,0,0,0,6.8-4.17,9,9,0,0,0,1-3.65,8.27,8.27,0,0,0-.7-3.66,7.49,7.49,0,0,0-7.12-4.59c-4.93,0-7.73,4.07-7.73,8.1Zm21.61,12.9h-6.1v-3.74c-1.63,3-5,4.55-8.61,4.55-8.2,0-13-6.5-13-13.84,0-8.2,5.82-13.79,13-13.79,4.65,0,7.5,2.51,8.61,4.6v-3.8h6.1v26"/></svg>