<svg id="Layer_1" data-name="Layer 1" xmlns="http://www.w3.org/2000/svg" viewBox="0 0 213 114"><defs><style>.cls-1{fill:#231f20;}.cls-2{fill:#1683ae;}</style></defs><title>NGINX-Partners-logo-source</title><path class="cls-1" d="M52.71,40.8V67.09s-.27,6,7,6c0,0,4.16-.34,4.16-1.24a29,29,0,0,0-.64-3.68,5.81,5.81,0,0,1-2.17.62c-1,0-3.06.46-3.06-2.09V40.8Z"/><rect class="cls-1" x="67.66" y="50.36" width="5.6" height="22.66"/><path class="cls-1" d="M73.68,44.13a3.22,3.22,0,1,1-3.22-3.22A3.22,3.22,0,0,1,73.68,44.13Z"/><path class="cls-1" d="M91.68,49.83c-5.07,0-6.92,3.43-6.92,3.43V40.8H79.59v32h4.28s.16-3,.58-3.22a8.09,8.09,0,0,0,6.87,3.22c3.75,0,10.56-1.8,10.56-11S96.75,49.83,91.68,49.83ZM90.26,68.9c-3,0-5-1.59-5.16-5.23V59.76c.22-3.62,2.14-5.17,5.16-5.17,3.21,0,5.81,3.2,5.81,7.15S93.47,68.9,90.26,68.9Z"/><path class="cls-1" d="M120.82,51l-.63,3.71c-9.37-1.5-8.78,7.28-8.78,9.15V73h-5V51h4.39v3.23S115,48.87,120.82,51Z"/><path class="cls-1" d="M142.24,68.32c0-.87.08-12.12.08-12.12s-.47-6.18-9-6.18c-7.61,0-9.43,2.22-9.43,2.22l1.9,3.09s9.9-3.8,11.56,1.58v2.77a22.55,22.55,0,0,0-9.59,0,6.7,6.7,0,0,0-5.27,7s-.52,6.18,8,6.26c0,0,4.2,0,6.81-2.61a3.93,3.93,0,0,0,4,2.61H145v-4S142.24,69.19,142.24,68.32Zm-10,1c-4.2,1.17-4.12-3.33-4.12-3.33a4.1,4.1,0,0,1,3.41-3.33,14,14,0,0,1,5.39.62C137.08,65.36,136.43,68.1,132.25,69.27Z"/><path class="cls-1" d="M176.65,50a11.45,11.45,0,1,0,11.42,11.45A11.22,11.22,0,0,0,176.65,50Zm0,18.38c-3.57,0-5.85-3.1-5.85-6.93s2.28-6.93,5.85-6.93,5.85,3.1,5.85,6.93S180.22,68.4,176.65,68.4Z"/><path class="cls-2" d="M40.3,40.8H22c-3.86,0-7,2.6-7,6.54V73.13H40.3a7.12,7.12,0,0,0,7-7.16V40.8ZM31.11,62.25a4.34,4.34,0,1,1,4.26-4.34A4.3,4.3,0,0,1,31.11,62.25Z"/><path class="cls-1" d="M162,54.59V50.65h-6.16v-6.5h-5.23v6.5h-4.22v3.94h4.22V67.06s-.27,6,6.92,6c0,0,4.13-.34,4.13-1.24a29.06,29.06,0,0,0-.63-3.66,5.75,5.75,0,0,1-2.15.62c-1,0-3,.46-3-2.08V54.59Z"/><path class="cls-2" d="M198,69.87a3.33,3.33,0,1,1-3.33-3.33A3.33,3.33,0,0,1,198,69.87Z"/></svg>