<svg height="80" viewBox="0 0 280 80" width="280" xmlns="http://www.w3.org/2000/svg" xmlns:xlink="http://www.w3.org/1999/xlink"><linearGradient id="a"><stop offset="0" stop-color="#00639b"/><stop offset="1" stop-color="#63c2d0"/></linearGradient><linearGradient id="b" gradientUnits="userSpaceOnUse" x1="18.181101" x2="4.2082" xlink:href="#a" y1="3.5043" y2="3.5043"/><linearGradient id="c" gradientUnits="userSpaceOnUse" x1="24.959299" x2="16.610399" xlink:href="#a" y1="3.0527" y2="3.0527"/><linearGradient id="d" gradientUnits="userSpaceOnUse" x1="24.047701" x2="24.047701" xlink:href="#a" y1="16.5658" y2="4.6854"/><linearGradient id="e" gradientUnits="userSpaceOnUse" x1="29.8466" x2="2.3589" xlink:href="#a" y1="14.3573" y2="14.3573"/><linearGradient id="f"><stop offset="0" stop-color="#63c2d0"/><stop offset="1" stop-color="#d6e9d8"/></linearGradient><linearGradient id="g" gradientUnits="userSpaceOnUse" x1="15.1532" x2="32.078999" xlink:href="#f" y1="30.437799" y2="30.437799"/><linearGradient id="h" gradientUnits="userSpaceOnUse" x1="15.6905" x2="1.7489" xlink:href="#a" y1="17.5277" y2="17.5277"/><linearGradient id="i" gradientUnits="userSpaceOnUse" x1=".091099" x2="16.4142" xlink:href="#f" y1="30.8941" y2="30.8941"/><linearGradient id="j" gradientUnits="userSpaceOnUse" x1="11.6842" x2="-.020449" xlink:href="#f" y1="25.914499" y2="25.914499"/><g transform="matrix(1.7445594 0 0 1.7445594 26.539101 5.956481)"><path d="m37.3 8.2 4.3-1v20.6c0 2.3.7 3.6 2 4-.7 1.3-1.8 1.9-3.4 1.9-1.9 0-2.9-1.3-2.9-4zm6.7 15.9c0-2.8.8-5.1 2.4-6.8 1.6-1.8 3.7-2.6 6.4-2.6 2.8 0 4.9.8 6.5 2.5 1.5 1.7 2.3 4 2.3 6.9s-.8 5.2-2.4 7c-1.6 1.7-3.7 2.6-6.4 2.6-2.8 0-4.9-.9-6.5-2.6-1.5-1.8-2.3-4.1-2.3-7zm4.4 0c0 4 1.5 6 4.4 6 1.3 0 2.4-.5 3.2-1.6.8-1 1.2-2.5 1.2-4.5 0-4-1.4-6-4.3-6-1.3 0-2.4.5-3.2 1.6-.9 1.1-1.3 2.6-1.3 4.5zm13.7 0c0-2.8.8-5.1 2.4-6.8 1.6-1.8 3.7-2.6 6.4-2.6 2.8 0 4.9.8 6.5 2.5 1.5 1.7 2.3 4 2.3 6.9s-.8 5.2-2.4 7c-1.6 1.7-3.7 2.6-6.4 2.6-2.8 0-4.9-.9-6.5-2.6-1.6-1.8-2.3-4.1-2.3-7zm4.4 0c0 4 1.5 6 4.4 6 1.3 0 2.4-.5 3.2-1.6.8-1 1.2-2.5 1.2-4.5 0-4-1.4-6-4.3-6-1.3 0-2.4.5-3.2 1.6-.9 1.1-1.3 2.6-1.3 4.5zm26.6 9.2v-1.1c-.4.4-1 .7-1.8 1s-1.7.4-2.6.4c-2.5 0-4.6-.8-6-2.4-1.5-1.6-2.2-3.9-2.2-6.8s.8-5.2 2.5-7.1c1.7-1.8 3.8-2.7 6.3-2.7 1.4 0 2.7.3 3.8.9v-7.3l4.3-1v26.1zm0-14c-.9-.7-1.9-1.1-2.9-1.1-1.7 0-3 .5-3.9 1.6-.9 1-1.4 2.5-1.4 4.5 0 3.8 1.8 5.7 5.5 5.7.4 0 .9-.1 1.5-.4.6-.2 1-.5 1.2-.7zm5.7 12.8 1.5-3.4c1.3 1 2.7 1.5 4.3 1.5 1.7 0 2.5-.6 2.5-1.8 0-.7-.3-1.3-.8-1.7s-1.5-1-2.9-1.6c-3.2-1.3-4.7-3.1-4.7-5.5 0-1.6.6-2.8 1.8-3.7s2.8-1.3 4.6-1.3c1.9 0 3.7.4 5.4 1.3l-1.2 3.3c-.9-.8-2.2-1.2-3.9-1.2-1.5 0-2.2.6-2.2 1.8 0 .5.2.9.7 1.3s1.5.9 3.1 1.5 2.8 1.4 3.5 2.3 1.1 2 1.1 3.3c0 1.7-.6 3-1.9 4s-3 1.5-5.1 1.5c-1.2 0-2.2-.1-2.9-.3-.8-.3-1.8-.7-2.9-1.3zm30.7-6.7h-13.1c.1 1.5.6 2.6 1.5 3.4s2.2 1.2 3.7 1.2c1.9 0 3.4-.5 4.4-1.5l1.7 3.3c-1.5 1.2-3.7 1.8-6.7 1.8-2.8 0-5-.8-6.6-2.5-1.6-1.6-2.4-3.9-2.4-6.8s.9-5.2 2.7-7 3.9-2.7 6.4-2.7c2.7 0 4.8.8 6.4 2.4s2.4 3.6 2.4 6c0 .6-.1 1.4-.4 2.4zm-12.9-3.2h9c-.3-2.7-1.8-4-4.4-4-2.5 0-4 1.3-4.6 4z" fill="#1d4e7c"/><g clip-rule="evenodd" fill-rule="evenodd"><path d="m4.2 5.8c5.4 1.7 10.1 1.5 14 .3-.9-2.1-1.3-4.2-1.6-6.1-.2 0-.4 0-.6 0-4.9 0-9.4 2.3-11.8 5.8z" fill="url(#b)"/><path d="m16.6 0c .3 1.9.7 4 1.6 6.1 2.6-.8 4.9-2 6.8-3.3-2.3-1.6-5.2-2.7-8.4-2.8z" fill="url(#c)"/><path d="m25 2.8c-1.9 1.3-4.2 2.5-6.8 3.3 1.8 4.5 5.2 9.2 11.7 12.3 0-.4.1-.8.1-1.2v-5.3c-.1-3.6-2-6.9-5-9.1z" fill="url(#d)"/><path d="m29.8 18.4c-6.5-3.1-9.9-7.8-11.7-12.3-3.9 1.2-8.6 1.4-14-.3-.9 1.3-1.6 2.8-1.8 4.3 7 3.1 10.6 8 12.4 12.7 3.8-1.1 8.3-1.4 13.4.2 1-1.4 1.6-2.9 1.7-4.6z" fill="url(#e)"/><path d="m15.2 24c .6 1.8.9 3.6 1.2 5.2h.1c.3 2.1 1.4 7 4.1 9.1 3.4 2.6 3.1-2.4.6-5-1.5-1.5-2.5-3-3-4.2.3 0 .7-.1 1-.2.8 1.6 3.1 6 6.2 6.5 3.8.7 2.3-3.8-.7-5-1.6-.6-2.8-1.3-3.6-2.1.4-.2.9-.3 1.3-.5.8.6 4.7 3.6 8 1.8 3.6-2 .7-4.9-2.3-3.9-1.2.4-2.3.6-3.1.7 1-.7 1.8-1.5 2.5-2.4.3-.3.5-.7.8-1.1-5.2-1.5-9.7-1.3-13.4-.2.1.5.2.9.3 1.3z" fill="url(#g)"/><path d="m14.8 22.8c-1.9-4.7-5.5-9.6-12.4-12.7-.1.6-.2 1.2-.2 1.9v5.3c0 2.5.9 4.9 2.5 6.8l6.5.9 4.1-.9c-.2-.5-.3-.9-.5-1.3z" fill="url(#h)"/><path d="m11.6 24c-1.5.7-2.8 1.5-4 2.4-1 0-2.1-.2-3.5-.7-3-1-5.8 1.9-2.3 3.9 3.2 1.8 7.2-1.2 8-1.8.4.2.9.4 1.3.5-.9.8-2 1.5-3.6 2.1-3 1.1-4.5 5.6-.7 5 3.1-.5 5.4-4.9 6.2-6.5.3.1.7.1 1 .2-.6 1.3-1.6 2.7-3 4.2-2.5 2.6-2.8 7.6.6 5 1.8-1.4 4-9 4.1-9.1h.5.4c-.4-2.6-.7-3.5-1.2-5.2-1.7-.9-2.8-.5-3.8 0z" fill="url(#i)"/><path d="m7.6 26.4c1.2-.9 3-1.9 4.5-2.6-4.6.7-6.5.2-8.9-2.1 1 2.1 3 4 4 4.7-.9 0-1.9-.2-3.1-.7-3-1-5.8 1.9-2.3 3.9.5.3 1 .5 1.6.5 1-1.1 2.4-2.4 4-3.6 0 0 .1-.1.2-.1z" fill="url(#j)"/><circle cx="21.799999" cy="16.200001" fill="#fff" r="4.9"/><path d="m21.8 13.5c.3 0 .5 0 .8.1-.5.2-.8.7-.8 1.3 0 .8.6 1.4 1.4 1.4.6 0 1-.3 1.3-.8.1.2.1.5.1.8 0 1.5-1.2 2.7-2.7 2.7s-2.7-1.2-2.7-2.7c-.2-1.6 1.1-2.8 2.6-2.8zm-.8 3c-.3 0-.5.2-.5.5s.2.5.5.5.5-.2.5-.5-.2-.5-.5-.5z" fill="#1d4e7c"/><circle cx="10.4" cy="16.200001" fill="#fff" r="4.9"/><path d="m10.4 13.5c.3 0 .5 0 .8.1-.5.2-.8.7-.8 1.3 0 .8.6 1.4 1.4 1.4.6 0 1-.3 1.3-.8.1.2.1.5.1.8 0 1.5-1.2 2.7-2.7 2.7s-2.7-1.2-2.7-2.7c-.1-1.6 1.1-2.8 2.6-2.8zm-.7 3c-.3 0-.5.2-.5.5s.2.5.5.5.5-.2.5-.5-.3-.5-.5-.5z" fill="#1d4e7c"/></g></g></svg>