<?xml version="1.0" encoding="utf-8"?>
<!-- Generator: Adobe Illustrator 16.0.3, SVG Export Plug-In . SVG Version: 6.00 Build 0)  -->
<!DOCTYPE svg PUBLIC "-//W3C//DTD SVG 1.1//EN" "http://www.w3.org/Graphics/SVG/1.1/DTD/svg11.dtd">
<svg version="1.1" id="Layer_1" xmlns="http://www.w3.org/2000/svg" xmlns:xlink="http://www.w3.org/1999/xlink" x="0px" y="0px"
	 width="500px" height="500px" viewBox="0 0 500 500" enable-background="new 0 0 500 500" xml:space="preserve">
<g>
	<g>
		<g>
			<path fill="#37383E" d="M79.855,351.677c0-17.717,4.582-27.897,21.215-27.897c16.628,0,21.291,10.025,21.291,27.897
				c0,18.498-4.583,27.435-21.291,27.435C84.361,379.11,79.855,369.705,79.855,351.677z M116.146,351.677
				c0-14.53-2.797-22.612-15.075-22.612c-12.356,0-15.079,8.006-15.079,22.612c0,14.688,2.644,22.149,15.079,22.149
				C113.58,373.826,116.146,366.832,116.146,351.677z"/>
			<path fill="#37383E" d="M132.303,339.479h5.751v2.797c0,0,5.908-3.573,11.658-3.573c9.792,0,14.066,5.98,14.066,19.739
				c0,15.23-4.973,20.67-16.94,20.67c-3.65,0-7.618-0.623-8.704-0.855v17.332h-5.831V339.479z M138.134,347.017v26.188
				c1.011,0.152,5.054,0.853,8.393,0.853c8.549,0,11.348-4.429,11.348-15.616c0-10.647-3.343-14.535-9.015-14.535
				C143.572,343.905,138.134,347.017,138.134,347.017z"/>
			<path fill="#37383E" d="M201.93,373.283l0.157,4.584c0,0-8.856,1.243-15.154,1.243c-11.577,0-15.387-6.764-15.387-19.973
				c0-14.766,6.372-20.438,16.243-20.438c10.335,0,15.622,5.439,15.622,18.184l-0.317,4.433h-25.641
				c0,8.312,2.562,12.666,10.18,12.666C193.46,373.982,201.93,373.283,201.93,373.283z M197.581,356.652
				c0-9.637-2.955-13.058-9.793-13.058c-6.604,0-10.336,3.651-10.414,13.058H197.581z"/>
			<path fill="#37383E" d="M212.497,378.336v-38.857h5.75v2.72c0,0,6.292-3.496,12.042-3.496c10.726,0,13.136,5.283,13.136,19.117
				v20.518h-5.75v-20.363c0-10.259-1.166-14.066-8.392-14.066c-5.6,0-10.958,2.877-10.958,2.877v31.554h-5.828V378.336z"/>
		</g>
		<g>
			<path fill="#37383E" d="M284.917,330.307c0,0-10.803-1.319-15.309-1.319c-7.614,0-11.652,2.721-11.652,8.78
				c0,6.994,3.728,8.161,13.132,10.259c10.727,2.407,15.46,5.049,15.46,14.456c0,11.888-6.522,16.552-17.172,16.552
				c-6.374,0-17.018-1.711-17.018-1.711l0.62-4.976c0,0,10.568,1.4,16.087,1.4c7.615,0,11.502-3.341,11.502-10.804
				c0-6.061-3.187-7.769-11.969-9.481c-11.11-2.406-16.708-5.051-16.708-15.304c0-10.418,6.838-14.458,17.329-14.458
				c6.373,0,16.243,1.555,16.243,1.555L284.917,330.307z"/>
			<path fill="#37383E" d="M329.368,377.479c-3.812,0.775-9.717,1.632-14.849,1.632c-16.082,0-19.657-9.792-19.657-27.51
				c0-18.185,3.497-27.822,19.657-27.822c5.519,0,11.429,1.011,14.849,1.711l-0.236,5.054c-3.496-0.625-9.791-1.402-13.983-1.402
				c-11.969,0-14.068,7.15-14.068,22.461c0,14.997,1.941,22.146,14.222,22.146c4.351,0,10.099-0.697,13.83-1.4L329.368,377.479z"/>
			<path fill="#37383E" d="M349.179,324.557h13.054l14.77,53.779h-5.906l-3.887-13.836h-23.006l-3.883,13.836h-5.906
				L349.179,324.557z M345.526,359.139h20.358l-8.156-29.451h-4.045L345.526,359.139z"/>
			<path fill="#37383E" d="M391.448,360.227v18.109h-5.984v-53.779h19.666c11.732,0,17.172,5.674,17.172,17.329
				c0,11.735-5.438,18.341-17.172,18.341H391.448z M405.048,354.942c7.851,0,11.117-4.743,11.117-13.058
				c0-8.234-3.269-12.045-11.117-12.045h-13.6v25.103H405.048z"/>
		</g>
	</g>
	<g>
		<path fill="#064780" d="M161.292,196.11c0-23.863,9.174-46.411,26.13-63.366c17.983-17.982,41.516-27.416,66.261-26.557
			c22.77,0.779,44.857,10.272,60.628,26.042c16.908,16.91,26.334,39.337,26.554,63.146c0.153,24.146-9.195,47.02-26.49,64.316
			c-34.926,34.928-91.913,34.766-127.039-0.355c-3.904-3.905-5.078-11.027,0.432-16.537l23.871-23.877
			c-5.414-9.605-13.068-34.78,6.963-54.82c20.146-20.141,49.216-16.012,64.595-0.632c8.67,8.671,13.494,20.034,13.571,31.999
			c0.152,12.265-4.857,23.973-13.935,33.048c-11.064,11.065-27.027,15.401-42.704,11.611c-3.967-0.964-6.401-4.96-5.445-8.932
			c0.962-3.968,4.957-6.407,8.928-5.443c10.781,2.606,21.268-0.2,28.767-7.696c6.2-6.204,9.604-14.104,9.604-22.281
			c0-0.065,0-0.139,0-0.204c-0.056-8.054-3.34-15.736-9.239-21.644c-10.352-10.35-29.998-13.05-43.683,0.636
			c-16.694,16.701-4.349,37.421-4.221,37.625c4.077,6.448,1.958,13.186-2.312,16.768l-22.265,22.268
			c26.122,23.677,72.017,29.648,103.656-1.989c14.306-14.306,22.158-33.119,22.158-53.046c0-0.229,0-0.452-0.002-0.683
			c-0.177-19.907-8.07-38.665-22.223-52.819c-13.146-13.145-31.618-21.061-50.672-21.718c-20.605-0.713-40.248,7.185-55.294,22.237
			c-23.052,23.045-23.019,50.282-20.957,64.461c0.908,6.229,2.895,12.877,5.747,19.205c1.677,3.724,0.017,8.104-3.71,9.781
			c-3.722,1.674-8.103,0.014-9.775-3.709c-3.459-7.677-5.771-15.468-6.894-23.142C161.625,205.209,161.292,200.639,161.292,196.11z"
			/>
	</g>
</g>
</svg>
