<?xml version="1.0" encoding="utf-8"?>
<!-- Generator: Adobe Illustrator 21.1.0, SVG Export Plug-In . SVG Version: 6.00 Build 0)  -->
<svg version="1.1" id="Layer_1" xmlns="http://www.w3.org/2000/svg" xmlns:xlink="http://www.w3.org/1999/xlink" x="0px" y="0px"
	 viewBox="0 0 268.5 345" style="enable-background:new 0 0 268.5 345;" xml:space="preserve">
<style type="text/css">
	.st0{fill:#2094F2;}
	.st1{fill:#EC254B;}
	.st2{fill:#2095F2;}
	.st3{fill:#2195F2;}
	.st4{fill:#81ADE5;}
	.st5{fill:none;}
	.st6{fill:#FEFEFE;}
	.st7{fill:#FEFEFE;stroke:#999999;stroke-width:3;stroke-miterlimit:10;}
	.st8{fill:#4C5436;}
	.st9{fill:#4F5937;}
	.st10{fill:#546037;}
	.st11{fill:#9FB574;}
	.st12{fill:#88B43E;}
	.st13{fill:#383434;}
	.st14{fill:#8AB541;}
	.st15{fill:#8AB542;}
	.st16{fill:#8DB645;}
	.st17{fill:#90B84B;}
	.st18{fill:#94BA51;}
	.st19{fill:#99BB5C;}
	.st20{fill:#96BA56;}
	.st21{fill:#4A5136;}
	.st22{fill:#51583C;}
	.st23{fill:#4E5836;}
	.st24{fill:#4A5037;}
	.st25{fill:#4C513A;}
	.st26{fill:#515C37;}
	.st27{fill:#464A35;}
	.st28{fill:#535841;}
	.st29{fill:#555E3E;}
	.st30{fill:#556238;}
	.st31{fill:#F7D24E;}
	.st32{fill:#FAE8AD;}
	.st33{fill:#FAD86E;}
	.st34{fill:#8CB645;}
	.st35{fill:#91B94B;}
	.st36{fill:#91B84C;}
	.st37{fill:#F7EBCD;}
	.st38{fill:#96BA57;}
	.st39{fill:#9DBB67;}
	.st40{fill:#9BBC60;}
	.st41{fill:#9DBA67;}
	.st42{fill:#EFDDA6;}
	.st43{fill:#9ABB60;}
	.st44{fill:#9EB86E;}
	.st45{fill:#80A73D;}
	.st46{fill:#A0B578;}
	.st47{fill:#9FB379;}
	.st48{fill:#9DBA66;}
	.st49{fill:#423D36;}
	.st50{fill:#A0BB6E;}
	.st51{fill:#A0B673;}
	.st52{fill:#97A67A;}
	.st53{fill:#9BAD78;}
	.st54{fill:#91997D;}
	.st55{fill:#47423C;}
	.st56{fill:#635A45;}
	.st57{fill:#635C4A;}
	.st58{fill:#939F78;}
	.st59{fill:#6D883A;}
	.st60{fill:#69624C;}
	.st61{fill:#8C9775;}
	.st62{fill:#70664D;}
	.st63{fill:#5F5740;}
	.st64{fill:#595345;}
	.st65{fill:#756A4C;}
	.st66{fill:#685F49;}
	.st67{fill:#776C52;}
	.st68{fill:#6B624B;}
	.st69{fill:#99BC5B;}
</style>
<g>
	<g>
		<path class="st5" d="M50.1,53.2l-0.5,0.3c6-3.4,12-6.7,18-10.1L50.1,53.2z"/>
		<path class="st5" d="M89.6,30.3l-5,2.9l-5.7,3.5C82.5,34.5,86.3,32.7,89.6,30.3z"/>
		<path class="st6" d="M40.4,58.7c3.1-1.7,6.1-3.5,9.2-5.2l0.5-0.3L40.4,58.7z"/>
		<path class="st7" d="M258,101.7c0-7.1,0-14.1-1.6-21c-0.5-1.1-1-2.1-1.5-3.2c-1.9-3.5-4.7-5.8-8.1-7.7c-9-5-18-9.9-26.7-15.3
			l-41.2-24c-11.3-6.8-22.8-13.2-34.2-19.8c-0.6,0-1.3,0-1.9-0.1c-10.2-2.2-19.8-0.9-28.3,5.6c-1,0.8-2.4,1-3.5,1.5L89.6,30.3
			c-3.4,2.5-7.2,4.3-10.8,6.4l5.7-3.5L50.1,53.2l17.5-9.9c-6,3.4-12,6.8-18,10.1L24.7,68c-9,3.9-13.4,10.8-13.5,20.5
			c-0.1,39.8-0.1,79.6,0,119.4c0,7.8,2.9,14.2,9.9,18.3c5.9,3.4,11.8,6.6,17.6,10.2c7.1,4.4,14.5,8.4,20.9,12.2
			c1.8,0.8,3.9,2.6,5.8,3.4c1.9,1.1,2.7,1.5,4,2.4c7.1,3.4,5.2,2.3,11.8,6.7c1.7,1.5,11.2,6.8,12.5,7.5c8.3,4.2,16.4,8.8,24.3,13.7
			c9.7,6.1,19.5,6.4,29.7,1.4c2.7-1.3,5-2.4,7.9-4.1c2.1-1.4,3.6-2.1,6.4-3.9c8.8-5.2,17.7-10.4,26.5-15.6
			c6.1-3.5,12.2-6.9,18.3-10.4c4.2-2.4,8.4-4.8,12.5-7.2c8.3-4.9,16.4-10.2,24.9-14.5c7-3.5,11.3-8.5,12.7-16.1
			c0.6-3.3,1-6.7,1-10.1C258,168.4,258,135,258,101.7z"/>
		<path class="st6" d="M90.6,29.5l-6,3.6l5-2.9C90,30,90.3,29.8,90.6,29.5z"/>
		<path class="st8" d="M90.8,60.1c-3.1-3-5.5-6.8-10-8c2.4,3.7,6,6,9,8.9c0,0,0,0,0,0C90.1,60.8,90.4,60.4,90.8,60.1z"/>
		<path class="st9" d="M102.5,61.2c1.5-1.6,0.1-4,1.5-5.6c-0.1-0.9,0.1-2-1-2.6c0,0,0,0,0,0c0,0,0,0,0,0c-0.9,1.8-1.3,3.7-1.4,5.6
			c0,0,0,0,0,0C102.6,59.3,102.3,60.3,102.5,61.2z"/>
		<path class="st10" d="M104,55.6c0.8-0.8,1-1.9,0.4-2.8c-0.3-0.5-0.9-0.1-1.3,0.3c0,0,0,0,0,0C104.1,53.6,103.9,54.6,104,55.6z"/>
		<ellipse transform="matrix(0.9122 -0.4097 0.4097 0.9122 -67.7225 96.7913)" class="st11" cx="192" cy="206.5" rx="0" ry="0"/>
	</g>
	<g>
		<path class="st5" d="M50.4,53l-0.5,0.3c6-3.4,12-6.7,18-10.1L50.4,53z"/>
		<path class="st5" d="M89.9,30.1l-5,2.9l-5.7,3.5C82.7,34.3,86.5,32.5,89.9,30.1z"/>
		<path class="st6" d="M40.6,58.5c3.1-1.7,6.1-3.5,9.2-5.2l0.5-0.3L40.6,58.5z"/>
		<path class="st6" d="M258.3,101.5c0-7.1,0-14.1-1.6-21c-0.5-1.1-1-2.1-1.5-3.2c-1.9-3.5-4.7-5.8-8.1-7.7c-9-5-18-9.9-26.7-15.3
			l-41.2-24c-11.3-6.8-22.8-13.2-34.2-19.8c-0.6,0-1.3,0-1.9-0.1c-10.2-2.2-19.8-0.9-28.3,5.6c-1,0.8-2.4,1-3.5,1.5L89.9,30.1
			c-3.4,2.5-7.2,4.3-10.8,6.4l5.7-3.5L50.4,53l17.5-9.9c-6,3.4-12,6.8-18,10.1L24.9,67.8c-9,3.9-13.4,10.8-13.5,20.5
			c-0.1,39.8-0.1,79.6,0,119.4c0,7.8,2.9,14.2,9.9,18.3c5.9,3.4,11.8,6.6,17.6,10.2c7.1,4.4,14.5,8.4,20.9,12.2
			c1.8,0.8,3.9,2.6,5.8,3.4c1.9,1.1,2.7,1.5,4,2.4c7.1,3.4,5.2,2.3,11.8,6.7c1.7,1.5,11.2,6.8,12.5,7.5c8.3,4.2,16.4,8.8,24.3,13.7
			c9.7,6.1,19.5,6.4,29.7,1.4c2.7-1.3,5-2.4,7.9-4.1c2.1-1.4,3.6-2.1,6.4-3.9c8.8-5.2,17.7-10.4,26.5-15.6
			c6.1-3.5,12.2-6.9,18.3-10.4c4.2-2.4,8.4-4.8,12.5-7.2c8.3-4.9,16.4-10.2,24.9-14.5c7-3.5,11.3-8.5,12.7-16.1
			c0.6-3.3,1-6.7,1-10.1C258.2,168.2,258.2,134.8,258.3,101.5z M241.7,218.6c-29.5,17-59,34-88.4,51c-3.7,2.2-7.6,4.1-11.2,6.5
			c-4.8,3.1-9.7,3.1-14.5,0.3c-19.2-11-38.3-22.1-57.5-33.2c-14.2-8.2-28.3-16.4-42.5-24.5c-5.3-3-7.7-7.3-7.7-13.5
			c0.1-19.1,0.1-38.2,0.1-57.4c0-19.3,0.1-38.5,0-57.8c0-5.6,2.4-9.7,7-12.4c33.4-19.3,66.9-38.5,100.3-57.9c5.2-3,10-2.8,15.1,0.1
			c33.2,19.2,66.4,38.3,99.6,57.5c5,2.9,7.5,7.2,7.5,12.9c0,38.4,0,76.8,0,115.1C249.4,211.3,246.7,215.7,241.7,218.6z"/>
		<path class="st6" d="M90.8,29.3l-6,3.6l5-2.9C90.2,29.8,90.5,29.6,90.8,29.3z"/>
		<path class="st12" d="M241.9,77.4c-33.2-19.1-66.4-38.3-99.6-57.5c-5.1-3-9.9-3.2-15.1-0.1C93.7,39.1,60.2,58.3,26.8,77.7
			c-4.6,2.7-7,6.8-7,12.4c0.1,19.3,0,38.5,0,57.8c0,19.1,0.1,38.3-0.1,57.4c0,6.2,2.4,10.5,7.7,13.5c14.2,8.1,28.4,16.3,42.5,24.5
			c19.2,11.1,38.3,22.2,57.5,33.2c4.8,2.8,9.6,2.8,14.5-0.3c3.6-2.3,7.5-4.3,11.2-6.5c29.5-17,59-34,88.4-51
			c5.1-2.9,7.8-7.3,7.8-13.2c0-38.4,0-76.8,0-115.1C249.4,84.6,246.9,80.3,241.9,77.4z M228.6,196.7c-10.6,4.4-21.5,8.2-32.4,11.8
			c-3,1-5.9,2-9,2.8c-1.7,0.5-2,1.2-1.3,2.8c1,2.1,1.8,4.4,2.5,6.6c1.3,3.9,1,4.4-3,4.5c-5.1,0-10.2,0-15.3,0
			c-1.9,0-3.1-0.6-3.9-2.5c-2.5-5.6-2.6-5.5-8.8-3.2c0,0,0,0,0,0c0,0,0,0,0,0c1.6,0.1,3,0.1,1.5,2.4c-3.4,5.1-7.9,9.2-11.6,14
			c-3,3.9-6.3,7.1-10.9,8.9c-1.3,0.3-2.6,0.5-3.9,0.8c-1,0-2.1,0-3.1,0c-2.1-0.3-1.4-1.9-1.6-3.1c0,0,0,0,0,0c0,0,0,0,0,0
			c0-0.5,0-1,0-1.6c-0.2-0.3-0.5-0.5-0.7-0.8c0,0,0,0,0,0c0,0,0,0,0,0c0,1-0.1,2.1-0.1,3.1c-0.7,1.1-1.4,2.1-1.6-0.2
			c-0.5-5.8-1.8-11.5-3-17.2c-5.4-0.6-10.8,0.2-16.2,0.4c-23,0.6-45.2-2-64.7-15.7c-0.3-0.2-0.6-0.5-0.9-0.7
			c-1.1-0.7-2.1-1.6-1.3-2.8c0.9-1.4,2.1-0.3,3,0.3c3.5,2.5,7.3,4.6,11.1,6.6c11.1,5.5,22.9,7.9,35.1,8.9c2,0.2,3.5-0.2,4.3-2.3
			c3-8.1,6.2-16.1,9.4-24.1c0.4-1.1,0.8-2.2,0.5-3.4c0,0,0,0,0,0c-2.4-0.8-3.8-3.1-6-4.2c-0.6-0.3-1.1-0.9-0.7-1.6
			c0.4-0.6,1.2-0.5,1.7-0.1c1.4,1,2.9,1.8,4,3c1.4,1.5,2.2,0.4,3.2-0.4c6.2-16,12.4-31.9,18.5-47.9c1.7-4.3,3.3-8.5,5-12.8
			c1.7-4.4,1.1-8.4-1.5-12.2c-0.5,2.1-2.3,1.4-3.5,1.4c-7.7,0.1-15.4,0-23.2,0c0,0,0,0,0,0c0,1,0,2.1,0,3.1c0,0,0,0,0,0
			c-0.2,4,2.3,7.5,2.2,11.6c-2.8-3.4-3.8-7.3-3.8-11.6c0,0,0,0,0,0c-1.6-3-0.6-6.2-0.9-9.3c0,0,0,0,0,0c-1.5-5-0.6-10.1-0.7-15.1
			c0,0,0,0,0,0c0.2-2.4-0.7-4.9,0.7-7.1c0,0,0,0,0,0c0-1,0.1-2.1,0.1-3.1c0,0,0,0,0,0c0,0,0,0,0,0c-0.3-3-0.1-6,0.7-8.9
			c1.4-5.2-1.1-8.9-4.4-12.4c-1.4-1.5-2.8-3.1-4.2-4.6c0,0,0,0,0,0c-3.1-2.9-6.7-5.3-9-8.9c4.5,1.2,7,5,10,8
			c2.3,1.9,4.5,3.9,6.2,6.4c1.2,1.8,2.1,1.7,3.1,0c0,0,0,0,0,0c0.5-2.6,1.1-5.2,1.6-7.8c0,0,0,0,0,0c0,0,0,0,0,0
			c0.1-2,0.5-3.9,1.4-5.6c0,0,0,0,0,0c0.4-0.4,1-0.7,1.3-0.3c0.7,1,0.5,2-0.4,2.8c-1.4,1.6,0,4-1.5,5.6c-0.3,2.3-0.6,4.6-1,6.9
			c-0.1,2.3,1.3,2.4,3,2.4c3.9,0,7.8-0.5,11.7,0.7c1.3,0.4,2.6,0.6,3.5,1.6c0,0,0,0,0,0c11.4,5.3,17,15.6,21.9,26.2
			c7.9,17.1,13.8,35,20.5,52.6c0.4,1.1,0.7,2.3,1.6,3.1c0,0,0,0,0,0c0,0,0,0,0,0c-0.3-1.7-0.7-3.5-1-5.3c2.5,0.2,3.6,2.2,5.2,3.5
			c13.3,11.1,26.6,22.1,39.9,33.2c3.1,2.6,6,5.3,9.2,7.9c1.6,1.3,1.6,2.5,0.3,3.8c3.5-0.8,6.6-2.3,9.9-3.6c1.2-0.5,3-1.6,3.7,0.3
			C231.6,195.8,229.7,196.2,228.6,196.7z"/>
		<path class="st12" d="M98.9,97C98.9,97,98.9,97,98.9,97c0,0,0-0.1,0-0.1c0,0-0.1,0-0.1,0.1C98.8,97,98.9,97,98.9,97
			C98.9,97,98.9,97,98.9,97z"/>
		<path class="st12" d="M98.6,105.7c0,0,0.1,0.1,0.1,0.1c0-0.1,0-0.2,0-0.2C98.7,105.6,98.6,105.7,98.6,105.7z"/>
		<path class="st13" d="M110.5,86.6c0.1,0,0.2,0.1,0.3,0.1c-0.1-0.1-0.1-0.2-0.2-0.3C110.6,86.4,110.6,86.5,110.5,86.6
			C110.6,86.6,110.5,86.6,110.5,86.6z"/>
		<polygon class="st13" points="182.8,204.7 182.8,204.7 182.8,204.7 		"/>
		<path class="st13" d="M227.3,193.9c-3.3,1.3-6.4,2.9-9.9,3.6c0,0,0,0,0,0c-1.5,0.8-2.9,1.7-4.7,1.7c0,0,0,0,0,0
			c-2,1.1-4,2.1-6.3,2.3c-0.2,0.1-0.5,0.2-0.7,0.1c0,0,0,0,0,0c-1.1,1.1-2.5,1.4-4,1.5c0,0,0,0,0,0c-1.4,1-3,1.5-4.7,1.5
			c0,0,0,0,0,0h0c-0.4,0.6-0.9,0.7-1.6,0.7c0,0,0,0,0,0c-0.3,0-0.5,0-0.8,0c0,0,0,0,0,0c0,0,0,0,0,0c-0.7,0.4-1.3,1.1-2.3,0.9
			c0,0,0,0,0,0c-0.6,0.7-1.4,0.8-2.3,0.8c-0.1,0-0.2,0.1-0.2,0.1c-5.3,2.4-6,2.1-7-2.5c-0.9-0.9-1.4-1.9-1.4-3.2h0
			c-0.3-1-0.7-2.1-1-3.1c-0.7-0.6-0.8-1.5-0.8-2.3c-0.2-0.5-0.4-1.1-0.7-1.6c-1-1.4-1.7-2.8-1.6-4.6c-1-1.1-1.2-2.5-1.6-3.9
			c0,0,0,0,0,0c-1.6-2.7-2.6-5.5-3.2-8.6c0,0,0,0,0,0c-1.1-1.1-1.5-2.5-1.6-4c0-0.1-0.1-0.1-0.1-0.2c-1.3-1.8-1.9-3.9-2.2-6.1
			c-0.7-0.6-0.8-1.4-0.8-2.2c-1.9-3.2-2.8-6.8-3.9-10.3c0,0,0,0,0,0c-0.9-0.9-1.2-2-1.6-3.1c-6.7-17.6-12.6-35.5-20.5-52.6
			c-4.9-10.6-10.5-20.9-21.9-26.2c0,0,0,0,0,0c0,0,0,0,0,0c-5.5-1.4-11.1-1.9-16.8-1.6c-0.8,0-1.5-0.1-2.1-0.8
			c-0.7-0.2-1.3-0.9-1.3,0.7c0,5.3-0.4,10.6-1.8,15.8c0,0,0,0,0,0c0,1-0.1,2.1-0.1,3.1c0,0,0,0,0,0c0,0,0,0,0,0
			c0,2.4,0.1,4.8,0.1,7.1c0.2,0,0.4,0,0.7,0c0,0,0,0,0,0c0,0,0,0,0,0c0,0,0.1,0,0.1,0.1c0,0,0.1,0,0.1-0.1c0-2.1,0-4.2,0-6.2
			c0,0,0,0,0,0c0,0,0,0,0,0c-0.5-1.7,0.2-2.4,1.9-2.4c3.5-0.1,7-0.2,9.8,2.4c1.4,0.3,2.4,1.2,3,2.4c0,0,0,0,0,0
			c0.2,0.3,0.5,0.5,0.7,0.8c0,0,0,0,0,0c0.7,0.3,0.8,0.9,1,1.5c0.2,0.2,0.5,0.5,0.7,0.7c0.5,0.6,0.9,1.2,1.4,1.9
			c1.1,0.3,1.2,1.4,1.6,2.2c0.2,0.3,0.5,0.6,0.7,1c0,0,0,0,0,0c1.6,1.8,2.5,3.9,3.2,6.1c0,0,0,0,0,0c0.3,0.5,0.5,1.1,0.8,1.6
			c0,0,0,0,0,0c1.8,2.3,2.1,5.3,3.1,8c0,0,0,0,0,0c2.6,3.8,3.2,7.9,1.5,12.2c-1.7,4.2-3.4,8.5-5,12.8c-6.2,16-12.4,31.9-18.5,47.9
			c0.4,1.9-1.5,2.2-2.3,3.3c0,0,0,0,0,0c0,0,0,0,0,0c0.2,1.2-0.1,2.3-0.5,3.4c-3.1,8-6.3,16.1-9.4,24.1c-0.8,2.2-2.3,2.5-4.3,2.3
			c-12.2-1-24-3.4-35.1-8.9c-3.9-1.9-7.6-4.1-11.1-6.6c-0.9-0.7-2.1-1.8-3-0.3c-0.8,1.2,0.3,2.2,1.3,2.8c0.3,0.2,0.6,0.5,0.9,0.7
			c19.5,13.6,41.7,16.2,64.7,15.7c5.4-0.1,10.8-1,16.2-0.4c0.5,0,0.9,0,1.4,0c0,0,0,0,0,0c0,0,0,0,0,0c1.9-1.3,4.2-1.5,6.4-1.5
			c1,0,2-0.1,3-0.1c1.4-1,3.1-0.8,4.7-0.8c0,0,0,0,0,0c1.2-0.9,2.6-0.7,4-0.8c0,0,0,0,0,0c4.1-1.3,8.3-1.9,12.6-2.3
			c0.9-0.9,2-0.8,3.1-0.8c0,0,0,0,0,0c6.2-2.3,6.3-2.3,8.8,3.2c0.8,1.9,2,2.5,3.9,2.5c5.1-0.1,10.2,0,15.3,0c3.9,0,4.3-0.6,3-4.5
			c-0.8-2.2-1.6-4.4-2.5-6.6c-0.7-1.6-0.4-2.3,1.3-2.8c3-0.8,6-1.9,9-2.8c10.9-3.6,21.7-7.5,32.4-11.8c1.1-0.5,3.1-0.8,2.5-2.4
			C230.3,192.3,228.5,193.4,227.3,193.9z M163,203.9c-6.8-19.6-14.4-39-20-59c-0.4-1.5-0.9-2.7-2.4-3.3c0,0,0,0,0,0c0,0,0,0,0,0
			c-1.6,1,0.2,2.3-0.2,3.4c0,0,0,0,0,0c0,0,0,0,0,0c1,8.4,4.4,16,7.1,23.9c4.8,14.2,9.9,28.3,15,42.4c0.9,2.6,0.5,3.8-2.3,4.3
			c-4,0.7-7.9,1.6-11.8,2.4c0,0,0,0,0,0c-4.1,1.5-8.3,2.1-12.6,2.3c-3.2,0.5-6.4,1-9.6,1.5c-1.9,0.3-3.4,0.1-3.8-2.2
			c-0.3,0.5-0.5,1.1-0.8,1.6c-1.6,2.4-3.9,1.3-6,1.4c-0.3,0-0.6-0.4-0.8-0.7c-0.7-1.3,2-6.9,3.8-7.8c0,0,0,0,0,0c0,0,0,0,0,0
			c0.3,0,0.6,0,0.9,0c0,0,0,0,0,0c0,0,0,0,0,0c-1.1-2.9-0.3-5.5,0.7-8.2c3.6-9.6,7-19.3,10.4-29c0.5-1.4,1.5-3-0.9-3.8c0,0,0,0,0,0
			c0,0,0,0,0,0c-1.6,0.8-1.7,2.5-2.3,3.9c-3.5,9.7-7,19.4-10.5,29.1l0,0c-1.1,2.3-0.2,5.2-2.4,7.1c-4.5,11-4.5,10.9-16.5,10.2
			c-2.5-0.2-2.8-0.9-1.9-3.1c2.4-5.9,4.5-11.9,6.8-17.9c0,0,0,0,0,0c0,0,0,0,0,0c-0.1-3.8,2.2-6.6,3.8-9.6v0
			c6.3-16,12.6-32,18.9-47.9c2.1-5.3,4.1-10.7,6.2-16c0.3-0.8,0.1-2.1,1.6-2.1v0c0.4,0,0.7,0,1.1,0c0,0,0,0,0,0c0,0,0,0,0,0
			c-4.8-13.5-9.2-27.3-19.7-37.8c0,0,0,0,0,0c0,0,0,0,0,0c-4.3-2.1-9.3-1.8-13.5-4.2c0.3-2.7,0.5-5.5,0.8-8.2c0,0,0,0,0,0
			c0,0,0,0,0,0c-0.7-2.2,1.4-2.3,2.3-3.3c0,0,0,0,0,0c11.5-1.5,20,3.3,26.6,12.4c6.8,9.3,11.1,19.8,15.1,30.5
			c11.4,29.9,22.5,59.9,33.9,89.8c1.2,3.1,0.7,4.1-2.4,5C166.7,214.2,166.6,214.4,163,203.9z M179.1,222.4c-2.1,0-4.2-0.2-6.3,0.1
			c-3.5,0.5-4.2-1.8-4.6-3.7c-0.6-2.2,0.6-2.2,1.6-2.5c3-0.8,6-1.6,9-2.6c2.4-0.8,3.7-0.3,4.7,2.3
			C186.4,223.7,186.2,222.3,179.1,222.4z"/>
		<path class="st13" d="M137.7,136C137.7,136,137.7,136,137.7,136C137.7,136,137.6,136,137.7,136C137.6,136.1,137.6,136.1,137.7,136
			C137.7,136.1,137.7,136.1,137.7,136z"/>
		<path class="st14" d="M167.7,159.8c4.1,3.2,8.4,6.1,12.2,9.5c9.4,8.2,18.9,16.2,28.6,24.1c1.8,1.4,4.9,2.4,4.1,5.9c0,0,0,0,0,0
			c0,0,0,0,0,0c1.8,0,3.2-0.9,4.7-1.7c0,0,0,0,0,0c1.3-1.4,1.3-2.6-0.3-3.8c-3.1-2.6-6.1-5.3-9.2-7.9
			c-13.3-11.1-26.6-22.1-39.9-33.2c-1.6-1.3-2.7-3.2-5.2-3.5c0.3,1.9,0.7,3.6,1,5.3c0,0,0,0,0,0c1.1,3.5,1.9,7.1,3.9,10.3
			C168.4,163.2,166.6,161.8,167.7,159.8z"/>
		<path class="st14" d="M123.8,108.8c0.7,3.1-0.2,4.2-3.6,4c-5.5-0.4-11.1-0.2-16.7-0.1c-1.7,0-3-0.3-4.1-1.6c0,0,0,0,0,0
			c0,0,0,0,0,0c0,1.8,0.1,3.6,0.1,5.4c0,0,0,0,0,0c0.2,0.6,0.5,1.1,0.7,1.7h0c0,0,0,0,0,0c7.7,0,15.4,0,23.2,0c1.3,0,3,0.7,3.5-1.4
			c0,0,0,0,0,0C126,114.1,125.7,111.1,123.8,108.8z"/>
		<path class="st15" d="M154.4,220.3c1.5,0.2,1.3,0.7,0.5,1.7c-3.9,4.3-7.7,8.7-11.5,13.1c-2.6,3-5.2,6-7,9.7
			c4.6-1.8,7.9-5,10.9-8.9c3.7-4.8,8.2-8.9,11.6-14c1.6-2.3,0.1-2.3-1.5-2.4c0,0,0,0,0,0C156.4,219.5,155.3,219.4,154.4,220.3z"/>
		<path class="st16" d="M154.9,222c0.8-0.9,1-1.5-0.5-1.7c-4.3,0.4-8.5,1-12.6,2.3c0,0,0,0,0,0c0,0,0,0,0,0c1.1,0,2.2,0.1,3.2,0.1
			c0,0,0,0,0,0c0,0,0,0,0,0c0.5,0,1.1,0,1.6,0c1.2-1.3,2.6-0.8,4.9-0.5c-6.7,7.9-13.5,15.1-19,23.3c1.3-0.3,2.6-0.5,3.9-0.8
			c1.7-3.7,4.3-6.7,7-9.7C147.2,230.7,151,226.3,154.9,222z"/>
		<path class="st17" d="M146.6,222.7c-1.7,4.2-5.2,7-7.8,10.6c-3.1,4.1-7.5,7.2-9.5,12.2c1,0,2.1,0,3.1,0c5.5-8.2,12.3-15.3,19-23.3
			C149.2,222,147.8,221.5,146.6,222.7z"/>
		<path class="st18" d="M146.6,222.7c-0.5,0-1.1,0-1.6,0c0,0,0,0,0,0c-5.5,6.8-10.4,14-17.3,19.6c0,0,0,0,0,0
			c0.1,1.2-0.6,2.9,1.6,3.1c2-5,6.4-8.1,9.5-12.2C141.5,229.8,145,226.9,146.6,222.7z"/>
		<path class="st19" d="M139.5,223.6C139.5,223.6,139.5,223.6,139.5,223.6c-4.4,4.6-7.4,10.4-12.6,14.2c0.1,0.8,0.1,1.5,0.2,2.3
			c0,0,0,0,0,0c0.2,0.3,0.5,0.5,0.7,0.8c4.2-4.9,8.5-9.8,12.7-14.8C141.4,224.9,142.5,223.4,139.5,223.6z"/>
		<path class="st20" d="M145.1,222.7C145.1,222.7,145.1,222.7,145.1,222.7c-1.1,0-2.2-0.1-3.2-0.1c0,0,0,0,0,0
			c-1.4,0.1-2.8-0.1-4,0.8c0,0,0,0,0,0c0,0,0,0,0,0c0.6,0,1.1,0.1,1.7,0.1c0,0,0,0,0,0c0,0,0,0,0,0c3-0.2,1.9,1.4,0.9,2.5
			c-4.2,5-8.5,9.9-12.7,14.8c0,0.5,0,1,0,1.6c0,0,0,0,0,0C134.6,236.8,139.5,229.5,145.1,222.7z"/>
		<path class="st21" d="M101,70.3c0-0.8,0-1.6,0-2.4l0,0h0c0-0.7-0.2-1.2-0.8-1.6c0,0,0,0,0,0c0,0,0,0,0,0c-1,1.8-1.9,1.8-3.1,0
			c-1.7-2.5-3.8-4.5-6.2-6.4c-0.3,0.3-0.7,0.6-1,1c0,0,0,0,0,0c0,0,0,0,0,0c1.4,1.5,2.8,3.1,4.2,4.6c3.4,3.5,5.8,7.2,4.4,12.4
			c-0.8,2.9-1,5.9-0.7,8.9c0,0,0,0,0,0c1.4-5.2,1.8-10.4,1.8-15.8C99.8,69.4,100.4,70.1,101,70.3z"/>
		<path class="st22" d="M126.3,237.4C126.3,237.4,126.3,237.4,126.3,237.4c-0.1-1.5-0.1-3-0.2-4.5c0,0,0,0,0,0
			c-0.7-1.3-1.4-2.5-1.3-4c0,0,0,0,0,0c0,0,0,0,0,0c-0.4-1-0.7-2.1-1.1-3.1c0,0,0,0,0,0c-0.5,0-0.9,0-1.4,0c1.2,5.7,2.5,11.4,3,17.2
			c0.2,2.2,1,1.3,1.6,0.2C125.5,241.4,126.4,239.4,126.3,237.4z"/>
		<path class="st8" d="M91,59.9c-3.1-3-5.5-6.8-10-8c2.4,3.7,6,6,9,8.9c0,0,0,0,0,0C90.3,60.6,90.7,60.2,91,59.9z"/>
		<path class="st23" d="M99.5,121.3c-0.3,0-0.5,0-0.8,0c0,4.3,1,8.2,3.8,11.6c0.2-4.1-2.4-7.6-2.2-11.6c0,0,0,0,0,0c0,0,0,0,0,0
			C100,121.3,99.8,121.3,99.5,121.3z"/>
		<path class="st23" d="M104.9,189.6c-1,0.8-1.8,1.9-3.2,0.4c-1.2-1.2-2.6-2.1-4-3c-0.6-0.4-1.3-0.5-1.7,0.1
			c-0.4,0.7,0.1,1.3,0.7,1.6c2.2,1.2,3.6,3.4,6,4.2c0,0,0,0,0,0C103.4,191.8,105.3,191.5,104.9,189.6z"/>
		<path class="st24" d="M99.5,116.5C99.5,116.5,99.5,116.5,99.5,116.5C99.5,116.5,99.5,116.5,99.5,116.5c0-1.8-0.1-3.6-0.1-5.4
			c0,0,0,0,0,0c-1.2-1.6-0.4-3.5-0.7-5.3c0,0-0.1-0.1-0.1-0.1c-1.5,2-0.3,4.3-0.8,6.3c0,0,0,0,0,0c0,0,0,0,0,0
			c0.3,3.1-0.7,6.3,0.9,9.3c0,0,0,0,0,0c0.3,0,0.5,0,0.8,0C99.5,119.7,99.5,118.1,99.5,116.5z"/>
		<path class="st25" d="M98.6,105.7c0,0,0.1-0.1,0.1-0.1c0-2.9-0.1-5.8-0.1-8.7c0,0,0,0,0,0c-0.2,0-0.4,0-0.7,0c-0.3,0-0.5,0-0.8,0
			c0.1,5-0.8,10.1,0.7,15.1c0,0,0,0,0,0C98.3,110,97.1,107.7,98.6,105.7z"/>
		<path class="st26" d="M101.1,67.9c0,0.8,0,1.6,0,2.4c0.5,0.7,1.3,0.8,2.1,0.8c5.7-0.3,11.3,0.1,16.8,1.6c0,0,0,0,0,0
			c-0.9-1.1-2.2-1.3-3.5-1.6c-3.8-1.2-7.8-0.7-11.7-0.7c-1.8,0-3.2-0.1-3-2.4C101.5,67.9,101.3,67.9,101.1,67.9L101.1,67.9z"/>
		<path class="st27" d="M101.1,67.9L101.1,67.9c0.2,0,0.5,0,0.7,0c0.3-2.3,0.6-4.6,1-6.9c-0.2-0.9,0.1-1.9-0.8-2.5c0,0,0,0,0,0
			c-0.5,2.6-1.1,5.2-1.6,7.8c0,0,0,0,0,0C100.9,66.6,101,67.2,101.1,67.9z"/>
		<path class="st9" d="M102.7,61c1.5-1.6,0.1-4,1.5-5.6c-0.1-0.9,0.1-2-1-2.6c0,0,0,0,0,0c0,0,0,0,0,0c-0.9,1.8-1.3,3.7-1.4,5.6
			c0,0,0,0,0,0C102.8,59.1,102.6,60.1,102.7,61z"/>
		<path class="st28" d="M97.9,89.8C97.9,89.8,97.9,89.8,97.9,89.8c-1.4,2.3-0.5,4.8-0.7,7.1c0,0,0,0,0,0c0.3,0,0.5,0,0.8,0
			C97.9,94.6,97.9,92.2,97.9,89.8z"/>
		<path class="st29" d="M126.3,237.4c0.1,1.9-0.8,4,0.7,5.7c0-1,0.1-2.1,0.1-3.1c0,0,0,0,0,0c-0.1-0.8-0.1-1.5-0.2-2.3
			C126.7,237.7,126.5,237.6,126.3,237.4z"/>
		<path class="st30" d="M99.5,116.5C99.5,116.5,99.5,116.5,99.5,116.5c0,1.6,0,3.2,0,4.8c0.3,0,0.5,0,0.8,0c0,0,0,0,0,0
			c0-1,0-2.1,0-3.1h0C100,117.6,99.8,117.1,99.5,116.5z"/>
		<path class="st10" d="M104.2,55.4c0.8-0.8,1-1.9,0.4-2.8c-0.3-0.5-0.9-0.1-1.3,0.3c0,0,0,0,0,0C104.3,53.4,104.2,54.4,104.2,55.4z
			"/>
		<path class="st31" d="M137.9,135.8c-0.1,0.1-0.1,0.1-0.2,0.2c0,0,0,0,0,0C137.8,136,137.8,135.9,137.9,135.8z"/>
		<path class="st31" d="M177.4,211.1c3.2-0.9,3.6-1.9,2.4-5c-11.4-29.9-22.6-59.9-33.9-89.8c-4-10.6-8.3-21.2-15.1-30.5
			c-6.6-9.1-15.1-13.9-26.6-12.4c0.4,2.2,2.4,3.3,3.3,5.3c0,0,0,0,0,0c0.6,0.5,1.3,1,1.2,1.9c0,0,0,0,0,0c2.1,2.7,4.4,5.3,5.9,8.5
			c0,0,0,0,0,0c10.6,10.5,15,24.2,19.7,37.8c0,0,0,0,0,0c1.5,1.6,2.6,3.3,2.8,5.5c0,0,0,0,0,0c0,0,0,0,0,0c0.7,1.1,1.3,2.2,0.7,3.5
			c0,0,0,0,0,0c0.9-0.2,0.9,0.5,1,1.1c0,0,0,0,0,0c0.9,1.4,1.4,3,1.6,4.7c0,0,0,0,0,0c1.5,0.6,2,1.9,2.4,3.3c5.6,20,13.3,39.3,20,59
			C166.6,214.4,166.7,214.2,177.4,211.1z"/>
		<path class="st12" d="M139.7,145c-2.1,8.5-5.1,16.8-7.8,25.1c-0.4,1.4-1.4,2.1-2.3,3c0,0,0,0,0,0c2.4,0.8,1.4,2.4,0.9,3.8
			c-3.4,9.7-6.8,19.4-10.4,29c-1,2.8-1.8,5.4-0.7,8.2c0,0,0,0,0,0c1.4,1.6,2.8,3.3,2.9,5.6c0,0,0,0,0,0c0.4,2.3,1.9,2.5,3.8,2.2
			c3.2-0.5,6.4-1,9.6-1.5c4-1.7,8.3-2.2,12.6-2.3c0,0,0,0,0,0c0,0,0,0,0,0c3.9-0.8,7.9-1.7,11.8-2.4c2.8-0.5,3.2-1.7,2.3-4.3
			c-5.1-14.1-10.2-28.2-15-42.4c-2.7-7.9-6.1-15.5-7.1-23.9c0,0,0,0,0,0c0,0-0.3-0.1-0.3-0.1L139.7,145z"/>
		<path class="st32" d="M137.6,136.1C137.6,136.1,137.6,136.1,137.6,136.1C137.6,136.1,137.6,136.1,137.6,136.1
			C137.6,136.1,137.6,136.1,137.6,136.1z"/>
		<path class="st32" d="M131.9,170.1c2.7-8.3,5.8-16.5,7.8-25.1c-0.6-1.9-1.7-3.6-1.6-5.7c0,0,0,0,0,0c-0.5-1-1.3-2-0.5-3.3
			c-1.1-0.2-1.2-1-1.3-1.9c-1.3-2.3-2.4-4.7-3-7.4c-1.5,0-1.3,1.3-1.6,2.1c-2.1,5.3-4.1,10.7-6.2,16c-6.3,16-12.6,32-18.9,47.9
			c0,2.5,2.1,3.7,3.3,5.4c1.3,0.4,1.4,1.8,2.3,2.6v0c0,0,0,0,0,0c1.4,0.9,1.8,2.1,1.6,3.7c0.7-0.2,1.3,0,1.6,0.8
			c0.5,0.2,1,0.5,1.5,0.7c3.5-9.7,7-19.4,10.5-29.1c0.5-1.4,0.7-3.1,2.3-3.9c0,0,0,0,0,0C130.4,172.2,131.4,171.5,131.9,170.1z"/>
		<path class="st33" d="M114.3,207C114.3,207,114.3,207,114.3,207c-0.8-0.6-1-1.5-0.7-2.4c-1.4-0.1-2.1-1.1-2.6-2.2
			c-0.7-1.1-1.5-2.1-2.2-3.2c-3.2-3-3.2-3-5,1.2c-0.3,0.7-0.7,1.3-1.1,2c0,0,0,0,0,0c-2.2,6-4.4,12-6.8,17.9
			c-0.9,2.2-0.7,2.9,1.9,3.1c12,0.7,12,0.8,16.5-10.2C114.2,211.2,115.8,209.1,114.3,207z"/>
		<path class="st34" d="M208.6,193.3c-9.7-7.9-19.2-15.9-28.6-24.1c-3.9-3.3-8.1-6.3-12.2-9.5c-1.1,2,0.6,3.4,0,5
			c0,0.8,0.1,1.6,0.8,2.2c0.3,2.2,0.9,4.3,2.2,6.1c0,0.1,0.1,0.1,0.1,0.2c0,0,0,0,0,0c0,0,0,0,0,0c0-0.3,0.1-0.5,0.1-0.8
			c-0.1-2.1-0.9-4-2.4-5.5c0.4-2.1,1.4-1.4,2.3-0.5c11.3,10.6,23.8,19.7,35.3,29.9c1,0.9,1.1,2.4,3,2.8c-1.2,0.9-2,1.6-2.9,2.3
			c0,0,0,0,0,0c2.3-0.2,4.3-1.2,6.3-2.3c0,0,0,0,0,0C213.5,195.8,210.3,194.8,208.6,193.3z M168.6,166.9
			C168.6,166.9,168.6,166.9,168.6,166.9C168.6,166.9,168.6,166.9,168.6,166.9L168.6,166.9z"/>
		<path class="st35" d="M209.3,199.2c-1.8-0.4-2-2-3-2.8c-11.6-10.2-24.1-19.3-35.3-29.9c-1-0.9-2-1.7-2.3,0.5
			c1.5,1.5,2.3,3.3,2.4,5.5c3.5,0.9,5.2,4.1,7.8,6.2c8.6,6.7,16.8,13.9,25.1,20.9c0.7,0.6,1.1,1.4,1.7,2.1c0,0,0,0,0,0c0,0,0,0,0,0
			c0.3,0,0.5,0,0.7-0.1c0,0,0,0,0,0C207.2,200.8,208.1,200.2,209.3,199.2z"/>
		<polygon class="st35" points="168.6,166.9 168.6,166.9 168.6,166.9 		"/>
		<path class="st36" d="M117.4,104.1c-5.9-0.2-11.9-0.1-17.9-0.1c0,5.5,0,5.5,5.4,5.5c5.1,0,10.1,0,15.2,0c1.7,0,3.2-0.1,3-2.4
			c0,0,0,0,0,0c0,0,0,0,0,0c-0.7-2.3-1.6-4.3-3.2-6.1C120.5,103.2,120.1,104.2,117.4,104.1z"/>
		<path class="st37" d="M178.9,213.7c-3,1-6,1.8-9,2.6c-1,0.3-2.2,0.3-1.6,2.5c0.4,2,1.1,4.2,4.6,3.7c2-0.3,4.2,0,6.3-0.1
			c7.1-0.1,7.3,1.3,4.5-6.5C182.6,213.3,181.3,212.9,178.9,213.7z"/>
		<path class="st18" d="M170.8,173.1c0,0.1,0.1,0.1,0.1,0.2c0,0,0,0,0,0C170.9,173.2,170.9,173.1,170.8,173.1z"/>
		<path class="st18" d="M204,199.5c-8.3-7-16.5-14.2-25.1-20.9c-2.6-2-4.4-5.2-7.8-6.2c0,0.3-0.1,0.5-0.1,0.8
			c1.1,0.7,1.5,1.9,1.6,3.1c9.3,8.5,19.6,15.6,28.7,24.3c1,0.9,1.6,1.4,0.4,2.5c0,0,0,0,0,0c0,0,0,0,0,0c1.5-0.1,2.9-0.5,4-1.5
			c0,0,0,0,0,0C205.1,200.9,204.7,200.1,204,199.5z"/>
		<path class="st34" d="M98.7,105.8c0.3,1.7-0.5,3.6,0.7,5.3c0,0,0,0,0,0c1.1,1.3,2.4,1.6,4.1,1.6c5.6-0.1,11.1-0.3,16.7,0.1
			c3.4,0.2,4.3-0.9,3.6-4c0,0,0,0,0,0c-0.3-0.5-0.5-1.1-0.8-1.6c0,0,0,0,0,0c0.2,2.3-1.3,2.4-3,2.4c-5.1,0-10.1,0-15.2,0
			c-5.4,0-5.4,0-5.4-5.5c0-1,0-2.1,0-3.1c0,0,0,0,0,0c0-0.8,0-1.6,0-2.4c0,0,0,0,0,0c0,0,0,0,0,0c0-0.5,0-1,0-1.6c0,0,0,0,0,0
			c0,0,0,0,0,0c0,0,0,0,0,0c0,0,0,0,0,0c0,0,0,0,0,0c-0.2,0-0.4,0-0.6,0.1c0,0,0,0,0,0c0,0-0.1,0-0.1,0c-0.1,0-0.1-0.1-0.1-0.1
			c0,0,0,0,0,0c0,2.9,0.1,5.8,0.1,8.7C98.7,105.7,98.7,105.8,98.7,105.8z"/>
		<path class="st20" d="M201.3,200.7c-9.1-8.7-19.4-15.9-28.7-24.3c0,0.3-0.1,0.6-0.1,0.9c0,0,0,0,0,0c0,0,0,0,0,0
			c0.5,3.1,1.5,6,3.2,8.6c0,0,0,0,0,0c0,0,0,0,0,0c0-0.3,0.1-0.6,0.1-0.9c0,0,0,0,0,0c0.1-1.1-1.2-2.1-0.4-3.5
			c7.5,5,13.4,11.8,20.6,17c1.4,1,2.8,1.9,3.9,3.2c1.7,2.1-0.7,1-1.3,1.4c-0.5,0.5-1,1.1-1.6,1.6c0,0,0,0,0,0
			c1.7-0.1,3.3-0.6,4.7-1.5c0,0,0,0,0,0C203,202.1,202.3,201.6,201.3,200.7z"/>
		<path class="st38" d="M110.8,100.8c-3.8,0.2-7.5,0.1-11.3,0c0,1,0,2.1,0,3.1c6,0,11.9-0.2,17.9,0.1c2.7,0.1,3.1-0.9,2.5-3.1
			c0,0,0,0,0,0c-0.2-0.3-0.5-0.6-0.7-1C116.5,101.8,113.6,100.7,110.8,100.8z"/>
		<path class="st39" d="M126.1,233C126.1,233,126.1,233,126.1,233C126.1,233,126.1,233,126.1,233c0.1,1.5,0.1,3,0.2,4.5c0,0,0,0,0,0
			c0.2,0.1,0.4,0.2,0.6,0.3c5.3-3.8,8.3-9.6,12.6-14.2c0,0,0,0,0,0c-0.6,0-1.1-0.1-1.7-0.1c0,0,0,0,0,0c-1.6,0-3.3-0.2-4.7,0.8
			C132.1,228.1,129.1,230.6,126.1,233z"/>
		<path class="st40" d="M178.6,185.9c-0.8-0.9-1.8-1-2.8-0.9c0,0,0,0,0,0c0,0.3-0.1,0.6-0.1,0.9c0,0,0,0,0,0
			c0.3,1.4,0.6,2.8,1.6,3.9c1.3-1.6,2,0,2.7,0.6c4.7,3.9,9.3,8,14.4,11.4c1.3,0.9,2.2,1.9,1,3.5c0.6,0.1,1.2-0.1,1.6-0.7h0
			c0.5-0.5,1-1.1,1.6-1.6C191.9,197.3,184.4,192.6,178.6,185.9z"/>
		<path class="st41" d="M194.4,201.8c-5.1-3.4-9.6-7.5-14.4-11.4c-0.8-0.6-1.4-2.3-2.7-0.6c0,1.7,0.6,3.2,1.6,4.6
			c1.5-2.4,2.5,0.2,3.1,0.6c4.3,3.3,8.4,6.9,12.6,10.4c0,0,0,0,0,0c0.3,0,0.6,0,0.8,0c0,0,0,0,0,0
			C196.5,203.7,195.7,202.7,194.4,201.8z"/>
		<path class="st42" d="M110.6,86.5c0-0.1,0.1-0.1,0.1-0.2c-1.1-1.8-1.9-3-2.6-4.3v0c-0.8-0.6-1.4-1.3-1.7-2.3
			c-1.6-0.9-1.7-3.9-4.5-3.1c0,0,0,0,0,0c-0.3,2.7-0.5,5.5-0.8,8.2C104.1,85.1,107,85.4,110.6,86.5
			C110.5,86.6,110.6,86.6,110.6,86.5z"/>
		<path class="st43" d="M99.5,98.5C99.5,98.5,99.5,98.5,99.5,98.5c0,0.8,0,1.6,0,2.4c0,0,0,0,0,0c3.8,0,7.6,0.2,11.3,0
			c2.8-0.2,5.7,1,8.3-0.8c-0.4-0.8-0.5-1.9-1.6-2.2C111.6,99.3,105.5,98.1,99.5,98.5z"/>
		<path class="st44" d="M178.9,194.4c0.2,0.5,0.4,1.1,0.7,1.6c4.5,3.1,8.6,6.7,12.7,10.2c0,0,0,0,0,0c0,0,0,0,0,0c0,0,0,0,0,0
			c0,0,0,0,0,0c0,0,0,0,0,0c0,0,0,0,0,0c0,0,0,0,0,0c1,0.2,1.6-0.5,2.3-0.9c0,0,0,0,0,0c-4.2-3.5-8.3-7.1-12.6-10.4
			C181.4,194.6,180.4,192,178.9,194.4z"/>
		<path class="st45" d="M114.6,221.9c0.2,0.3,0.5,0.7,0.8,0.7c2.1-0.1,4.4,1,6-1.4c-1.5-2.2-2.4-4.6-3-7.2
			C116.6,215,113.9,220.5,114.6,221.9z"/>
		<polygon class="st45" points="118.4,214.1 118.4,214.1 118.4,214.1 		"/>
		<path class="st46" d="M124.9,229C124.9,229,124.9,229,124.9,229c-0.1,1.5,0.6,2.7,1.3,4c0,0,0,0,0,0c3-2.4,6-4.8,7-8.8
			c-1,0-2,0.1-3,0.1C128.3,225.8,125.9,226.6,124.9,229z"/>
		<path class="st11" d="M182,201.5C182,201.5,182,201.5,182,201.5C182,201.5,182,201.5,182,201.5c0.3,0.3,0.5,0.5,0.8,0.8
			c0,0,0,0,0,0c1,0,1.8,0.4,2.3,1.2c1.8,2.5,4.3,3.1,7.2,2.8c-4.1-3.6-8.2-7.2-12.7-10.2c0,0.9,0.2,1.7,0.8,2.3
			C181.9,198.9,182.1,200.1,182,201.5z"/>
		<ellipse transform="matrix(0.9122 -0.4097 0.4097 0.9122 -67.6187 96.8731)" class="st11" cx="192.3" cy="206.3" rx="0" ry="0"/>
		<path class="st47" d="M102.1,91.4c-1.7,0-2.8,0.4-2.6,2.4c5,0,9.9,0,14.9,0c0,0,0,0,0,0c-0.2-0.3-0.5-0.5-0.7-0.8c0,0,0,0,0,0
			c0,0,0,0,0,0C110,90.9,106,91.5,102.1,91.4z"/>
		<path class="st48" d="M109.1,96.9c-3.2,0.2-6.4,0.1-9.6,0.1c0,0,0,0,0,0c0,0.5,0,1,0,1.6c0,0,0,0,0,0c6-0.4,12.1,0.8,18-0.7
			c-0.5-0.6-0.9-1.2-1.4-1.9C114,97.8,111.4,96.8,109.1,96.9z"/>
		<path class="st49" d="M108.1,82.1C108.1,82.1,108.1,82.1,108.1,82.1L108.1,82.1c0.8,1.2,1.5,2.5,2.6,4.3c0.1,0.1,0.1,0.2,0.2,0.3
			c-0.1,0-0.2-0.1-0.3-0.1c-3.5-1.2-6.4-1.5-9.4-1.7c4.2,2.3,9.2,2,13.5,4.2c0,0,0,0,0,0c-1.4-3.2-3.7-5.8-5.9-8.5
			C108.5,81.1,108.3,81.6,108.1,82.1z"/>
		<path class="st50" d="M99.5,95.4C99.5,95.4,99.5,95.4,99.5,95.4c0,0.5,0,1,0,1.6c0,0,0,0,0,0c0,0,0,0,0,0c0,0,0,0,0,0
			c3.2,0,6.4,0.1,9.6-0.1c2.3-0.1,4.9,0.9,7-0.9c-0.2-0.2-0.5-0.5-0.7-0.7C110.1,95.3,104.8,95.4,99.5,95.4
			C99.5,95.4,99.5,95.4,99.5,95.4z"/>
		<path class="st51" d="M99.5,95.4C99.5,95.4,99.5,95.4,99.5,95.4c5.3,0,10.6-0.1,15.9-0.1c-0.1-0.6-0.3-1.2-1-1.5
			c-5,0-9.9,0-14.9,0C99.5,94.3,99.5,94.9,99.5,95.4z"/>
		<path class="st52" d="M98.9,97c0.2,0,0.4-0.1,0.6-0.1c0,0,0,0,0,0c0-0.5,0-1,0-1.6c0,0,0,0,0,0c0-0.5,0-1,0-1.6
			c-0.2-1.9,0.8-2.4,2.6-2.4c3.9,0.1,7.9-0.5,11.6,1.6c0,0,0,0,0,0c-0.7-1.2-1.6-2.1-3-2.4c-3.9-0.5-7.8-1.5-11.7,0.1c0,0,0,0,0,0
			c0,2.1,0,4.2,0,6.2C98.9,96.9,98.9,97,98.9,97C98.9,97,98.9,97,98.9,97z"/>
		<path class="st53" d="M192.3,206.3C192.3,206.3,192.3,206.3,192.3,206.3C192.3,206.3,192.3,206.3,192.3,206.3
			c-2.9,0.3-5.4-0.3-7.2-2.8c-0.5-0.8-1.4-1.2-2.3-1.2c0,0.8,0,1.6,0,2.4c0,0,0,0,0,0c0,0,0,0,0,0l0,0c0,0,0,0,0,0
			c1.4,3.7,4.6,2.4,7.2,2.4c-0.1,0-0.2,0.1-0.2,0.1c0.1,0,0.2-0.1,0.2-0.1C190.8,207,191.7,207,192.3,206.3
			C192.3,206.3,192.3,206.3,192.3,206.3C192.3,206.3,192.3,206.3,192.3,206.3z"/>
		<path class="st54" d="M110.7,90.6c-2.9-2.5-6.3-2.5-9.8-2.4c-1.7,0.1-2.4,0.8-1.9,2.4c0,0,0,0,0,0
			C102.8,89.1,106.7,90.1,110.7,90.6z"/>
		<path class="st55" d="M108.8,199.2c0.3-0.3,0.7-0.6,1-1c-1.2-1.7-3.3-2.9-3.3-5.4v0c-1.7,3-3.9,5.8-3.8,9.6c0,0,0,0,0,0
			c0.4-0.7,0.8-1.3,1.1-2C105.6,196.2,105.6,196.2,108.8,199.2z"/>
		<path class="st56" d="M106.4,79.8c0.4-0.4,0.8-0.7,1.1-1.1c0,0,0,0,0,0c0,0,0,0,0,0c-0.8-1.9-2.9-3.1-3.3-5.3c0,0,0,0,0,0
			c-0.9,1-3.1,1.1-2.3,3.3c0,0,0,0,0,0C104.7,75.8,104.8,78.8,106.4,79.8z"/>
		<path class="st57" d="M137.1,132.3C137.1,132.3,137.1,132.3,137.1,132.3c-0.2-2.2-1.3-4-2.8-5.5c0,0,0,0,0,0c-0.4,0-0.7,0-1.1,0v0
			c0.5,2.6,1.7,5,3,7.4C136.6,133.6,136.9,133,137.1,132.3z"/>
		<path class="st9" d="M119.3,214.1C119.3,214.1,119.3,214.1,119.3,214.1c-0.3,0-0.6,0-0.9,0c0,0,0,0,0,0c0.7,2.5,1.5,5,3,7.2
			c0.3-0.5,0.5-1.1,0.8-1.6c0,0,0,0,0,0C122,217.4,120.6,215.7,119.3,214.1z"/>
		<path class="st58" d="M124.9,229c1-2.4,3.5-3.1,5.3-4.6c-2.2,0-4.5,0.2-6.4,1.5c0,0,0,0,0,0C124.1,226.9,124.5,227.9,124.9,229
			C124.9,229,124.9,229,124.9,229z"/>
		<path class="st59" d="M135.6,220.3c4.3-0.2,8.5-0.8,12.6-2.3c0,0,0,0,0,0C143.9,218.1,139.7,218.6,135.6,220.3z"/>
		<path class="st60" d="M138.9,136.9C138.9,136.9,138.9,136.9,138.9,136.9c-0.2,0.9,0.1,1.9-0.8,2.5c-0.1,2.1,1,3.8,1.6,5.7l0.3,0
			c0,0,0.3,0.1,0.3,0.1c0,0,0,0,0,0c0.5-1.1-1.3-2.4,0.2-3.4c0,0,0,0,0,0C140.3,139.9,139.8,138.3,138.9,136.9
			C138.9,136.9,138.9,136.9,138.9,136.9z"/>
		<path class="st61" d="M182.7,204.7C182.7,204.7,182.8,204.7,182.7,204.7C182.8,204.7,182.8,204.7,182.7,204.7
			C182.8,204.7,182.8,204.7,182.7,204.7c0-0.8,0-1.6,0-2.4c0,0,0,0,0,0c-0.3-0.3-0.5-0.5-0.8-0.8c0,0,0,0,0,0c-0.2,0-0.4,0-0.7,0h0
			C181.4,202.7,181.8,203.8,182.7,204.7c1,4.6,1.7,4.9,7,2.5c0.1,0,0.2-0.1,0.2-0.1C187.3,207.1,184.2,208.4,182.7,204.7z"/>
		<path class="st62" d="M114.3,207C114.3,207,114.3,207,114.3,207C114.3,207,114.3,207,114.3,207c1.5,2.1-0.1,4.1,0,6.2
			c2.2-1.9,1.3-4.9,2.4-7.1l0,0c-0.5-0.2-1-0.5-1.5-0.7C115.2,206.1,115.1,206.7,114.3,207z"/>
		<path class="st35" d="M172.6,176.3c-0.2-1.2-0.5-2.4-1.6-3.1c0,0,0,0,0,0c0,0,0,0,0,0c0,0,0,0,0,0c0.1,1.5,0.5,2.9,1.6,4
			c0,0,0,0,0,0C172.6,177,172.6,176.7,172.6,176.3z"/>
		<path class="st53" d="M182,201.5c0.1-1.4-0.1-2.6-1.6-3.1c0.3,1,0.7,2.1,1,3.1C181.6,201.5,181.8,201.5,182,201.5
			C182,201.5,182,201.5,182,201.5z"/>
		<path class="st63" d="M137.6,136.1C137.6,136.1,137.6,136.1,137.6,136.1c0.1-0.1,0.1-0.1,0.1-0.1c0.1-0.1,0.1-0.1,0.2-0.2
			c0,0,0,0,0,0c0.6-1.3,0-2.4-0.7-3.5c0,0,0,0,0,0c-0.3,0.6-0.6,1.2-0.9,1.9C136.3,135.1,136.4,135.9,137.6,136.1z"/>
		<path class="st64" d="M137.7,136C137.7,136.1,137.7,136.1,137.7,136c-0.1,0-0.1,0.1-0.1,0.1c-0.8,1.2,0,2.2,0.5,3.3c0,0,0,0,0,0
			c0.9-0.6,0.6-1.6,0.8-2.5c0,0,0,0,0,0c-0.1-0.6-0.1-1.3-1-1.1c0,0,0,0,0,0c0,0,0,0,0,0C137.8,135.9,137.8,136,137.7,136z"/>
		<path class="st65" d="M106.4,79.8c0.3,1,0.9,1.7,1.7,2.3c0,0,0,0,0,0c0.2-0.5,0.5-1,0.7-1.5c0,0,0,0,0,0c0-0.9-0.6-1.4-1.2-1.9
			c0,0,0,0,0,0C107.1,79,106.8,79.4,106.4,79.8z"/>
		<path class="st66" d="M111,202.5c0.7-0.3,1-0.8,1-1.5v0c-0.8-0.8-1-2.2-2.3-2.6c-0.3,0.3-0.7,0.6-1,1
			C109.5,200.3,110.3,201.4,111,202.5z"/>
		<path class="st67" d="M111,202.5c0.5,1.1,1.2,2.1,2.6,2.2c0,0,0,0,0,0c0,0,0,0,0,0c0.2-1.6-0.3-2.8-1.6-3.7c0,0,0,0,0,0
			C112,201.6,111.7,202.2,111,202.5z"/>
		<path class="st68" d="M113.6,204.7c-0.2,0.9-0.1,1.8,0.7,2.4c0,0,0,0,0,0c0.7-0.3,0.9-1,0.9-1.7
			C115,204.6,114.4,204.4,113.6,204.7C113.7,204.6,113.6,204.6,113.6,204.7C113.6,204.6,113.6,204.6,113.6,204.7z"/>
		<path class="st69" d="M178.6,185.9c5.8,6.7,13.3,11.4,19.9,17.1c0.5-0.4,3,0.7,1.3-1.4c-1-1.3-2.5-2.2-3.9-3.2
			c-7.2-5.2-13.1-12-20.6-17c-0.8,1.4,0.5,2.3,0.4,3.5c0,0,0,0,0,0c0,0,0,0,0,0C176.9,184.9,177.9,185.1,178.6,185.9z"/>
	</g>
</g>
<g>
	<path d="M36.3,308.9c1.8,0,3.5,0.3,4.9,1c1.4,0.7,2.7,1.6,3.7,2.8s1.8,2.5,2.3,4.1c0.5,1.5,0.8,3.2,0.8,4.9c0,1.8-0.3,3.4-0.8,4.9
		c-0.5,1.5-1.3,2.9-2.3,4.1c-1,1.2-2.2,2.1-3.7,2.7c-1.4,0.7-3.1,1-4.9,1c-1.8,0-3.5-0.3-4.9-1c-1.4-0.7-2.7-1.6-3.7-2.7
		c-1-1.2-1.8-2.5-2.3-4.1c-0.5-1.5-0.8-3.2-0.8-4.9c0-1.7,0.3-3.4,0.8-4.9c0.5-1.5,1.3-2.9,2.3-4.1c1-1.2,2.2-2.1,3.7-2.8
		C32.9,309.2,34.5,308.9,36.3,308.9z M36.3,312.4c-1.3,0-2.4,0.3-3.4,0.8c-0.9,0.5-1.7,1.2-2.3,2.1c-0.6,0.9-1,1.9-1.3,3
		c-0.3,1.1-0.4,2.3-0.4,3.4c0,1.2,0.1,2.3,0.4,3.4c0.3,1.1,0.7,2.1,1.3,3c0.6,0.9,1.4,1.6,2.3,2.1c0.9,0.5,2.1,0.8,3.4,0.8
		s2.4-0.3,3.4-0.8c0.9-0.5,1.7-1.2,2.3-2.1c0.6-0.9,1-1.9,1.3-3c0.3-1.1,0.4-2.3,0.4-3.4c0-1.2-0.1-2.3-0.4-3.4
		c-0.3-1.1-0.7-2.1-1.3-3c-0.6-0.9-1.4-1.6-2.3-2.1C38.7,312.6,37.6,312.4,36.3,312.4z"/>
	<path d="M52.3,316.2H56v2.4H56c0.5-1,1.3-1.8,2.3-2.2c1-0.4,2-0.7,3.2-0.7c1.4,0,2.6,0.2,3.6,0.7c1,0.5,1.9,1.2,2.6,2
		c0.7,0.9,1.2,1.8,1.5,3c0.3,1.1,0.5,2.4,0.5,3.6c0,1.2-0.2,2.3-0.5,3.4c-0.3,1.1-0.8,2.1-1.4,3c-0.6,0.9-1.4,1.5-2.4,2
		s-2.1,0.8-3.4,0.8c-0.6,0-1.1-0.1-1.7-0.2c-0.6-0.1-1.1-0.3-1.6-0.5c-0.5-0.2-1-0.5-1.4-0.9s-0.8-0.8-1.1-1.2h-0.1v8.8h-3.9V316.2z
		 M65.9,325c0-0.8-0.1-1.6-0.3-2.3c-0.2-0.8-0.5-1.4-0.9-2c-0.4-0.6-0.9-1-1.5-1.4c-0.6-0.4-1.3-0.5-2.1-0.5c-1.6,0-2.9,0.6-3.7,1.7
		S56,323.1,56,325c0,0.9,0.1,1.7,0.3,2.5c0.2,0.8,0.5,1.4,1,2c0.4,0.5,0.9,1,1.6,1.3c0.6,0.3,1.3,0.5,2.1,0.5c0.9,0,1.6-0.2,2.3-0.5
		c0.6-0.4,1.1-0.8,1.5-1.4c0.4-0.6,0.7-1.2,0.9-2C65.8,326.5,65.9,325.8,65.9,325z"/>
	<path d="M76.9,326c0,0.7,0.1,1.3,0.3,2c0.2,0.6,0.5,1.2,0.9,1.7c0.4,0.5,0.9,0.9,1.5,1.1c0.6,0.3,1.3,0.4,2.1,0.4
		c1.1,0,2.1-0.2,2.7-0.7c0.7-0.5,1.2-1.2,1.6-2.2h3.7c-0.2,1-0.6,1.8-1.1,2.6c-0.5,0.8-1.1,1.4-1.8,1.9c-0.7,0.5-1.5,0.9-2.4,1.2
		c-0.9,0.3-1.8,0.4-2.7,0.4c-1.4,0-2.6-0.2-3.7-0.7c-1.1-0.5-2-1.1-2.7-1.9c-0.7-0.8-1.3-1.8-1.7-2.9c-0.4-1.1-0.6-2.4-0.6-3.8
		c0-1.2,0.2-2.4,0.6-3.6c0.4-1.1,1-2.1,1.7-3c0.7-0.9,1.6-1.5,2.7-2c1-0.5,2.2-0.8,3.5-0.8c1.4,0,2.6,0.3,3.7,0.9
		c1.1,0.6,2,1.3,2.7,2.3c0.7,1,1.3,2.1,1.6,3.3c0.3,1.2,0.4,2.5,0.3,3.8H76.9z M86,323.4c0-0.6-0.2-1.2-0.4-1.8
		c-0.2-0.6-0.5-1.1-0.9-1.5c-0.4-0.4-0.8-0.8-1.4-1c-0.5-0.3-1.1-0.4-1.8-0.4c-0.7,0-1.3,0.1-1.9,0.4c-0.6,0.2-1,0.6-1.4,1
		s-0.7,0.9-1,1.5c-0.2,0.6-0.4,1.2-0.4,1.8H86z"/>
	<path d="M93.7,316.2h3.7v2.6l0.1,0.1c0.6-1,1.4-1.7,2.3-2.3c1-0.6,2-0.8,3.2-0.8c1.9,0,3.5,0.5,4.6,1.5c1.1,1,1.7,2.5,1.7,4.5v12.1
		h-3.9v-11.1c0-1.4-0.3-2.4-0.9-3c-0.5-0.6-1.4-0.9-2.6-0.9c-0.7,0-1.3,0.1-1.8,0.4c-0.5,0.2-1,0.6-1.3,1s-0.6,0.9-0.9,1.5
		c-0.2,0.6-0.3,1.2-0.3,1.8v10.4h-3.9V316.2z"/>
	<path d="M114.7,309.5h4.3v20.7h12.4v3.7h-16.6V309.5z"/>
	<path d="M149.3,329.9c0,0.5,0.1,0.8,0.2,1s0.4,0.3,0.7,0.3c0.1,0,0.2,0,0.4,0s0.3,0,0.5-0.1v2.7c-0.1,0-0.3,0.1-0.5,0.2
		c-0.2,0.1-0.4,0.1-0.7,0.2c-0.2,0-0.5,0.1-0.7,0.1s-0.4,0-0.6,0c-0.8,0-1.5-0.2-2-0.5s-0.9-0.9-1-1.7c-0.8,0.8-1.7,1.3-2.8,1.6
		s-2.2,0.5-3.3,0.5c-0.8,0-1.6-0.1-2.3-0.3c-0.7-0.2-1.4-0.5-1.9-1c-0.6-0.4-1-1-1.3-1.6c-0.3-0.6-0.5-1.4-0.5-2.3
		c0-1.1,0.2-2,0.6-2.7c0.4-0.7,0.9-1.2,1.6-1.6c0.6-0.4,1.4-0.7,2.2-0.8c0.8-0.2,1.6-0.3,2.4-0.4c0.7-0.1,1.4-0.2,2-0.3
		c0.6-0.1,1.2-0.2,1.7-0.3c0.5-0.1,0.9-0.3,1.2-0.6c0.3-0.3,0.4-0.7,0.4-1.3c0-0.5-0.1-0.9-0.4-1.2c-0.2-0.3-0.5-0.6-0.9-0.7
		c-0.4-0.2-0.7-0.3-1.2-0.3c-0.4-0.1-0.8-0.1-1.2-0.1c-1.1,0-2,0.2-2.7,0.7c-0.7,0.5-1.1,1.2-1.2,2.1h-3.9c0.1-1.1,0.3-2.1,0.8-2.8
		c0.5-0.8,1.1-1.4,1.8-1.8c0.7-0.5,1.6-0.8,2.5-1c0.9-0.2,1.9-0.3,2.9-0.3c0.9,0,1.7,0.1,2.6,0.3c0.8,0.2,1.6,0.5,2.3,0.9
		s1.2,0.9,1.6,1.6c0.4,0.6,0.6,1.4,0.6,2.4V329.9z M145.4,325c-0.6,0.4-1.3,0.6-2.2,0.7c-0.9,0.1-1.7,0.2-2.6,0.4
		c-0.4,0.1-0.8,0.2-1.2,0.3c-0.4,0.1-0.7,0.3-1,0.5c-0.3,0.2-0.5,0.5-0.7,0.9c-0.2,0.4-0.3,0.8-0.3,1.3c0,0.4,0.1,0.8,0.4,1.1
		c0.2,0.3,0.6,0.5,0.9,0.7c0.4,0.2,0.7,0.3,1.2,0.4c0.4,0.1,0.8,0.1,1.1,0.1c0.4,0,0.9-0.1,1.4-0.2s1-0.3,1.4-0.6s0.8-0.6,1.1-1
		c0.3-0.4,0.4-0.9,0.4-1.6V325z"/>
	<path d="M154.4,316.2h3.7v2.5h0.1c0.3-0.4,0.6-0.8,1-1.2c0.3-0.4,0.7-0.7,1.1-0.9s0.9-0.4,1.4-0.6c0.5-0.1,1.2-0.2,1.9-0.2
		c1.1,0,2.1,0.2,3,0.7s1.6,1.2,2,2.2c0.7-0.9,1.4-1.6,2.3-2.1c0.9-0.5,1.9-0.8,3.2-0.8c1.9,0,3.3,0.5,4.3,1.4s1.6,2.4,1.6,4.6v12.2
		h-3.9v-10.3c0-0.7,0-1.3-0.1-1.9c0-0.6-0.2-1.1-0.4-1.5c-0.2-0.4-0.5-0.7-1-1c-0.4-0.2-1-0.3-1.8-0.3c-1.3,0-2.3,0.4-2.9,1.2
		c-0.6,0.8-0.9,2-0.9,3.5v10.3h-3.9v-11.3c0-1.2-0.2-2.2-0.7-2.8c-0.4-0.6-1.3-0.9-2.4-0.9c-0.5,0-1,0.1-1.5,0.3
		c-0.5,0.2-0.9,0.5-1.2,0.9c-0.4,0.4-0.6,0.9-0.9,1.4c-0.2,0.6-0.3,1.2-0.3,1.9v10.5h-3.9V316.2z"/>
	<path d="M185,309.5h3.9v9h0.1c0.3-0.4,0.6-0.8,1-1.2c0.4-0.3,0.8-0.6,1.3-0.9c0.5-0.2,1-0.4,1.5-0.5s1-0.2,1.5-0.2
		c1.4,0,2.6,0.2,3.6,0.7s1.9,1.2,2.6,2c0.7,0.9,1.2,1.8,1.5,3c0.3,1.1,0.5,2.4,0.5,3.6c0,1.2-0.2,2.3-0.5,3.4
		c-0.3,1.1-0.8,2.1-1.4,3c-0.6,0.9-1.4,1.5-2.4,2s-2.1,0.8-3.4,0.8c-0.6,0-1.2,0-1.8-0.1c-0.6-0.1-1.2-0.2-1.7-0.5
		c-0.5-0.2-1-0.5-1.5-0.9c-0.4-0.4-0.8-0.8-1.1-1.4h-0.1v2.4H185V309.5z M198.6,325c0-0.8-0.1-1.6-0.3-2.3c-0.2-0.8-0.5-1.4-0.9-2
		s-0.9-1-1.5-1.4s-1.3-0.5-2.1-0.5c-1.6,0-2.9,0.6-3.7,1.7c-0.8,1.1-1.2,2.6-1.2,4.5c0,0.9,0.1,1.7,0.3,2.5c0.2,0.8,0.5,1.4,1,2
		c0.4,0.5,0.9,1,1.6,1.3c0.6,0.3,1.3,0.5,2.1,0.5c0.9,0,1.6-0.2,2.3-0.5c0.6-0.4,1.1-0.8,1.5-1.4c0.4-0.6,0.7-1.2,0.9-2
		C198.5,326.5,198.6,325.8,198.6,325z"/>
	<path d="M223.2,333.8h-3.7v-2.4h-0.1c-0.5,1-1.3,1.8-2.3,2.2c-1,0.4-2.1,0.7-3.2,0.7c-1.4,0-2.6-0.2-3.6-0.7c-1-0.5-1.9-1.2-2.6-2
		c-0.7-0.8-1.2-1.8-1.5-3c-0.3-1.1-0.5-2.4-0.5-3.7c0-1.6,0.2-3,0.6-4.1c0.4-1.2,1-2.1,1.7-2.9c0.7-0.8,1.5-1.3,2.5-1.7
		s1.9-0.5,2.8-0.5c0.5,0,1.1,0.1,1.7,0.2s1.1,0.3,1.6,0.5c0.5,0.2,1,0.5,1.4,0.9s0.8,0.8,1.1,1.2h0.1v-9h3.9V333.8z M209.6,325.2
		c0,0.8,0.1,1.5,0.3,2.2c0.2,0.7,0.5,1.4,0.9,1.9c0.4,0.6,0.9,1,1.5,1.4c0.6,0.3,1.3,0.5,2.2,0.5c0.9,0,1.6-0.2,2.2-0.5
		c0.6-0.4,1.1-0.8,1.5-1.4c0.4-0.6,0.7-1.3,0.9-2c0.2-0.7,0.3-1.5,0.3-2.3c0-2-0.4-3.5-1.3-4.6s-2.1-1.6-3.6-1.6
		c-0.9,0-1.7,0.2-2.3,0.6c-0.6,0.4-1.1,0.9-1.5,1.5c-0.4,0.6-0.7,1.3-0.9,2C209.7,323.6,209.6,324.4,209.6,325.2z"/>
	<path d="M243.1,329.9c0,0.5,0.1,0.8,0.2,1s0.4,0.3,0.7,0.3c0.1,0,0.2,0,0.4,0s0.3,0,0.5-0.1v2.7c-0.1,0-0.3,0.1-0.5,0.2
		c-0.2,0.1-0.4,0.1-0.7,0.2c-0.2,0-0.5,0.1-0.7,0.1s-0.4,0-0.6,0c-0.8,0-1.5-0.2-2-0.5s-0.9-0.9-1-1.7c-0.8,0.8-1.7,1.3-2.8,1.6
		s-2.2,0.5-3.3,0.5c-0.8,0-1.6-0.1-2.3-0.3c-0.7-0.2-1.4-0.5-1.9-1c-0.6-0.4-1-1-1.3-1.6c-0.3-0.6-0.5-1.4-0.5-2.3
		c0-1.1,0.2-2,0.6-2.7c0.4-0.7,0.9-1.2,1.6-1.6c0.6-0.4,1.4-0.7,2.2-0.8c0.8-0.2,1.6-0.3,2.4-0.4c0.7-0.1,1.4-0.2,2-0.3
		c0.6-0.1,1.2-0.2,1.7-0.3c0.5-0.1,0.9-0.3,1.2-0.6c0.3-0.3,0.4-0.7,0.4-1.3c0-0.5-0.1-0.9-0.4-1.2c-0.2-0.3-0.5-0.6-0.9-0.7
		c-0.4-0.2-0.7-0.3-1.2-0.3c-0.4-0.1-0.8-0.1-1.2-0.1c-1.1,0-2,0.2-2.7,0.7c-0.7,0.5-1.1,1.2-1.2,2.1H228c0.1-1.1,0.3-2.1,0.8-2.8
		c0.5-0.8,1.1-1.4,1.8-1.8c0.7-0.5,1.6-0.8,2.5-1c0.9-0.2,1.9-0.3,2.9-0.3c0.9,0,1.7,0.1,2.6,0.3c0.8,0.2,1.6,0.5,2.3,0.9
		s1.2,0.9,1.6,1.6c0.4,0.6,0.6,1.4,0.6,2.4V329.9z M239.2,325c-0.6,0.4-1.3,0.6-2.2,0.7c-0.9,0.1-1.7,0.2-2.6,0.4
		c-0.4,0.1-0.8,0.2-1.2,0.3c-0.4,0.1-0.7,0.3-1,0.5c-0.3,0.2-0.5,0.5-0.7,0.9c-0.2,0.4-0.3,0.8-0.3,1.3c0,0.4,0.1,0.8,0.4,1.1
		c0.2,0.3,0.6,0.5,0.9,0.7c0.4,0.2,0.7,0.3,1.2,0.4c0.4,0.1,0.8,0.1,1.1,0.1c0.4,0,0.9-0.1,1.4-0.2s1-0.3,1.4-0.6s0.8-0.6,1.1-1
		c0.3-0.4,0.4-0.9,0.4-1.6V325z"/>
</g>
</svg>
