<?xml version="1.0" encoding="utf-8"?>
<!-- Generator: Adobe Illustrator 19.1.0, SVG Export Plug-In . SVG Version: 6.00 Build 0)  -->
<svg version="1.1" id="Layer_1" xmlns="http://www.w3.org/2000/svg" xmlns:xlink="http://www.w3.org/1999/xlink" x="0px" y="0px"
	 viewBox="0 0 1137.5 357.1" style="enable-background:new 0 0 1137.5 357.1;" xml:space="preserve">
<style type="text/css">
	.st0{fill:#30302F;}
	.st1{fill:#FFFFFF;}
	.st2{fill:#EC1E24;}
	.st3{fill:#171A26;}
</style>
<g>
	<g>
		<g>
			
				<rect x="50" y="50" transform="matrix(0.8941 -0.4479 0.4479 0.8941 -61.0628 98.8923)" class="st0" width="257.1" height="257.1"/>
			<path class="st1" d="M119.2,357.1L0,119.2L237.9,0l119.2,237.9L119.2,357.1z M12.1,123.2L123.2,345L345,233.9L233.9,12.1
				L12.1,123.2z"/>
		</g>
		<g>
			<rect x="49.3" y="50.1" width="257.1" height="257.1"/>
			<path class="st1" d="M310.8,311.7H44.8V45.6h266.1V311.7z M53.8,302.7h248.1V54.6H53.8V302.7z"/>
		</g>
		<polygon class="st2" points="53.3,302.7 212.8,54.7 301.8,54.7 301.8,178.2 		"/>
		<g>
			<circle class="st3" cx="251.7" cy="79.3" r="9.2"/>
			<path class="st3" d="M251.7,92.5c-7.3,0-13.2-5.9-13.2-13.2c0-7.3,5.9-13.2,13.2-13.2c7.3,0,13.2,5.9,13.2,13.2
				C264.9,86.5,259,92.5,251.7,92.5z M251.7,74c-2.9,0-5.2,2.3-5.2,5.2c0,2.9,2.3,5.2,5.2,5.2c2.9,0,5.2-2.3,5.2-5.2
				C256.9,76.4,254.6,74,251.7,74z"/>
		</g>
	</g>
	<g>
		<path class="st2" d="M386,245.3v-120h102.9c9.6,0,16.5,1.8,20.8,5.5c4.3,3.7,6.4,9.6,6.4,17.8v28.1c0,8.1-2.1,14-6.4,17.7
			c-4.3,3.7-11.2,5.6-20.8,5.6h-15.7l55.5,45.3h-40.2l-48.5-45.3h-26.5v45.3H386z M476.5,146.1h-62.9v33.4h62.9
			c4.9,0,8.2-0.7,10-2.1c1.8-1.4,2.7-3.9,2.7-7.4v-14.4c0-3.5-0.9-5.9-2.7-7.3C484.7,146.8,481.4,146.1,476.5,146.1z"/>
		<path class="st2" d="M556.4,153.7c0-10.9,2-18.3,6.1-22.4c4.1-4,12-6,23.7-6h88.6c11.7,0,19.6,2,23.7,6c4.1,4,6.1,11.5,6.1,22.4
			V217c0,11-2,18.4-6.1,22.4c-4.1,4-12,6-23.7,6h-88.6c-11.7,0-19.6-2-23.7-6c-4.1-4-6.1-11.4-6.1-22.4V153.7z M584.5,222.8h92.3
			v-75.9h-92.3V222.8z"/>
		<path class="st2" d="M749.6,245.3v-120h103.1c9.5,0,16.4,1.9,20.6,5.6c4.2,3.7,6.4,9.6,6.4,17.7v14.6c0,5.8-1.8,10.3-5.3,13.8
			c-3.6,3.4-8.7,5.6-15.4,6.4c6.9,0.9,12.2,3.4,16,7.4c3.8,4,5.6,9.2,5.6,15.7v15.3c0,7.9-2.9,13.8-8.8,17.7
			c-5.8,3.9-14.7,5.8-26.6,5.8H749.6z M841,144.9h-63.9v28.6H841c4.9,0,8.2-0.6,10.1-1.9c1.9-1.3,2.8-3.5,2.8-6.7v-11.3
			c0-3.1-0.9-5.3-2.8-6.6C849.2,145.6,845.9,144.9,841,144.9z M841,193.2h-63.9v30.5H841c5.3,0,8.9-0.8,10.8-2.4
			c1.9-1.6,2.8-4.4,2.8-8.4v-9.1c0-4-0.9-6.8-2.8-8.3C849.9,194,846.3,193.2,841,193.2z"/>
		<path class="st2" d="M920.7,245.3v-120h28v120H920.7z"/>
		<path class="st2" d="M996,245.3v-120h19.1l84.7,70.7c2.9,2.3,5.4,4.6,7.6,6.6c2.2,2.1,4.2,4.2,6,6.4c-0.5-6.7-0.8-11.5-0.9-14.3
			c-0.2-2.8-0.2-5-0.2-6.5v-63h25.2v120h-19.1l-88.3-74.1c-2.1-1.9-4-3.6-5.6-5.1c-1.6-1.5-3.1-3.1-4.4-4.7
			c0.4,3.7,0.7,7.2,0.9,10.5c0.2,3.3,0.3,6.1,0.3,8.6v64.8H996z"/>
	</g>
</g>
</svg>
