<svg id="fcb00640-9492-4364-8f93-cd0dab68b285" data-name="Layer 1" xmlns="http://www.w3.org/2000/svg" viewBox="0 0 200 100"><defs><style>.\32 65f6c83-3048-4164-9a7b-9ef702fe8331{fill:#fff;}.\38 1d2ee50-eda7-43b3-89fe-bfd5863c9def{fill:#010101;}.\34 1de8d8d-33d1-45a1-b820-f6e5021bddd6{fill:#ee2c28;}</style></defs><title>Rundeck logo 2</title><rect class="265f6c83-3048-4164-9a7b-9ef702fe8331" width="200" height="100"/><path class="81d2ee50-eda7-43b3-89fe-bfd5863c9def" d="M50.55,37.71H55a8.25,8.25,0,0,1,5.43,1.73,5.49,5.49,0,0,1,2.1,4.43,5.84,5.84,0,0,1-1.36,3.81A7.48,7.48,0,0,1,57,50l6,9.2H59.72L54,50.37h-.63v8.85H50.55Zm2.82,2.6v7.5q6.23.14,6.23-3.76a3.36,3.36,0,0,0-.73-2.24,3.64,3.64,0,0,0-1.94-1.18A15.27,15.27,0,0,0,53.37,40.31Z"/><path class="81d2ee50-eda7-43b3-89fe-bfd5863c9def" d="M66.59,37.74h2.82V51a6.85,6.85,0,0,0,1.35,4.54,4.73,4.73,0,0,0,3.83,1.6,5,5,0,0,0,3.83-1.48,5.9,5.9,0,0,0,1.37-4.16V37.74H82.6V51.26a9,9,0,0,1-2.16,6.31,7.42,7.42,0,0,1-5.75,2.36,7.62,7.62,0,0,1-5.88-2.4q-2.21-2.4-2.21-7.07Z"/><path class="81d2ee50-eda7-43b3-89fe-bfd5863c9def" d="M86.54,36.85l15.24,16.35V37.71h2.82v22.5L89.36,43.94V59.21H86.54Z"/><path class="81d2ee50-eda7-43b3-89fe-bfd5863c9def" d="M108.84,37.71h5q5.94,0,8.84,3.27a11,11,0,0,1,2.9,7.48,10.75,10.75,0,0,1-3,7.5q-3,3.26-8.71,3.26h-5Zm2.82,2.87V56.31h.16a27.87,27.87,0,0,0,4.73-.3,7.65,7.65,0,0,0,3-1.29,7.1,7.1,0,0,0,2.27-2.64,8.19,8.19,0,0,0-.5-8.11,6.7,6.7,0,0,0-3.21-2.7,14.84,14.84,0,0,0-5-.69Z"/><path class="81d2ee50-eda7-43b3-89fe-bfd5863c9def" d="M128.6,37.71H140v2.94h-8.64V46H140v2.9h-8.64v7.39H140v2.9H128.6Z"/><path class="81d2ee50-eda7-43b3-89fe-bfd5863c9def" d="M160,38.45v3.33a13.62,13.62,0,0,0-6.13-1.71,8.3,8.3,0,0,0-6.05,2.42,8.41,8.41,0,0,0,.06,11.94,8.77,8.77,0,0,0,6.3,2.4A11.57,11.57,0,0,0,160,55v3.36a12.31,12.31,0,0,1-6.07,1.55A11.57,11.57,0,0,1,142.36,48.4,11.41,11.41,0,0,1,153.75,37,15.57,15.57,0,0,1,160,38.45Z"/><path class="81d2ee50-eda7-43b3-89fe-bfd5863c9def" d="M163.37,37.71h2.82v8.74l8.75-8.74h3.93l-10,10,10,11.53h-3.59l-9.15-10.49V59.21h-2.82Z"/><path id="5f047b55-c4ca-4df1-8393-f66faacfdc06" data-name="28dcfeb6-3719-415a-ae10-6713c7456548" class="41de8d8d-33d1-45a1-b820-f6e5021bddd6" d="M20.51,34.93,24,40.44H41.46L38,34.93Zm7,11,1.69,2.64-1.82,2.9H45l1.75-2.76L45,46H27.55ZM23.92,57l-3.42,5.4v.11H38L41.47,57Z"/></svg>