<?xml version="1.0" encoding="utf-8"?>
<!-- Generator: Adobe Illustrator 21.1.0, SVG Export Plug-In . SVG Version: 6.00 Build 0)  -->
<svg version="1.1"
	 id="svg3355" xmlns:cc="http://creativecommons.org/ns#" xmlns:dc="http://purl.org/dc/elements/1.1/" xmlns:rdf="http://www.w3.org/1999/02/22-rdf-syntax-ns#" xmlns:svg="http://www.w3.org/2000/svg"
	 xmlns="http://www.w3.org/2000/svg" xmlns:xlink="http://www.w3.org/1999/xlink" x="0px" y="0px" viewBox="0 0 35.4 35.4"
	 style="enable-background:new 0 0 35.4 35.4;" xml:space="preserve">
<style type="text/css">
	.st0{clip-path:url(#SVGID_2_);}
	.st1{fill:#BCD918;}
	.st2{fill:#04BDD9;}
</style>
<g id="g3363" transform="matrix(1.25,0,0,-1.25,-106.30163,194.88287)">
	<g id="g3367">
		<g>
			<defs>
				<rect id="SVGID_1_" x="-35.4" y="-35.4" width="354.3" height="354.3"/>
			</defs>
			<clipPath id="SVGID_2_">
				<use xlink:href="#SVGID_1_"  style="overflow:visible;"/>
			</clipPath>
			<g id="g3369" class="st0">
				<g id="g3375" transform="translate(85.4512,155.9063)">
					<path id="path3377" class="st1" d="M0,0h2.3c0.2,0,0.4-0.2,0.4-0.4v-2.3c0-0.2-0.2-0.4-0.4-0.4H0c-0.2,0-0.4,0.2-0.4,0.4v2.3
						C-0.4-0.2-0.2,0,0,0"/>
				</g>
				<g id="g3379" transform="translate(91.748,155.9063)">
					<path id="path3381" class="st2" d="M0,0h21.2c0.2,0,0.4-0.2,0.4-0.4v-2.3c0-0.2-0.2-0.4-0.4-0.4H0c-0.2,0-0.4,0.2-0.4,0.4v2.3
						C-0.4-0.2-0.2,0,0,0"/>
				</g>
				<g id="g3383" transform="translate(112.9785,149.6094)">
					<path id="path3385" class="st1" d="M0,0h-2.3c-0.2,0-0.4-0.2-0.4-0.4v-2.3c0-0.2,0.2-0.4,0.4-0.4H0c0.2,0,0.4,0.2,0.4,0.4v2.3
						C0.4-0.2,0.2,0,0,0"/>
				</g>
				<g id="g3387" transform="translate(100.3857,149.6094)">
					<path id="path3389" class="st2" d="M0,0h-14.9c-0.2,0-0.4-0.2-0.4-0.4v-2.3c0-0.2,0.2-0.4,0.4-0.4H0c0.2,0,0.4,0.2,0.4,0.4v2.3
						C0.4-0.2,0.2,0,0,0"/>
				</g>
				<g id="g3391" transform="translate(106.6826,149.6094)">
					<path id="path3393" class="st1" d="M0,0h-2.3c-0.2,0-0.4-0.2-0.4-0.4v-2.3c0-0.2,0.2-0.4,0.4-0.4H0c0.2,0,0.4,0.2,0.4,0.4v2.3
						C0.4-0.2,0.2,0,0,0"/>
				</g>
				<g id="g3395" transform="translate(106.6826,143.3125)">
					<path id="path3397" class="st2" d="M0,0h-14.9c-0.2,0-0.4-0.2-0.4-0.4v-2.3c0-0.2,0.2-0.4,0.4-0.4H0c0.2,0,0.4,0.2,0.4,0.4v2.3
						C0.4-0.2,0.2,0,0,0"/>
				</g>
				<g id="g3399" transform="translate(112.9785,143.3125)">
					<path id="path3401" class="st1" d="M0,0h-2.3c-0.2,0-0.4-0.2-0.4-0.4v-2.3c0-0.2,0.2-0.4,0.4-0.4H0c0.2,0,0.4,0.2,0.4,0.4v2.3
						C0.4-0.2,0.2,0,0,0"/>
				</g>
				<g id="g3403" transform="translate(87.7803,143.3125)">
					<path id="path3405" class="st1" d="M0,0h-2.3c-0.2,0-0.4-0.2-0.4-0.4v-2.3c0-0.2,0.2-0.4,0.4-0.4H0c0.2,0,0.4,0.2,0.4,0.4v2.3
						C0.4-0.2,0.2,0,0,0"/>
				</g>
				<g id="g3407" transform="translate(85.4512,137.0156)">
					<path id="path3409" class="st1" d="M0,0h2.3c0.2,0,0.4-0.2,0.4-0.4v-2.3c0-0.2-0.2-0.4-0.4-0.4H0c-0.2,0-0.4,0.2-0.4,0.4v2.3
						C-0.4-0.2-0.2,0,0,0"/>
				</g>
				<g id="g3411" transform="translate(98.0439,137.0156)">
					<path id="path3413" class="st2" d="M0,0h14.9c0.2,0,0.4-0.2,0.4-0.4v-2.3c0-0.2-0.2-0.4-0.4-0.4H0c-0.2,0-0.4,0.2-0.4,0.4v2.3
						C-0.4-0.2-0.2,0,0,0"/>
				</g>
				<g id="g3415" transform="translate(91.7471,137.0156)">
					<path id="path3417" class="st1" d="M0,0h2.3c0.2,0,0.4-0.2,0.4-0.4v-2.3c0-0.2-0.2-0.4-0.4-0.4H0c-0.2,0-0.4,0.2-0.4,0.4v2.3
						C-0.4-0.2-0.2,0,0,0"/>
				</g>
				<g id="g3419" transform="translate(112.9785,130.707)">
					<path id="path3421" class="st1" d="M0,0h-2.3c-0.2,0-0.4-0.2-0.4-0.4v-2.3c0-0.2,0.2-0.4,0.4-0.4H0c0.2,0,0.4,0.2,0.4,0.4v2.3
						C0.4-0.2,0.2,0,0,0"/>
				</g>
				<g id="g3423" transform="translate(106.6816,130.707)">
					<path id="path3425" class="st2" d="M0,0h-21.2c-0.2,0-0.4-0.2-0.4-0.4v-2.3c0-0.2,0.2-0.4,0.4-0.4H0c0.2,0,0.4,0.2,0.4,0.4v2.3
						C0.4-0.2,0.2,0,0,0"/>
				</g>
			</g>
		</g>
	</g>
</g>
</svg>
