<?xml version="1.0" encoding="utf-8"?>
<!-- Generator: Adobe Illustrator 21.1.0, SVG Export Plug-In . SVG Version: 6.00 Build 0)  -->
<svg version="1.1" id="Layer_1" xmlns="http://www.w3.org/2000/svg" xmlns:xlink="http://www.w3.org/1999/xlink" x="0px" y="0px"
	 viewBox="0 0 380 400" style="enable-background:new 0 0 380 400;" xml:space="preserve">
<style type="text/css">
	.st0{fill:#3898C5;}
	.st1{fill:#59B5D9;}
	.st2{fill:#B9D530;}
	.st3{fill:#7DB940;}
	.st4{fill:#ADCD35;}
	.st5{fill:#AECE36;}
	.st6{fill:#ADCD36;}
	.st7{fill:#9FCB40;}
	.st8{fill:#A0CB41;}
	.st9{fill:#A2CD47;}
	.st10{fill:#9FCB42;}
	.st11{fill:#9CC938;}
	.st12{fill:#B4D134;}
	.st13{fill:#A2CC46;}
	.st14{fill:#A1CB44;}
	.st15{fill:#B6D23A;}
	.st16{fill:#A5CE4D;}
	.st17{fill:#B1D138;}
	.st18{fill:#B2D238;}
	.st19{fill:#B2D137;}
	.st20{fill:#FEFEFE;}
	.st21{fill:#FDFEFE;}
	.st22{fill:#7EBA40;}
	.st23{fill:#7DBA40;}
	.st24{fill:#7EBA3F;}
	.st25{fill:#B6D238;}
	.st26{fill:#3A99C6;}
</style>
<g>
	<path class="st0" d="M145,1c4.4,4.6,10.4,6.4,15.7,9.3c38.5,20.8,77.1,41.4,115.8,61.8c4.9,2.6,7,5.4,6.3,10.8
		c-0.4,3.4-0.2,7,0,10.5c0.2,2.9-0.9,3.8-3.8,3.7c-6-0.2-12,0.2-18-0.1c-3.9-0.2-4.8,1.3-4.7,4.9c0.2,15.3,0,30.7,0.1,46
		c0,3.4-0.8,4.9-4.5,5.5c-5.7,1-11.4,2.5-16.7,5.1c-3.4,1.7-4.5,1.2-4.5-2.9c0.2-17.7-0.1-35.3,0.2-53c0.1-4.3-1-5.7-5.5-5.7
		c-54.3,0.2-108.6,0.2-163,0c-4.7,0-5.4,1.5-5.4,5.7c0.1,46.2,0,92.3,0.2,138.5c0,4.6-1.2,6.2-5.8,5.8c-4-0.4-8-0.4-12,0
		c-4.9,0.5-5.8-1.5-5.7-5.9c0.3-11.3,0.1-22.7,0.1-34c0-34.7-0.1-69.3,0.1-104c0-4.9-1.5-6.3-6.2-6c-6.3,0.4-12.7,0-19,0.1
		C6,97.2,5.2,96.2,5,93.4C4.2,75.8,4.3,76.1,19.8,67.9C57.7,47.9,95.4,27.8,133.1,7.6c3.7-2,8.1-3.1,10.9-6.6C144.3,1,144.7,1,145,1
		z"/>
	<path class="st1" d="M304,361c-2,0.4-13.5,1.4-11.5-1.3c-1.1-1.8-1-3.8-1-5.8c0-20.6,0-41.1,0-61.7c2.7-2.9,9-4.1,12.5-1.1
		c5,4.4,10.6,5,17.1,4.4c-1.8-2.3-4-4.2-6-6.2c-2.7-2.6-3-5.2-0.9-8.4c4-6.3,5.2-13.2,3.9-20.6c-1.9-10.8-9-17.2-20.1-18
		c-2.2-0.2-4.8,0.6-6.2-2c0.2-11.1-0.7-22.3,0.5-33.4c18.2-0.4,36.2-1.4,53.7-6.9c10.3-3.3,20.6-6.9,27.4-16.3
		c1.6,1.2,0.8,2.8,0.8,4.1c0,47.6,0,95.3,0.1,142.9c0,6-2.6,10-7.2,13.4c-11.1,8.1-24,11.2-37,13.7c-5.9,1.1-11.8,1.6-17.8,2.4"/>
	<path class="st0" d="M293,361.1c-2.6,0.6-13.3-0.1-15-0.1c-7.2-0.8-9.1-0.4-22.2-3.9c-9.7-2.4-19.3-4.8-28.1-9.7
		c-4.4-2.4-8.3-5.5-11.3-9.5c-1.6-1.9-1.8-4.1-1.8-6.5c0-48.1,0-96.2,0-144.3c0-3.8,0-3.8,2.4-3c1.7,3.8,4.9,6.2,8.3,8.2
		c12.8,7.5,26.9,10.7,41.5,12.7c8.4,1.2,16.8,1.2,25.2,1.9c2.1,6.3,0.8,12.8,0.9,19.2c0.1,4.9,1.2,9.9-0.9,14.7
		c-0.9,1.8-2.9,2.1-4.5,2.9c-9.9,4.5-15.1,15.1-13.6,25.8c1.3,9.6,6,16,15,19.2c1.2,0.4,2.5,0.9,3.1,2.3c1.1,1.6,1,3.4,1,5.3
		C293,317.6,293,339.9,293,361.1"/>
	<path class="st2" d="M245.9,188.1c-3.5-0.2-6.3-2.1-9.1-3.9c-7.7-5-7.5-11.7,0.5-16.2c8.3-4.8,17.5-7.2,26.9-8.7
		c17-2.7,34.1-3,51.3-1.2c12.3,1.3,24.4,3.2,35.4,9.3c3.6,2,7,4.4,7,8.9c0.1,4.4-3.3,6.7-6.7,8.5c-2.3,1.2-4.4,3-7.3,3.1
		c-5.1,0.3-9.8-1.9-14.6-2.8c-18.4-3.7-36.9-4-55.5-2.1C264.3,183.9,255.2,186.8,245.9,188.1z"/>
	<path class="st3" d="M245.9,188.1c6.3-4,13.8-4.7,20.8-5.7c10.8-1.5,21.7-2.9,32.6-2.2c15.1,1,30.4,1.6,44.6,7.7
		c-11.6,4.5-23.8,6.2-36.1,6.9c-19.4,1.1-38.6,0.2-57.4-4.9C248.8,189.4,247.1,189.3,245.9,188.1z"/>
	<path class="st4" d="M101,167c0.2,10,0.6,20-0.2,30c-3.5,1.2-4.7,0.1-4.5-3.7c0.3-6.6,1.3-13.2-0.5-19.7
		c-6.9,5.5-11.5,13.1-18.2,18.7c-2.3,4.4-5.7,6.3-10.7,4.7l0,0c-1-3.9-0.7-7.4,3.1-9.8c6.4-5.7,12.1-11.9,18.9-18.5
		c-7.5-1.1-14,0-20.4-0.8c-2.1-0.6-2.2-2.3-1.9-3.9c0.4-2.1,2.3-1.5,3.6-1.5c7.6-0.1,15.1,0,22.7,0c0.8,0,2-0.2,2.1,0.6
		C95.3,167.2,98.4,166.6,101,167z"/>
	<path class="st4" d="M101,215c0.1,8.9,0,17.8,0.3,26.6c0.1,3.5-1.5,3.9-4.2,3.3c-1-1-1.3-2.3-1.3-3.6c0-6.4,0-12.8,0-19.6
		c-6.5,5.8-10.9,12.9-17.4,18c-1.3,0.9-2.2,2.5-4,2.8c-2.7,0.1-4.9-2-7.7-1.7c-0.3-3,2-4.2,3.8-5.7c6-5.9,12.3-11.4,17.7-18.7
		c-6.6-0.3-12.6,0-18.6-0.2c-1.2-0.3-2.6-0.4-2.7-2.1c1.7-2.8,4.2-3.8,7.5-3.6c4.1,0.3,8.2-0.1,12.4,0.1c3.6,0.2,7.9-1.5,10.2,3.3
		C97.4,215.1,99.6,214.3,101,215z"/>
	<path class="st5" d="M201,244.7c-1.3,0.1-2.7,0.1-4,0.2c-1-1-1.2-2.3-1.1-3.6c1.4-6.4,0.6-12.8,0.8-20.5c-6.1,5.7-9.9,11.9-15.7,16
		c-2.9,1.2-3.7,5.1-7.1,5.7c-2.2-0.3-4.5-0.5-6.2-2.3c-1-3.1,2.2-3.5,3.3-5.2c5.4-6.1,11.6-11.4,17.5-18.1
		c-6.7-1.3-12.9-0.2-19.1-0.7c-1.3-0.4-2.8-0.4-2.6-2.4c0.2-2.5,1.5-3.3,3.9-3.3c7.3,0.1,14.6,0,21.9,0.1c5.1,0.1,8.9,4,8.8,8.9
		C201.2,227.9,202.1,236.3,201,244.7z"/>
	<path class="st6" d="M149,244.9c-0.3,0-0.7,0-1,0c-1.8-1.9-1.2-4.3-1.3-6.6c-0.3-5.4,0.6-10.8-0.5-16.1
		c-6.4,5.8-12.4,12.1-18.4,18.3c-1.1,1.2-1.8,2.8-3.8,2.7c-1.9-1.2-4.2-1.9-5.3-4.1c-0.1-1.9,1.7-2.6,2.4-4
		c4.7-5.6,10.2-10.4,15.2-15.7c1.1-1.2,2.7-2,3-3.8c-4.6-0.8-9.1-0.1-13.7-0.4c-2.1-0.1-4.3,0.3-6-1.4c-0.8-2.4,0.2-3.4,2.6-3.4
		c7.1,0,14.3,0,21.4,0c1.9,0,7.8,6.2,7.8,8.1c0.1,6.6,0,13.3,0,19.9C151.5,241,150.6,243.1,149,244.9z"/>
	<path class="st7" d="M95,172c1.3-1.4,2.9-2.6,2.9,0.6c0.1,7,0.3,14-0.5,20.8c-0.4,3.6,0.9,3.6,3.3,3.5c-2.8,1.8-5.8,0.8-8.7,0.7
		c-8.4-0.2-16.9,1-25.2-0.6c5.2,1.1,7.9-2.1,10.1-6.1c4.9,1,9.9,0.4,14.9,0.5c2.5,0.1,3.7-1.2,3.6-3.6C95.4,182.6,96,177.3,95,172z"
		/>
	<path class="st8" d="M151.4,197c-2.4,1.7-5.1,0.8-7.6,0.7c-9-0.2-18,1-27-0.6c0.2-0.2,0.3-0.4,0.5-0.6c4.3,0,6.6-4.2,10.5-5
		c4.5,0,8.9,0,13.4,0.1c2.9,0,4.2-1.3,4.2-4.2c0-5.1,0-10.3-0.1-15.4c0.3-1,0.8-2,1.9-1.9c1.7,0.2,1.7,1.9,1.8,3.1
		c0.4,6,0.2,11.9,0.1,17.9c0,1.3-0.4,2.6,0.1,3.9C150.1,195.7,150.9,196.2,151.4,197z"/>
	<path class="st9" d="M95,163c-8.3,0-16.5,0-24.8,0c-1.3,0-2.8-0.2-3.1,1.7c-0.3,2.2,1.3,2.3,2.9,2.3c2.9,6.9,1.3,14,1,21
		c-3.7,2-4.5,5.2-4.1,9.1c-1.8-2.6-0.6-5.5-0.6-8.2c-0.2-7.7-0.1-15.3-0.2-23c0-2.5,0.3-4.1,3.4-4c9.2,0.2,18.3,0.2,27.5,0.3
		C96.8,163.6,96,163.7,95,163z"/>
	<path class="st10" d="M122,236c-0.4,1.6-2.2,1.8-3,3c-0.3,1.3-1.1,2-2.5,1.9c-0.2-10-1.1-20,0.4-30c1.2,0.9,1.6,2.5,3,3.1
		c6.4,0,12.9-0.1,19.3,0.1c0.9,0,3.8-1.6,2.7,1.9c-5.2,0.7-10.5,0.4-15.7,0.5c-3.3,0-4.9,1.5-4.8,4.8C121.6,226.1,121,231.1,122,236
		z"/>
	<path class="st11" d="M146,220c2.2-2.7,2-0.6,2,1c0,8,0,15.9,0,23.9c-8.3,0-16.7,0-25,0c-0.5-1,0.1-1.6,1-1.9c1-1,2-2,3-3
		c4.6-0.9,9.3-0.4,13.9-0.4c3.4,0,4.7-1.4,4.7-4.8C145.5,229.9,145.3,224.9,146,220z"/>
	<path class="st12" d="M120,214c-4.1,2-2.7-1.5-3-3.1c7.7-1.7,15.5-0.5,23.2-0.7c11.8-0.2,11.8-0.1,11.8,11.6c0,6.7,0,13.3,0,20
		c0,2.1-0.2,3.7-3,3.1c3-7.9,1.8-16.1,2-24.3c0.1-2.1,0.5-4.1-2.9-4.5c-1-0.1-5.3-0.5-3.1-4.4c0.5-0.8-1.5-0.8-2.3-0.8
		c-6.5,0-12.9,0-19.4,0C121.2,210.9,119.8,211.5,120,214z"/>
	<path class="st12" d="M151.4,197c-0.8,0-1.6-0.1-2.5-0.1c-1.1-3.4,1.1-6.6,0.7-10c-0.4-3.8-0.1-7.6-0.1-11.4c0.1-3.2-1-4.9-3.6-7.4
		c-4.1-4-8.1-3.7-12.6-3.6c-4.5,0.2-9.3-1.2-13.5,1.8c-0.8,0.6-1.9,0.5-2.8,0c-0.8-1.3-0.8-2.6-0.1-3.9c10.8-0.9,21.6-0.1,32.3-0.4
		c1.9-0.1,2.7,0.9,2.6,2.8C151.6,175.5,152.6,186.3,151.4,197z"/>
	<path class="st10" d="M117,162.4c0,1.2,0.1,2.4,0.1,3.6c1.2,1.2,3.3-0.4,4.3,1.4c0.6,6.6-0.9,13.4,0.8,19.9
		c-0.5,3.8-4.2,5.9-5.1,9.6c0,0-0.2,0.2-0.2,0.2c-1.6-7.7-0.5-15.4-0.6-23.1C116.2,170.1,115.1,166.1,117,162.4z"/>
	<path class="st13" d="M71,236c-1.4,1.6-4,2.2-3.9,4.9c1.2,1.3,1,2.6-0.1,3.9c-1.2-0.5-0.9-1.6-0.9-2.6c0-9.6,0-19.2,0-28.8
		c0-1-0.1-2,0.9-2.7c1,1,0.9,2.1,0.1,3.2c0.7,1.2,1.9,0.9,3,1C72.9,221.9,71.3,229,71,236z"/>
	<path class="st14" d="M172,236c-0.9,1.7-3.9,1.4-4,4c-0.1,1-0.4,1.9-1.6,1.9c-0.4-9.3-0.4-18.6,0-27.9c0.2,0,0.4,0,0.7,0
		c0.7,1.1,1.9,0.9,3,1c1.9,2.3,1.4,5,1.5,7.6C171.6,227.1,171.2,231.6,172,236z"/>
	<path class="st11" d="M174,242c2.5-1.5,3.1-4.9,6-6c0,3.1,1.6,3.7,4.5,3.7c4.1,0.1,8.5-1.3,12.4,1.2c0,1.3,0,2.6,0,3.9
		c-8,0-16,0-24,0C172,243.5,172.7,242.6,174,242z"/>
	<path class="st15" d="M167,214c-0.2,0-0.4,0-0.7,0c-0.8-2.9,0.5-3.9,3.3-3.9c9.6,0.1,19.2,0.1,28.8,0c2.2,0,3.4,0.7,3.4,3.1
		c-0.1,10.1,0,20.2-0.1,30.3c0,0.4-0.5,0.8-0.7,1.2c0-8.8,0-17.6,0-26.4c0-1.7,0.8-4.2-2.6-2.8c-0.6-1.6-4.2-0.3-3.3-3.7
		c0.4-1.4-1.4-0.8-2.2-0.9c-7.1-0.1-14.3,0.2-21.4-0.1C168.8,210.8,168.2,212.5,167,214z"/>
	<path class="st16" d="M129.1,114.9c1.5,10.7,0.3,21.5,0.6,32.3c0,1.6-0.9,2.5-2.5,2.5c-10.8-0.4-21.5,0.9-32.3-0.6
		c0.2-0.2,0.4-0.4,0.6-0.7c4.9-2.4,10.1-1.7,15.2-1.8c3.8-0.1,7.7-0.1,11.5,0c3.8,0.2,5.4-1.3,5.3-5.3c-0.2-7.2-0.2-14.3,0-21.5
		c0-1.5,0.1-3,0.8-4.3C128.6,115.3,128.9,115.1,129.1,114.9z"/>
	<path class="st11" d="M97,241c0,1.3,0,2.6,0,3.9c-8.3,0-16.6,0-25,0c-0.5-1.8,0.6-2.5,2-2.9c1-1,2-2,3-3c4.4,0.8,8.9,0.4,13.3,0.5
		C92.7,239.6,95.1,239.3,97,241z"/>
	<path class="st12" d="M67,214c0-1.1-0.1-2.1-0.1-3.2c10.7-1.5,21.5-0.5,32.3-0.5c3.2,0,1.7,2.9,1.8,4.7c-3.7,2.1-6.3,1.1-6.8-2.8
		c-0.2-1.7-1.3-1.1-2.1-1.1c-6.3-0.1-12.6,0.3-18.9-0.2C70.1,210.7,70,214.8,67,214z"/>
	<path class="st16" d="M94.9,149.1c-2-2.9-0.7-6.1-0.8-9.1c-0.2-7.3-0.1-14.6-0.1-21.9c0-2.1-0.1-4,3-3.9
		c10.3,0.1,20.6,0.1,30.9,0.1c0.4,0,0.8,0.5,1.2,0.7c0,0-0.2,0.2-0.2,0.2c-1.5,1.3-3.3,1.3-5.1,1.3c-7.4,0.1-14.8,0-22.2,0.1
		c-2.1,0-4.9-0.6-5.1,3c-0.1,8,0.1,16-0.1,24c0.1,1.9,0.1,3.8-1.3,5.3L94.9,149.1z"/>
	<path class="st12" d="M95,163c0.7-0.3,1.3-0.6,2-0.8c4.7-1.2,4.5,1.7,4,4.8c-2.4,3.1-4.9,0.6-6.9-0.4C92,165.5,94.9,164.3,95,163z"
		/>
	<path class="st17" d="M124,243c-0.3,0.6-0.7,1.3-1,1.9c-2.6-0.7-7.9,3-6.5-4.1c0.8-0.6,1.7-1.2,2.5-1.9
		C120.4,240.7,123.5,240.3,124,243z"/>
	<path class="st18" d="M174,242c-0.3,1-0.7,1.9-1,2.9c-2.2-1-6.8,3.2-6.6-3.1c0.5-0.6,1.1-1.3,1.6-1.9
		C170,240.7,172.3,240.5,174,242z"/>
	<path class="st19" d="M74,242c-0.7,1-1.3,1.9-2,2.9c-1.7,0-3.4,0-5-0.1c0-1.3,0-2.6,0.1-3.9C69.8,238.7,71.8,241.2,74,242z"/>
	<path class="st20" d="M292,291.1c-13.7-4.1-19.5-11.4-19.8-24.5c-0.3-12.9,5.9-21,19.8-25.7c6.7-0.2,13.3,0.1,18.9,4.6
		c9.8,7.8,12.1,24.1,4.4,35.8c-2.2,3.4-2.1,5.3,0.9,7.7c2.7,2.1,5,4.8,8.4,8.1c-8-0.3-14.9,2.1-20.7-4.7
		C301,289,296,291.8,292,291.1z"/>
	<path class="st21" d="M339.1,260.9c0,5.5,0.1,11,0,16.4c-0.1,2.8,1,3.8,3.8,3.7c3.3-0.2,6.7,0.2,10-0.1c3.7-0.3,4.4,1.4,4.4,4.7
		c0,3.5-1.1,4.7-4.6,4.5c-7-0.2-14-0.2-20.9,0c-2.8,0.1-3.8-0.9-3.8-3.7c0.1-14,0.1-27.9,0-41.9c0-4.2,2.7-3.6,5-3.3
		c2.4,0.2,6.2-1.8,6.1,3.2C339.1,249.9,339.1,255.4,339.1,260.9z"/>
	<path class="st20" d="M235.2,278.2c4.5,2.4,9,4.4,14.2,3.8c2.7-0.3,5.5-0.7,6.2-3.9c0.7-3-1.5-4.7-3.6-5.9
		c-3.2-1.8-6.6-3.2-9.8-4.9c-6.4-3.4-9.3-9-8.1-15c1.2-6.3,6.5-10.7,13.5-11.3c3.5-0.3,7-0.2,10.5,0c6.6,0.3,7,0.9,6.9,7.3
		c0,1.1-0.2,2.3-0.3,3.6c-4.2-0.9-8.1-2.8-12.3-2.5c-2.7,0.2-5.6,0.6-6.5,3.6c-0.9,3.2,1.9,4.7,4.1,6.1c3.5,2.2,7.7,3,11.1,5.5
		c5.1,3.8,7.6,9.2,6.4,14.6c-1.5,6.4-5.8,9.6-12.1,11c-5.7,1.3-11.2,0.4-16.8-0.2c-2.6-0.3-4.4-1.5-4.1-4.5
		C234.9,283,234.2,280.7,235.2,278.2z"/>
	<path class="st22" d="M71,188c-2.2-5.1-0.5-10.4-1-15.6c-0.2-1.8,0-3.6,0-5.5c5.8,0,11.6,0,17.4,0c1.1,0,2.5-0.5,3.1,0.9
		c0.4,1.1-0.7,1.8-1.4,2.4C83.1,176.3,77,182.1,71,188z"/>
	<path class="st23" d="M95,172c0.9,0.1,1.8,0.4,1.8,1.4c0.1,5.8,0.1,11.6,0.1,17.4c0,1.4-0.8,2.2-2.2,2.2c-5.5,0-10.9,0-16.4-0.1
		c-0.9,0-1.2-1-1.4-1.8C83.8,185.5,88.9,178.2,95,172z"/>
	<path class="st23" d="M71,236c-2.2-4.9-0.5-10.1-1-15.1c-0.2-2,0-4,0-6c6.7,0,13.4,0,20.9,0C84.8,223.3,78,229.8,71,236z"/>
	<path class="st23" d="M97,241c-5.4,0-10.8,0-16.2,0c-1.5,0-3.5,0.5-3.8-2c7.3-5.5,12-13.7,20-20C97,226.9,97,233.9,97,241z"/>
	<path class="st24" d="M197,241c-6.3,0-12.7,0-19.1,0c-0.2-2.3,2.4-3,2.1-5c5.5-4.1,9.3-9.8,14.1-14.6c0.8-0.8,1.5-2.2,2.8-1.7
		c1.3,0.5,1.2,1.9,1.1,3C197.5,228.9,199,235,197,241z"/>
	<path class="st23" d="M172,236c-2.4-0.3-2-2.2-2-3.8c0-5.7,0-11.5,0-17.2c5.9,0,11.9,0,17.8,0c0.9,0,2.1-0.4,2.6,0.8
		c0.5,1.1-0.6,1.8-1.2,2.4C183.5,224.2,177.7,230.1,172,236z"/>
	<path class="st23" d="M122,236c-1.8-0.2-2-1.4-2-2.8c0-4.8,0-9.6,0-14.3c0-1.8,0.4-3.7,2.5-3.6c6.5,0.2,13.1-1.4,19.5,0.8
		C134.9,222.3,128.3,229,122,236z"/>
	<path class="st22" d="M146,220c2.2,6.2,0.5,12.7,0.9,19c0.1,1.1-0.7,2-1.9,1.9c-6-0.3-12.1,1.2-18.1-0.9
		C133.3,233.3,139.7,226.6,146,220z"/>
	<path class="st4" d="M117.1,196.9c-1.2-4.5,2-6.6,4.9-8.9c-0.5-2.6,1.6-3.8,3-5.3c5-5.2,10.2-10.2,14.8-14.9
		c-6.1,0.3-12.5,1.7-18.9-0.8c-1.3-0.2-2.9,0.5-3.9-1c8.2-5.6,17.4-2,26.1-3c0.7-0.1,2.2-0.1,1.9,0.8c-1.7,4.9,2.2,4.1,4.4,4.1
		c2.4-0.1,1.4,1.4,1.4,2.2c0.1,6.8-0.2,13.6,0.1,20.4c0.1,2.6-2.6,3.9-2.1,6.4c-1.5-0.1-2.1-0.8-1.7-2.3c1.6-7.2,0.3-14.5,0.7-21.7
		c0.1-1.6,0.2-3.8-2-1c0,0.7,0,1.4-0.4,1.9c-5.7,6.5-11.4,13.1-18.6,18.1C124.6,195.5,121.8,198.1,117.1,196.9z"/>
	<path class="st22" d="M127,192c6.3-6.7,12.7-13.4,19-20c2.2,6.3,0.5,12.7,0.9,19c0.1,1.1-0.7,2-1.9,1.9
		C139,192.6,132.9,194.1,127,192z"/>
	<path class="st23" d="M121,167c6.7,0,13.4,0,21.2,0c-7.2,7.5-13.7,14.3-20.2,21c-0.9-0.1-1.8-0.5-1.8-1.4
		C120.3,180.1,119,173.5,121,167z"/>
	<path class="st5" d="M95.2,148.8c0-1.6-0.1-3.2-0.1-4.9c0.9-2.2,2.8-3.6,4.3-5.3c5.2-6.2,11.5-11.2,17.2-18
		c-6.7-0.9-12.8-0.2-18.8-0.5c-1.1-0.1-1.9-0.5-2.7-1.2c-0.4-2.9,0.7-4.1,3.8-4c8.4,0.2,16.7,0.1,25.1,0.1c0.3,2.9,2.3,3.8,4.9,4
		c0,8.3,0,16.6,0.1,25c0,2.6-0.5,4-3.5,4C115.4,148,105.2,147.6,95.2,148.8z"/>
	<path class="st25" d="M128.9,119.1c-2.3,2.5-4.2,0.2-5.7-0.8c-1.7-1.1,0.7-2,0.8-3.2c1.6,0,3.3,0,4.9,0
		C128.9,116.4,128.9,117.8,128.9,119.1z"/>
	<path class="st8" d="M100,140c-1.6,1.3-3.3,2.7-4.9,4c0-8.3,0-16.7,0-25c1,0,2,0,3,0c1.9,2.3,1.4,5,1.5,7.6
		C99.6,131.1,99.2,135.6,100,140z"/>
	<path class="st1" d="M290.9,251.9c10.4-5.2,18.3,3.2,17.5,15.4c-0.7,11.5-8.1,16.7-17.3,12.7C291.7,270.6,291.9,261.3,290.9,251.9z
		"/>
	<path class="st26" d="M290.9,251.9c1,0.2,2,0.6,2,1.8c0,8.1,0,16.3,0,24.4c0,1.2-0.9,1.7-1.9,1.9
		C281.5,273.9,281.5,258.4,290.9,251.9z"/>
	<path class="st24" d="M126,133.7c0.1,13.3,0.9,12.4-12.5,12.2c-2.9,0-7.2,1.6-8.3-1.1c-1.1-2.6,3.2-4.4,5-6.5
		c4-4.6,8.3-9,12.5-13.5c0.6-0.7,1.3-1.7,2.5-1.3c1.2,0.5,0.8,1.7,0.8,2.6C126,128.7,126,131.2,126,133.7z"/>
	<path class="st24" d="M100,140c-2.4-0.3-2-2.2-2-3.8c0-5.7,0-11.5,0-17.2c5.7,0,11.3-0.1,17,0c1.2,0,3-0.7,3.5,1
		c0.4,1.2-1,2-1.8,2.8C111.1,128.5,105.5,134.2,100,140z"/>
	<g>
		<path d="M11.9,391.2c0.3,0.6,0.7,1.1,1.3,1.5c0.5,0.4,1.1,0.7,1.8,0.8c0.7,0.2,1.4,0.3,2.2,0.3c0.5,0,1.1,0,1.6-0.1
			s1.1-0.2,1.6-0.5c0.5-0.2,0.9-0.6,1.3-1c0.3-0.4,0.5-1,0.5-1.6c0-0.7-0.2-1.3-0.7-1.7c-0.5-0.4-1-0.8-1.8-1.1
			c-0.7-0.3-1.6-0.5-2.5-0.8c-0.9-0.2-1.9-0.5-2.8-0.7c-1-0.2-1.9-0.5-2.9-0.9c-0.9-0.4-1.8-0.8-2.5-1.4c-0.7-0.6-1.3-1.3-1.8-2.1
			C7,381,6.8,380,6.8,378.8c0-1.3,0.3-2.5,0.9-3.5c0.6-1,1.3-1.8,2.2-2.5c0.9-0.7,2-1.1,3.1-1.5c1.2-0.3,2.3-0.5,3.5-0.5
			c1.4,0,2.7,0.2,3.9,0.5c1.3,0.3,2.4,0.8,3.3,1.5c1,0.7,1.8,1.6,2.3,2.6c0.6,1.1,0.9,2.3,0.9,3.9h-5.6c0-0.8-0.2-1.4-0.5-1.9
			c-0.3-0.5-0.7-0.9-1.1-1.2c-0.5-0.3-1-0.5-1.6-0.6c-0.6-0.1-1.2-0.2-2-0.2c-0.5,0-0.9,0-1.4,0.1c-0.5,0.1-0.9,0.3-1.3,0.5
			c-0.4,0.2-0.7,0.5-0.9,0.9c-0.2,0.4-0.4,0.8-0.4,1.4c0,0.5,0.1,0.9,0.3,1.2c0.2,0.3,0.6,0.6,1.2,0.9c0.6,0.3,1.4,0.5,2.4,0.8
			s2.3,0.6,4,1c0.5,0.1,1.2,0.3,2,0.5c0.9,0.3,1.7,0.7,2.6,1.2c0.9,0.6,1.6,1.3,2.2,2.2c0.6,0.9,0.9,2.1,0.9,3.6
			c0,1.2-0.2,2.3-0.7,3.3c-0.5,1-1.2,1.9-2.1,2.7s-2,1.3-3.4,1.7c-1.4,0.4-2.9,0.6-4.7,0.6c-1.4,0-2.8-0.2-4.2-0.5
			c-1.4-0.4-2.5-0.9-3.6-1.7c-1-0.8-1.9-1.7-2.5-2.9c-0.6-1.2-0.9-2.6-0.9-4.2h5.6C11.4,389.8,11.6,390.6,11.9,391.2z"/>
		<path d="M49.3,396.7c-1.7,1-3.8,1.5-6.3,1.5c-2,0-3.8-0.3-5.4-1s-2.9-1.7-4-2.9c-1.1-1.2-1.9-2.7-2.5-4.3s-0.9-3.4-0.9-5.3
			c0-2,0.3-3.8,0.9-5.4s1.4-3.1,2.5-4.4s2.4-2.2,4-2.9c1.6-0.7,3.4-1.1,5.4-1.1c2,0,3.8,0.4,5.4,1.1c1.6,0.7,2.9,1.7,4,2.9
			s1.9,2.7,2.5,4.4s0.9,3.5,0.9,5.4c0,1.9-0.3,3.7-0.9,5.3c-0.6,1.6-1.4,3.1-2.5,4.3l3.3,3L53,400L49.3,396.7z M48.5,390.7
			c0.5-0.7,0.9-1.5,1.2-2.5s0.4-2.2,0.4-3.5c0-1.1-0.1-2.3-0.4-3.3c-0.3-1.1-0.7-2-1.2-2.9c-0.6-0.8-1.3-1.5-2.2-2
			c-0.9-0.5-2-0.8-3.3-0.8c-1.3,0-2.4,0.2-3.3,0.7c-0.9,0.5-1.6,1.2-2.2,2c-0.6,0.8-1,1.8-1.2,2.9c-0.3,1.1-0.4,2.2-0.4,3.3
			c0,1.1,0.1,2.2,0.4,3.2c0.3,1,0.7,2,1.2,2.8c0.6,0.8,1.3,1.5,2.2,2c0.9,0.5,2,0.7,3.3,0.7c0.6,0,1.1,0,1.4-0.1
			c0.3,0,0.6-0.1,0.9-0.3l-2.5-2.2l2.7-2.9L48.5,390.7z"/>
		<path d="M65.5,371.5v21.3h12.7v4.8H59.7v-26.1H65.5z"/>
		<path d="M102.9,371.5c1.7,0,3.2,0.3,4.7,0.8c1.5,0.5,2.7,1.3,3.8,2.4s1.9,2.4,2.5,4s0.9,3.5,0.9,5.7c0,1.9-0.2,3.7-0.7,5.3
			c-0.5,1.6-1.2,3-2.2,4.2s-2.2,2.1-3.7,2.8c-1.5,0.7-3.2,1-5.2,1H91.6v-26.1H102.9z M102.5,392.8c0.8,0,1.6-0.1,2.4-0.4
			c0.8-0.3,1.5-0.7,2.1-1.3c0.6-0.6,1.1-1.4,1.5-2.4c0.4-1,0.5-2.2,0.5-3.7c0-1.3-0.1-2.5-0.4-3.6c-0.3-1.1-0.7-2-1.3-2.7
			s-1.4-1.3-2.3-1.7c-1-0.4-2.2-0.6-3.6-0.6h-4.1v16.5H102.5z"/>
		<path d="M118.9,381.5c0.5-0.8,1.2-1.5,2-1.9s1.8-0.8,2.8-1c1-0.2,2.1-0.3,3.1-0.3c1,0,1.9,0.1,2.9,0.2c1,0.1,1.9,0.4,2.7,0.8
			c0.8,0.4,1.5,0.9,2,1.6s0.8,1.6,0.8,2.8v9.8c0,0.9,0,1.7,0.1,2.5c0.1,0.8,0.3,1.4,0.5,1.8h-5.3c-0.1-0.3-0.2-0.6-0.2-0.9
			c-0.1-0.3-0.1-0.6-0.1-0.9c-0.8,0.9-1.8,1.5-2.9,1.8c-1.1,0.3-2.3,0.5-3.4,0.5c-0.9,0-1.7-0.1-2.5-0.3c-0.8-0.2-1.5-0.6-2-1
			c-0.6-0.5-1-1-1.4-1.8c-0.3-0.7-0.5-1.5-0.5-2.5c0-1.1,0.2-2,0.6-2.7c0.4-0.7,0.9-1.2,1.5-1.7c0.6-0.4,1.3-0.7,2-0.9
			c0.8-0.2,1.5-0.4,2.3-0.5c0.8-0.1,1.5-0.2,2.3-0.3c0.8-0.1,1.4-0.2,2-0.3s1-0.4,1.4-0.6c0.3-0.3,0.5-0.7,0.5-1.2
			c0-0.6-0.1-1-0.3-1.3c-0.2-0.3-0.4-0.6-0.7-0.8c-0.3-0.2-0.7-0.3-1.1-0.4c-0.4-0.1-0.8-0.1-1.3-0.1c-1,0-1.8,0.2-2.4,0.7
			c-0.6,0.4-0.9,1.2-1,2.2h-5.2C118,383.3,118.3,382.3,118.9,381.5z M129.1,388.8c-0.3,0.1-0.7,0.2-1.1,0.3
			c-0.4,0.1-0.8,0.1-1.2,0.2c-0.4,0-0.8,0.1-1.2,0.2c-0.4,0.1-0.8,0.2-1.2,0.3c-0.4,0.1-0.7,0.3-1,0.5c-0.3,0.2-0.5,0.5-0.7,0.8
			c-0.2,0.3-0.3,0.7-0.3,1.2c0,0.5,0.1,0.9,0.3,1.2c0.2,0.3,0.4,0.6,0.7,0.8c0.3,0.2,0.6,0.3,1,0.4c0.4,0.1,0.8,0.1,1.2,0.1
			c1,0,1.8-0.2,2.4-0.5c0.6-0.3,1-0.8,1.2-1.2c0.3-0.5,0.4-1,0.5-1.4c0.1-0.5,0.1-0.9,0.1-1.2v-1.9
			C129.7,388.5,129.5,388.7,129.1,388.8z"/>
		<path d="M149.6,378.7v3.5h-3.8v9.4c0,0.9,0.1,1.5,0.4,1.8c0.3,0.3,0.9,0.4,1.8,0.4c0.3,0,0.6,0,0.8,0c0.3,0,0.5-0.1,0.8-0.1v4
			c-0.4,0.1-0.9,0.1-1.5,0.1c-0.5,0-1.1,0-1.6,0c-0.8,0-1.6-0.1-2.3-0.2c-0.7-0.1-1.4-0.3-1.9-0.6s-1-0.8-1.3-1.4
			c-0.3-0.6-0.5-1.4-0.5-2.3v-11.2h-3.1v-3.5h3.1V373h5.2v5.7H149.6z"/>
		<path d="M152.7,381.5c0.5-0.8,1.2-1.5,2-1.9s1.8-0.8,2.8-1c1-0.2,2.1-0.3,3.1-0.3c1,0,1.9,0.1,2.9,0.2c1,0.1,1.9,0.4,2.7,0.8
			c0.8,0.4,1.5,0.9,2,1.6s0.8,1.6,0.8,2.8v9.8c0,0.9,0,1.7,0.1,2.5c0.1,0.8,0.3,1.4,0.5,1.8h-5.3c-0.1-0.3-0.2-0.6-0.2-0.9
			c-0.1-0.3-0.1-0.6-0.1-0.9c-0.8,0.9-1.8,1.5-2.9,1.8c-1.1,0.3-2.3,0.5-3.4,0.5c-0.9,0-1.7-0.1-2.5-0.3c-0.8-0.2-1.5-0.6-2-1
			c-0.6-0.5-1-1-1.4-1.8c-0.3-0.7-0.5-1.5-0.5-2.5c0-1.1,0.2-2,0.6-2.7c0.4-0.7,0.9-1.2,1.5-1.7c0.6-0.4,1.3-0.7,2-0.9
			c0.8-0.2,1.5-0.4,2.3-0.5c0.8-0.1,1.5-0.2,2.3-0.3c0.8-0.1,1.4-0.2,2-0.3s1-0.4,1.4-0.6c0.3-0.3,0.5-0.7,0.5-1.2
			c0-0.6-0.1-1-0.3-1.3c-0.2-0.3-0.4-0.6-0.7-0.8c-0.3-0.2-0.7-0.3-1.1-0.4c-0.4-0.1-0.8-0.1-1.3-0.1c-1,0-1.8,0.2-2.4,0.7
			c-0.6,0.4-0.9,1.2-1,2.2h-5.2C151.9,383.3,152.2,382.3,152.7,381.5z M163,388.8c-0.3,0.1-0.7,0.2-1.1,0.3
			c-0.4,0.1-0.8,0.1-1.2,0.2c-0.4,0-0.8,0.1-1.2,0.2c-0.4,0.1-0.8,0.2-1.2,0.3c-0.4,0.1-0.7,0.3-1,0.5c-0.3,0.2-0.5,0.5-0.7,0.8
			c-0.2,0.3-0.3,0.7-0.3,1.2c0,0.5,0.1,0.9,0.3,1.2c0.2,0.3,0.4,0.6,0.7,0.8c0.3,0.2,0.6,0.3,1,0.4c0.4,0.1,0.8,0.1,1.2,0.1
			c1,0,1.8-0.2,2.4-0.5c0.6-0.3,1-0.8,1.2-1.2c0.3-0.5,0.4-1,0.5-1.4c0.1-0.5,0.1-0.9,0.1-1.2v-1.9
			C163.6,388.5,163.3,388.7,163,388.8z"/>
		<path d="M202.9,397.6l-4.4-17.8h-0.1l-4.4,17.8h-5.8l-6.9-26.1h5.7l4.1,17.8h0.1l4.5-17.8h5.4l4.5,18h0.1l4.3-18h5.6l-7,26.1
			H202.9z"/>
		<path d="M217.1,381.5c0.5-0.8,1.2-1.5,2-1.9s1.8-0.8,2.8-1c1-0.2,2.1-0.3,3.1-0.3c1,0,1.9,0.1,2.9,0.2c1,0.1,1.9,0.4,2.7,0.8
			s1.5,0.9,2,1.6s0.8,1.6,0.8,2.8v9.8c0,0.9,0,1.7,0.1,2.5c0.1,0.8,0.3,1.4,0.5,1.8h-5.3c-0.1-0.3-0.2-0.6-0.2-0.9
			c-0.1-0.3-0.1-0.6-0.1-0.9c-0.8,0.9-1.8,1.5-2.9,1.8c-1.1,0.3-2.3,0.5-3.4,0.5c-0.9,0-1.7-0.1-2.5-0.3c-0.8-0.2-1.5-0.6-2-1
			c-0.6-0.5-1-1-1.4-1.8c-0.3-0.7-0.5-1.5-0.5-2.5c0-1.1,0.2-2,0.6-2.7c0.4-0.7,0.9-1.2,1.5-1.7c0.6-0.4,1.3-0.7,2-0.9
			c0.8-0.2,1.5-0.4,2.3-0.5c0.8-0.1,1.5-0.2,2.3-0.3s1.4-0.2,2-0.3c0.6-0.1,1-0.4,1.4-0.6c0.3-0.3,0.5-0.7,0.5-1.2
			c0-0.6-0.1-1-0.3-1.3c-0.2-0.3-0.4-0.6-0.7-0.8c-0.3-0.2-0.7-0.3-1.1-0.4c-0.4-0.1-0.8-0.1-1.3-0.1c-1,0-1.8,0.2-2.4,0.7
			c-0.6,0.4-0.9,1.2-1,2.2h-5.2C216.3,383.3,216.6,382.3,217.1,381.5z M227.4,388.8c-0.3,0.1-0.7,0.2-1.1,0.3
			c-0.4,0.1-0.8,0.1-1.2,0.2s-0.8,0.1-1.2,0.2c-0.4,0.1-0.8,0.2-1.2,0.3c-0.4,0.1-0.7,0.3-1,0.5c-0.3,0.2-0.5,0.5-0.7,0.8
			c-0.2,0.3-0.3,0.7-0.3,1.2c0,0.5,0.1,0.9,0.3,1.2c0.2,0.3,0.4,0.6,0.7,0.8c0.3,0.2,0.6,0.3,1,0.4s0.8,0.1,1.2,0.1
			c1,0,1.8-0.2,2.4-0.5c0.6-0.3,1-0.8,1.2-1.2c0.3-0.5,0.4-1,0.5-1.4c0.1-0.5,0.1-0.9,0.1-1.2v-1.9
			C228,388.5,227.7,388.7,227.4,388.8z"/>
		<path d="M242.3,378.7v3.5h0.1c0.2-0.6,0.6-1.1,1-1.6c0.4-0.5,0.9-0.9,1.4-1.3s1.1-0.6,1.7-0.8c0.6-0.2,1.2-0.3,1.9-0.3
			c0.3,0,0.7,0.1,1.1,0.2v4.8c-0.2,0-0.5-0.1-0.9-0.1s-0.7-0.1-1-0.1c-1,0-1.8,0.2-2.4,0.5c-0.7,0.3-1.2,0.8-1.6,1.3
			s-0.7,1.2-0.9,1.9s-0.3,1.5-0.3,2.4v8.5h-5.2v-18.9H242.3z"/>
		<path d="M256.5,393.1c0.8,0.8,1.9,1.1,3.4,1.1c1,0,2-0.3,2.7-0.8c0.8-0.5,1.2-1.1,1.4-1.7h4.6c-0.7,2.3-1.9,3.9-3.4,4.9
			c-1.5,1-3.3,1.5-5.5,1.5c-1.5,0-2.8-0.2-4-0.7c-1.2-0.5-2.2-1.2-3-2c-0.8-0.9-1.5-1.9-1.9-3.1c-0.5-1.2-0.7-2.6-0.7-4
			c0-1.4,0.2-2.7,0.7-4s1.1-2.3,2-3.2c0.9-0.9,1.9-1.6,3.1-2.1s2.5-0.8,3.9-0.8c1.6,0,3,0.3,4.2,0.9c1.2,0.6,2.2,1.5,2.9,2.5
			c0.8,1,1.3,2.2,1.7,3.6c0.3,1.3,0.5,2.7,0.4,4.2h-13.6C255.3,391.1,255.8,392.3,256.5,393.1z M262.4,383.1c-0.6-0.7-1.6-1-2.8-1
			c-0.8,0-1.5,0.1-2.1,0.4s-1,0.6-1.3,1c-0.3,0.4-0.6,0.9-0.7,1.3c-0.1,0.5-0.2,0.9-0.2,1.2h8.5C263.5,384.8,263,383.8,262.4,383.1z
			"/>
		<path d="M277.2,371.5v9.8h0.1c0.7-1.1,1.5-1.9,2.5-2.4c1-0.5,2-0.8,3-0.8c1.4,0,2.5,0.2,3.4,0.6c0.9,0.4,1.6,0.9,2.1,1.6
			c0.5,0.7,0.9,1.5,1.1,2.5c0.2,1,0.3,2,0.3,3.2v11.6h-5.2v-10.7c0-1.6-0.2-2.7-0.7-3.5c-0.5-0.8-1.4-1.2-2.6-1.2
			c-1.4,0-2.4,0.4-3.1,1.3s-1,2.2-1,4.2v9.9H272v-26.1H277.2z"/>
		<path d="M293.8,384.1c0.5-1.2,1.1-2.3,2-3.1c0.9-0.9,1.9-1.5,3.1-2c1.2-0.5,2.5-0.7,4-0.7s2.8,0.2,4,0.7c1.2,0.5,2.2,1.1,3.1,2
			c0.9,0.9,1.5,1.9,2,3.1c0.5,1.2,0.7,2.6,0.7,4.1c0,1.5-0.2,2.9-0.7,4.1c-0.5,1.2-1.1,2.3-2,3.1c-0.9,0.9-1.9,1.5-3.1,2
			c-1.2,0.5-2.6,0.7-4,0.7s-2.8-0.2-4-0.7c-1.2-0.5-2.2-1.1-3.1-2c-0.9-0.9-1.5-1.9-2-3.1c-0.5-1.2-0.7-2.6-0.7-4.1
			C293.1,386.7,293.3,385.3,293.8,384.1z M298.5,390.4c0.1,0.7,0.4,1.4,0.8,1.9c0.4,0.6,0.8,1,1.4,1.4c0.6,0.3,1.3,0.5,2.2,0.5
			c0.9,0,1.6-0.2,2.2-0.5c0.6-0.3,1.1-0.8,1.4-1.4c0.4-0.6,0.6-1.2,0.8-1.9c0.1-0.7,0.2-1.5,0.2-2.2s-0.1-1.5-0.2-2.2
			c-0.1-0.7-0.4-1.4-0.8-1.9c-0.4-0.6-0.8-1-1.4-1.4c-0.6-0.4-1.3-0.5-2.2-0.5c-0.9,0-1.6,0.2-2.2,0.5c-0.6,0.4-1.1,0.8-1.4,1.4
			c-0.4,0.6-0.6,1.2-0.8,1.9c-0.1,0.7-0.2,1.5-0.2,2.2S298.4,389.7,298.5,390.4z"/>
		<path d="M328.8,397.6V395h-0.1c-0.7,1.1-1.5,1.9-2.6,2.4c-1,0.5-2.1,0.7-3.2,0.7c-1.4,0-2.5-0.2-3.4-0.5s-1.6-0.9-2.1-1.6
			c-0.5-0.7-0.9-1.5-1.1-2.5c-0.2-1-0.3-2-0.3-3.2v-11.6h5.2v10.7c0,1.6,0.2,2.7,0.7,3.5c0.5,0.8,1.4,1.2,2.6,1.2
			c1.4,0,2.4-0.4,3.1-1.3c0.6-0.8,1-2.2,1-4.2v-9.9h5.2v18.9H328.8z"/>
		<path d="M342.1,392.9c0.2,0.4,0.5,0.7,0.9,1c0.4,0.3,0.8,0.4,1.3,0.6s1,0.2,1.5,0.2c0.4,0,0.8,0,1.2-0.1c0.4-0.1,0.8-0.2,1.1-0.4
			c0.3-0.2,0.6-0.4,0.8-0.7c0.2-0.3,0.3-0.7,0.3-1.2c0-0.8-0.5-1.4-1.6-1.8s-2.5-0.8-4.3-1.2c-0.8-0.2-1.5-0.4-2.2-0.6
			c-0.7-0.2-1.4-0.5-1.9-0.9c-0.6-0.4-1-0.9-1.4-1.4s-0.5-1.3-0.5-2.1c0-1.2,0.2-2.2,0.7-3c0.5-0.8,1.1-1.4,1.9-1.8
			c0.8-0.5,1.7-0.8,2.6-1c1-0.2,2-0.3,3-0.3s2,0.1,3,0.3c1,0.2,1.8,0.5,2.6,1c0.8,0.5,1.4,1.1,1.9,1.8c0.5,0.8,0.8,1.7,0.9,2.9h-4.9
			c-0.1-1-0.5-1.7-1.1-2s-1.5-0.5-2.4-0.5c-0.3,0-0.6,0-1,0.1c-0.3,0-0.7,0.1-0.9,0.2c-0.3,0.1-0.5,0.3-0.7,0.5
			c-0.2,0.2-0.3,0.5-0.3,0.9c0,0.5,0.2,0.8,0.5,1.1c0.3,0.3,0.8,0.5,1.3,0.7s1.2,0.3,1.9,0.5c0.7,0.1,1.4,0.3,2.2,0.5
			c0.8,0.2,1.5,0.4,2.2,0.6c0.7,0.2,1.4,0.6,1.9,1s1,0.9,1.4,1.5s0.5,1.3,0.5,2.2c0,1.2-0.3,2.3-0.8,3.1c-0.5,0.8-1.2,1.5-2,2
			c-0.8,0.5-1.7,0.9-2.8,1.1c-1,0.2-2.1,0.3-3.2,0.3c-1.1,0-2.2-0.1-3.2-0.3c-1-0.2-2-0.6-2.8-1.1c-0.8-0.5-1.5-1.2-2-2
			s-0.8-1.9-0.9-3.2h4.9C341.8,392,341.9,392.5,342.1,392.9z"/>
		<path d="M362.9,393.1c0.8,0.8,1.9,1.1,3.4,1.1c1,0,2-0.3,2.7-0.8c0.8-0.5,1.2-1.1,1.4-1.7h4.6c-0.7,2.3-1.9,3.9-3.4,4.9
			c-1.5,1-3.3,1.5-5.5,1.5c-1.5,0-2.8-0.2-4-0.7c-1.2-0.5-2.2-1.2-3-2c-0.8-0.9-1.5-1.9-1.9-3.1s-0.7-2.6-0.7-4c0-1.4,0.2-2.7,0.7-4
			c0.5-1.2,1.1-2.3,2-3.2c0.9-0.9,1.9-1.6,3.1-2.1s2.5-0.8,3.9-0.8c1.6,0,3,0.3,4.2,0.9c1.2,0.6,2.2,1.5,2.9,2.5
			c0.8,1,1.3,2.2,1.7,3.6c0.3,1.3,0.5,2.7,0.4,4.2h-13.6C361.7,391.1,362.2,392.3,362.9,393.1z M368.8,383.1c-0.6-0.7-1.6-1-2.8-1
			c-0.8,0-1.5,0.1-2.1,0.4s-1,0.6-1.3,1s-0.6,0.9-0.7,1.3c-0.1,0.5-0.2,0.9-0.2,1.2h8.5C369.9,384.8,369.4,383.8,368.8,383.1z"/>
	</g>
</g>
</svg>
